%TF.GenerationSoftware,KiCad,Pcbnew,5.1.10-88a1d61d58~88~ubuntu20.04.1*%
%TF.CreationDate,2021-05-12T04:56:06+02:00*%
%TF.ProjectId,halfVoltageMosfetBoard,68616c66-566f-46c7-9461-67654d6f7366,rev?*%
%TF.SameCoordinates,Original*%
%TF.FileFunction,Legend,Top*%
%TF.FilePolarity,Positive*%
%FSLAX46Y46*%
G04 Gerber Fmt 4.6, Leading zero omitted, Abs format (unit mm)*
G04 Created by KiCad (PCBNEW 5.1.10-88a1d61d58~88~ubuntu20.04.1) date 2021-05-12 04:56:06*
%MOMM*%
%LPD*%
G01*
G04 APERTURE LIST*
%ADD10C,0.150000*%
%ADD11C,0.300000*%
%ADD12C,0.120000*%
G04 APERTURE END LIST*
D10*
X187226190Y-94577380D02*
X187226190Y-93577380D01*
X187559523Y-94291666D01*
X187892857Y-93577380D01*
X187892857Y-94577380D01*
X188369047Y-94482142D02*
X188416666Y-94529761D01*
X188369047Y-94577380D01*
X188321428Y-94529761D01*
X188369047Y-94482142D01*
X188369047Y-94577380D01*
X188797619Y-94291666D02*
X189273809Y-94291666D01*
X188702380Y-94577380D02*
X189035714Y-93577380D01*
X189369047Y-94577380D01*
X189702380Y-94482142D02*
X189750000Y-94529761D01*
X189702380Y-94577380D01*
X189654761Y-94529761D01*
X189702380Y-94482142D01*
X189702380Y-94577380D01*
X190892857Y-93672619D02*
X190940476Y-93625000D01*
X191035714Y-93577380D01*
X191273809Y-93577380D01*
X191369047Y-93625000D01*
X191416666Y-93672619D01*
X191464285Y-93767857D01*
X191464285Y-93863095D01*
X191416666Y-94005952D01*
X190845238Y-94577380D01*
X191464285Y-94577380D01*
X192083333Y-93577380D02*
X192178571Y-93577380D01*
X192273809Y-93625000D01*
X192321428Y-93672619D01*
X192369047Y-93767857D01*
X192416666Y-93958333D01*
X192416666Y-94196428D01*
X192369047Y-94386904D01*
X192321428Y-94482142D01*
X192273809Y-94529761D01*
X192178571Y-94577380D01*
X192083333Y-94577380D01*
X191988095Y-94529761D01*
X191940476Y-94482142D01*
X191892857Y-94386904D01*
X191845238Y-94196428D01*
X191845238Y-93958333D01*
X191892857Y-93767857D01*
X191940476Y-93672619D01*
X191988095Y-93625000D01*
X192083333Y-93577380D01*
X192797619Y-93672619D02*
X192845238Y-93625000D01*
X192940476Y-93577380D01*
X193178571Y-93577380D01*
X193273809Y-93625000D01*
X193321428Y-93672619D01*
X193369047Y-93767857D01*
X193369047Y-93863095D01*
X193321428Y-94005952D01*
X192750000Y-94577380D01*
X193369047Y-94577380D01*
X194321428Y-94577380D02*
X193750000Y-94577380D01*
X194035714Y-94577380D02*
X194035714Y-93577380D01*
X193940476Y-93720238D01*
X193845238Y-93815476D01*
X193750000Y-93863095D01*
X183369047Y-96227380D02*
X183369047Y-95227380D01*
X183607142Y-95227380D01*
X183750000Y-95275000D01*
X183845238Y-95370238D01*
X183892857Y-95465476D01*
X183940476Y-95655952D01*
X183940476Y-95798809D01*
X183892857Y-95989285D01*
X183845238Y-96084523D01*
X183750000Y-96179761D01*
X183607142Y-96227380D01*
X183369047Y-96227380D01*
X184369047Y-96227380D02*
X184369047Y-95560714D01*
X184369047Y-95751190D02*
X184416666Y-95655952D01*
X184464285Y-95608333D01*
X184559523Y-95560714D01*
X184654761Y-95560714D01*
X184988095Y-96227380D02*
X184988095Y-95560714D01*
X184988095Y-95227380D02*
X184940476Y-95275000D01*
X184988095Y-95322619D01*
X185035714Y-95275000D01*
X184988095Y-95227380D01*
X184988095Y-95322619D01*
X185369047Y-95560714D02*
X185607142Y-96227380D01*
X185845238Y-95560714D01*
X186607142Y-96179761D02*
X186511904Y-96227380D01*
X186321428Y-96227380D01*
X186226190Y-96179761D01*
X186178571Y-96084523D01*
X186178571Y-95703571D01*
X186226190Y-95608333D01*
X186321428Y-95560714D01*
X186511904Y-95560714D01*
X186607142Y-95608333D01*
X186654761Y-95703571D01*
X186654761Y-95798809D01*
X186178571Y-95894047D01*
X187035714Y-96179761D02*
X187130952Y-96227380D01*
X187321428Y-96227380D01*
X187416666Y-96179761D01*
X187464285Y-96084523D01*
X187464285Y-96036904D01*
X187416666Y-95941666D01*
X187321428Y-95894047D01*
X187178571Y-95894047D01*
X187083333Y-95846428D01*
X187035714Y-95751190D01*
X187035714Y-95703571D01*
X187083333Y-95608333D01*
X187178571Y-95560714D01*
X187321428Y-95560714D01*
X187416666Y-95608333D01*
X189178571Y-96227380D02*
X188607142Y-96227380D01*
X188892857Y-96227380D02*
X188892857Y-95227380D01*
X188797619Y-95370238D01*
X188702380Y-95465476D01*
X188607142Y-95513095D01*
X189559523Y-95322619D02*
X189607142Y-95275000D01*
X189702380Y-95227380D01*
X189940476Y-95227380D01*
X190035714Y-95275000D01*
X190083333Y-95322619D01*
X190130952Y-95417857D01*
X190130952Y-95513095D01*
X190083333Y-95655952D01*
X189511904Y-96227380D01*
X190130952Y-96227380D01*
X190416666Y-95227380D02*
X190750000Y-96227380D01*
X191083333Y-95227380D01*
X192178571Y-96227380D02*
X192178571Y-95227380D01*
X192178571Y-95703571D02*
X192750000Y-95703571D01*
X192750000Y-96227380D02*
X192750000Y-95227380D01*
X193607142Y-96179761D02*
X193511904Y-96227380D01*
X193321428Y-96227380D01*
X193226190Y-96179761D01*
X193178571Y-96084523D01*
X193178571Y-95703571D01*
X193226190Y-95608333D01*
X193321428Y-95560714D01*
X193511904Y-95560714D01*
X193607142Y-95608333D01*
X193654761Y-95703571D01*
X193654761Y-95798809D01*
X193178571Y-95894047D01*
X194511904Y-96227380D02*
X194511904Y-95703571D01*
X194464285Y-95608333D01*
X194369047Y-95560714D01*
X194178571Y-95560714D01*
X194083333Y-95608333D01*
X194511904Y-96179761D02*
X194416666Y-96227380D01*
X194178571Y-96227380D01*
X194083333Y-96179761D01*
X194035714Y-96084523D01*
X194035714Y-95989285D01*
X194083333Y-95894047D01*
X194178571Y-95846428D01*
X194416666Y-95846428D01*
X194511904Y-95798809D01*
X194845238Y-95560714D02*
X195226190Y-95560714D01*
X194988095Y-95227380D02*
X194988095Y-96084523D01*
X195035714Y-96179761D01*
X195130952Y-96227380D01*
X195226190Y-96227380D01*
X195940476Y-96179761D02*
X195845238Y-96227380D01*
X195654761Y-96227380D01*
X195559523Y-96179761D01*
X195511904Y-96084523D01*
X195511904Y-95703571D01*
X195559523Y-95608333D01*
X195654761Y-95560714D01*
X195845238Y-95560714D01*
X195940476Y-95608333D01*
X195988095Y-95703571D01*
X195988095Y-95798809D01*
X195511904Y-95894047D01*
X196416666Y-96227380D02*
X196416666Y-95560714D01*
X196416666Y-95751190D02*
X196464285Y-95655952D01*
X196511904Y-95608333D01*
X196607142Y-95560714D01*
X196702380Y-95560714D01*
X196988095Y-96179761D02*
X197083333Y-96227380D01*
X197273809Y-96227380D01*
X197369047Y-96179761D01*
X197416666Y-96084523D01*
X197416666Y-96036904D01*
X197369047Y-95941666D01*
X197273809Y-95894047D01*
X197130952Y-95894047D01*
X197035714Y-95846428D01*
X196988095Y-95751190D01*
X196988095Y-95703571D01*
X197035714Y-95608333D01*
X197130952Y-95560714D01*
X197273809Y-95560714D01*
X197369047Y-95608333D01*
X182821428Y-97210714D02*
X183011904Y-97877380D01*
X183202380Y-97401190D01*
X183392857Y-97877380D01*
X183583333Y-97210714D01*
X183964285Y-97877380D02*
X183964285Y-97210714D01*
X183964285Y-96877380D02*
X183916666Y-96925000D01*
X183964285Y-96972619D01*
X184011904Y-96925000D01*
X183964285Y-96877380D01*
X183964285Y-96972619D01*
X184297619Y-97210714D02*
X184678571Y-97210714D01*
X184440476Y-96877380D02*
X184440476Y-97734523D01*
X184488095Y-97829761D01*
X184583333Y-97877380D01*
X184678571Y-97877380D01*
X185011904Y-97877380D02*
X185011904Y-96877380D01*
X185440476Y-97877380D02*
X185440476Y-97353571D01*
X185392857Y-97258333D01*
X185297619Y-97210714D01*
X185154761Y-97210714D01*
X185059523Y-97258333D01*
X185011904Y-97305952D01*
X186630952Y-96972619D02*
X186678571Y-96925000D01*
X186773809Y-96877380D01*
X187011904Y-96877380D01*
X187107142Y-96925000D01*
X187154761Y-96972619D01*
X187202380Y-97067857D01*
X187202380Y-97163095D01*
X187154761Y-97305952D01*
X186583333Y-97877380D01*
X187202380Y-97877380D01*
X188059523Y-97210714D02*
X188059523Y-97877380D01*
X187821428Y-96829761D02*
X187583333Y-97544047D01*
X188202380Y-97544047D01*
X188440476Y-96877380D02*
X188773809Y-97877380D01*
X189107142Y-96877380D01*
X190202380Y-97877380D02*
X190202380Y-97210714D01*
X190202380Y-96877380D02*
X190154761Y-96925000D01*
X190202380Y-96972619D01*
X190250000Y-96925000D01*
X190202380Y-96877380D01*
X190202380Y-96972619D01*
X190678571Y-97210714D02*
X190678571Y-97877380D01*
X190678571Y-97305952D02*
X190726190Y-97258333D01*
X190821428Y-97210714D01*
X190964285Y-97210714D01*
X191059523Y-97258333D01*
X191107142Y-97353571D01*
X191107142Y-97877380D01*
X191583333Y-97210714D02*
X191583333Y-98210714D01*
X191583333Y-97258333D02*
X191678571Y-97210714D01*
X191869047Y-97210714D01*
X191964285Y-97258333D01*
X192011904Y-97305952D01*
X192059523Y-97401190D01*
X192059523Y-97686904D01*
X192011904Y-97782142D01*
X191964285Y-97829761D01*
X191869047Y-97877380D01*
X191678571Y-97877380D01*
X191583333Y-97829761D01*
X192916666Y-97210714D02*
X192916666Y-97877380D01*
X192488095Y-97210714D02*
X192488095Y-97734523D01*
X192535714Y-97829761D01*
X192630952Y-97877380D01*
X192773809Y-97877380D01*
X192869047Y-97829761D01*
X192916666Y-97782142D01*
X193250000Y-97210714D02*
X193630952Y-97210714D01*
X193392857Y-96877380D02*
X193392857Y-97734523D01*
X193440476Y-97829761D01*
X193535714Y-97877380D01*
X193630952Y-97877380D01*
X195297619Y-97877380D02*
X194964285Y-97401190D01*
X194726190Y-97877380D02*
X194726190Y-96877380D01*
X195107142Y-96877380D01*
X195202380Y-96925000D01*
X195250000Y-96972619D01*
X195297619Y-97067857D01*
X195297619Y-97210714D01*
X195250000Y-97305952D01*
X195202380Y-97353571D01*
X195107142Y-97401190D01*
X194726190Y-97401190D01*
X196107142Y-97829761D02*
X196011904Y-97877380D01*
X195821428Y-97877380D01*
X195726190Y-97829761D01*
X195678571Y-97734523D01*
X195678571Y-97353571D01*
X195726190Y-97258333D01*
X195821428Y-97210714D01*
X196011904Y-97210714D01*
X196107142Y-97258333D01*
X196154761Y-97353571D01*
X196154761Y-97448809D01*
X195678571Y-97544047D01*
X196488095Y-97210714D02*
X196726190Y-97877380D01*
X196964285Y-97210714D01*
X198630952Y-97877380D02*
X198059523Y-97877380D01*
X198345238Y-97877380D02*
X198345238Y-96877380D01*
X198250000Y-97020238D01*
X198154761Y-97115476D01*
X198059523Y-97163095D01*
X184940476Y-101177380D02*
X184940476Y-100177380D01*
X184940476Y-100653571D02*
X185511904Y-100653571D01*
X185511904Y-101177380D02*
X185511904Y-100177380D01*
X186369047Y-101129761D02*
X186273809Y-101177380D01*
X186083333Y-101177380D01*
X185988095Y-101129761D01*
X185940476Y-101034523D01*
X185940476Y-100653571D01*
X185988095Y-100558333D01*
X186083333Y-100510714D01*
X186273809Y-100510714D01*
X186369047Y-100558333D01*
X186416666Y-100653571D01*
X186416666Y-100748809D01*
X185940476Y-100844047D01*
X187273809Y-101177380D02*
X187273809Y-100653571D01*
X187226190Y-100558333D01*
X187130952Y-100510714D01*
X186940476Y-100510714D01*
X186845238Y-100558333D01*
X187273809Y-101129761D02*
X187178571Y-101177380D01*
X186940476Y-101177380D01*
X186845238Y-101129761D01*
X186797619Y-101034523D01*
X186797619Y-100939285D01*
X186845238Y-100844047D01*
X186940476Y-100796428D01*
X187178571Y-100796428D01*
X187273809Y-100748809D01*
X187607142Y-100510714D02*
X187988095Y-100510714D01*
X187750000Y-100177380D02*
X187750000Y-101034523D01*
X187797619Y-101129761D01*
X187892857Y-101177380D01*
X187988095Y-101177380D01*
X188702380Y-101129761D02*
X188607142Y-101177380D01*
X188416666Y-101177380D01*
X188321428Y-101129761D01*
X188273809Y-101034523D01*
X188273809Y-100653571D01*
X188321428Y-100558333D01*
X188416666Y-100510714D01*
X188607142Y-100510714D01*
X188702380Y-100558333D01*
X188750000Y-100653571D01*
X188750000Y-100748809D01*
X188273809Y-100844047D01*
X189178571Y-101177380D02*
X189178571Y-100510714D01*
X189178571Y-100701190D02*
X189226190Y-100605952D01*
X189273809Y-100558333D01*
X189369047Y-100510714D01*
X189464285Y-100510714D01*
X191083333Y-101177380D02*
X190511904Y-101177380D01*
X190797619Y-101177380D02*
X190797619Y-100177380D01*
X190702380Y-100320238D01*
X190607142Y-100415476D01*
X190511904Y-100463095D01*
X192273809Y-100796428D02*
X193035714Y-100796428D01*
X194607142Y-100653571D02*
X194750000Y-100701190D01*
X194797619Y-100748809D01*
X194845238Y-100844047D01*
X194845238Y-100986904D01*
X194797619Y-101082142D01*
X194750000Y-101129761D01*
X194654761Y-101177380D01*
X194273809Y-101177380D01*
X194273809Y-100177380D01*
X194607142Y-100177380D01*
X194702380Y-100225000D01*
X194750000Y-100272619D01*
X194797619Y-100367857D01*
X194797619Y-100463095D01*
X194750000Y-100558333D01*
X194702380Y-100605952D01*
X194607142Y-100653571D01*
X194273809Y-100653571D01*
X195654761Y-101129761D02*
X195559523Y-101177380D01*
X195369047Y-101177380D01*
X195273809Y-101129761D01*
X195226190Y-101034523D01*
X195226190Y-100653571D01*
X195273809Y-100558333D01*
X195369047Y-100510714D01*
X195559523Y-100510714D01*
X195654761Y-100558333D01*
X195702380Y-100653571D01*
X195702380Y-100748809D01*
X195226190Y-100844047D01*
X196559523Y-101177380D02*
X196559523Y-100177380D01*
X196559523Y-101129761D02*
X196464285Y-101177380D01*
X196273809Y-101177380D01*
X196178571Y-101129761D01*
X196130952Y-101082142D01*
X196083333Y-100986904D01*
X196083333Y-100701190D01*
X196130952Y-100605952D01*
X196178571Y-100558333D01*
X196273809Y-100510714D01*
X196464285Y-100510714D01*
X196559523Y-100558333D01*
X183226190Y-102827380D02*
X183226190Y-101827380D01*
X183226190Y-102303571D02*
X183797619Y-102303571D01*
X183797619Y-102827380D02*
X183797619Y-101827380D01*
X184654761Y-102779761D02*
X184559523Y-102827380D01*
X184369047Y-102827380D01*
X184273809Y-102779761D01*
X184226190Y-102684523D01*
X184226190Y-102303571D01*
X184273809Y-102208333D01*
X184369047Y-102160714D01*
X184559523Y-102160714D01*
X184654761Y-102208333D01*
X184702380Y-102303571D01*
X184702380Y-102398809D01*
X184226190Y-102494047D01*
X185559523Y-102827380D02*
X185559523Y-102303571D01*
X185511904Y-102208333D01*
X185416666Y-102160714D01*
X185226190Y-102160714D01*
X185130952Y-102208333D01*
X185559523Y-102779761D02*
X185464285Y-102827380D01*
X185226190Y-102827380D01*
X185130952Y-102779761D01*
X185083333Y-102684523D01*
X185083333Y-102589285D01*
X185130952Y-102494047D01*
X185226190Y-102446428D01*
X185464285Y-102446428D01*
X185559523Y-102398809D01*
X185892857Y-102160714D02*
X186273809Y-102160714D01*
X186035714Y-101827380D02*
X186035714Y-102684523D01*
X186083333Y-102779761D01*
X186178571Y-102827380D01*
X186273809Y-102827380D01*
X186988095Y-102779761D02*
X186892857Y-102827380D01*
X186702380Y-102827380D01*
X186607142Y-102779761D01*
X186559523Y-102684523D01*
X186559523Y-102303571D01*
X186607142Y-102208333D01*
X186702380Y-102160714D01*
X186892857Y-102160714D01*
X186988095Y-102208333D01*
X187035714Y-102303571D01*
X187035714Y-102398809D01*
X186559523Y-102494047D01*
X187464285Y-102827380D02*
X187464285Y-102160714D01*
X187464285Y-102351190D02*
X187511904Y-102255952D01*
X187559523Y-102208333D01*
X187654761Y-102160714D01*
X187749999Y-102160714D01*
X188797619Y-101922619D02*
X188845238Y-101875000D01*
X188940476Y-101827380D01*
X189178571Y-101827380D01*
X189273809Y-101875000D01*
X189321428Y-101922619D01*
X189369047Y-102017857D01*
X189369047Y-102113095D01*
X189321428Y-102255952D01*
X188750000Y-102827380D01*
X189369047Y-102827380D01*
X190559523Y-102446428D02*
X191321428Y-102446428D01*
X192559523Y-102303571D02*
X192892857Y-102303571D01*
X193035714Y-102827380D02*
X192559523Y-102827380D01*
X192559523Y-101827380D01*
X193035714Y-101827380D01*
X193369047Y-102827380D02*
X193892857Y-102160714D01*
X193369047Y-102160714D02*
X193892857Y-102827380D01*
X194130952Y-102160714D02*
X194511904Y-102160714D01*
X194273809Y-101827380D02*
X194273809Y-102684523D01*
X194321428Y-102779761D01*
X194416666Y-102827380D01*
X194511904Y-102827380D01*
X194845238Y-102827380D02*
X194845238Y-102160714D01*
X194845238Y-102351190D02*
X194892857Y-102255952D01*
X194940476Y-102208333D01*
X195035714Y-102160714D01*
X195130952Y-102160714D01*
X195892857Y-102160714D02*
X195892857Y-102827380D01*
X195464285Y-102160714D02*
X195464285Y-102684523D01*
X195511904Y-102779761D01*
X195607142Y-102827380D01*
X195750000Y-102827380D01*
X195845238Y-102779761D01*
X195892857Y-102732142D01*
X196797619Y-102827380D02*
X196797619Y-101827380D01*
X196797619Y-102779761D02*
X196702380Y-102827380D01*
X196511904Y-102827380D01*
X196416666Y-102779761D01*
X196369047Y-102732142D01*
X196321428Y-102636904D01*
X196321428Y-102351190D01*
X196369047Y-102255952D01*
X196416666Y-102208333D01*
X196511904Y-102160714D01*
X196702380Y-102160714D01*
X196797619Y-102208333D01*
X197654761Y-102779761D02*
X197559523Y-102827380D01*
X197369047Y-102827380D01*
X197273809Y-102779761D01*
X197226190Y-102684523D01*
X197226190Y-102303571D01*
X197273809Y-102208333D01*
X197369047Y-102160714D01*
X197559523Y-102160714D01*
X197654761Y-102208333D01*
X197702380Y-102303571D01*
X197702380Y-102398809D01*
X197226190Y-102494047D01*
X198130952Y-102827380D02*
X198130952Y-102160714D01*
X198130952Y-102351190D02*
X198178571Y-102255952D01*
X198226190Y-102208333D01*
X198321428Y-102160714D01*
X198416666Y-102160714D01*
X142190476Y-102404761D02*
X142333333Y-102452380D01*
X142571428Y-102452380D01*
X142666666Y-102404761D01*
X142714285Y-102357142D01*
X142761904Y-102261904D01*
X142761904Y-102166666D01*
X142714285Y-102071428D01*
X142666666Y-102023809D01*
X142571428Y-101976190D01*
X142380952Y-101928571D01*
X142285714Y-101880952D01*
X142238095Y-101833333D01*
X142190476Y-101738095D01*
X142190476Y-101642857D01*
X142238095Y-101547619D01*
X142285714Y-101500000D01*
X142380952Y-101452380D01*
X142619047Y-101452380D01*
X142761904Y-101500000D01*
X143190476Y-102452380D02*
X143190476Y-101785714D01*
X143190476Y-101452380D02*
X143142857Y-101500000D01*
X143190476Y-101547619D01*
X143238095Y-101500000D01*
X143190476Y-101452380D01*
X143190476Y-101547619D01*
X144095238Y-101785714D02*
X144095238Y-102595238D01*
X144047619Y-102690476D01*
X144000000Y-102738095D01*
X143904761Y-102785714D01*
X143761904Y-102785714D01*
X143666666Y-102738095D01*
X144095238Y-102404761D02*
X144000000Y-102452380D01*
X143809523Y-102452380D01*
X143714285Y-102404761D01*
X143666666Y-102357142D01*
X143619047Y-102261904D01*
X143619047Y-101976190D01*
X143666666Y-101880952D01*
X143714285Y-101833333D01*
X143809523Y-101785714D01*
X144000000Y-101785714D01*
X144095238Y-101833333D01*
X144571428Y-101785714D02*
X144571428Y-102452380D01*
X144571428Y-101880952D02*
X144619047Y-101833333D01*
X144714285Y-101785714D01*
X144857142Y-101785714D01*
X144952380Y-101833333D01*
X145000000Y-101928571D01*
X145000000Y-102452380D01*
X145904761Y-102452380D02*
X145904761Y-101928571D01*
X145857142Y-101833333D01*
X145761904Y-101785714D01*
X145571428Y-101785714D01*
X145476190Y-101833333D01*
X145904761Y-102404761D02*
X145809523Y-102452380D01*
X145571428Y-102452380D01*
X145476190Y-102404761D01*
X145428571Y-102309523D01*
X145428571Y-102214285D01*
X145476190Y-102119047D01*
X145571428Y-102071428D01*
X145809523Y-102071428D01*
X145904761Y-102023809D01*
X146523809Y-102452380D02*
X146428571Y-102404761D01*
X146380952Y-102309523D01*
X146380952Y-101452380D01*
X147666666Y-102452380D02*
X147666666Y-101452380D01*
X147666666Y-101928571D02*
X148238095Y-101928571D01*
X148238095Y-102452380D02*
X148238095Y-101452380D01*
X149095238Y-102404761D02*
X149000000Y-102452380D01*
X148809523Y-102452380D01*
X148714285Y-102404761D01*
X148666666Y-102309523D01*
X148666666Y-101928571D01*
X148714285Y-101833333D01*
X148809523Y-101785714D01*
X149000000Y-101785714D01*
X149095238Y-101833333D01*
X149142857Y-101928571D01*
X149142857Y-102023809D01*
X148666666Y-102119047D01*
X150000000Y-102452380D02*
X150000000Y-101928571D01*
X149952380Y-101833333D01*
X149857142Y-101785714D01*
X149666666Y-101785714D01*
X149571428Y-101833333D01*
X150000000Y-102404761D02*
X149904761Y-102452380D01*
X149666666Y-102452380D01*
X149571428Y-102404761D01*
X149523809Y-102309523D01*
X149523809Y-102214285D01*
X149571428Y-102119047D01*
X149666666Y-102071428D01*
X149904761Y-102071428D01*
X150000000Y-102023809D01*
X150333333Y-101785714D02*
X150714285Y-101785714D01*
X150476190Y-101452380D02*
X150476190Y-102309523D01*
X150523809Y-102404761D01*
X150619047Y-102452380D01*
X150714285Y-102452380D01*
X151428571Y-102404761D02*
X151333333Y-102452380D01*
X151142857Y-102452380D01*
X151047619Y-102404761D01*
X151000000Y-102309523D01*
X151000000Y-101928571D01*
X151047619Y-101833333D01*
X151142857Y-101785714D01*
X151333333Y-101785714D01*
X151428571Y-101833333D01*
X151476190Y-101928571D01*
X151476190Y-102023809D01*
X151000000Y-102119047D01*
X151904761Y-102452380D02*
X151904761Y-101785714D01*
X151904761Y-101976190D02*
X151952380Y-101880952D01*
X152000000Y-101833333D01*
X152095238Y-101785714D01*
X152190476Y-101785714D01*
X153809523Y-102452380D02*
X153238095Y-102452380D01*
X153523809Y-102452380D02*
X153523809Y-101452380D01*
X153428571Y-101595238D01*
X153333333Y-101690476D01*
X153238095Y-101738095D01*
X142190476Y-97654761D02*
X142333333Y-97702380D01*
X142571428Y-97702380D01*
X142666666Y-97654761D01*
X142714285Y-97607142D01*
X142761904Y-97511904D01*
X142761904Y-97416666D01*
X142714285Y-97321428D01*
X142666666Y-97273809D01*
X142571428Y-97226190D01*
X142380952Y-97178571D01*
X142285714Y-97130952D01*
X142238095Y-97083333D01*
X142190476Y-96988095D01*
X142190476Y-96892857D01*
X142238095Y-96797619D01*
X142285714Y-96750000D01*
X142380952Y-96702380D01*
X142619047Y-96702380D01*
X142761904Y-96750000D01*
X143190476Y-97702380D02*
X143190476Y-97035714D01*
X143190476Y-96702380D02*
X143142857Y-96750000D01*
X143190476Y-96797619D01*
X143238095Y-96750000D01*
X143190476Y-96702380D01*
X143190476Y-96797619D01*
X144095238Y-97035714D02*
X144095238Y-97845238D01*
X144047619Y-97940476D01*
X144000000Y-97988095D01*
X143904761Y-98035714D01*
X143761904Y-98035714D01*
X143666666Y-97988095D01*
X144095238Y-97654761D02*
X144000000Y-97702380D01*
X143809523Y-97702380D01*
X143714285Y-97654761D01*
X143666666Y-97607142D01*
X143619047Y-97511904D01*
X143619047Y-97226190D01*
X143666666Y-97130952D01*
X143714285Y-97083333D01*
X143809523Y-97035714D01*
X144000000Y-97035714D01*
X144095238Y-97083333D01*
X144571428Y-97035714D02*
X144571428Y-97702380D01*
X144571428Y-97130952D02*
X144619047Y-97083333D01*
X144714285Y-97035714D01*
X144857142Y-97035714D01*
X144952380Y-97083333D01*
X145000000Y-97178571D01*
X145000000Y-97702380D01*
X145904761Y-97702380D02*
X145904761Y-97178571D01*
X145857142Y-97083333D01*
X145761904Y-97035714D01*
X145571428Y-97035714D01*
X145476190Y-97083333D01*
X145904761Y-97654761D02*
X145809523Y-97702380D01*
X145571428Y-97702380D01*
X145476190Y-97654761D01*
X145428571Y-97559523D01*
X145428571Y-97464285D01*
X145476190Y-97369047D01*
X145571428Y-97321428D01*
X145809523Y-97321428D01*
X145904761Y-97273809D01*
X146523809Y-97702380D02*
X146428571Y-97654761D01*
X146380952Y-97559523D01*
X146380952Y-96702380D01*
X147666666Y-97702380D02*
X147666666Y-96702380D01*
X147666666Y-97178571D02*
X148238095Y-97178571D01*
X148238095Y-97702380D02*
X148238095Y-96702380D01*
X149095238Y-97654761D02*
X149000000Y-97702380D01*
X148809523Y-97702380D01*
X148714285Y-97654761D01*
X148666666Y-97559523D01*
X148666666Y-97178571D01*
X148714285Y-97083333D01*
X148809523Y-97035714D01*
X149000000Y-97035714D01*
X149095238Y-97083333D01*
X149142857Y-97178571D01*
X149142857Y-97273809D01*
X148666666Y-97369047D01*
X150000000Y-97702380D02*
X150000000Y-97178571D01*
X149952380Y-97083333D01*
X149857142Y-97035714D01*
X149666666Y-97035714D01*
X149571428Y-97083333D01*
X150000000Y-97654761D02*
X149904761Y-97702380D01*
X149666666Y-97702380D01*
X149571428Y-97654761D01*
X149523809Y-97559523D01*
X149523809Y-97464285D01*
X149571428Y-97369047D01*
X149666666Y-97321428D01*
X149904761Y-97321428D01*
X150000000Y-97273809D01*
X150333333Y-97035714D02*
X150714285Y-97035714D01*
X150476190Y-96702380D02*
X150476190Y-97559523D01*
X150523809Y-97654761D01*
X150619047Y-97702380D01*
X150714285Y-97702380D01*
X151428571Y-97654761D02*
X151333333Y-97702380D01*
X151142857Y-97702380D01*
X151047619Y-97654761D01*
X151000000Y-97559523D01*
X151000000Y-97178571D01*
X151047619Y-97083333D01*
X151142857Y-97035714D01*
X151333333Y-97035714D01*
X151428571Y-97083333D01*
X151476190Y-97178571D01*
X151476190Y-97273809D01*
X151000000Y-97369047D01*
X151904761Y-97702380D02*
X151904761Y-97035714D01*
X151904761Y-97226190D02*
X151952380Y-97130952D01*
X152000000Y-97083333D01*
X152095238Y-97035714D01*
X152190476Y-97035714D01*
X153238095Y-96797619D02*
X153285714Y-96750000D01*
X153380952Y-96702380D01*
X153619047Y-96702380D01*
X153714285Y-96750000D01*
X153761904Y-96797619D01*
X153809523Y-96892857D01*
X153809523Y-96988095D01*
X153761904Y-97130952D01*
X153190476Y-97702380D01*
X153809523Y-97702380D01*
X177952380Y-105404761D02*
X176952380Y-105404761D01*
X177428571Y-105404761D02*
X177428571Y-104833333D01*
X177952380Y-104833333D02*
X176952380Y-104833333D01*
X177904761Y-103976190D02*
X177952380Y-104071428D01*
X177952380Y-104261904D01*
X177904761Y-104357142D01*
X177809523Y-104404761D01*
X177428571Y-104404761D01*
X177333333Y-104357142D01*
X177285714Y-104261904D01*
X177285714Y-104071428D01*
X177333333Y-103976190D01*
X177428571Y-103928571D01*
X177523809Y-103928571D01*
X177619047Y-104404761D01*
X177952380Y-103071428D02*
X177428571Y-103071428D01*
X177333333Y-103119047D01*
X177285714Y-103214285D01*
X177285714Y-103404761D01*
X177333333Y-103500000D01*
X177904761Y-103071428D02*
X177952380Y-103166666D01*
X177952380Y-103404761D01*
X177904761Y-103500000D01*
X177809523Y-103547619D01*
X177714285Y-103547619D01*
X177619047Y-103500000D01*
X177571428Y-103404761D01*
X177571428Y-103166666D01*
X177523809Y-103071428D01*
X177285714Y-102738095D02*
X177285714Y-102357142D01*
X176952380Y-102595238D02*
X177809523Y-102595238D01*
X177904761Y-102547619D01*
X177952380Y-102452380D01*
X177952380Y-102357142D01*
X177904761Y-101642857D02*
X177952380Y-101738095D01*
X177952380Y-101928571D01*
X177904761Y-102023809D01*
X177809523Y-102071428D01*
X177428571Y-102071428D01*
X177333333Y-102023809D01*
X177285714Y-101928571D01*
X177285714Y-101738095D01*
X177333333Y-101642857D01*
X177428571Y-101595238D01*
X177523809Y-101595238D01*
X177619047Y-102071428D01*
X177952380Y-101166666D02*
X177285714Y-101166666D01*
X177476190Y-101166666D02*
X177380952Y-101119047D01*
X177333333Y-101071428D01*
X177285714Y-100976190D01*
X177285714Y-100880952D01*
X177952380Y-99261904D02*
X177952380Y-99833333D01*
X177952380Y-99547619D02*
X176952380Y-99547619D01*
X177095238Y-99642857D01*
X177190476Y-99738095D01*
X177238095Y-99833333D01*
X176952380Y-97880952D02*
X176952380Y-97690476D01*
X177000000Y-97595238D01*
X177095238Y-97500000D01*
X177285714Y-97452380D01*
X177619047Y-97452380D01*
X177809523Y-97500000D01*
X177904761Y-97595238D01*
X177952380Y-97690476D01*
X177952380Y-97880952D01*
X177904761Y-97976190D01*
X177809523Y-98071428D01*
X177619047Y-98119047D01*
X177285714Y-98119047D01*
X177095238Y-98071428D01*
X177000000Y-97976190D01*
X176952380Y-97880952D01*
X177285714Y-97023809D02*
X177952380Y-97023809D01*
X177380952Y-97023809D02*
X177333333Y-96976190D01*
X177285714Y-96880952D01*
X177285714Y-96738095D01*
X177333333Y-96642857D01*
X177428571Y-96595238D01*
X177952380Y-96595238D01*
X157702380Y-105654761D02*
X156702380Y-105654761D01*
X157178571Y-105654761D02*
X157178571Y-105083333D01*
X157702380Y-105083333D02*
X156702380Y-105083333D01*
X157654761Y-104226190D02*
X157702380Y-104321428D01*
X157702380Y-104511904D01*
X157654761Y-104607142D01*
X157559523Y-104654761D01*
X157178571Y-104654761D01*
X157083333Y-104607142D01*
X157035714Y-104511904D01*
X157035714Y-104321428D01*
X157083333Y-104226190D01*
X157178571Y-104178571D01*
X157273809Y-104178571D01*
X157369047Y-104654761D01*
X157702380Y-103321428D02*
X157178571Y-103321428D01*
X157083333Y-103369047D01*
X157035714Y-103464285D01*
X157035714Y-103654761D01*
X157083333Y-103750000D01*
X157654761Y-103321428D02*
X157702380Y-103416666D01*
X157702380Y-103654761D01*
X157654761Y-103750000D01*
X157559523Y-103797619D01*
X157464285Y-103797619D01*
X157369047Y-103750000D01*
X157321428Y-103654761D01*
X157321428Y-103416666D01*
X157273809Y-103321428D01*
X157035714Y-102988095D02*
X157035714Y-102607142D01*
X156702380Y-102845238D02*
X157559523Y-102845238D01*
X157654761Y-102797619D01*
X157702380Y-102702380D01*
X157702380Y-102607142D01*
X157654761Y-101892857D02*
X157702380Y-101988095D01*
X157702380Y-102178571D01*
X157654761Y-102273809D01*
X157559523Y-102321428D01*
X157178571Y-102321428D01*
X157083333Y-102273809D01*
X157035714Y-102178571D01*
X157035714Y-101988095D01*
X157083333Y-101892857D01*
X157178571Y-101845238D01*
X157273809Y-101845238D01*
X157369047Y-102321428D01*
X157702380Y-101416666D02*
X157035714Y-101416666D01*
X157226190Y-101416666D02*
X157130952Y-101369047D01*
X157083333Y-101321428D01*
X157035714Y-101226190D01*
X157035714Y-101130952D01*
X156797619Y-100083333D02*
X156750000Y-100035714D01*
X156702380Y-99940476D01*
X156702380Y-99702380D01*
X156750000Y-99607142D01*
X156797619Y-99559523D01*
X156892857Y-99511904D01*
X156988095Y-99511904D01*
X157130952Y-99559523D01*
X157702380Y-100130952D01*
X157702380Y-99511904D01*
X156702380Y-98130952D02*
X156702380Y-97940476D01*
X156750000Y-97845238D01*
X156845238Y-97750000D01*
X157035714Y-97702380D01*
X157369047Y-97702380D01*
X157559523Y-97750000D01*
X157654761Y-97845238D01*
X157702380Y-97940476D01*
X157702380Y-98130952D01*
X157654761Y-98226190D01*
X157559523Y-98321428D01*
X157369047Y-98369047D01*
X157035714Y-98369047D01*
X156845238Y-98321428D01*
X156750000Y-98226190D01*
X156702380Y-98130952D01*
X157035714Y-97273809D02*
X157702380Y-97273809D01*
X157130952Y-97273809D02*
X157083333Y-97226190D01*
X157035714Y-97130952D01*
X157035714Y-96988095D01*
X157083333Y-96892857D01*
X157178571Y-96845238D01*
X157702380Y-96845238D01*
D11*
X143357142Y-113925000D02*
X143214285Y-113853571D01*
X143000000Y-113853571D01*
X142785714Y-113925000D01*
X142642857Y-114067857D01*
X142571428Y-114210714D01*
X142500000Y-114496428D01*
X142500000Y-114710714D01*
X142571428Y-114996428D01*
X142642857Y-115139285D01*
X142785714Y-115282142D01*
X143000000Y-115353571D01*
X143142857Y-115353571D01*
X143357142Y-115282142D01*
X143428571Y-115210714D01*
X143428571Y-114710714D01*
X143142857Y-114710714D01*
X144071428Y-115353571D02*
X144071428Y-113853571D01*
X144928571Y-115353571D01*
X144928571Y-113853571D01*
X145642857Y-115353571D02*
X145642857Y-113853571D01*
X146000000Y-113853571D01*
X146214285Y-113925000D01*
X146357142Y-114067857D01*
X146428571Y-114210714D01*
X146500000Y-114496428D01*
X146500000Y-114710714D01*
X146428571Y-114996428D01*
X146357142Y-115139285D01*
X146214285Y-115282142D01*
X146000000Y-115353571D01*
X145642857Y-115353571D01*
X143357142Y-116475000D02*
X143214285Y-116403571D01*
X143000000Y-116403571D01*
X142785714Y-116475000D01*
X142642857Y-116617857D01*
X142571428Y-116760714D01*
X142500000Y-117046428D01*
X142500000Y-117260714D01*
X142571428Y-117546428D01*
X142642857Y-117689285D01*
X142785714Y-117832142D01*
X143000000Y-117903571D01*
X143142857Y-117903571D01*
X143357142Y-117832142D01*
X143428571Y-117760714D01*
X143428571Y-117260714D01*
X143142857Y-117260714D01*
X144071428Y-117903571D02*
X144071428Y-116403571D01*
X144928571Y-117903571D01*
X144928571Y-116403571D01*
X145642857Y-117903571D02*
X145642857Y-116403571D01*
X146000000Y-116403571D01*
X146214285Y-116475000D01*
X146357142Y-116617857D01*
X146428571Y-116760714D01*
X146500000Y-117046428D01*
X146500000Y-117260714D01*
X146428571Y-117546428D01*
X146357142Y-117689285D01*
X146214285Y-117832142D01*
X146000000Y-117903571D01*
X145642857Y-117903571D01*
X142500000Y-119882142D02*
X143642857Y-119882142D01*
X143071428Y-120453571D02*
X143071428Y-119310714D01*
X144285714Y-119096428D02*
X144357142Y-119025000D01*
X144500000Y-118953571D01*
X144857142Y-118953571D01*
X145000000Y-119025000D01*
X145071428Y-119096428D01*
X145142857Y-119239285D01*
X145142857Y-119382142D01*
X145071428Y-119596428D01*
X144214285Y-120453571D01*
X145142857Y-120453571D01*
X146428571Y-119453571D02*
X146428571Y-120453571D01*
X146071428Y-118882142D02*
X145714285Y-119953571D01*
X146642857Y-119953571D01*
X142500000Y-122432142D02*
X143642857Y-122432142D01*
X143071428Y-123003571D02*
X143071428Y-121860714D01*
X144285714Y-121646428D02*
X144357142Y-121575000D01*
X144500000Y-121503571D01*
X144857142Y-121503571D01*
X145000000Y-121575000D01*
X145071428Y-121646428D01*
X145142857Y-121789285D01*
X145142857Y-121932142D01*
X145071428Y-122146428D01*
X144214285Y-123003571D01*
X145142857Y-123003571D01*
X146428571Y-122003571D02*
X146428571Y-123003571D01*
X146071428Y-121432142D02*
X145714285Y-122503571D01*
X146642857Y-122503571D01*
X177500000Y-114853571D02*
X177500000Y-113353571D01*
X177500000Y-114067857D02*
X178357142Y-114067857D01*
X178357142Y-114853571D02*
X178357142Y-113353571D01*
X179642857Y-114782142D02*
X179500000Y-114853571D01*
X179214285Y-114853571D01*
X179071428Y-114782142D01*
X179000000Y-114639285D01*
X179000000Y-114067857D01*
X179071428Y-113925000D01*
X179214285Y-113853571D01*
X179500000Y-113853571D01*
X179642857Y-113925000D01*
X179714285Y-114067857D01*
X179714285Y-114210714D01*
X179000000Y-114353571D01*
X181000000Y-114853571D02*
X181000000Y-114067857D01*
X180928571Y-113925000D01*
X180785714Y-113853571D01*
X180500000Y-113853571D01*
X180357142Y-113925000D01*
X181000000Y-114782142D02*
X180857142Y-114853571D01*
X180500000Y-114853571D01*
X180357142Y-114782142D01*
X180285714Y-114639285D01*
X180285714Y-114496428D01*
X180357142Y-114353571D01*
X180500000Y-114282142D01*
X180857142Y-114282142D01*
X181000000Y-114210714D01*
X181500000Y-113853571D02*
X182071428Y-113853571D01*
X181714285Y-113353571D02*
X181714285Y-114639285D01*
X181785714Y-114782142D01*
X181928571Y-114853571D01*
X182071428Y-114853571D01*
X183142857Y-114782142D02*
X183000000Y-114853571D01*
X182714285Y-114853571D01*
X182571428Y-114782142D01*
X182500000Y-114639285D01*
X182500000Y-114067857D01*
X182571428Y-113925000D01*
X182714285Y-113853571D01*
X183000000Y-113853571D01*
X183142857Y-113925000D01*
X183214285Y-114067857D01*
X183214285Y-114210714D01*
X182500000Y-114353571D01*
X183857142Y-114853571D02*
X183857142Y-113853571D01*
X183857142Y-114139285D02*
X183928571Y-113996428D01*
X184000000Y-113925000D01*
X184142857Y-113853571D01*
X184285714Y-113853571D01*
X185571428Y-114853571D02*
X184714285Y-114853571D01*
X185142857Y-114853571D02*
X185142857Y-113353571D01*
X185000000Y-113567857D01*
X184857142Y-113710714D01*
X184714285Y-113782142D01*
X187357142Y-114282142D02*
X188500000Y-114282142D01*
X177500000Y-117403571D02*
X177500000Y-115903571D01*
X177500000Y-116617857D02*
X178357142Y-116617857D01*
X178357142Y-117403571D02*
X178357142Y-115903571D01*
X179642857Y-117332142D02*
X179500000Y-117403571D01*
X179214285Y-117403571D01*
X179071428Y-117332142D01*
X179000000Y-117189285D01*
X179000000Y-116617857D01*
X179071428Y-116475000D01*
X179214285Y-116403571D01*
X179500000Y-116403571D01*
X179642857Y-116475000D01*
X179714285Y-116617857D01*
X179714285Y-116760714D01*
X179000000Y-116903571D01*
X181000000Y-117403571D02*
X181000000Y-116617857D01*
X180928571Y-116475000D01*
X180785714Y-116403571D01*
X180500000Y-116403571D01*
X180357142Y-116475000D01*
X181000000Y-117332142D02*
X180857142Y-117403571D01*
X180500000Y-117403571D01*
X180357142Y-117332142D01*
X180285714Y-117189285D01*
X180285714Y-117046428D01*
X180357142Y-116903571D01*
X180500000Y-116832142D01*
X180857142Y-116832142D01*
X181000000Y-116760714D01*
X181500000Y-116403571D02*
X182071428Y-116403571D01*
X181714285Y-115903571D02*
X181714285Y-117189285D01*
X181785714Y-117332142D01*
X181928571Y-117403571D01*
X182071428Y-117403571D01*
X183142857Y-117332142D02*
X183000000Y-117403571D01*
X182714285Y-117403571D01*
X182571428Y-117332142D01*
X182500000Y-117189285D01*
X182500000Y-116617857D01*
X182571428Y-116475000D01*
X182714285Y-116403571D01*
X183000000Y-116403571D01*
X183142857Y-116475000D01*
X183214285Y-116617857D01*
X183214285Y-116760714D01*
X182500000Y-116903571D01*
X183857142Y-117403571D02*
X183857142Y-116403571D01*
X183857142Y-116689285D02*
X183928571Y-116546428D01*
X184000000Y-116475000D01*
X184142857Y-116403571D01*
X184285714Y-116403571D01*
X184714285Y-116046428D02*
X184785714Y-115975000D01*
X184928571Y-115903571D01*
X185285714Y-115903571D01*
X185428571Y-115975000D01*
X185500000Y-116046428D01*
X185571428Y-116189285D01*
X185571428Y-116332142D01*
X185500000Y-116546428D01*
X184642857Y-117403571D01*
X185571428Y-117403571D01*
X187357142Y-116832142D02*
X188500000Y-116832142D01*
X177500000Y-119953571D02*
X177500000Y-118453571D01*
X177500000Y-119167857D02*
X178357142Y-119167857D01*
X178357142Y-119953571D02*
X178357142Y-118453571D01*
X179642857Y-119882142D02*
X179500000Y-119953571D01*
X179214285Y-119953571D01*
X179071428Y-119882142D01*
X179000000Y-119739285D01*
X179000000Y-119167857D01*
X179071428Y-119025000D01*
X179214285Y-118953571D01*
X179500000Y-118953571D01*
X179642857Y-119025000D01*
X179714285Y-119167857D01*
X179714285Y-119310714D01*
X179000000Y-119453571D01*
X181000000Y-119953571D02*
X181000000Y-119167857D01*
X180928571Y-119025000D01*
X180785714Y-118953571D01*
X180500000Y-118953571D01*
X180357142Y-119025000D01*
X181000000Y-119882142D02*
X180857142Y-119953571D01*
X180500000Y-119953571D01*
X180357142Y-119882142D01*
X180285714Y-119739285D01*
X180285714Y-119596428D01*
X180357142Y-119453571D01*
X180500000Y-119382142D01*
X180857142Y-119382142D01*
X181000000Y-119310714D01*
X181500000Y-118953571D02*
X182071428Y-118953571D01*
X181714285Y-118453571D02*
X181714285Y-119739285D01*
X181785714Y-119882142D01*
X181928571Y-119953571D01*
X182071428Y-119953571D01*
X183142857Y-119882142D02*
X183000000Y-119953571D01*
X182714285Y-119953571D01*
X182571428Y-119882142D01*
X182500000Y-119739285D01*
X182500000Y-119167857D01*
X182571428Y-119025000D01*
X182714285Y-118953571D01*
X183000000Y-118953571D01*
X183142857Y-119025000D01*
X183214285Y-119167857D01*
X183214285Y-119310714D01*
X182500000Y-119453571D01*
X183857142Y-119953571D02*
X183857142Y-118953571D01*
X183857142Y-119239285D02*
X183928571Y-119096428D01*
X184000000Y-119025000D01*
X184142857Y-118953571D01*
X184285714Y-118953571D01*
X185571428Y-119953571D02*
X184714285Y-119953571D01*
X185142857Y-119953571D02*
X185142857Y-118453571D01*
X185000000Y-118667857D01*
X184857142Y-118810714D01*
X184714285Y-118882142D01*
X187357142Y-119382142D02*
X188500000Y-119382142D01*
X187928571Y-119953571D02*
X187928571Y-118810714D01*
X177500000Y-122503571D02*
X177500000Y-121003571D01*
X177500000Y-121717857D02*
X178357142Y-121717857D01*
X178357142Y-122503571D02*
X178357142Y-121003571D01*
X179642857Y-122432142D02*
X179500000Y-122503571D01*
X179214285Y-122503571D01*
X179071428Y-122432142D01*
X179000000Y-122289285D01*
X179000000Y-121717857D01*
X179071428Y-121575000D01*
X179214285Y-121503571D01*
X179500000Y-121503571D01*
X179642857Y-121575000D01*
X179714285Y-121717857D01*
X179714285Y-121860714D01*
X179000000Y-122003571D01*
X181000000Y-122503571D02*
X181000000Y-121717857D01*
X180928571Y-121575000D01*
X180785714Y-121503571D01*
X180500000Y-121503571D01*
X180357142Y-121575000D01*
X181000000Y-122432142D02*
X180857142Y-122503571D01*
X180500000Y-122503571D01*
X180357142Y-122432142D01*
X180285714Y-122289285D01*
X180285714Y-122146428D01*
X180357142Y-122003571D01*
X180500000Y-121932142D01*
X180857142Y-121932142D01*
X181000000Y-121860714D01*
X181500000Y-121503571D02*
X182071428Y-121503571D01*
X181714285Y-121003571D02*
X181714285Y-122289285D01*
X181785714Y-122432142D01*
X181928571Y-122503571D01*
X182071428Y-122503571D01*
X183142857Y-122432142D02*
X183000000Y-122503571D01*
X182714285Y-122503571D01*
X182571428Y-122432142D01*
X182500000Y-122289285D01*
X182500000Y-121717857D01*
X182571428Y-121575000D01*
X182714285Y-121503571D01*
X183000000Y-121503571D01*
X183142857Y-121575000D01*
X183214285Y-121717857D01*
X183214285Y-121860714D01*
X182500000Y-122003571D01*
X183857142Y-122503571D02*
X183857142Y-121503571D01*
X183857142Y-121789285D02*
X183928571Y-121646428D01*
X184000000Y-121575000D01*
X184142857Y-121503571D01*
X184285714Y-121503571D01*
X184714285Y-121146428D02*
X184785714Y-121075000D01*
X184928571Y-121003571D01*
X185285714Y-121003571D01*
X185428571Y-121075000D01*
X185500000Y-121146428D01*
X185571428Y-121289285D01*
X185571428Y-121432142D01*
X185500000Y-121646428D01*
X184642857Y-122503571D01*
X185571428Y-122503571D01*
X187357142Y-121932142D02*
X188500000Y-121932142D01*
X187928571Y-122503571D02*
X187928571Y-121360714D01*
D12*
%TO.C,J2*%
X197930000Y-132000000D02*
G75*
G03*
X197930000Y-132000000I-2180000J0D01*
G01*
X197930000Y-127000000D02*
G75*
G03*
X197930000Y-127000000I-2180000J0D01*
G01*
X197930000Y-122000000D02*
G75*
G03*
X197930000Y-122000000I-2180000J0D01*
G01*
X197930000Y-117000000D02*
G75*
G03*
X197930000Y-117000000I-2180000J0D01*
G01*
X189470000Y-134560000D02*
X189470000Y-114439000D01*
X202970000Y-134560000D02*
X202970000Y-114439000D01*
X189470000Y-134560000D02*
X202950000Y-134560000D01*
X189470000Y-114439000D02*
X202970000Y-114439000D01*
X194362000Y-130346000D02*
X194469000Y-130453000D01*
X197297000Y-133282000D02*
X197404000Y-133388000D01*
X194096000Y-130612000D02*
X194203000Y-130719000D01*
X197031000Y-133548000D02*
X197138000Y-133654000D01*
X194362000Y-125346000D02*
X194758000Y-125741000D01*
X197024000Y-128007000D02*
X197404000Y-128387000D01*
X194096000Y-125612000D02*
X194476000Y-125992000D01*
X196742000Y-128258000D02*
X197138000Y-128653000D01*
X194362000Y-120346000D02*
X194758000Y-120741000D01*
X197024000Y-123007000D02*
X197404000Y-123387000D01*
X194096000Y-120612000D02*
X194476000Y-120992000D01*
X196742000Y-123258000D02*
X197138000Y-123653000D01*
X194362000Y-115346000D02*
X194758000Y-115741000D01*
X197024000Y-118007000D02*
X197404000Y-118387000D01*
X194096000Y-115612000D02*
X194476000Y-115992000D01*
X196742000Y-118258000D02*
X197138000Y-118653000D01*
X202610000Y-134800000D02*
X203250000Y-134800000D01*
X203250000Y-134800000D02*
X203250000Y-134400000D01*
X202450000Y-134500000D02*
X202450000Y-114500000D01*
X202150000Y-134500000D02*
X202150000Y-114500000D01*
%TO.C,C2*%
X139738748Y-111015000D02*
X140261252Y-111015000D01*
X139738748Y-112485000D02*
X140261252Y-112485000D01*
%TO.C,C3*%
X145735000Y-110288748D02*
X145735000Y-110811252D01*
X144265000Y-110288748D02*
X144265000Y-110811252D01*
%TO.C,C6*%
X154265000Y-90011252D02*
X154265000Y-89488748D01*
X155735000Y-90011252D02*
X155735000Y-89488748D01*
%TO.C,C11*%
X156265000Y-90011252D02*
X156265000Y-89488748D01*
X157735000Y-90011252D02*
X157735000Y-89488748D01*
%TO.C,C15*%
X153860000Y-124140000D02*
X150010000Y-124140000D01*
X143140000Y-124140000D02*
X146990000Y-124140000D01*
X143140000Y-133795563D02*
X143140000Y-124140000D01*
X153860000Y-133795563D02*
X153860000Y-124140000D01*
X152795563Y-134860000D02*
X150010000Y-134860000D01*
X144204437Y-134860000D02*
X146990000Y-134860000D01*
X144204437Y-134860000D02*
X143140000Y-133795563D01*
X152795563Y-134860000D02*
X153860000Y-133795563D01*
X145740000Y-136350000D02*
X145740000Y-135100000D01*
X145115000Y-135725000D02*
X146365000Y-135725000D01*
%TO.C,C16*%
X187610000Y-124140000D02*
X183760000Y-124140000D01*
X176890000Y-124140000D02*
X180740000Y-124140000D01*
X176890000Y-133795563D02*
X176890000Y-124140000D01*
X187610000Y-133795563D02*
X187610000Y-124140000D01*
X186545563Y-134860000D02*
X183760000Y-134860000D01*
X177954437Y-134860000D02*
X180740000Y-134860000D01*
X177954437Y-134860000D02*
X176890000Y-133795563D01*
X186545563Y-134860000D02*
X187610000Y-133795563D01*
X179490000Y-136350000D02*
X179490000Y-135100000D01*
X178865000Y-135725000D02*
X180115000Y-135725000D01*
%TO.C,C17*%
X176360000Y-124140000D02*
X172510000Y-124140000D01*
X165640000Y-124140000D02*
X169490000Y-124140000D01*
X165640000Y-133795563D02*
X165640000Y-124140000D01*
X176360000Y-133795563D02*
X176360000Y-124140000D01*
X175295563Y-134860000D02*
X172510000Y-134860000D01*
X166704437Y-134860000D02*
X169490000Y-134860000D01*
X166704437Y-134860000D02*
X165640000Y-133795563D01*
X175295563Y-134860000D02*
X176360000Y-133795563D01*
X168240000Y-136350000D02*
X168240000Y-135100000D01*
X167615000Y-135725000D02*
X168865000Y-135725000D01*
%TO.C,C18*%
X165110000Y-124140000D02*
X161260000Y-124140000D01*
X154390000Y-124140000D02*
X158240000Y-124140000D01*
X154390000Y-133795563D02*
X154390000Y-124140000D01*
X165110000Y-133795563D02*
X165110000Y-124140000D01*
X164045563Y-134860000D02*
X161260000Y-134860000D01*
X155454437Y-134860000D02*
X158240000Y-134860000D01*
X155454437Y-134860000D02*
X154390000Y-133795563D01*
X164045563Y-134860000D02*
X165110000Y-133795563D01*
X156990000Y-136350000D02*
X156990000Y-135100000D01*
X156365000Y-135725000D02*
X157615000Y-135725000D01*
%TO.C,D1*%
X175265000Y-98487500D02*
X175265000Y-100772500D01*
X175265000Y-100772500D02*
X176735000Y-100772500D01*
X176735000Y-100772500D02*
X176735000Y-98487500D01*
%TO.C,D2*%
X158015000Y-98487500D02*
X158015000Y-100772500D01*
X158015000Y-100772500D02*
X159485000Y-100772500D01*
X159485000Y-100772500D02*
X159485000Y-98487500D01*
%TO.C,J5*%
X137430000Y-97250000D02*
G75*
G03*
X137430000Y-97250000I-2180000J0D01*
G01*
X137430000Y-102250000D02*
G75*
G03*
X137430000Y-102250000I-2180000J0D01*
G01*
X130650000Y-94690000D02*
X130650000Y-104810000D01*
X131750000Y-94690000D02*
X131750000Y-104810000D01*
X139310000Y-94690000D02*
X139310000Y-104810000D01*
X130190000Y-94690000D02*
X130190000Y-104810000D01*
X139310000Y-94690000D02*
X130190000Y-94690000D01*
X139310000Y-104810000D02*
X130190000Y-104810000D01*
X136638000Y-98904000D02*
X136531000Y-98797000D01*
X133703000Y-95968000D02*
X133596000Y-95862000D01*
X136904000Y-98638000D02*
X136797000Y-98531000D01*
X133969000Y-95702000D02*
X133862000Y-95596000D01*
X136638000Y-103904000D02*
X136242000Y-103509000D01*
X133976000Y-101243000D02*
X133596000Y-100863000D01*
X136904000Y-103638000D02*
X136524000Y-103258000D01*
X134258000Y-100992000D02*
X133862000Y-100597000D01*
X130590000Y-94450000D02*
X129950000Y-94450000D01*
X129950000Y-94450000D02*
X129950000Y-94850000D01*
%TO.C,J_SWD1*%
X175840000Y-95860000D02*
X179260000Y-95860000D01*
X179260000Y-95860000D02*
X179260000Y-86390000D01*
X179260000Y-86390000D02*
X175840000Y-86390000D01*
X175840000Y-86390000D02*
X175840000Y-95860000D01*
X178750000Y-91125000D02*
X178750000Y-95350000D01*
X178750000Y-95350000D02*
X178000000Y-95350000D01*
X178000000Y-95350000D02*
X178000000Y-95550000D01*
X178000000Y-95550000D02*
X177200000Y-95550000D01*
X177200000Y-95550000D02*
X177200000Y-95350000D01*
X177200000Y-95350000D02*
X176350000Y-95350000D01*
X176350000Y-95350000D02*
X176350000Y-91125000D01*
X178750000Y-91125000D02*
X178750000Y-86900000D01*
X178750000Y-86900000D02*
X178000000Y-86900000D01*
X178000000Y-86900000D02*
X178000000Y-86700000D01*
X178000000Y-86700000D02*
X177200000Y-86700000D01*
X177200000Y-86700000D02*
X177200000Y-86900000D01*
X177200000Y-86900000D02*
X176350000Y-86900000D01*
X176350000Y-86900000D02*
X176350000Y-91125000D01*
X179550000Y-96150000D02*
X178550000Y-96150000D01*
X179550000Y-96150000D02*
X179550000Y-95150000D01*
%TO.C,Q1*%
X163572500Y-110615000D02*
X167077500Y-110615000D01*
X163807500Y-113885000D02*
X167077500Y-113885000D01*
X163807500Y-113550000D02*
X163807500Y-113885000D01*
X167077500Y-113550000D02*
X167077500Y-113885000D01*
X167077500Y-110615000D02*
X167077500Y-110950000D01*
%TO.C,Q2*%
X163572500Y-119615000D02*
X167077500Y-119615000D01*
X163807500Y-122885000D02*
X167077500Y-122885000D01*
X163807500Y-122550000D02*
X163807500Y-122885000D01*
X167077500Y-122550000D02*
X167077500Y-122885000D01*
X167077500Y-119615000D02*
X167077500Y-119950000D01*
%TO.C,R1*%
X141522500Y-101012742D02*
X141522500Y-101487258D01*
X140477500Y-101012742D02*
X140477500Y-101487258D01*
%TO.C,R2*%
X143272500Y-104337742D02*
X143272500Y-104812258D01*
X142227500Y-104337742D02*
X142227500Y-104812258D01*
%TO.C,R3*%
X140477500Y-98237258D02*
X140477500Y-97762742D01*
X141522500Y-98237258D02*
X141522500Y-97762742D01*
%TO.C,R4*%
X140477500Y-94987258D02*
X140477500Y-94512742D01*
X141522500Y-94987258D02*
X141522500Y-94512742D01*
%TO.C,R5*%
X169022500Y-99937742D02*
X169022500Y-100412258D01*
X167977500Y-99937742D02*
X167977500Y-100412258D01*
%TO.C,R6*%
X176522500Y-102337742D02*
X176522500Y-102812258D01*
X175477500Y-102337742D02*
X175477500Y-102812258D01*
%TO.C,R7*%
X159272500Y-102437742D02*
X159272500Y-102912258D01*
X158227500Y-102437742D02*
X158227500Y-102912258D01*
%TO.C,R8*%
X166087742Y-94727500D02*
X166562258Y-94727500D01*
X166087742Y-95772500D02*
X166562258Y-95772500D01*
%TO.C,R9*%
X163487258Y-95772500D02*
X163012742Y-95772500D01*
X163487258Y-94727500D02*
X163012742Y-94727500D01*
%TO.C,R10*%
X163412258Y-115522500D02*
X162937742Y-115522500D01*
X163412258Y-114477500D02*
X162937742Y-114477500D01*
%TO.C,R11*%
X162937742Y-116977500D02*
X163412258Y-116977500D01*
X162937742Y-118022500D02*
X163412258Y-118022500D01*
%TO.C,R12*%
X162022500Y-103012742D02*
X162022500Y-103487258D01*
X160977500Y-103012742D02*
X160977500Y-103487258D01*
%TO.C,R13*%
X167977500Y-103487258D02*
X167977500Y-103012742D01*
X169022500Y-103487258D02*
X169022500Y-103012742D01*
%TO.C,TH1*%
X166587742Y-117227500D02*
X167062258Y-117227500D01*
X166587742Y-118272500D02*
X167062258Y-118272500D01*
%TO.C,U1*%
X165000000Y-94135000D02*
X167200000Y-94135000D01*
X165000000Y-94135000D02*
X162800000Y-94135000D01*
X165000000Y-87365000D02*
X167200000Y-87365000D01*
X165000000Y-87365000D02*
X161400000Y-87365000D01*
%TO.C,U2*%
X147700000Y-111410000D02*
X146390000Y-111410000D01*
X146390000Y-111410000D02*
X146390000Y-108690000D01*
X150880000Y-107550000D02*
X150880000Y-108690000D01*
X151110000Y-111410000D02*
X149800000Y-111410000D01*
X151110000Y-108690000D02*
X151110000Y-111410000D01*
X151110000Y-108690000D02*
X150880000Y-108690000D01*
X146390000Y-108690000D02*
X146620000Y-108690000D01*
%TO.C,U3*%
X133470000Y-111110000D02*
X133140000Y-111110000D01*
X133140000Y-111110000D02*
X133140000Y-108390000D01*
X137530000Y-107210000D02*
X137530000Y-108390000D01*
X137860000Y-111110000D02*
X137530000Y-111110000D01*
X137860000Y-108390000D02*
X137860000Y-111110000D01*
X137860000Y-108390000D02*
X137530000Y-108390000D01*
X133140000Y-108390000D02*
X133470000Y-108390000D01*
%TO.C,U4*%
X162440000Y-100000000D02*
X162440000Y-101950000D01*
X162440000Y-100000000D02*
X162440000Y-98050000D01*
X167560000Y-100000000D02*
X167560000Y-101950000D01*
X167560000Y-100000000D02*
X167560000Y-96550000D01*
%TO.C,C1*%
X162640580Y-86760000D02*
X162359420Y-86760000D01*
X162640580Y-85740000D02*
X162359420Y-85740000D01*
%TO.C,C4*%
X141510000Y-104359420D02*
X141510000Y-104640580D01*
X140490000Y-104359420D02*
X140490000Y-104640580D01*
%TO.C,C5*%
X142240000Y-94865580D02*
X142240000Y-94584420D01*
X143260000Y-94865580D02*
X143260000Y-94584420D01*
%TO.C,C7*%
X139609420Y-107240000D02*
X139890580Y-107240000D01*
X139609420Y-108260000D02*
X139890580Y-108260000D01*
%TO.C,C8*%
X144640580Y-108260000D02*
X144359420Y-108260000D01*
X144640580Y-107240000D02*
X144359420Y-107240000D01*
%TO.C,C9*%
X158240000Y-89890580D02*
X158240000Y-89609420D01*
X159260000Y-89890580D02*
X159260000Y-89609420D01*
%TO.C,C10*%
X159740000Y-89890580D02*
X159740000Y-89609420D01*
X160760000Y-89890580D02*
X160760000Y-89609420D01*
%TO.C,C12*%
X170260000Y-90109420D02*
X170260000Y-90390580D01*
X169240000Y-90109420D02*
X169240000Y-90390580D01*
%TO.C,J1*%
X137430000Y-117000000D02*
G75*
G03*
X137430000Y-117000000I-2180000J0D01*
G01*
X137430000Y-122000000D02*
G75*
G03*
X137430000Y-122000000I-2180000J0D01*
G01*
X137430000Y-127000000D02*
G75*
G03*
X137430000Y-127000000I-2180000J0D01*
G01*
X137430000Y-132000000D02*
G75*
G03*
X137430000Y-132000000I-2180000J0D01*
G01*
X141530000Y-114440000D02*
X141530000Y-134561000D01*
X128030000Y-114440000D02*
X128030000Y-134561000D01*
X141530000Y-114440000D02*
X128050000Y-114440000D01*
X141530000Y-134561000D02*
X128030000Y-134561000D01*
X136638000Y-118654000D02*
X136531000Y-118547000D01*
X133703000Y-115718000D02*
X133596000Y-115612000D01*
X136904000Y-118388000D02*
X136797000Y-118281000D01*
X133969000Y-115452000D02*
X133862000Y-115346000D01*
X136638000Y-123654000D02*
X136242000Y-123259000D01*
X133976000Y-120993000D02*
X133596000Y-120613000D01*
X136904000Y-123388000D02*
X136524000Y-123008000D01*
X134258000Y-120742000D02*
X133862000Y-120347000D01*
X136638000Y-128654000D02*
X136242000Y-128259000D01*
X133976000Y-125993000D02*
X133596000Y-125613000D01*
X136904000Y-128388000D02*
X136524000Y-128008000D01*
X134258000Y-125742000D02*
X133862000Y-125347000D01*
X136638000Y-133654000D02*
X136242000Y-133259000D01*
X133976000Y-130993000D02*
X133596000Y-130613000D01*
X136904000Y-133388000D02*
X136524000Y-133008000D01*
X134258000Y-130742000D02*
X133862000Y-130347000D01*
X128390000Y-114200000D02*
X127750000Y-114200000D01*
X127750000Y-114200000D02*
X127750000Y-114600000D01*
X128550000Y-114500000D02*
X128550000Y-134500000D01*
X128850000Y-114500000D02*
X128850000Y-134500000D01*
%TO.C,J_SWD1*%
D10*
X174202380Y-93391904D02*
X174916666Y-93391904D01*
X175059523Y-93439523D01*
X175154761Y-93534761D01*
X175202380Y-93677619D01*
X175202380Y-93772857D01*
X175297619Y-93153809D02*
X175297619Y-92391904D01*
X175154761Y-92201428D02*
X175202380Y-92058571D01*
X175202380Y-91820476D01*
X175154761Y-91725238D01*
X175107142Y-91677619D01*
X175011904Y-91630000D01*
X174916666Y-91630000D01*
X174821428Y-91677619D01*
X174773809Y-91725238D01*
X174726190Y-91820476D01*
X174678571Y-92010952D01*
X174630952Y-92106190D01*
X174583333Y-92153809D01*
X174488095Y-92201428D01*
X174392857Y-92201428D01*
X174297619Y-92153809D01*
X174250000Y-92106190D01*
X174202380Y-92010952D01*
X174202380Y-91772857D01*
X174250000Y-91630000D01*
X174202380Y-91296666D02*
X175202380Y-91058571D01*
X174488095Y-90868095D01*
X175202380Y-90677619D01*
X174202380Y-90439523D01*
X175202380Y-90058571D02*
X174202380Y-90058571D01*
X174202380Y-89820476D01*
X174250000Y-89677619D01*
X174345238Y-89582380D01*
X174440476Y-89534761D01*
X174630952Y-89487142D01*
X174773809Y-89487142D01*
X174964285Y-89534761D01*
X175059523Y-89582380D01*
X175154761Y-89677619D01*
X175202380Y-89820476D01*
X175202380Y-90058571D01*
X175202380Y-88534761D02*
X175202380Y-89106190D01*
X175202380Y-88820476D02*
X174202380Y-88820476D01*
X174345238Y-88915714D01*
X174440476Y-89010952D01*
X174488095Y-89106190D01*
%TD*%
M02*
