M48
; DRILL file {KiCad 5.1.10-88a1d61d58~88~ubuntu20.04.1} date Wed May 12 04:56:04 2021
; FORMAT={-:-/ absolute / inch / decimal}
; #@! TF.CreationDate,2021-05-12T04:56:04+02:00
; #@! TF.GenerationSoftware,Kicad,Pcbnew,5.1.10-88a1d61d58~88~ubuntu20.04.1
; #@! TF.FileFunction,Plated,1,2,PTH
FMAT,2
INCH
T1C0.0079
T2C0.0157
T3C0.0197
T4C0.0512
%
G90
G05
T1
X6.4567Y-3.9114
X6.4567Y-3.9626
X6.4961Y-3.9114
X6.4961Y-3.9626
X6.5354Y-3.9114
X6.5354Y-3.9626
T2
X5.1575Y-4.2126
X5.1575Y-4.3996
X5.1575Y-4.9508
X5.1575Y-5.0984
X5.1575Y-5.2756
X5.4232Y-4.9508
X5.4232Y-5.0984
X5.4232Y-5.2756
X5.4724Y-4.0945
X5.502Y-3.6909
X5.5118Y-4.5669
X5.5118Y-4.685
X5.5118Y-4.8031
X5.5118Y-4.9508
X5.5118Y-5.0984
X5.5118Y-5.2756
X5.6004Y-5.4823
X5.6201Y-4.3701
X5.6791Y-4.5571
X5.6791Y-4.685
X5.6791Y-4.8031
X5.6791Y-4.9508
X5.6791Y-5.0984
X5.6791Y-5.2756
X5.6791Y-5.4823
X5.7579Y-5.4823
X5.8366Y-4.5669
X5.8366Y-4.685
X5.8366Y-4.8031
X5.8366Y-5.0984
X5.8366Y-5.4823
X5.9154Y-5.4823
X6.0335Y-4.2126
X6.0335Y-4.3996
X6.0335Y-4.5669
X6.0335Y-4.685
X6.0335Y-4.8031
X6.0335Y-4.9508
X6.0335Y-5.0984
X6.0335Y-5.2756
X6.0335Y-5.4823
X6.0433Y-3.5728
X6.0827Y-3.7205
X6.1417Y-4.2126
X6.1417Y-4.3996
X6.1417Y-4.5669
X6.1417Y-4.685
X6.1417Y-4.8031
X6.1417Y-4.9508
X6.1417Y-5.0984
X6.1417Y-5.2756
X6.1417Y-5.4823
X6.2402Y-4.1634
X6.2402Y-4.2717
X6.2402Y-4.3307
X6.2402Y-4.3996
X6.2402Y-4.4587
X6.2402Y-4.5079
X6.2402Y-4.5768
X6.25Y-3.4547
X6.25Y-5.0984
X6.25Y-5.4823
X6.2697Y-4.685
X6.2697Y-4.7343
X6.2697Y-4.8031
X6.2894Y-4.2717
X6.2894Y-4.3307
X6.2894Y-4.3996
X6.2894Y-4.4587
X6.2894Y-4.5079
X6.2894Y-4.5768
X6.3287Y-4.685
X6.3287Y-4.7343
X6.3287Y-4.8031
X6.3386Y-4.2717
X6.3386Y-4.3307
X6.3386Y-4.3996
X6.3386Y-4.4587
X6.3386Y-4.5079
X6.3386Y-4.5768
X6.3583Y-5.0984
X6.3583Y-5.4823
X6.378Y-4.685
X6.378Y-4.7441
X6.378Y-4.8031
X6.3986Y-4.5669
X6.4173Y-4.0945
X6.4173Y-4.6752
X6.4469Y-4.8527
X6.4567Y-4.6752
X6.4665Y-4.0945
X6.4665Y-5.0984
X6.4665Y-5.2756
X6.4665Y-5.4823
X6.4764Y-4.1437
X6.5059Y-4.6358
X6.5256Y-4.685
X6.5256Y-4.8622
X6.5256Y-4.1043
X6.5354Y-4.2717
X6.5354Y-4.3307
X6.5354Y-4.5079
X6.5354Y-4.5768
X6.5522Y-3.6024
X6.565Y-5.0984
X6.565Y-5.2756
X6.565Y-5.4823
X6.5748Y-4.2717
X6.5748Y-4.3307
X6.5748Y-4.5079
X6.5748Y-4.5768
X6.5748Y-4.685
X6.5748Y-4.8622
X6.624Y-4.2717
X6.624Y-4.3307
X6.624Y-4.3996
X6.624Y-4.4587
X6.624Y-4.5079
X6.624Y-4.5768
X6.624Y-4.685
X6.624Y-4.7441
X6.624Y-4.8031
X6.624Y-4.8622
X6.6437Y-4.6358
X6.6634Y-5.0984
X6.6634Y-5.4823
X6.6831Y-4.2717
X6.6831Y-4.3307
X6.6831Y-4.3996
X6.6831Y-4.4587
X6.6831Y-4.5079
X6.6831Y-4.5768
X6.6831Y-4.685
X6.6831Y-4.7441
X6.6831Y-4.8031
X6.7224Y-3.5827
X6.7224Y-4.0945
X6.7421Y-4.1437
X6.7421Y-4.2717
X6.7421Y-4.3307
X6.7421Y-4.3996
X6.7421Y-4.4587
X6.7421Y-4.5079
X6.7421Y-4.5768
X6.7421Y-4.685
X6.7421Y-4.7441
X6.7421Y-4.8031
X6.7815Y-5.0984
X6.7815Y-5.4823
X6.7908Y-3.78
X6.8406Y-3.7303
X6.8799Y-4.2126
X6.8799Y-4.3996
X6.8799Y-4.5669
X6.8799Y-4.685
X6.8799Y-4.8031
X6.8799Y-5.0984
X6.8799Y-5.2756
X6.8799Y-5.4823
X6.9291Y-4.1043
X7.0079Y-5.0984
X7.0079Y-5.2756
X7.0079Y-5.4921
X7.0177Y-4.2126
X7.0177Y-4.3996
X7.0177Y-4.5669
X7.0177Y-4.685
X7.0177Y-4.8031
X7.1063Y-4.2126
X7.1063Y-4.3996
X7.1063Y-4.5669
X7.1063Y-4.685
X7.1063Y-4.8031
X7.1063Y-5.0984
X7.1063Y-5.4921
X7.2244Y-4.2126
X7.2244Y-4.3996
X7.2244Y-4.5669
X7.2244Y-4.685
X7.2244Y-4.8031
X7.2244Y-5.0984
X7.2244Y-5.4921
X7.3425Y-4.2126
X7.3425Y-4.3996
X7.3425Y-4.5669
X7.3425Y-4.685
X7.3425Y-4.8031
X7.3425Y-5.0984
X7.3425Y-5.2756
X7.3425Y-5.4921
X7.4606Y-4.2126
X7.4606Y-4.3996
X7.4606Y-4.5669
X7.4606Y-4.685
X7.4606Y-4.8031
X7.4606Y-5.0984
X7.4606Y-5.2756
X7.4606Y-5.4921
X7.5591Y-4.2126
X7.5591Y-4.3996
X7.5591Y-4.5669
X7.5591Y-4.685
X7.5591Y-4.8031
X7.5591Y-5.0984
X7.5591Y-5.2756
X7.6969Y-4.2126
X7.7067Y-4.3996
X7.8839Y-4.2126
X7.8839Y-4.3996
X7.8839Y-4.9508
X7.8839Y-5.0984
X7.8839Y-5.2756
X7.9035Y-4.7539
T3
X7.0079Y-3.4646
X7.0079Y-3.5138
X7.0079Y-3.563
X7.0079Y-3.6122
X7.0079Y-3.6614
X7.0079Y-3.7106
T4
X5.3248Y-3.8287
X5.3248Y-4.0256
X5.3248Y-4.6063
X5.3248Y-4.8031
X5.3248Y-5.0
X5.3248Y-5.1969
X7.7067Y-4.6063
X7.7067Y-4.8031
X7.7067Y-5.0
X7.7067Y-5.1969
T0
M30
