%TF.GenerationSoftware,KiCad,Pcbnew,5.1.10-88a1d61d58~88~ubuntu20.04.1*%
%TF.CreationDate,2021-05-12T17:30:15+02:00*%
%TF.ProjectId,halfVoltageMosfetBoard,68616c66-566f-46c7-9461-67654d6f7366,rev?*%
%TF.SameCoordinates,Original*%
%TF.FileFunction,Soldermask,Top*%
%TF.FilePolarity,Negative*%
%FSLAX46Y46*%
G04 Gerber Fmt 4.6, Leading zero omitted, Abs format (unit mm)*
G04 Created by KiCad (PCBNEW 5.1.10-88a1d61d58~88~ubuntu20.04.1) date 2021-05-12 17:30:15*
%MOMM*%
%LPD*%
G01*
G04 APERTURE LIST*
%ADD10R,0.900000X0.800000*%
%ADD11R,0.800000X0.900000*%
%ADD12R,2.600000X2.600000*%
%ADD13C,2.600000*%
%ADD14C,3.500000*%
%ADD15O,1.300000X0.800000*%
%ADD16C,0.100000*%
%ADD17R,0.990000X0.405000*%
%ADD18R,0.900000X1.300000*%
%ADD19R,0.700000X1.500000*%
%ADD20R,3.000000X2.290000*%
G04 APERTURE END LIST*
D10*
%TO.C,D5*%
X146250000Y-99750000D03*
X144250000Y-100700000D03*
X144250000Y-98800000D03*
%TD*%
D11*
%TO.C,D4*%
X146000000Y-93750000D03*
X146950000Y-95750000D03*
X145050000Y-95750000D03*
%TD*%
D12*
%TO.C,J2*%
X195750000Y-132000000D03*
D13*
X195750000Y-127000000D03*
X195750000Y-122000000D03*
X195750000Y-117000000D03*
%TD*%
%TO.C,C2*%
G36*
G01*
X140450000Y-112225000D02*
X140450000Y-111275000D01*
G75*
G02*
X140700000Y-111025000I250000J0D01*
G01*
X141200000Y-111025000D01*
G75*
G02*
X141450000Y-111275000I0J-250000D01*
G01*
X141450000Y-112225000D01*
G75*
G02*
X141200000Y-112475000I-250000J0D01*
G01*
X140700000Y-112475000D01*
G75*
G02*
X140450000Y-112225000I0J250000D01*
G01*
G37*
G36*
G01*
X138550000Y-112225000D02*
X138550000Y-111275000D01*
G75*
G02*
X138800000Y-111025000I250000J0D01*
G01*
X139300000Y-111025000D01*
G75*
G02*
X139550000Y-111275000I0J-250000D01*
G01*
X139550000Y-112225000D01*
G75*
G02*
X139300000Y-112475000I-250000J0D01*
G01*
X138800000Y-112475000D01*
G75*
G02*
X138550000Y-112225000I0J250000D01*
G01*
G37*
%TD*%
%TO.C,C3*%
G36*
G01*
X144525000Y-111000000D02*
X145475000Y-111000000D01*
G75*
G02*
X145725000Y-111250000I0J-250000D01*
G01*
X145725000Y-111750000D01*
G75*
G02*
X145475000Y-112000000I-250000J0D01*
G01*
X144525000Y-112000000D01*
G75*
G02*
X144275000Y-111750000I0J250000D01*
G01*
X144275000Y-111250000D01*
G75*
G02*
X144525000Y-111000000I250000J0D01*
G01*
G37*
G36*
G01*
X144525000Y-109100000D02*
X145475000Y-109100000D01*
G75*
G02*
X145725000Y-109350000I0J-250000D01*
G01*
X145725000Y-109850000D01*
G75*
G02*
X145475000Y-110100000I-250000J0D01*
G01*
X144525000Y-110100000D01*
G75*
G02*
X144275000Y-109850000I0J250000D01*
G01*
X144275000Y-109350000D01*
G75*
G02*
X144525000Y-109100000I250000J0D01*
G01*
G37*
%TD*%
%TO.C,C6*%
G36*
G01*
X155475000Y-89300000D02*
X154525000Y-89300000D01*
G75*
G02*
X154275000Y-89050000I0J250000D01*
G01*
X154275000Y-88550000D01*
G75*
G02*
X154525000Y-88300000I250000J0D01*
G01*
X155475000Y-88300000D01*
G75*
G02*
X155725000Y-88550000I0J-250000D01*
G01*
X155725000Y-89050000D01*
G75*
G02*
X155475000Y-89300000I-250000J0D01*
G01*
G37*
G36*
G01*
X155475000Y-91200000D02*
X154525000Y-91200000D01*
G75*
G02*
X154275000Y-90950000I0J250000D01*
G01*
X154275000Y-90450000D01*
G75*
G02*
X154525000Y-90200000I250000J0D01*
G01*
X155475000Y-90200000D01*
G75*
G02*
X155725000Y-90450000I0J-250000D01*
G01*
X155725000Y-90950000D01*
G75*
G02*
X155475000Y-91200000I-250000J0D01*
G01*
G37*
%TD*%
%TO.C,C11*%
G36*
G01*
X157475000Y-89300000D02*
X156525000Y-89300000D01*
G75*
G02*
X156275000Y-89050000I0J250000D01*
G01*
X156275000Y-88550000D01*
G75*
G02*
X156525000Y-88300000I250000J0D01*
G01*
X157475000Y-88300000D01*
G75*
G02*
X157725000Y-88550000I0J-250000D01*
G01*
X157725000Y-89050000D01*
G75*
G02*
X157475000Y-89300000I-250000J0D01*
G01*
G37*
G36*
G01*
X157475000Y-91200000D02*
X156525000Y-91200000D01*
G75*
G02*
X156275000Y-90950000I0J250000D01*
G01*
X156275000Y-90450000D01*
G75*
G02*
X156525000Y-90200000I250000J0D01*
G01*
X157475000Y-90200000D01*
G75*
G02*
X157725000Y-90450000I0J-250000D01*
G01*
X157725000Y-90950000D01*
G75*
G02*
X157475000Y-91200000I-250000J0D01*
G01*
G37*
%TD*%
%TO.C,C15*%
G36*
G01*
X149500000Y-127500000D02*
X147500000Y-127500000D01*
G75*
G02*
X147250000Y-127250000I0J250000D01*
G01*
X147250000Y-123350000D01*
G75*
G02*
X147500000Y-123100000I250000J0D01*
G01*
X149500000Y-123100000D01*
G75*
G02*
X149750000Y-123350000I0J-250000D01*
G01*
X149750000Y-127250000D01*
G75*
G02*
X149500000Y-127500000I-250000J0D01*
G01*
G37*
G36*
G01*
X149500000Y-135900000D02*
X147500000Y-135900000D01*
G75*
G02*
X147250000Y-135650000I0J250000D01*
G01*
X147250000Y-131750000D01*
G75*
G02*
X147500000Y-131500000I250000J0D01*
G01*
X149500000Y-131500000D01*
G75*
G02*
X149750000Y-131750000I0J-250000D01*
G01*
X149750000Y-135650000D01*
G75*
G02*
X149500000Y-135900000I-250000J0D01*
G01*
G37*
%TD*%
%TO.C,C16*%
G36*
G01*
X183250000Y-127500000D02*
X181250000Y-127500000D01*
G75*
G02*
X181000000Y-127250000I0J250000D01*
G01*
X181000000Y-123350000D01*
G75*
G02*
X181250000Y-123100000I250000J0D01*
G01*
X183250000Y-123100000D01*
G75*
G02*
X183500000Y-123350000I0J-250000D01*
G01*
X183500000Y-127250000D01*
G75*
G02*
X183250000Y-127500000I-250000J0D01*
G01*
G37*
G36*
G01*
X183250000Y-135900000D02*
X181250000Y-135900000D01*
G75*
G02*
X181000000Y-135650000I0J250000D01*
G01*
X181000000Y-131750000D01*
G75*
G02*
X181250000Y-131500000I250000J0D01*
G01*
X183250000Y-131500000D01*
G75*
G02*
X183500000Y-131750000I0J-250000D01*
G01*
X183500000Y-135650000D01*
G75*
G02*
X183250000Y-135900000I-250000J0D01*
G01*
G37*
%TD*%
%TO.C,C17*%
G36*
G01*
X172000000Y-127500000D02*
X170000000Y-127500000D01*
G75*
G02*
X169750000Y-127250000I0J250000D01*
G01*
X169750000Y-123350000D01*
G75*
G02*
X170000000Y-123100000I250000J0D01*
G01*
X172000000Y-123100000D01*
G75*
G02*
X172250000Y-123350000I0J-250000D01*
G01*
X172250000Y-127250000D01*
G75*
G02*
X172000000Y-127500000I-250000J0D01*
G01*
G37*
G36*
G01*
X172000000Y-135900000D02*
X170000000Y-135900000D01*
G75*
G02*
X169750000Y-135650000I0J250000D01*
G01*
X169750000Y-131750000D01*
G75*
G02*
X170000000Y-131500000I250000J0D01*
G01*
X172000000Y-131500000D01*
G75*
G02*
X172250000Y-131750000I0J-250000D01*
G01*
X172250000Y-135650000D01*
G75*
G02*
X172000000Y-135900000I-250000J0D01*
G01*
G37*
%TD*%
%TO.C,C18*%
G36*
G01*
X160750000Y-127500000D02*
X158750000Y-127500000D01*
G75*
G02*
X158500000Y-127250000I0J250000D01*
G01*
X158500000Y-123350000D01*
G75*
G02*
X158750000Y-123100000I250000J0D01*
G01*
X160750000Y-123100000D01*
G75*
G02*
X161000000Y-123350000I0J-250000D01*
G01*
X161000000Y-127250000D01*
G75*
G02*
X160750000Y-127500000I-250000J0D01*
G01*
G37*
G36*
G01*
X160750000Y-135900000D02*
X158750000Y-135900000D01*
G75*
G02*
X158500000Y-135650000I0J250000D01*
G01*
X158500000Y-131750000D01*
G75*
G02*
X158750000Y-131500000I250000J0D01*
G01*
X160750000Y-131500000D01*
G75*
G02*
X161000000Y-131750000I0J-250000D01*
G01*
X161000000Y-135650000D01*
G75*
G02*
X160750000Y-135900000I-250000J0D01*
G01*
G37*
%TD*%
%TO.C,D1*%
G36*
G01*
X176256250Y-98937500D02*
X175743750Y-98937500D01*
G75*
G02*
X175525000Y-98718750I0J218750D01*
G01*
X175525000Y-98281250D01*
G75*
G02*
X175743750Y-98062500I218750J0D01*
G01*
X176256250Y-98062500D01*
G75*
G02*
X176475000Y-98281250I0J-218750D01*
G01*
X176475000Y-98718750D01*
G75*
G02*
X176256250Y-98937500I-218750J0D01*
G01*
G37*
G36*
G01*
X176256250Y-100512500D02*
X175743750Y-100512500D01*
G75*
G02*
X175525000Y-100293750I0J218750D01*
G01*
X175525000Y-99856250D01*
G75*
G02*
X175743750Y-99637500I218750J0D01*
G01*
X176256250Y-99637500D01*
G75*
G02*
X176475000Y-99856250I0J-218750D01*
G01*
X176475000Y-100293750D01*
G75*
G02*
X176256250Y-100512500I-218750J0D01*
G01*
G37*
%TD*%
%TO.C,D2*%
G36*
G01*
X159006250Y-98937500D02*
X158493750Y-98937500D01*
G75*
G02*
X158275000Y-98718750I0J218750D01*
G01*
X158275000Y-98281250D01*
G75*
G02*
X158493750Y-98062500I218750J0D01*
G01*
X159006250Y-98062500D01*
G75*
G02*
X159225000Y-98281250I0J-218750D01*
G01*
X159225000Y-98718750D01*
G75*
G02*
X159006250Y-98937500I-218750J0D01*
G01*
G37*
G36*
G01*
X159006250Y-100512500D02*
X158493750Y-100512500D01*
G75*
G02*
X158275000Y-100293750I0J218750D01*
G01*
X158275000Y-99856250D01*
G75*
G02*
X158493750Y-99637500I218750J0D01*
G01*
X159006250Y-99637500D01*
G75*
G02*
X159225000Y-99856250I0J-218750D01*
G01*
X159225000Y-100293750D01*
G75*
G02*
X159006250Y-100512500I-218750J0D01*
G01*
G37*
%TD*%
D14*
%TO.C,H1*%
X198000000Y-139250000D03*
%TD*%
%TO.C,H2*%
X198000000Y-89250000D03*
%TD*%
%TO.C,H3*%
X133000000Y-139250000D03*
%TD*%
%TO.C,H4*%
X133000000Y-89250000D03*
%TD*%
D13*
%TO.C,J5*%
X135250000Y-102250000D03*
D12*
X135250000Y-97250000D03*
%TD*%
D15*
%TO.C,J_SWD1*%
X178000000Y-88000000D03*
X178000000Y-89250000D03*
X178000000Y-90500000D03*
X178000000Y-91750000D03*
X178000000Y-93000000D03*
G36*
G01*
X178450000Y-94650000D02*
X177550000Y-94650000D01*
G75*
G02*
X177350000Y-94450000I0J200000D01*
G01*
X177350000Y-94050000D01*
G75*
G02*
X177550000Y-93850000I200000J0D01*
G01*
X178450000Y-93850000D01*
G75*
G02*
X178650000Y-94050000I0J-200000D01*
G01*
X178650000Y-94450000D01*
G75*
G02*
X178450000Y-94650000I-200000J0D01*
G01*
G37*
%TD*%
D16*
%TO.C,Q1*%
G36*
X167372500Y-111462500D02*
G01*
X166862500Y-111462500D01*
X166862500Y-111717500D01*
X167372500Y-111717500D01*
X167372500Y-112122500D01*
X166862500Y-112122500D01*
X166862500Y-112377500D01*
X167372500Y-112377500D01*
X167372500Y-112782500D01*
X166862500Y-112782500D01*
X166862500Y-113037500D01*
X167372500Y-113037500D01*
X167372500Y-113445000D01*
X166612500Y-113445000D01*
X166612500Y-113367500D01*
X165137500Y-113367500D01*
X165137500Y-111132500D01*
X166612500Y-111132500D01*
X166612500Y-111055000D01*
X167372500Y-111055000D01*
X167372500Y-111462500D01*
G37*
D17*
X164007500Y-113240000D03*
X164007500Y-112580000D03*
X164007500Y-111920000D03*
X164007500Y-111260000D03*
%TD*%
D16*
%TO.C,Q2*%
G36*
X167372500Y-120462500D02*
G01*
X166862500Y-120462500D01*
X166862500Y-120717500D01*
X167372500Y-120717500D01*
X167372500Y-121122500D01*
X166862500Y-121122500D01*
X166862500Y-121377500D01*
X167372500Y-121377500D01*
X167372500Y-121782500D01*
X166862500Y-121782500D01*
X166862500Y-122037500D01*
X167372500Y-122037500D01*
X167372500Y-122445000D01*
X166612500Y-122445000D01*
X166612500Y-122367500D01*
X165137500Y-122367500D01*
X165137500Y-120132500D01*
X166612500Y-120132500D01*
X166612500Y-120055000D01*
X167372500Y-120055000D01*
X167372500Y-120462500D01*
G37*
D17*
X164007500Y-122240000D03*
X164007500Y-121580000D03*
X164007500Y-120920000D03*
X164007500Y-120260000D03*
%TD*%
%TO.C,R1*%
G36*
G01*
X140725000Y-101675000D02*
X141275000Y-101675000D01*
G75*
G02*
X141475000Y-101875000I0J-200000D01*
G01*
X141475000Y-102275000D01*
G75*
G02*
X141275000Y-102475000I-200000J0D01*
G01*
X140725000Y-102475000D01*
G75*
G02*
X140525000Y-102275000I0J200000D01*
G01*
X140525000Y-101875000D01*
G75*
G02*
X140725000Y-101675000I200000J0D01*
G01*
G37*
G36*
G01*
X140725000Y-100025000D02*
X141275000Y-100025000D01*
G75*
G02*
X141475000Y-100225000I0J-200000D01*
G01*
X141475000Y-100625000D01*
G75*
G02*
X141275000Y-100825000I-200000J0D01*
G01*
X140725000Y-100825000D01*
G75*
G02*
X140525000Y-100625000I0J200000D01*
G01*
X140525000Y-100225000D01*
G75*
G02*
X140725000Y-100025000I200000J0D01*
G01*
G37*
%TD*%
%TO.C,R2*%
G36*
G01*
X140725000Y-104925000D02*
X141275000Y-104925000D01*
G75*
G02*
X141475000Y-105125000I0J-200000D01*
G01*
X141475000Y-105525000D01*
G75*
G02*
X141275000Y-105725000I-200000J0D01*
G01*
X140725000Y-105725000D01*
G75*
G02*
X140525000Y-105525000I0J200000D01*
G01*
X140525000Y-105125000D01*
G75*
G02*
X140725000Y-104925000I200000J0D01*
G01*
G37*
G36*
G01*
X140725000Y-103275000D02*
X141275000Y-103275000D01*
G75*
G02*
X141475000Y-103475000I0J-200000D01*
G01*
X141475000Y-103875000D01*
G75*
G02*
X141275000Y-104075000I-200000J0D01*
G01*
X140725000Y-104075000D01*
G75*
G02*
X140525000Y-103875000I0J200000D01*
G01*
X140525000Y-103475000D01*
G75*
G02*
X140725000Y-103275000I200000J0D01*
G01*
G37*
%TD*%
%TO.C,R3*%
G36*
G01*
X141275000Y-97575000D02*
X140725000Y-97575000D01*
G75*
G02*
X140525000Y-97375000I0J200000D01*
G01*
X140525000Y-96975000D01*
G75*
G02*
X140725000Y-96775000I200000J0D01*
G01*
X141275000Y-96775000D01*
G75*
G02*
X141475000Y-96975000I0J-200000D01*
G01*
X141475000Y-97375000D01*
G75*
G02*
X141275000Y-97575000I-200000J0D01*
G01*
G37*
G36*
G01*
X141275000Y-99225000D02*
X140725000Y-99225000D01*
G75*
G02*
X140525000Y-99025000I0J200000D01*
G01*
X140525000Y-98625000D01*
G75*
G02*
X140725000Y-98425000I200000J0D01*
G01*
X141275000Y-98425000D01*
G75*
G02*
X141475000Y-98625000I0J-200000D01*
G01*
X141475000Y-99025000D01*
G75*
G02*
X141275000Y-99225000I-200000J0D01*
G01*
G37*
%TD*%
%TO.C,R4*%
G36*
G01*
X140725000Y-95175000D02*
X141275000Y-95175000D01*
G75*
G02*
X141475000Y-95375000I0J-200000D01*
G01*
X141475000Y-95775000D01*
G75*
G02*
X141275000Y-95975000I-200000J0D01*
G01*
X140725000Y-95975000D01*
G75*
G02*
X140525000Y-95775000I0J200000D01*
G01*
X140525000Y-95375000D01*
G75*
G02*
X140725000Y-95175000I200000J0D01*
G01*
G37*
G36*
G01*
X140725000Y-93525000D02*
X141275000Y-93525000D01*
G75*
G02*
X141475000Y-93725000I0J-200000D01*
G01*
X141475000Y-94125000D01*
G75*
G02*
X141275000Y-94325000I-200000J0D01*
G01*
X140725000Y-94325000D01*
G75*
G02*
X140525000Y-94125000I0J200000D01*
G01*
X140525000Y-93725000D01*
G75*
G02*
X140725000Y-93525000I200000J0D01*
G01*
G37*
%TD*%
%TO.C,R5*%
G36*
G01*
X168225000Y-100600000D02*
X168775000Y-100600000D01*
G75*
G02*
X168975000Y-100800000I0J-200000D01*
G01*
X168975000Y-101200000D01*
G75*
G02*
X168775000Y-101400000I-200000J0D01*
G01*
X168225000Y-101400000D01*
G75*
G02*
X168025000Y-101200000I0J200000D01*
G01*
X168025000Y-100800000D01*
G75*
G02*
X168225000Y-100600000I200000J0D01*
G01*
G37*
G36*
G01*
X168225000Y-98950000D02*
X168775000Y-98950000D01*
G75*
G02*
X168975000Y-99150000I0J-200000D01*
G01*
X168975000Y-99550000D01*
G75*
G02*
X168775000Y-99750000I-200000J0D01*
G01*
X168225000Y-99750000D01*
G75*
G02*
X168025000Y-99550000I0J200000D01*
G01*
X168025000Y-99150000D01*
G75*
G02*
X168225000Y-98950000I200000J0D01*
G01*
G37*
%TD*%
%TO.C,R6*%
G36*
G01*
X175725000Y-103000000D02*
X176275000Y-103000000D01*
G75*
G02*
X176475000Y-103200000I0J-200000D01*
G01*
X176475000Y-103600000D01*
G75*
G02*
X176275000Y-103800000I-200000J0D01*
G01*
X175725000Y-103800000D01*
G75*
G02*
X175525000Y-103600000I0J200000D01*
G01*
X175525000Y-103200000D01*
G75*
G02*
X175725000Y-103000000I200000J0D01*
G01*
G37*
G36*
G01*
X175725000Y-101350000D02*
X176275000Y-101350000D01*
G75*
G02*
X176475000Y-101550000I0J-200000D01*
G01*
X176475000Y-101950000D01*
G75*
G02*
X176275000Y-102150000I-200000J0D01*
G01*
X175725000Y-102150000D01*
G75*
G02*
X175525000Y-101950000I0J200000D01*
G01*
X175525000Y-101550000D01*
G75*
G02*
X175725000Y-101350000I200000J0D01*
G01*
G37*
%TD*%
%TO.C,R7*%
G36*
G01*
X158475000Y-103100000D02*
X159025000Y-103100000D01*
G75*
G02*
X159225000Y-103300000I0J-200000D01*
G01*
X159225000Y-103700000D01*
G75*
G02*
X159025000Y-103900000I-200000J0D01*
G01*
X158475000Y-103900000D01*
G75*
G02*
X158275000Y-103700000I0J200000D01*
G01*
X158275000Y-103300000D01*
G75*
G02*
X158475000Y-103100000I200000J0D01*
G01*
G37*
G36*
G01*
X158475000Y-101450000D02*
X159025000Y-101450000D01*
G75*
G02*
X159225000Y-101650000I0J-200000D01*
G01*
X159225000Y-102050000D01*
G75*
G02*
X159025000Y-102250000I-200000J0D01*
G01*
X158475000Y-102250000D01*
G75*
G02*
X158275000Y-102050000I0J200000D01*
G01*
X158275000Y-101650000D01*
G75*
G02*
X158475000Y-101450000I200000J0D01*
G01*
G37*
%TD*%
%TO.C,R8*%
G36*
G01*
X166750000Y-95525000D02*
X166750000Y-94975000D01*
G75*
G02*
X166950000Y-94775000I200000J0D01*
G01*
X167350000Y-94775000D01*
G75*
G02*
X167550000Y-94975000I0J-200000D01*
G01*
X167550000Y-95525000D01*
G75*
G02*
X167350000Y-95725000I-200000J0D01*
G01*
X166950000Y-95725000D01*
G75*
G02*
X166750000Y-95525000I0J200000D01*
G01*
G37*
G36*
G01*
X165100000Y-95525000D02*
X165100000Y-94975000D01*
G75*
G02*
X165300000Y-94775000I200000J0D01*
G01*
X165700000Y-94775000D01*
G75*
G02*
X165900000Y-94975000I0J-200000D01*
G01*
X165900000Y-95525000D01*
G75*
G02*
X165700000Y-95725000I-200000J0D01*
G01*
X165300000Y-95725000D01*
G75*
G02*
X165100000Y-95525000I0J200000D01*
G01*
G37*
%TD*%
%TO.C,R9*%
G36*
G01*
X162825000Y-94975000D02*
X162825000Y-95525000D01*
G75*
G02*
X162625000Y-95725000I-200000J0D01*
G01*
X162225000Y-95725000D01*
G75*
G02*
X162025000Y-95525000I0J200000D01*
G01*
X162025000Y-94975000D01*
G75*
G02*
X162225000Y-94775000I200000J0D01*
G01*
X162625000Y-94775000D01*
G75*
G02*
X162825000Y-94975000I0J-200000D01*
G01*
G37*
G36*
G01*
X164475000Y-94975000D02*
X164475000Y-95525000D01*
G75*
G02*
X164275000Y-95725000I-200000J0D01*
G01*
X163875000Y-95725000D01*
G75*
G02*
X163675000Y-95525000I0J200000D01*
G01*
X163675000Y-94975000D01*
G75*
G02*
X163875000Y-94775000I200000J0D01*
G01*
X164275000Y-94775000D01*
G75*
G02*
X164475000Y-94975000I0J-200000D01*
G01*
G37*
%TD*%
%TO.C,R10*%
G36*
G01*
X162750000Y-114725000D02*
X162750000Y-115275000D01*
G75*
G02*
X162550000Y-115475000I-200000J0D01*
G01*
X162150000Y-115475000D01*
G75*
G02*
X161950000Y-115275000I0J200000D01*
G01*
X161950000Y-114725000D01*
G75*
G02*
X162150000Y-114525000I200000J0D01*
G01*
X162550000Y-114525000D01*
G75*
G02*
X162750000Y-114725000I0J-200000D01*
G01*
G37*
G36*
G01*
X164400000Y-114725000D02*
X164400000Y-115275000D01*
G75*
G02*
X164200000Y-115475000I-200000J0D01*
G01*
X163800000Y-115475000D01*
G75*
G02*
X163600000Y-115275000I0J200000D01*
G01*
X163600000Y-114725000D01*
G75*
G02*
X163800000Y-114525000I200000J0D01*
G01*
X164200000Y-114525000D01*
G75*
G02*
X164400000Y-114725000I0J-200000D01*
G01*
G37*
%TD*%
%TO.C,R11*%
G36*
G01*
X163600000Y-117775000D02*
X163600000Y-117225000D01*
G75*
G02*
X163800000Y-117025000I200000J0D01*
G01*
X164200000Y-117025000D01*
G75*
G02*
X164400000Y-117225000I0J-200000D01*
G01*
X164400000Y-117775000D01*
G75*
G02*
X164200000Y-117975000I-200000J0D01*
G01*
X163800000Y-117975000D01*
G75*
G02*
X163600000Y-117775000I0J200000D01*
G01*
G37*
G36*
G01*
X161950000Y-117775000D02*
X161950000Y-117225000D01*
G75*
G02*
X162150000Y-117025000I200000J0D01*
G01*
X162550000Y-117025000D01*
G75*
G02*
X162750000Y-117225000I0J-200000D01*
G01*
X162750000Y-117775000D01*
G75*
G02*
X162550000Y-117975000I-200000J0D01*
G01*
X162150000Y-117975000D01*
G75*
G02*
X161950000Y-117775000I0J200000D01*
G01*
G37*
%TD*%
%TO.C,R12*%
G36*
G01*
X161225000Y-103675000D02*
X161775000Y-103675000D01*
G75*
G02*
X161975000Y-103875000I0J-200000D01*
G01*
X161975000Y-104275000D01*
G75*
G02*
X161775000Y-104475000I-200000J0D01*
G01*
X161225000Y-104475000D01*
G75*
G02*
X161025000Y-104275000I0J200000D01*
G01*
X161025000Y-103875000D01*
G75*
G02*
X161225000Y-103675000I200000J0D01*
G01*
G37*
G36*
G01*
X161225000Y-102025000D02*
X161775000Y-102025000D01*
G75*
G02*
X161975000Y-102225000I0J-200000D01*
G01*
X161975000Y-102625000D01*
G75*
G02*
X161775000Y-102825000I-200000J0D01*
G01*
X161225000Y-102825000D01*
G75*
G02*
X161025000Y-102625000I0J200000D01*
G01*
X161025000Y-102225000D01*
G75*
G02*
X161225000Y-102025000I200000J0D01*
G01*
G37*
%TD*%
%TO.C,R13*%
G36*
G01*
X168775000Y-102825000D02*
X168225000Y-102825000D01*
G75*
G02*
X168025000Y-102625000I0J200000D01*
G01*
X168025000Y-102225000D01*
G75*
G02*
X168225000Y-102025000I200000J0D01*
G01*
X168775000Y-102025000D01*
G75*
G02*
X168975000Y-102225000I0J-200000D01*
G01*
X168975000Y-102625000D01*
G75*
G02*
X168775000Y-102825000I-200000J0D01*
G01*
G37*
G36*
G01*
X168775000Y-104475000D02*
X168225000Y-104475000D01*
G75*
G02*
X168025000Y-104275000I0J200000D01*
G01*
X168025000Y-103875000D01*
G75*
G02*
X168225000Y-103675000I200000J0D01*
G01*
X168775000Y-103675000D01*
G75*
G02*
X168975000Y-103875000I0J-200000D01*
G01*
X168975000Y-104275000D01*
G75*
G02*
X168775000Y-104475000I-200000J0D01*
G01*
G37*
%TD*%
%TO.C,TH1*%
G36*
G01*
X167250000Y-118025000D02*
X167250000Y-117475000D01*
G75*
G02*
X167450000Y-117275000I200000J0D01*
G01*
X167850000Y-117275000D01*
G75*
G02*
X168050000Y-117475000I0J-200000D01*
G01*
X168050000Y-118025000D01*
G75*
G02*
X167850000Y-118225000I-200000J0D01*
G01*
X167450000Y-118225000D01*
G75*
G02*
X167250000Y-118025000I0J200000D01*
G01*
G37*
G36*
G01*
X165600000Y-118025000D02*
X165600000Y-117475000D01*
G75*
G02*
X165800000Y-117275000I200000J0D01*
G01*
X166200000Y-117275000D01*
G75*
G02*
X166400000Y-117475000I0J-200000D01*
G01*
X166400000Y-118025000D01*
G75*
G02*
X166200000Y-118225000I-200000J0D01*
G01*
X165800000Y-118225000D01*
G75*
G02*
X165600000Y-118025000I0J200000D01*
G01*
G37*
%TD*%
%TO.C,U1*%
G36*
G01*
X167125000Y-87925000D02*
X167125000Y-87725000D01*
G75*
G02*
X167225000Y-87625000I100000J0D01*
G01*
X168500000Y-87625000D01*
G75*
G02*
X168600000Y-87725000I0J-100000D01*
G01*
X168600000Y-87925000D01*
G75*
G02*
X168500000Y-88025000I-100000J0D01*
G01*
X167225000Y-88025000D01*
G75*
G02*
X167125000Y-87925000I0J100000D01*
G01*
G37*
G36*
G01*
X167125000Y-88575000D02*
X167125000Y-88375000D01*
G75*
G02*
X167225000Y-88275000I100000J0D01*
G01*
X168500000Y-88275000D01*
G75*
G02*
X168600000Y-88375000I0J-100000D01*
G01*
X168600000Y-88575000D01*
G75*
G02*
X168500000Y-88675000I-100000J0D01*
G01*
X167225000Y-88675000D01*
G75*
G02*
X167125000Y-88575000I0J100000D01*
G01*
G37*
G36*
G01*
X167125000Y-89225000D02*
X167125000Y-89025000D01*
G75*
G02*
X167225000Y-88925000I100000J0D01*
G01*
X168500000Y-88925000D01*
G75*
G02*
X168600000Y-89025000I0J-100000D01*
G01*
X168600000Y-89225000D01*
G75*
G02*
X168500000Y-89325000I-100000J0D01*
G01*
X167225000Y-89325000D01*
G75*
G02*
X167125000Y-89225000I0J100000D01*
G01*
G37*
G36*
G01*
X167125000Y-89875000D02*
X167125000Y-89675000D01*
G75*
G02*
X167225000Y-89575000I100000J0D01*
G01*
X168500000Y-89575000D01*
G75*
G02*
X168600000Y-89675000I0J-100000D01*
G01*
X168600000Y-89875000D01*
G75*
G02*
X168500000Y-89975000I-100000J0D01*
G01*
X167225000Y-89975000D01*
G75*
G02*
X167125000Y-89875000I0J100000D01*
G01*
G37*
G36*
G01*
X167125000Y-90525000D02*
X167125000Y-90325000D01*
G75*
G02*
X167225000Y-90225000I100000J0D01*
G01*
X168500000Y-90225000D01*
G75*
G02*
X168600000Y-90325000I0J-100000D01*
G01*
X168600000Y-90525000D01*
G75*
G02*
X168500000Y-90625000I-100000J0D01*
G01*
X167225000Y-90625000D01*
G75*
G02*
X167125000Y-90525000I0J100000D01*
G01*
G37*
G36*
G01*
X167125000Y-91175000D02*
X167125000Y-90975000D01*
G75*
G02*
X167225000Y-90875000I100000J0D01*
G01*
X168500000Y-90875000D01*
G75*
G02*
X168600000Y-90975000I0J-100000D01*
G01*
X168600000Y-91175000D01*
G75*
G02*
X168500000Y-91275000I-100000J0D01*
G01*
X167225000Y-91275000D01*
G75*
G02*
X167125000Y-91175000I0J100000D01*
G01*
G37*
G36*
G01*
X167125000Y-91825000D02*
X167125000Y-91625000D01*
G75*
G02*
X167225000Y-91525000I100000J0D01*
G01*
X168500000Y-91525000D01*
G75*
G02*
X168600000Y-91625000I0J-100000D01*
G01*
X168600000Y-91825000D01*
G75*
G02*
X168500000Y-91925000I-100000J0D01*
G01*
X167225000Y-91925000D01*
G75*
G02*
X167125000Y-91825000I0J100000D01*
G01*
G37*
G36*
G01*
X167125000Y-92475000D02*
X167125000Y-92275000D01*
G75*
G02*
X167225000Y-92175000I100000J0D01*
G01*
X168500000Y-92175000D01*
G75*
G02*
X168600000Y-92275000I0J-100000D01*
G01*
X168600000Y-92475000D01*
G75*
G02*
X168500000Y-92575000I-100000J0D01*
G01*
X167225000Y-92575000D01*
G75*
G02*
X167125000Y-92475000I0J100000D01*
G01*
G37*
G36*
G01*
X167125000Y-93125000D02*
X167125000Y-92925000D01*
G75*
G02*
X167225000Y-92825000I100000J0D01*
G01*
X168500000Y-92825000D01*
G75*
G02*
X168600000Y-92925000I0J-100000D01*
G01*
X168600000Y-93125000D01*
G75*
G02*
X168500000Y-93225000I-100000J0D01*
G01*
X167225000Y-93225000D01*
G75*
G02*
X167125000Y-93125000I0J100000D01*
G01*
G37*
G36*
G01*
X167125000Y-93775000D02*
X167125000Y-93575000D01*
G75*
G02*
X167225000Y-93475000I100000J0D01*
G01*
X168500000Y-93475000D01*
G75*
G02*
X168600000Y-93575000I0J-100000D01*
G01*
X168600000Y-93775000D01*
G75*
G02*
X168500000Y-93875000I-100000J0D01*
G01*
X167225000Y-93875000D01*
G75*
G02*
X167125000Y-93775000I0J100000D01*
G01*
G37*
G36*
G01*
X161400000Y-93775000D02*
X161400000Y-93575000D01*
G75*
G02*
X161500000Y-93475000I100000J0D01*
G01*
X162775000Y-93475000D01*
G75*
G02*
X162875000Y-93575000I0J-100000D01*
G01*
X162875000Y-93775000D01*
G75*
G02*
X162775000Y-93875000I-100000J0D01*
G01*
X161500000Y-93875000D01*
G75*
G02*
X161400000Y-93775000I0J100000D01*
G01*
G37*
G36*
G01*
X161400000Y-93125000D02*
X161400000Y-92925000D01*
G75*
G02*
X161500000Y-92825000I100000J0D01*
G01*
X162775000Y-92825000D01*
G75*
G02*
X162875000Y-92925000I0J-100000D01*
G01*
X162875000Y-93125000D01*
G75*
G02*
X162775000Y-93225000I-100000J0D01*
G01*
X161500000Y-93225000D01*
G75*
G02*
X161400000Y-93125000I0J100000D01*
G01*
G37*
G36*
G01*
X161400000Y-92475000D02*
X161400000Y-92275000D01*
G75*
G02*
X161500000Y-92175000I100000J0D01*
G01*
X162775000Y-92175000D01*
G75*
G02*
X162875000Y-92275000I0J-100000D01*
G01*
X162875000Y-92475000D01*
G75*
G02*
X162775000Y-92575000I-100000J0D01*
G01*
X161500000Y-92575000D01*
G75*
G02*
X161400000Y-92475000I0J100000D01*
G01*
G37*
G36*
G01*
X161400000Y-91825000D02*
X161400000Y-91625000D01*
G75*
G02*
X161500000Y-91525000I100000J0D01*
G01*
X162775000Y-91525000D01*
G75*
G02*
X162875000Y-91625000I0J-100000D01*
G01*
X162875000Y-91825000D01*
G75*
G02*
X162775000Y-91925000I-100000J0D01*
G01*
X161500000Y-91925000D01*
G75*
G02*
X161400000Y-91825000I0J100000D01*
G01*
G37*
G36*
G01*
X161400000Y-91175000D02*
X161400000Y-90975000D01*
G75*
G02*
X161500000Y-90875000I100000J0D01*
G01*
X162775000Y-90875000D01*
G75*
G02*
X162875000Y-90975000I0J-100000D01*
G01*
X162875000Y-91175000D01*
G75*
G02*
X162775000Y-91275000I-100000J0D01*
G01*
X161500000Y-91275000D01*
G75*
G02*
X161400000Y-91175000I0J100000D01*
G01*
G37*
G36*
G01*
X161400000Y-90525000D02*
X161400000Y-90325000D01*
G75*
G02*
X161500000Y-90225000I100000J0D01*
G01*
X162775000Y-90225000D01*
G75*
G02*
X162875000Y-90325000I0J-100000D01*
G01*
X162875000Y-90525000D01*
G75*
G02*
X162775000Y-90625000I-100000J0D01*
G01*
X161500000Y-90625000D01*
G75*
G02*
X161400000Y-90525000I0J100000D01*
G01*
G37*
G36*
G01*
X161400000Y-89875000D02*
X161400000Y-89675000D01*
G75*
G02*
X161500000Y-89575000I100000J0D01*
G01*
X162775000Y-89575000D01*
G75*
G02*
X162875000Y-89675000I0J-100000D01*
G01*
X162875000Y-89875000D01*
G75*
G02*
X162775000Y-89975000I-100000J0D01*
G01*
X161500000Y-89975000D01*
G75*
G02*
X161400000Y-89875000I0J100000D01*
G01*
G37*
G36*
G01*
X161400000Y-89225000D02*
X161400000Y-89025000D01*
G75*
G02*
X161500000Y-88925000I100000J0D01*
G01*
X162775000Y-88925000D01*
G75*
G02*
X162875000Y-89025000I0J-100000D01*
G01*
X162875000Y-89225000D01*
G75*
G02*
X162775000Y-89325000I-100000J0D01*
G01*
X161500000Y-89325000D01*
G75*
G02*
X161400000Y-89225000I0J100000D01*
G01*
G37*
G36*
G01*
X161400000Y-88575000D02*
X161400000Y-88375000D01*
G75*
G02*
X161500000Y-88275000I100000J0D01*
G01*
X162775000Y-88275000D01*
G75*
G02*
X162875000Y-88375000I0J-100000D01*
G01*
X162875000Y-88575000D01*
G75*
G02*
X162775000Y-88675000I-100000J0D01*
G01*
X161500000Y-88675000D01*
G75*
G02*
X161400000Y-88575000I0J100000D01*
G01*
G37*
G36*
G01*
X161400000Y-87925000D02*
X161400000Y-87725000D01*
G75*
G02*
X161500000Y-87625000I100000J0D01*
G01*
X162775000Y-87625000D01*
G75*
G02*
X162875000Y-87725000I0J-100000D01*
G01*
X162875000Y-87925000D01*
G75*
G02*
X162775000Y-88025000I-100000J0D01*
G01*
X161500000Y-88025000D01*
G75*
G02*
X161400000Y-87925000I0J100000D01*
G01*
G37*
%TD*%
D16*
%TO.C,U2*%
G36*
X147883500Y-112050000D02*
G01*
X147883500Y-108925000D01*
X148300000Y-108925000D01*
X148300000Y-107450000D01*
X149200000Y-107450000D01*
X149200000Y-108925000D01*
X149616500Y-108925000D01*
X149616500Y-112050000D01*
X147883500Y-112050000D01*
G37*
D18*
X147250000Y-108100000D03*
X150250000Y-108100000D03*
%TD*%
D16*
%TO.C,U3*%
G36*
X136000000Y-110650000D02*
G01*
X136000000Y-112350000D01*
X135000000Y-112350000D01*
X135000000Y-110650000D01*
X134500000Y-110150000D01*
X134500000Y-109350000D01*
X135000000Y-108850000D01*
X135000000Y-107150000D01*
X136000000Y-107150000D01*
X136000000Y-108850000D01*
X136500000Y-109350000D01*
X136500000Y-110150000D01*
X136000000Y-110650000D01*
G37*
D19*
X134000000Y-107900000D03*
X137000000Y-107900000D03*
X134000000Y-111600000D03*
X137000000Y-111600000D03*
%TD*%
D20*
%TO.C,U4*%
X165000000Y-100000000D03*
G36*
G01*
X166755000Y-101500000D02*
X167055000Y-101500000D01*
G75*
G02*
X167205000Y-101650000I0J-150000D01*
G01*
X167205000Y-103300000D01*
G75*
G02*
X167055000Y-103450000I-150000J0D01*
G01*
X166755000Y-103450000D01*
G75*
G02*
X166605000Y-103300000I0J150000D01*
G01*
X166605000Y-101650000D01*
G75*
G02*
X166755000Y-101500000I150000J0D01*
G01*
G37*
G36*
G01*
X165485000Y-101500000D02*
X165785000Y-101500000D01*
G75*
G02*
X165935000Y-101650000I0J-150000D01*
G01*
X165935000Y-103300000D01*
G75*
G02*
X165785000Y-103450000I-150000J0D01*
G01*
X165485000Y-103450000D01*
G75*
G02*
X165335000Y-103300000I0J150000D01*
G01*
X165335000Y-101650000D01*
G75*
G02*
X165485000Y-101500000I150000J0D01*
G01*
G37*
G36*
G01*
X164215000Y-101500000D02*
X164515000Y-101500000D01*
G75*
G02*
X164665000Y-101650000I0J-150000D01*
G01*
X164665000Y-103300000D01*
G75*
G02*
X164515000Y-103450000I-150000J0D01*
G01*
X164215000Y-103450000D01*
G75*
G02*
X164065000Y-103300000I0J150000D01*
G01*
X164065000Y-101650000D01*
G75*
G02*
X164215000Y-101500000I150000J0D01*
G01*
G37*
G36*
G01*
X162945000Y-101500000D02*
X163245000Y-101500000D01*
G75*
G02*
X163395000Y-101650000I0J-150000D01*
G01*
X163395000Y-103300000D01*
G75*
G02*
X163245000Y-103450000I-150000J0D01*
G01*
X162945000Y-103450000D01*
G75*
G02*
X162795000Y-103300000I0J150000D01*
G01*
X162795000Y-101650000D01*
G75*
G02*
X162945000Y-101500000I150000J0D01*
G01*
G37*
G36*
G01*
X162945000Y-96550000D02*
X163245000Y-96550000D01*
G75*
G02*
X163395000Y-96700000I0J-150000D01*
G01*
X163395000Y-98350000D01*
G75*
G02*
X163245000Y-98500000I-150000J0D01*
G01*
X162945000Y-98500000D01*
G75*
G02*
X162795000Y-98350000I0J150000D01*
G01*
X162795000Y-96700000D01*
G75*
G02*
X162945000Y-96550000I150000J0D01*
G01*
G37*
G36*
G01*
X164215000Y-96550000D02*
X164515000Y-96550000D01*
G75*
G02*
X164665000Y-96700000I0J-150000D01*
G01*
X164665000Y-98350000D01*
G75*
G02*
X164515000Y-98500000I-150000J0D01*
G01*
X164215000Y-98500000D01*
G75*
G02*
X164065000Y-98350000I0J150000D01*
G01*
X164065000Y-96700000D01*
G75*
G02*
X164215000Y-96550000I150000J0D01*
G01*
G37*
G36*
G01*
X165485000Y-96550000D02*
X165785000Y-96550000D01*
G75*
G02*
X165935000Y-96700000I0J-150000D01*
G01*
X165935000Y-98350000D01*
G75*
G02*
X165785000Y-98500000I-150000J0D01*
G01*
X165485000Y-98500000D01*
G75*
G02*
X165335000Y-98350000I0J150000D01*
G01*
X165335000Y-96700000D01*
G75*
G02*
X165485000Y-96550000I150000J0D01*
G01*
G37*
G36*
G01*
X166755000Y-96550000D02*
X167055000Y-96550000D01*
G75*
G02*
X167205000Y-96700000I0J-150000D01*
G01*
X167205000Y-98350000D01*
G75*
G02*
X167055000Y-98500000I-150000J0D01*
G01*
X166755000Y-98500000D01*
G75*
G02*
X166605000Y-98350000I0J150000D01*
G01*
X166605000Y-96700000D01*
G75*
G02*
X166755000Y-96550000I150000J0D01*
G01*
G37*
%TD*%
%TO.C,C1*%
G36*
G01*
X162175000Y-86000000D02*
X162175000Y-86500000D01*
G75*
G02*
X161950000Y-86725000I-225000J0D01*
G01*
X161500000Y-86725000D01*
G75*
G02*
X161275000Y-86500000I0J225000D01*
G01*
X161275000Y-86000000D01*
G75*
G02*
X161500000Y-85775000I225000J0D01*
G01*
X161950000Y-85775000D01*
G75*
G02*
X162175000Y-86000000I0J-225000D01*
G01*
G37*
G36*
G01*
X163725000Y-86000000D02*
X163725000Y-86500000D01*
G75*
G02*
X163500000Y-86725000I-225000J0D01*
G01*
X163050000Y-86725000D01*
G75*
G02*
X162825000Y-86500000I0J225000D01*
G01*
X162825000Y-86000000D01*
G75*
G02*
X163050000Y-85775000I225000J0D01*
G01*
X163500000Y-85775000D01*
G75*
G02*
X163725000Y-86000000I0J-225000D01*
G01*
G37*
%TD*%
%TO.C,C4*%
G36*
G01*
X142750000Y-95075000D02*
X143250000Y-95075000D01*
G75*
G02*
X143475000Y-95300000I0J-225000D01*
G01*
X143475000Y-95750000D01*
G75*
G02*
X143250000Y-95975000I-225000J0D01*
G01*
X142750000Y-95975000D01*
G75*
G02*
X142525000Y-95750000I0J225000D01*
G01*
X142525000Y-95300000D01*
G75*
G02*
X142750000Y-95075000I225000J0D01*
G01*
G37*
G36*
G01*
X142750000Y-93525000D02*
X143250000Y-93525000D01*
G75*
G02*
X143475000Y-93750000I0J-225000D01*
G01*
X143475000Y-94200000D01*
G75*
G02*
X143250000Y-94425000I-225000J0D01*
G01*
X142750000Y-94425000D01*
G75*
G02*
X142525000Y-94200000I0J225000D01*
G01*
X142525000Y-93750000D01*
G75*
G02*
X142750000Y-93525000I225000J0D01*
G01*
G37*
%TD*%
%TO.C,C5*%
G36*
G01*
X143000000Y-104175000D02*
X142500000Y-104175000D01*
G75*
G02*
X142275000Y-103950000I0J225000D01*
G01*
X142275000Y-103500000D01*
G75*
G02*
X142500000Y-103275000I225000J0D01*
G01*
X143000000Y-103275000D01*
G75*
G02*
X143225000Y-103500000I0J-225000D01*
G01*
X143225000Y-103950000D01*
G75*
G02*
X143000000Y-104175000I-225000J0D01*
G01*
G37*
G36*
G01*
X143000000Y-105725000D02*
X142500000Y-105725000D01*
G75*
G02*
X142275000Y-105500000I0J225000D01*
G01*
X142275000Y-105050000D01*
G75*
G02*
X142500000Y-104825000I225000J0D01*
G01*
X143000000Y-104825000D01*
G75*
G02*
X143225000Y-105050000I0J-225000D01*
G01*
X143225000Y-105500000D01*
G75*
G02*
X143000000Y-105725000I-225000J0D01*
G01*
G37*
%TD*%
%TO.C,C7*%
G36*
G01*
X140075000Y-108000000D02*
X140075000Y-107500000D01*
G75*
G02*
X140300000Y-107275000I225000J0D01*
G01*
X140750000Y-107275000D01*
G75*
G02*
X140975000Y-107500000I0J-225000D01*
G01*
X140975000Y-108000000D01*
G75*
G02*
X140750000Y-108225000I-225000J0D01*
G01*
X140300000Y-108225000D01*
G75*
G02*
X140075000Y-108000000I0J225000D01*
G01*
G37*
G36*
G01*
X138525000Y-108000000D02*
X138525000Y-107500000D01*
G75*
G02*
X138750000Y-107275000I225000J0D01*
G01*
X139200000Y-107275000D01*
G75*
G02*
X139425000Y-107500000I0J-225000D01*
G01*
X139425000Y-108000000D01*
G75*
G02*
X139200000Y-108225000I-225000J0D01*
G01*
X138750000Y-108225000D01*
G75*
G02*
X138525000Y-108000000I0J225000D01*
G01*
G37*
%TD*%
%TO.C,C8*%
G36*
G01*
X144175000Y-107500000D02*
X144175000Y-108000000D01*
G75*
G02*
X143950000Y-108225000I-225000J0D01*
G01*
X143500000Y-108225000D01*
G75*
G02*
X143275000Y-108000000I0J225000D01*
G01*
X143275000Y-107500000D01*
G75*
G02*
X143500000Y-107275000I225000J0D01*
G01*
X143950000Y-107275000D01*
G75*
G02*
X144175000Y-107500000I0J-225000D01*
G01*
G37*
G36*
G01*
X145725000Y-107500000D02*
X145725000Y-108000000D01*
G75*
G02*
X145500000Y-108225000I-225000J0D01*
G01*
X145050000Y-108225000D01*
G75*
G02*
X144825000Y-108000000I0J225000D01*
G01*
X144825000Y-107500000D01*
G75*
G02*
X145050000Y-107275000I225000J0D01*
G01*
X145500000Y-107275000D01*
G75*
G02*
X145725000Y-107500000I0J-225000D01*
G01*
G37*
%TD*%
%TO.C,C9*%
G36*
G01*
X159000000Y-89425000D02*
X158500000Y-89425000D01*
G75*
G02*
X158275000Y-89200000I0J225000D01*
G01*
X158275000Y-88750000D01*
G75*
G02*
X158500000Y-88525000I225000J0D01*
G01*
X159000000Y-88525000D01*
G75*
G02*
X159225000Y-88750000I0J-225000D01*
G01*
X159225000Y-89200000D01*
G75*
G02*
X159000000Y-89425000I-225000J0D01*
G01*
G37*
G36*
G01*
X159000000Y-90975000D02*
X158500000Y-90975000D01*
G75*
G02*
X158275000Y-90750000I0J225000D01*
G01*
X158275000Y-90300000D01*
G75*
G02*
X158500000Y-90075000I225000J0D01*
G01*
X159000000Y-90075000D01*
G75*
G02*
X159225000Y-90300000I0J-225000D01*
G01*
X159225000Y-90750000D01*
G75*
G02*
X159000000Y-90975000I-225000J0D01*
G01*
G37*
%TD*%
%TO.C,C10*%
G36*
G01*
X160500000Y-89425000D02*
X160000000Y-89425000D01*
G75*
G02*
X159775000Y-89200000I0J225000D01*
G01*
X159775000Y-88750000D01*
G75*
G02*
X160000000Y-88525000I225000J0D01*
G01*
X160500000Y-88525000D01*
G75*
G02*
X160725000Y-88750000I0J-225000D01*
G01*
X160725000Y-89200000D01*
G75*
G02*
X160500000Y-89425000I-225000J0D01*
G01*
G37*
G36*
G01*
X160500000Y-90975000D02*
X160000000Y-90975000D01*
G75*
G02*
X159775000Y-90750000I0J225000D01*
G01*
X159775000Y-90300000D01*
G75*
G02*
X160000000Y-90075000I225000J0D01*
G01*
X160500000Y-90075000D01*
G75*
G02*
X160725000Y-90300000I0J-225000D01*
G01*
X160725000Y-90750000D01*
G75*
G02*
X160500000Y-90975000I-225000J0D01*
G01*
G37*
%TD*%
%TO.C,C12*%
G36*
G01*
X169500000Y-90575000D02*
X170000000Y-90575000D01*
G75*
G02*
X170225000Y-90800000I0J-225000D01*
G01*
X170225000Y-91250000D01*
G75*
G02*
X170000000Y-91475000I-225000J0D01*
G01*
X169500000Y-91475000D01*
G75*
G02*
X169275000Y-91250000I0J225000D01*
G01*
X169275000Y-90800000D01*
G75*
G02*
X169500000Y-90575000I225000J0D01*
G01*
G37*
G36*
G01*
X169500000Y-89025000D02*
X170000000Y-89025000D01*
G75*
G02*
X170225000Y-89250000I0J-225000D01*
G01*
X170225000Y-89700000D01*
G75*
G02*
X170000000Y-89925000I-225000J0D01*
G01*
X169500000Y-89925000D01*
G75*
G02*
X169275000Y-89700000I0J225000D01*
G01*
X169275000Y-89250000D01*
G75*
G02*
X169500000Y-89025000I225000J0D01*
G01*
G37*
%TD*%
D12*
%TO.C,J1*%
X135250000Y-117000000D03*
D13*
X135250000Y-122000000D03*
X135250000Y-127000000D03*
X135250000Y-132000000D03*
%TD*%
M02*
