%TF.GenerationSoftware,KiCad,Pcbnew,5.1.10-88a1d61d58~88~ubuntu20.04.1*%
%TF.CreationDate,2021-05-12T04:56:06+02:00*%
%TF.ProjectId,halfVoltageMosfetBoard,68616c66-566f-46c7-9461-67654d6f7366,rev?*%
%TF.SameCoordinates,Original*%
%TF.FileFunction,Copper,L2,Bot*%
%TF.FilePolarity,Positive*%
%FSLAX46Y46*%
G04 Gerber Fmt 4.6, Leading zero omitted, Abs format (unit mm)*
G04 Created by KiCad (PCBNEW 5.1.10-88a1d61d58~88~ubuntu20.04.1) date 2021-05-12 04:56:06*
%MOMM*%
%LPD*%
G01*
G04 APERTURE LIST*
%TA.AperFunction,ComponentPad*%
%ADD10R,2.600000X2.600000*%
%TD*%
%TA.AperFunction,ComponentPad*%
%ADD11C,2.600000*%
%TD*%
%TA.AperFunction,SMDPad,CuDef*%
%ADD12R,0.900000X0.800000*%
%TD*%
%TA.AperFunction,ComponentPad*%
%ADD13O,1.300000X0.800000*%
%TD*%
%TA.AperFunction,SMDPad,CuDef*%
%ADD14R,2.500000X1.800000*%
%TD*%
%TA.AperFunction,ComponentPad*%
%ADD15C,0.500000*%
%TD*%
%TA.AperFunction,ViaPad*%
%ADD16C,0.800000*%
%TD*%
%TA.AperFunction,Conductor*%
%ADD17C,1.000000*%
%TD*%
%TA.AperFunction,Conductor*%
%ADD18C,0.250000*%
%TD*%
%TA.AperFunction,Conductor*%
%ADD19C,0.254000*%
%TD*%
%TA.AperFunction,Conductor*%
%ADD20C,0.100000*%
%TD*%
%TA.AperFunction,Conductor*%
%ADD21C,0.170000*%
%TD*%
G04 APERTURE END LIST*
D10*
%TO.P,J2,1*%
%TO.N,+24V*%
X195750000Y-132000000D03*
D11*
%TO.P,J2,2*%
X195750000Y-127000000D03*
%TO.P,J2,3*%
%TO.N,/PowerHeater2*%
X195750000Y-122000000D03*
%TO.P,J2,4*%
%TO.N,/PowerHeater1*%
X195750000Y-117000000D03*
%TD*%
D12*
%TO.P,D3,3*%
%TO.N,GND*%
X200750000Y-119500000D03*
%TO.P,D3,2*%
%TO.N,/PowerHeater1*%
X198750000Y-118550000D03*
%TO.P,D3,1*%
%TO.N,/PowerHeater2*%
X198750000Y-120450000D03*
%TD*%
D11*
%TO.P,J5,2*%
%TO.N,/InputHeater1*%
X135250000Y-102250000D03*
D10*
%TO.P,J5,1*%
%TO.N,/InputHeater2*%
X135250000Y-97250000D03*
%TD*%
D13*
%TO.P,J_SWD1,6*%
%TO.N,GND*%
X178000000Y-88000000D03*
%TO.P,J_SWD1,5*%
%TO.N,N/C*%
X178000000Y-89250000D03*
%TO.P,J_SWD1,4*%
%TO.N,/SWCLK*%
X178000000Y-90500000D03*
%TO.P,J_SWD1,3*%
%TO.N,/SWDIO*%
X178000000Y-91750000D03*
%TO.P,J_SWD1,2*%
%TO.N,+3V3*%
X178000000Y-93000000D03*
%TO.P,J_SWD1,1*%
%TO.N,/~RST*%
%TA.AperFunction,ComponentPad*%
G36*
G01*
X178450000Y-94650000D02*
X177550000Y-94650000D01*
G75*
G02*
X177350000Y-94450000I0J200000D01*
G01*
X177350000Y-94050000D01*
G75*
G02*
X177550000Y-93850000I200000J0D01*
G01*
X178450000Y-93850000D01*
G75*
G02*
X178650000Y-94050000I0J-200000D01*
G01*
X178650000Y-94450000D01*
G75*
G02*
X178450000Y-94650000I-200000J0D01*
G01*
G37*
%TD.AperFunction*%
%TD*%
D14*
%TO.P,U4,9*%
%TO.N,GND*%
X165000000Y-100000000D03*
D15*
X164000000Y-100650000D03*
X164000000Y-99350000D03*
X165000000Y-100650000D03*
X165000000Y-99350000D03*
X166000000Y-100650000D03*
X166000000Y-99350000D03*
%TD*%
%TO.P,C13,2*%
%TO.N,GND*%
%TA.AperFunction,SMDPad,CuDef*%
G36*
G01*
X161250000Y-106075000D02*
X161750000Y-106075000D01*
G75*
G02*
X161975000Y-106300000I0J-225000D01*
G01*
X161975000Y-106750000D01*
G75*
G02*
X161750000Y-106975000I-225000J0D01*
G01*
X161250000Y-106975000D01*
G75*
G02*
X161025000Y-106750000I0J225000D01*
G01*
X161025000Y-106300000D01*
G75*
G02*
X161250000Y-106075000I225000J0D01*
G01*
G37*
%TD.AperFunction*%
%TO.P,C13,1*%
%TO.N,+12V*%
%TA.AperFunction,SMDPad,CuDef*%
G36*
G01*
X161250000Y-104525000D02*
X161750000Y-104525000D01*
G75*
G02*
X161975000Y-104750000I0J-225000D01*
G01*
X161975000Y-105200000D01*
G75*
G02*
X161750000Y-105425000I-225000J0D01*
G01*
X161250000Y-105425000D01*
G75*
G02*
X161025000Y-105200000I0J225000D01*
G01*
X161025000Y-104750000D01*
G75*
G02*
X161250000Y-104525000I225000J0D01*
G01*
G37*
%TD.AperFunction*%
%TD*%
%TO.P,C14,2*%
%TO.N,GND*%
%TA.AperFunction,SMDPad,CuDef*%
G36*
G01*
X159750000Y-106075000D02*
X160250000Y-106075000D01*
G75*
G02*
X160475000Y-106300000I0J-225000D01*
G01*
X160475000Y-106750000D01*
G75*
G02*
X160250000Y-106975000I-225000J0D01*
G01*
X159750000Y-106975000D01*
G75*
G02*
X159525000Y-106750000I0J225000D01*
G01*
X159525000Y-106300000D01*
G75*
G02*
X159750000Y-106075000I225000J0D01*
G01*
G37*
%TD.AperFunction*%
%TO.P,C14,1*%
%TO.N,+12V*%
%TA.AperFunction,SMDPad,CuDef*%
G36*
G01*
X159750000Y-104525000D02*
X160250000Y-104525000D01*
G75*
G02*
X160475000Y-104750000I0J-225000D01*
G01*
X160475000Y-105200000D01*
G75*
G02*
X160250000Y-105425000I-225000J0D01*
G01*
X159750000Y-105425000D01*
G75*
G02*
X159525000Y-105200000I0J225000D01*
G01*
X159525000Y-104750000D01*
G75*
G02*
X159750000Y-104525000I225000J0D01*
G01*
G37*
%TD.AperFunction*%
%TD*%
D10*
%TO.P,J1,1*%
%TO.N,GND*%
X135250000Y-117000000D03*
D11*
%TO.P,J1,2*%
X135250000Y-122000000D03*
%TO.P,J1,3*%
%TO.N,+24V*%
X135250000Y-127000000D03*
%TO.P,J1,4*%
X135250000Y-132000000D03*
%TD*%
D16*
%TO.N,GND*%
X161000000Y-114500000D03*
X161000000Y-116250000D03*
X159750000Y-116250000D03*
X159750000Y-114500000D03*
X161000000Y-113250000D03*
X161000000Y-111750000D03*
X161000000Y-110000000D03*
X161000000Y-108500000D03*
X159750000Y-113250000D03*
X159750000Y-111750000D03*
X159750000Y-110000000D03*
X159750000Y-108500000D03*
X158500000Y-116250000D03*
X158500000Y-114500000D03*
X158500000Y-113250000D03*
X158500000Y-111750000D03*
X158500000Y-110000000D03*
X158500000Y-108500000D03*
X162000000Y-119000000D03*
X160750000Y-119000000D03*
X162000000Y-120500000D03*
X162000000Y-122000000D03*
X160750000Y-122000000D03*
X160750000Y-120250000D03*
X159250000Y-122000000D03*
X159250000Y-120250000D03*
X159250000Y-119000000D03*
X156000000Y-122000000D03*
X153250000Y-122000000D03*
X148250000Y-122000000D03*
X144250000Y-122000000D03*
X140000000Y-122000000D03*
X156000000Y-119000000D03*
X153250000Y-119000000D03*
X148250000Y-119000000D03*
X144250000Y-119000000D03*
X140000000Y-119000000D03*
X140000000Y-116000000D03*
X156000000Y-116000000D03*
X153250000Y-116000000D03*
X148250000Y-116000000D03*
X144250000Y-115750000D03*
X131000000Y-111750000D03*
X131000000Y-107000000D03*
X153250000Y-111750000D03*
X153250000Y-107000000D03*
X156000000Y-111750000D03*
X156000000Y-107000000D03*
X142750000Y-111000000D03*
X200750000Y-120750004D03*
X166424998Y-91500000D03*
X164500000Y-105250000D03*
X139750000Y-93750000D03*
X158750000Y-87750000D03*
X170750000Y-91000000D03*
X176000000Y-104250000D03*
X139000000Y-104000000D03*
%TO.N,+3V3*%
X165250000Y-117750000D03*
X170750000Y-104000000D03*
X173750000Y-94750000D03*
X172487347Y-96012653D03*
X154500000Y-94500000D03*
X153500000Y-90750000D03*
%TO.N,+24V*%
X137750000Y-129500000D03*
X140000000Y-129500000D03*
X144250000Y-129500000D03*
X148250000Y-129500000D03*
X153250000Y-129500000D03*
X156000000Y-129500000D03*
X158750000Y-129500000D03*
X161500000Y-129500000D03*
X164250000Y-129500000D03*
X166750000Y-129500000D03*
X169250000Y-129500000D03*
X172250000Y-129500000D03*
X174750000Y-129500000D03*
X178000000Y-129500000D03*
X180500000Y-129500000D03*
X183500000Y-129500000D03*
X186500000Y-129500000D03*
X189500000Y-129500000D03*
X192000000Y-129500000D03*
X192000000Y-134000000D03*
X189500000Y-134000000D03*
X186500000Y-134000000D03*
X178000000Y-134000000D03*
X174750000Y-134000000D03*
X166750000Y-134000000D03*
X164250000Y-134000000D03*
X156000000Y-134000000D03*
X153250000Y-134000000D03*
X144250000Y-134000000D03*
X140000000Y-134000000D03*
X137750000Y-134000000D03*
X137750000Y-125750000D03*
X140000000Y-125750000D03*
X144250000Y-125750000D03*
X153250000Y-125750000D03*
X156000000Y-125750000D03*
X142250000Y-139250000D03*
X144250000Y-139250000D03*
X146250000Y-139250000D03*
X148250000Y-139250000D03*
X150250000Y-139250000D03*
X153250000Y-139250000D03*
X156000000Y-139250000D03*
X158750000Y-139250000D03*
X161500000Y-139250000D03*
X164250000Y-139250000D03*
X166750000Y-139250000D03*
X169250000Y-139250000D03*
X172250000Y-139250000D03*
X174750000Y-139250000D03*
X178000000Y-139500000D03*
X180500000Y-139500000D03*
X183500000Y-139500000D03*
X186500000Y-139500000D03*
X189500000Y-139500000D03*
X131000000Y-134000000D03*
X131000000Y-129500000D03*
X131000000Y-125750000D03*
X200250000Y-129500000D03*
X200250000Y-134000000D03*
X200250000Y-125750000D03*
%TO.N,/PowerHeater1*%
X166000000Y-110000000D03*
X167000000Y-110000000D03*
X168250000Y-110000000D03*
X169750000Y-110000000D03*
X171250000Y-110000000D03*
X166000000Y-108500000D03*
X167000000Y-108500000D03*
X168250000Y-108500000D03*
X169750000Y-108500000D03*
X171250000Y-108500000D03*
X168250000Y-111750000D03*
X169750000Y-111750000D03*
X171250000Y-111750000D03*
X168250000Y-113250000D03*
X169750000Y-113250000D03*
X171250000Y-113250000D03*
X166000000Y-114500000D03*
X167000000Y-114500000D03*
X168250000Y-114500000D03*
X166000000Y-116250000D03*
X167000000Y-116250000D03*
X168250000Y-116250000D03*
X169750000Y-116250000D03*
X169750000Y-114500000D03*
X171250000Y-114500000D03*
X171250000Y-116250000D03*
X174750000Y-107000000D03*
X178250000Y-107000000D03*
X180500000Y-107000000D03*
X183500000Y-107000000D03*
X186500000Y-107000000D03*
X189500000Y-107000000D03*
X192000000Y-107000000D03*
X200250000Y-107000000D03*
X174750000Y-111750000D03*
X178250000Y-111750000D03*
X180500000Y-111750000D03*
X183500000Y-111750000D03*
X186500000Y-111750000D03*
X189500000Y-111750000D03*
X192000000Y-111750000D03*
X195750000Y-111750000D03*
X195500000Y-107000000D03*
X200250000Y-111750000D03*
X174750000Y-116000000D03*
X178250000Y-116000000D03*
X180500000Y-116000000D03*
X183500000Y-116000000D03*
X186500000Y-116000000D03*
X189500000Y-116000000D03*
X192000000Y-116000000D03*
%TO.N,/PowerHeater2*%
X165750000Y-119000000D03*
X167000000Y-119000000D03*
X168250000Y-119000000D03*
X169750000Y-119000000D03*
X165750000Y-123500000D03*
X167000000Y-123500000D03*
X168250000Y-123500000D03*
X168250000Y-120500000D03*
X168250000Y-122000000D03*
X169750000Y-120500000D03*
X169750000Y-122000000D03*
X171250000Y-122000000D03*
X171250000Y-120500000D03*
X171250000Y-119000000D03*
X174750000Y-119000000D03*
X178250000Y-119000000D03*
X180500000Y-119000000D03*
X183500000Y-119000000D03*
X186500000Y-119000000D03*
X174750000Y-122000000D03*
X178250000Y-122000000D03*
X180500000Y-122000000D03*
X183500000Y-122000000D03*
X186500000Y-122000000D03*
X189500000Y-122000000D03*
X192000000Y-122000000D03*
X189500000Y-119000000D03*
X192000000Y-119000000D03*
%TO.N,Net-(Q2-Pad2)*%
X164000000Y-118750000D03*
X163750000Y-123257500D03*
%TO.N,/Temp*%
X168750000Y-117750000D03*
X171250000Y-105250000D03*
%TO.N,+12V*%
X164250000Y-104000000D03*
X158500000Y-105750000D03*
%TO.N,Net-(R10-Pad2)*%
X163000000Y-104000000D03*
X162524990Y-116000000D03*
%TO.N,Net-(R11-Pad1)*%
X163000000Y-118750000D03*
X165750002Y-104250000D03*
%TD*%
D17*
%TO.N,GND*%
X200750000Y-119500000D02*
X200750000Y-120750004D01*
D18*
%TO.N,+3V3*%
X168750000Y-106000000D02*
X170750000Y-104000000D01*
X166790588Y-106000000D02*
X168750000Y-106000000D01*
X164824989Y-117324989D02*
X164824990Y-107965598D01*
X164824990Y-107965598D02*
X166790588Y-106000000D01*
X165250000Y-117750000D02*
X164824989Y-117324989D01*
X173750000Y-94750000D02*
X172487347Y-96012653D01*
D17*
X154500000Y-94500000D02*
X154500000Y-92750000D01*
X153500000Y-91750000D02*
X153500000Y-90750000D01*
X154500000Y-92750000D02*
X153500000Y-91750000D01*
%TO.N,/PowerHeater1*%
X197200000Y-117000000D02*
X198750000Y-118550000D01*
X195750000Y-117000000D02*
X197200000Y-117000000D01*
%TO.N,/PowerHeater2*%
X195750000Y-122000000D02*
X196450000Y-122000000D01*
X197200000Y-122000000D02*
X198750000Y-120450000D01*
X195750000Y-122000000D02*
X197200000Y-122000000D01*
D18*
%TO.N,Net-(Q2-Pad2)*%
X164000000Y-118750000D02*
X164000000Y-123007500D01*
X164000000Y-123007500D02*
X163750000Y-123257500D01*
%TO.N,/Temp*%
X168750000Y-117750000D02*
X168000000Y-117000000D01*
X165274999Y-108151999D02*
X166926998Y-106500000D01*
X165274999Y-116598001D02*
X165274999Y-108151999D01*
X165676998Y-117000000D02*
X165274999Y-116598001D01*
X168000000Y-117000000D02*
X165676998Y-117000000D01*
X166926998Y-106500000D02*
X167250000Y-106500000D01*
X170000000Y-106500000D02*
X171250000Y-105250000D01*
X167250000Y-106500000D02*
X170000000Y-106500000D01*
D17*
%TO.N,+12V*%
X164250000Y-103434315D02*
X163715684Y-102899999D01*
X164250000Y-104000000D02*
X164250000Y-103434315D01*
X160000000Y-104975000D02*
X161500000Y-104975000D01*
X162471999Y-102899999D02*
X163100001Y-102899999D01*
X161500000Y-103871998D02*
X162471999Y-102899999D01*
X161500000Y-104975000D02*
X161500000Y-103871998D01*
X163715684Y-102899999D02*
X163100001Y-102899999D01*
X159275000Y-104975000D02*
X158500000Y-105750000D01*
X160000000Y-104975000D02*
X159275000Y-104975000D01*
D18*
%TO.N,Net-(R10-Pad2)*%
X163500000Y-107000000D02*
X163500000Y-105750000D01*
X163500000Y-107000000D02*
X163500000Y-104500000D01*
X163500000Y-104500000D02*
X163000000Y-104000000D01*
X162524990Y-107975010D02*
X162524990Y-115434315D01*
X163500000Y-107000000D02*
X162524990Y-107975010D01*
X162524990Y-115434315D02*
X162524990Y-116000000D01*
%TO.N,Net-(R11-Pad1)*%
X165750002Y-105499998D02*
X165750002Y-104250000D01*
X163250000Y-117934315D02*
X163250000Y-108000000D01*
X163000000Y-118184315D02*
X163250000Y-117934315D01*
X163000000Y-118750000D02*
X163000000Y-118184315D01*
X163250000Y-108000000D02*
X165750002Y-105499998D01*
%TD*%
D19*
%TO.N,+24V*%
X134459310Y-125223667D02*
X134212317Y-125355688D01*
X134080381Y-125650776D01*
X135250000Y-126820395D01*
X136419619Y-125650776D01*
X136287683Y-125355688D01*
X135946955Y-125184841D01*
X135736677Y-125127000D01*
X195250411Y-125127000D01*
X194959310Y-125223667D01*
X194712317Y-125355688D01*
X194580381Y-125650776D01*
X195750000Y-126820395D01*
X196919619Y-125650776D01*
X196787683Y-125355688D01*
X196446955Y-125184841D01*
X196236677Y-125127000D01*
X202373000Y-125127000D01*
X202373000Y-135123000D01*
X191750000Y-135123000D01*
X191725224Y-135125440D01*
X191701399Y-135132667D01*
X191679443Y-135144403D01*
X191660197Y-135160197D01*
X191644403Y-135179443D01*
X191632667Y-135201399D01*
X191625440Y-135225224D01*
X191623000Y-135250000D01*
X191623000Y-142590000D01*
X139627000Y-142590000D01*
X139627000Y-135500000D01*
X139624560Y-135475224D01*
X139617333Y-135451399D01*
X139605597Y-135429443D01*
X139589803Y-135410197D01*
X139570557Y-135394403D01*
X139548601Y-135382667D01*
X139524776Y-135375440D01*
X139500000Y-135373000D01*
X128627000Y-135373000D01*
X128627000Y-133349224D01*
X134080381Y-133349224D01*
X134212317Y-133644312D01*
X134553045Y-133815159D01*
X134920557Y-133916250D01*
X135300729Y-133943701D01*
X135678951Y-133896457D01*
X136040690Y-133776333D01*
X136287683Y-133644312D01*
X136419619Y-133349224D01*
X136370395Y-133300000D01*
X193811928Y-133300000D01*
X193824188Y-133424482D01*
X193860498Y-133544180D01*
X193919463Y-133654494D01*
X193998815Y-133751185D01*
X194095506Y-133830537D01*
X194205820Y-133889502D01*
X194325518Y-133925812D01*
X194450000Y-133938072D01*
X195464250Y-133935000D01*
X195623000Y-133776250D01*
X195623000Y-132127000D01*
X195877000Y-132127000D01*
X195877000Y-133776250D01*
X196035750Y-133935000D01*
X197050000Y-133938072D01*
X197174482Y-133925812D01*
X197294180Y-133889502D01*
X197404494Y-133830537D01*
X197501185Y-133751185D01*
X197580537Y-133654494D01*
X197639502Y-133544180D01*
X197675812Y-133424482D01*
X197688072Y-133300000D01*
X197685000Y-132285750D01*
X197526250Y-132127000D01*
X195877000Y-132127000D01*
X195623000Y-132127000D01*
X193973750Y-132127000D01*
X193815000Y-132285750D01*
X193811928Y-133300000D01*
X136370395Y-133300000D01*
X135250000Y-132179605D01*
X134080381Y-133349224D01*
X128627000Y-133349224D01*
X128627000Y-132050729D01*
X133306299Y-132050729D01*
X133353543Y-132428951D01*
X133473667Y-132790690D01*
X133605688Y-133037683D01*
X133900776Y-133169619D01*
X135070395Y-132000000D01*
X135429605Y-132000000D01*
X136599224Y-133169619D01*
X136894312Y-133037683D01*
X137065159Y-132696955D01*
X137166250Y-132329443D01*
X137193701Y-131949271D01*
X137146457Y-131571049D01*
X137026333Y-131209310D01*
X136894312Y-130962317D01*
X136599224Y-130830381D01*
X135429605Y-132000000D01*
X135070395Y-132000000D01*
X133900776Y-130830381D01*
X133605688Y-130962317D01*
X133434841Y-131303045D01*
X133333750Y-131670557D01*
X133306299Y-132050729D01*
X128627000Y-132050729D01*
X128627000Y-130650776D01*
X134080381Y-130650776D01*
X135250000Y-131820395D01*
X136370395Y-130700000D01*
X193811928Y-130700000D01*
X193815000Y-131714250D01*
X193973750Y-131873000D01*
X195623000Y-131873000D01*
X195623000Y-130223750D01*
X195877000Y-130223750D01*
X195877000Y-131873000D01*
X197526250Y-131873000D01*
X197685000Y-131714250D01*
X197688072Y-130700000D01*
X197675812Y-130575518D01*
X197639502Y-130455820D01*
X197580537Y-130345506D01*
X197501185Y-130248815D01*
X197404494Y-130169463D01*
X197294180Y-130110498D01*
X197174482Y-130074188D01*
X197050000Y-130061928D01*
X196035750Y-130065000D01*
X195877000Y-130223750D01*
X195623000Y-130223750D01*
X195464250Y-130065000D01*
X194450000Y-130061928D01*
X194325518Y-130074188D01*
X194205820Y-130110498D01*
X194095506Y-130169463D01*
X193998815Y-130248815D01*
X193919463Y-130345506D01*
X193860498Y-130455820D01*
X193824188Y-130575518D01*
X193811928Y-130700000D01*
X136370395Y-130700000D01*
X136419619Y-130650776D01*
X136287683Y-130355688D01*
X135946955Y-130184841D01*
X135579443Y-130083750D01*
X135199271Y-130056299D01*
X134821049Y-130103543D01*
X134459310Y-130223667D01*
X134212317Y-130355688D01*
X134080381Y-130650776D01*
X128627000Y-130650776D01*
X128627000Y-128349224D01*
X134080381Y-128349224D01*
X134212317Y-128644312D01*
X134553045Y-128815159D01*
X134920557Y-128916250D01*
X135300729Y-128943701D01*
X135678951Y-128896457D01*
X136040690Y-128776333D01*
X136287683Y-128644312D01*
X136419619Y-128349224D01*
X194580381Y-128349224D01*
X194712317Y-128644312D01*
X195053045Y-128815159D01*
X195420557Y-128916250D01*
X195800729Y-128943701D01*
X196178951Y-128896457D01*
X196540690Y-128776333D01*
X196787683Y-128644312D01*
X196919619Y-128349224D01*
X195750000Y-127179605D01*
X194580381Y-128349224D01*
X136419619Y-128349224D01*
X135250000Y-127179605D01*
X134080381Y-128349224D01*
X128627000Y-128349224D01*
X128627000Y-127050729D01*
X133306299Y-127050729D01*
X133353543Y-127428951D01*
X133473667Y-127790690D01*
X133605688Y-128037683D01*
X133900776Y-128169619D01*
X135070395Y-127000000D01*
X135429605Y-127000000D01*
X136599224Y-128169619D01*
X136894312Y-128037683D01*
X137065159Y-127696955D01*
X137166250Y-127329443D01*
X137186375Y-127050729D01*
X193806299Y-127050729D01*
X193853543Y-127428951D01*
X193973667Y-127790690D01*
X194105688Y-128037683D01*
X194400776Y-128169619D01*
X195570395Y-127000000D01*
X195929605Y-127000000D01*
X197099224Y-128169619D01*
X197394312Y-128037683D01*
X197565159Y-127696955D01*
X197666250Y-127329443D01*
X197693701Y-126949271D01*
X197646457Y-126571049D01*
X197526333Y-126209310D01*
X197394312Y-125962317D01*
X197099224Y-125830381D01*
X195929605Y-127000000D01*
X195570395Y-127000000D01*
X194400776Y-125830381D01*
X194105688Y-125962317D01*
X193934841Y-126303045D01*
X193833750Y-126670557D01*
X193806299Y-127050729D01*
X137186375Y-127050729D01*
X137193701Y-126949271D01*
X137146457Y-126571049D01*
X137026333Y-126209310D01*
X136894312Y-125962317D01*
X136599224Y-125830381D01*
X135429605Y-127000000D01*
X135070395Y-127000000D01*
X133900776Y-125830381D01*
X133605688Y-125962317D01*
X133434841Y-126303045D01*
X133333750Y-126670557D01*
X133306299Y-127050729D01*
X128627000Y-127050729D01*
X128627000Y-125127000D01*
X134750411Y-125127000D01*
X134459310Y-125223667D01*
%TA.AperFunction,Conductor*%
D20*
G36*
X134459310Y-125223667D02*
G01*
X134212317Y-125355688D01*
X134080381Y-125650776D01*
X135250000Y-126820395D01*
X136419619Y-125650776D01*
X136287683Y-125355688D01*
X135946955Y-125184841D01*
X135736677Y-125127000D01*
X195250411Y-125127000D01*
X194959310Y-125223667D01*
X194712317Y-125355688D01*
X194580381Y-125650776D01*
X195750000Y-126820395D01*
X196919619Y-125650776D01*
X196787683Y-125355688D01*
X196446955Y-125184841D01*
X196236677Y-125127000D01*
X202373000Y-125127000D01*
X202373000Y-135123000D01*
X191750000Y-135123000D01*
X191725224Y-135125440D01*
X191701399Y-135132667D01*
X191679443Y-135144403D01*
X191660197Y-135160197D01*
X191644403Y-135179443D01*
X191632667Y-135201399D01*
X191625440Y-135225224D01*
X191623000Y-135250000D01*
X191623000Y-142590000D01*
X139627000Y-142590000D01*
X139627000Y-135500000D01*
X139624560Y-135475224D01*
X139617333Y-135451399D01*
X139605597Y-135429443D01*
X139589803Y-135410197D01*
X139570557Y-135394403D01*
X139548601Y-135382667D01*
X139524776Y-135375440D01*
X139500000Y-135373000D01*
X128627000Y-135373000D01*
X128627000Y-133349224D01*
X134080381Y-133349224D01*
X134212317Y-133644312D01*
X134553045Y-133815159D01*
X134920557Y-133916250D01*
X135300729Y-133943701D01*
X135678951Y-133896457D01*
X136040690Y-133776333D01*
X136287683Y-133644312D01*
X136419619Y-133349224D01*
X136370395Y-133300000D01*
X193811928Y-133300000D01*
X193824188Y-133424482D01*
X193860498Y-133544180D01*
X193919463Y-133654494D01*
X193998815Y-133751185D01*
X194095506Y-133830537D01*
X194205820Y-133889502D01*
X194325518Y-133925812D01*
X194450000Y-133938072D01*
X195464250Y-133935000D01*
X195623000Y-133776250D01*
X195623000Y-132127000D01*
X195877000Y-132127000D01*
X195877000Y-133776250D01*
X196035750Y-133935000D01*
X197050000Y-133938072D01*
X197174482Y-133925812D01*
X197294180Y-133889502D01*
X197404494Y-133830537D01*
X197501185Y-133751185D01*
X197580537Y-133654494D01*
X197639502Y-133544180D01*
X197675812Y-133424482D01*
X197688072Y-133300000D01*
X197685000Y-132285750D01*
X197526250Y-132127000D01*
X195877000Y-132127000D01*
X195623000Y-132127000D01*
X193973750Y-132127000D01*
X193815000Y-132285750D01*
X193811928Y-133300000D01*
X136370395Y-133300000D01*
X135250000Y-132179605D01*
X134080381Y-133349224D01*
X128627000Y-133349224D01*
X128627000Y-132050729D01*
X133306299Y-132050729D01*
X133353543Y-132428951D01*
X133473667Y-132790690D01*
X133605688Y-133037683D01*
X133900776Y-133169619D01*
X135070395Y-132000000D01*
X135429605Y-132000000D01*
X136599224Y-133169619D01*
X136894312Y-133037683D01*
X137065159Y-132696955D01*
X137166250Y-132329443D01*
X137193701Y-131949271D01*
X137146457Y-131571049D01*
X137026333Y-131209310D01*
X136894312Y-130962317D01*
X136599224Y-130830381D01*
X135429605Y-132000000D01*
X135070395Y-132000000D01*
X133900776Y-130830381D01*
X133605688Y-130962317D01*
X133434841Y-131303045D01*
X133333750Y-131670557D01*
X133306299Y-132050729D01*
X128627000Y-132050729D01*
X128627000Y-130650776D01*
X134080381Y-130650776D01*
X135250000Y-131820395D01*
X136370395Y-130700000D01*
X193811928Y-130700000D01*
X193815000Y-131714250D01*
X193973750Y-131873000D01*
X195623000Y-131873000D01*
X195623000Y-130223750D01*
X195877000Y-130223750D01*
X195877000Y-131873000D01*
X197526250Y-131873000D01*
X197685000Y-131714250D01*
X197688072Y-130700000D01*
X197675812Y-130575518D01*
X197639502Y-130455820D01*
X197580537Y-130345506D01*
X197501185Y-130248815D01*
X197404494Y-130169463D01*
X197294180Y-130110498D01*
X197174482Y-130074188D01*
X197050000Y-130061928D01*
X196035750Y-130065000D01*
X195877000Y-130223750D01*
X195623000Y-130223750D01*
X195464250Y-130065000D01*
X194450000Y-130061928D01*
X194325518Y-130074188D01*
X194205820Y-130110498D01*
X194095506Y-130169463D01*
X193998815Y-130248815D01*
X193919463Y-130345506D01*
X193860498Y-130455820D01*
X193824188Y-130575518D01*
X193811928Y-130700000D01*
X136370395Y-130700000D01*
X136419619Y-130650776D01*
X136287683Y-130355688D01*
X135946955Y-130184841D01*
X135579443Y-130083750D01*
X135199271Y-130056299D01*
X134821049Y-130103543D01*
X134459310Y-130223667D01*
X134212317Y-130355688D01*
X134080381Y-130650776D01*
X128627000Y-130650776D01*
X128627000Y-128349224D01*
X134080381Y-128349224D01*
X134212317Y-128644312D01*
X134553045Y-128815159D01*
X134920557Y-128916250D01*
X135300729Y-128943701D01*
X135678951Y-128896457D01*
X136040690Y-128776333D01*
X136287683Y-128644312D01*
X136419619Y-128349224D01*
X194580381Y-128349224D01*
X194712317Y-128644312D01*
X195053045Y-128815159D01*
X195420557Y-128916250D01*
X195800729Y-128943701D01*
X196178951Y-128896457D01*
X196540690Y-128776333D01*
X196787683Y-128644312D01*
X196919619Y-128349224D01*
X195750000Y-127179605D01*
X194580381Y-128349224D01*
X136419619Y-128349224D01*
X135250000Y-127179605D01*
X134080381Y-128349224D01*
X128627000Y-128349224D01*
X128627000Y-127050729D01*
X133306299Y-127050729D01*
X133353543Y-127428951D01*
X133473667Y-127790690D01*
X133605688Y-128037683D01*
X133900776Y-128169619D01*
X135070395Y-127000000D01*
X135429605Y-127000000D01*
X136599224Y-128169619D01*
X136894312Y-128037683D01*
X137065159Y-127696955D01*
X137166250Y-127329443D01*
X137186375Y-127050729D01*
X193806299Y-127050729D01*
X193853543Y-127428951D01*
X193973667Y-127790690D01*
X194105688Y-128037683D01*
X194400776Y-128169619D01*
X195570395Y-127000000D01*
X195929605Y-127000000D01*
X197099224Y-128169619D01*
X197394312Y-128037683D01*
X197565159Y-127696955D01*
X197666250Y-127329443D01*
X197693701Y-126949271D01*
X197646457Y-126571049D01*
X197526333Y-126209310D01*
X197394312Y-125962317D01*
X197099224Y-125830381D01*
X195929605Y-127000000D01*
X195570395Y-127000000D01*
X194400776Y-125830381D01*
X194105688Y-125962317D01*
X193934841Y-126303045D01*
X193833750Y-126670557D01*
X193806299Y-127050729D01*
X137186375Y-127050729D01*
X137193701Y-126949271D01*
X137146457Y-126571049D01*
X137026333Y-126209310D01*
X136894312Y-125962317D01*
X136599224Y-125830381D01*
X135429605Y-127000000D01*
X135070395Y-127000000D01*
X133900776Y-125830381D01*
X133605688Y-125962317D01*
X133434841Y-126303045D01*
X133333750Y-126670557D01*
X133306299Y-127050729D01*
X128627000Y-127050729D01*
X128627000Y-125127000D01*
X134750411Y-125127000D01*
X134459310Y-125223667D01*
G37*
%TD.AperFunction*%
%TD*%
D21*
%TO.N,GND*%
X158061768Y-106405861D02*
X158198141Y-106478754D01*
X158346114Y-106523641D01*
X158500000Y-106538797D01*
X158653886Y-106523641D01*
X158801859Y-106478754D01*
X158938232Y-106405861D01*
X159024577Y-106335000D01*
X159059250Y-106335000D01*
X159080250Y-106356000D01*
X159831000Y-106356000D01*
X159831000Y-106336000D01*
X160169000Y-106336000D01*
X160169000Y-106356000D01*
X161331000Y-106356000D01*
X161331000Y-106336000D01*
X161669000Y-106336000D01*
X161669000Y-106356000D01*
X162419750Y-106356000D01*
X162440750Y-106335000D01*
X163090000Y-106335000D01*
X163090000Y-106830172D01*
X162249320Y-107670853D01*
X162233674Y-107683694D01*
X162200331Y-107724324D01*
X162182439Y-107746125D01*
X162169082Y-107771115D01*
X162144367Y-107817352D01*
X162120923Y-107894637D01*
X162118462Y-107919627D01*
X162113007Y-107975010D01*
X162114990Y-107995141D01*
X162114991Y-115414172D01*
X162114990Y-115414182D01*
X162114990Y-115450111D01*
X162088328Y-115467926D01*
X161992916Y-115563338D01*
X161917951Y-115675531D01*
X161866315Y-115800193D01*
X161839990Y-115932533D01*
X161839990Y-116067467D01*
X161866315Y-116199807D01*
X161917951Y-116324469D01*
X161992916Y-116436662D01*
X162088328Y-116532074D01*
X162200521Y-116607039D01*
X162325183Y-116658675D01*
X162457523Y-116685000D01*
X162592457Y-116685000D01*
X162724797Y-116658675D01*
X162840000Y-116610957D01*
X162840000Y-117764488D01*
X162724326Y-117880163D01*
X162708685Y-117892999D01*
X162695850Y-117908639D01*
X162657449Y-117955430D01*
X162625774Y-118014690D01*
X162619378Y-118026656D01*
X162599565Y-118091973D01*
X162595934Y-118103942D01*
X162588017Y-118184315D01*
X162589599Y-118200379D01*
X162563338Y-118217926D01*
X162467926Y-118313338D01*
X162392961Y-118425531D01*
X162341325Y-118550193D01*
X162315000Y-118682533D01*
X162315000Y-118817467D01*
X162341325Y-118949807D01*
X162392961Y-119074469D01*
X162467926Y-119186662D01*
X162563338Y-119282074D01*
X162675531Y-119357039D01*
X162800193Y-119408675D01*
X162932533Y-119435000D01*
X163067467Y-119435000D01*
X163199807Y-119408675D01*
X163324469Y-119357039D01*
X163436662Y-119282074D01*
X163500000Y-119218736D01*
X163563338Y-119282074D01*
X163590000Y-119299889D01*
X163590001Y-122590906D01*
X163550193Y-122598825D01*
X163425531Y-122650461D01*
X163313338Y-122725426D01*
X163217926Y-122820838D01*
X163142961Y-122933031D01*
X163091325Y-123057693D01*
X163065000Y-123190033D01*
X163065000Y-123324967D01*
X163091325Y-123457307D01*
X163142961Y-123581969D01*
X163217926Y-123694162D01*
X163313338Y-123789574D01*
X163425531Y-123864539D01*
X163550193Y-123916175D01*
X163682533Y-123942500D01*
X163817467Y-123942500D01*
X163949807Y-123916175D01*
X164074469Y-123864539D01*
X164186662Y-123789574D01*
X164282074Y-123694162D01*
X164357039Y-123581969D01*
X164408675Y-123457307D01*
X164435000Y-123324967D01*
X164435000Y-123190033D01*
X164408675Y-123057693D01*
X164407354Y-123054503D01*
X164410000Y-123027634D01*
X164410000Y-123027622D01*
X164411982Y-123007501D01*
X164410000Y-122987380D01*
X164410000Y-119299889D01*
X164436662Y-119282074D01*
X164532074Y-119186662D01*
X164607039Y-119074469D01*
X164658675Y-118949807D01*
X164665000Y-118918010D01*
X164665000Y-124165000D01*
X128585000Y-124165000D01*
X128585000Y-123353931D01*
X134135071Y-123353931D01*
X134273085Y-123632129D01*
X134610268Y-123791355D01*
X134972037Y-123881741D01*
X135344487Y-123899811D01*
X135713307Y-123844873D01*
X136064322Y-123719038D01*
X136226915Y-123632129D01*
X136364929Y-123353931D01*
X135250000Y-122239002D01*
X134135071Y-123353931D01*
X128585000Y-123353931D01*
X128585000Y-122094487D01*
X133350189Y-122094487D01*
X133405127Y-122463307D01*
X133530962Y-122814322D01*
X133617871Y-122976915D01*
X133896069Y-123114929D01*
X135010998Y-122000000D01*
X135489002Y-122000000D01*
X136603931Y-123114929D01*
X136882129Y-122976915D01*
X137041355Y-122639732D01*
X137131741Y-122277963D01*
X137149811Y-121905513D01*
X137094873Y-121536693D01*
X136969038Y-121185678D01*
X136882129Y-121023085D01*
X136603931Y-120885071D01*
X135489002Y-122000000D01*
X135010998Y-122000000D01*
X133896069Y-120885071D01*
X133617871Y-121023085D01*
X133458645Y-121360268D01*
X133368259Y-121722037D01*
X133350189Y-122094487D01*
X128585000Y-122094487D01*
X128585000Y-120646069D01*
X134135071Y-120646069D01*
X135250000Y-121760998D01*
X136364929Y-120646069D01*
X136226915Y-120367871D01*
X135889732Y-120208645D01*
X135527963Y-120118259D01*
X135155513Y-120100189D01*
X134786693Y-120155127D01*
X134435678Y-120280962D01*
X134273085Y-120367871D01*
X134135071Y-120646069D01*
X128585000Y-120646069D01*
X128585000Y-118300000D01*
X133354131Y-118300000D01*
X133365580Y-118416248D01*
X133399489Y-118528029D01*
X133454553Y-118631047D01*
X133528657Y-118721343D01*
X133618953Y-118795447D01*
X133721971Y-118850511D01*
X133833752Y-118884420D01*
X133950000Y-118895869D01*
X134932750Y-118893000D01*
X135081000Y-118744750D01*
X135081000Y-117169000D01*
X135419000Y-117169000D01*
X135419000Y-118744750D01*
X135567250Y-118893000D01*
X136550000Y-118895869D01*
X136666248Y-118884420D01*
X136778029Y-118850511D01*
X136881047Y-118795447D01*
X136971343Y-118721343D01*
X137045447Y-118631047D01*
X137100511Y-118528029D01*
X137134420Y-118416248D01*
X137145869Y-118300000D01*
X137143000Y-117317250D01*
X136994750Y-117169000D01*
X135419000Y-117169000D01*
X135081000Y-117169000D01*
X133505250Y-117169000D01*
X133357000Y-117317250D01*
X133354131Y-118300000D01*
X128585000Y-118300000D01*
X128585000Y-115700000D01*
X133354131Y-115700000D01*
X133357000Y-116682750D01*
X133505250Y-116831000D01*
X135081000Y-116831000D01*
X135081000Y-115255250D01*
X135419000Y-115255250D01*
X135419000Y-116831000D01*
X136994750Y-116831000D01*
X137143000Y-116682750D01*
X137145869Y-115700000D01*
X137134420Y-115583752D01*
X137100511Y-115471971D01*
X137045447Y-115368953D01*
X136971343Y-115278657D01*
X136881047Y-115204553D01*
X136778029Y-115149489D01*
X136666248Y-115115580D01*
X136550000Y-115104131D01*
X135567250Y-115107000D01*
X135419000Y-115255250D01*
X135081000Y-115255250D01*
X134932750Y-115107000D01*
X133950000Y-115104131D01*
X133833752Y-115115580D01*
X133721971Y-115149489D01*
X133618953Y-115204553D01*
X133528657Y-115278657D01*
X133454553Y-115368953D01*
X133399489Y-115471971D01*
X133365580Y-115583752D01*
X133354131Y-115700000D01*
X128585000Y-115700000D01*
X128585000Y-106975000D01*
X158929131Y-106975000D01*
X158940580Y-107091248D01*
X158974489Y-107203029D01*
X159029553Y-107306047D01*
X159103657Y-107396343D01*
X159193953Y-107470447D01*
X159296971Y-107525511D01*
X159408752Y-107559420D01*
X159525000Y-107570869D01*
X159682750Y-107568000D01*
X159831000Y-107419750D01*
X159831000Y-106694000D01*
X160169000Y-106694000D01*
X160169000Y-107419750D01*
X160317250Y-107568000D01*
X160475000Y-107570869D01*
X160591248Y-107559420D01*
X160703029Y-107525511D01*
X160750000Y-107500405D01*
X160796971Y-107525511D01*
X160908752Y-107559420D01*
X161025000Y-107570869D01*
X161182750Y-107568000D01*
X161331000Y-107419750D01*
X161331000Y-106694000D01*
X161669000Y-106694000D01*
X161669000Y-107419750D01*
X161817250Y-107568000D01*
X161975000Y-107570869D01*
X162091248Y-107559420D01*
X162203029Y-107525511D01*
X162306047Y-107470447D01*
X162396343Y-107396343D01*
X162470447Y-107306047D01*
X162525511Y-107203029D01*
X162559420Y-107091248D01*
X162570869Y-106975000D01*
X162568000Y-106842250D01*
X162419750Y-106694000D01*
X161669000Y-106694000D01*
X161331000Y-106694000D01*
X160169000Y-106694000D01*
X159831000Y-106694000D01*
X159080250Y-106694000D01*
X158932000Y-106842250D01*
X158929131Y-106975000D01*
X128585000Y-106975000D01*
X128585000Y-106335000D01*
X157975423Y-106335000D01*
X158061768Y-106405861D01*
%TA.AperFunction,Conductor*%
D20*
G36*
X158061768Y-106405861D02*
G01*
X158198141Y-106478754D01*
X158346114Y-106523641D01*
X158500000Y-106538797D01*
X158653886Y-106523641D01*
X158801859Y-106478754D01*
X158938232Y-106405861D01*
X159024577Y-106335000D01*
X159059250Y-106335000D01*
X159080250Y-106356000D01*
X159831000Y-106356000D01*
X159831000Y-106336000D01*
X160169000Y-106336000D01*
X160169000Y-106356000D01*
X161331000Y-106356000D01*
X161331000Y-106336000D01*
X161669000Y-106336000D01*
X161669000Y-106356000D01*
X162419750Y-106356000D01*
X162440750Y-106335000D01*
X163090000Y-106335000D01*
X163090000Y-106830172D01*
X162249320Y-107670853D01*
X162233674Y-107683694D01*
X162200331Y-107724324D01*
X162182439Y-107746125D01*
X162169082Y-107771115D01*
X162144367Y-107817352D01*
X162120923Y-107894637D01*
X162118462Y-107919627D01*
X162113007Y-107975010D01*
X162114990Y-107995141D01*
X162114991Y-115414172D01*
X162114990Y-115414182D01*
X162114990Y-115450111D01*
X162088328Y-115467926D01*
X161992916Y-115563338D01*
X161917951Y-115675531D01*
X161866315Y-115800193D01*
X161839990Y-115932533D01*
X161839990Y-116067467D01*
X161866315Y-116199807D01*
X161917951Y-116324469D01*
X161992916Y-116436662D01*
X162088328Y-116532074D01*
X162200521Y-116607039D01*
X162325183Y-116658675D01*
X162457523Y-116685000D01*
X162592457Y-116685000D01*
X162724797Y-116658675D01*
X162840000Y-116610957D01*
X162840000Y-117764488D01*
X162724326Y-117880163D01*
X162708685Y-117892999D01*
X162695850Y-117908639D01*
X162657449Y-117955430D01*
X162625774Y-118014690D01*
X162619378Y-118026656D01*
X162599565Y-118091973D01*
X162595934Y-118103942D01*
X162588017Y-118184315D01*
X162589599Y-118200379D01*
X162563338Y-118217926D01*
X162467926Y-118313338D01*
X162392961Y-118425531D01*
X162341325Y-118550193D01*
X162315000Y-118682533D01*
X162315000Y-118817467D01*
X162341325Y-118949807D01*
X162392961Y-119074469D01*
X162467926Y-119186662D01*
X162563338Y-119282074D01*
X162675531Y-119357039D01*
X162800193Y-119408675D01*
X162932533Y-119435000D01*
X163067467Y-119435000D01*
X163199807Y-119408675D01*
X163324469Y-119357039D01*
X163436662Y-119282074D01*
X163500000Y-119218736D01*
X163563338Y-119282074D01*
X163590000Y-119299889D01*
X163590001Y-122590906D01*
X163550193Y-122598825D01*
X163425531Y-122650461D01*
X163313338Y-122725426D01*
X163217926Y-122820838D01*
X163142961Y-122933031D01*
X163091325Y-123057693D01*
X163065000Y-123190033D01*
X163065000Y-123324967D01*
X163091325Y-123457307D01*
X163142961Y-123581969D01*
X163217926Y-123694162D01*
X163313338Y-123789574D01*
X163425531Y-123864539D01*
X163550193Y-123916175D01*
X163682533Y-123942500D01*
X163817467Y-123942500D01*
X163949807Y-123916175D01*
X164074469Y-123864539D01*
X164186662Y-123789574D01*
X164282074Y-123694162D01*
X164357039Y-123581969D01*
X164408675Y-123457307D01*
X164435000Y-123324967D01*
X164435000Y-123190033D01*
X164408675Y-123057693D01*
X164407354Y-123054503D01*
X164410000Y-123027634D01*
X164410000Y-123027622D01*
X164411982Y-123007501D01*
X164410000Y-122987380D01*
X164410000Y-119299889D01*
X164436662Y-119282074D01*
X164532074Y-119186662D01*
X164607039Y-119074469D01*
X164658675Y-118949807D01*
X164665000Y-118918010D01*
X164665000Y-124165000D01*
X128585000Y-124165000D01*
X128585000Y-123353931D01*
X134135071Y-123353931D01*
X134273085Y-123632129D01*
X134610268Y-123791355D01*
X134972037Y-123881741D01*
X135344487Y-123899811D01*
X135713307Y-123844873D01*
X136064322Y-123719038D01*
X136226915Y-123632129D01*
X136364929Y-123353931D01*
X135250000Y-122239002D01*
X134135071Y-123353931D01*
X128585000Y-123353931D01*
X128585000Y-122094487D01*
X133350189Y-122094487D01*
X133405127Y-122463307D01*
X133530962Y-122814322D01*
X133617871Y-122976915D01*
X133896069Y-123114929D01*
X135010998Y-122000000D01*
X135489002Y-122000000D01*
X136603931Y-123114929D01*
X136882129Y-122976915D01*
X137041355Y-122639732D01*
X137131741Y-122277963D01*
X137149811Y-121905513D01*
X137094873Y-121536693D01*
X136969038Y-121185678D01*
X136882129Y-121023085D01*
X136603931Y-120885071D01*
X135489002Y-122000000D01*
X135010998Y-122000000D01*
X133896069Y-120885071D01*
X133617871Y-121023085D01*
X133458645Y-121360268D01*
X133368259Y-121722037D01*
X133350189Y-122094487D01*
X128585000Y-122094487D01*
X128585000Y-120646069D01*
X134135071Y-120646069D01*
X135250000Y-121760998D01*
X136364929Y-120646069D01*
X136226915Y-120367871D01*
X135889732Y-120208645D01*
X135527963Y-120118259D01*
X135155513Y-120100189D01*
X134786693Y-120155127D01*
X134435678Y-120280962D01*
X134273085Y-120367871D01*
X134135071Y-120646069D01*
X128585000Y-120646069D01*
X128585000Y-118300000D01*
X133354131Y-118300000D01*
X133365580Y-118416248D01*
X133399489Y-118528029D01*
X133454553Y-118631047D01*
X133528657Y-118721343D01*
X133618953Y-118795447D01*
X133721971Y-118850511D01*
X133833752Y-118884420D01*
X133950000Y-118895869D01*
X134932750Y-118893000D01*
X135081000Y-118744750D01*
X135081000Y-117169000D01*
X135419000Y-117169000D01*
X135419000Y-118744750D01*
X135567250Y-118893000D01*
X136550000Y-118895869D01*
X136666248Y-118884420D01*
X136778029Y-118850511D01*
X136881047Y-118795447D01*
X136971343Y-118721343D01*
X137045447Y-118631047D01*
X137100511Y-118528029D01*
X137134420Y-118416248D01*
X137145869Y-118300000D01*
X137143000Y-117317250D01*
X136994750Y-117169000D01*
X135419000Y-117169000D01*
X135081000Y-117169000D01*
X133505250Y-117169000D01*
X133357000Y-117317250D01*
X133354131Y-118300000D01*
X128585000Y-118300000D01*
X128585000Y-115700000D01*
X133354131Y-115700000D01*
X133357000Y-116682750D01*
X133505250Y-116831000D01*
X135081000Y-116831000D01*
X135081000Y-115255250D01*
X135419000Y-115255250D01*
X135419000Y-116831000D01*
X136994750Y-116831000D01*
X137143000Y-116682750D01*
X137145869Y-115700000D01*
X137134420Y-115583752D01*
X137100511Y-115471971D01*
X137045447Y-115368953D01*
X136971343Y-115278657D01*
X136881047Y-115204553D01*
X136778029Y-115149489D01*
X136666248Y-115115580D01*
X136550000Y-115104131D01*
X135567250Y-115107000D01*
X135419000Y-115255250D01*
X135081000Y-115255250D01*
X134932750Y-115107000D01*
X133950000Y-115104131D01*
X133833752Y-115115580D01*
X133721971Y-115149489D01*
X133618953Y-115204553D01*
X133528657Y-115278657D01*
X133454553Y-115368953D01*
X133399489Y-115471971D01*
X133365580Y-115583752D01*
X133354131Y-115700000D01*
X128585000Y-115700000D01*
X128585000Y-106975000D01*
X158929131Y-106975000D01*
X158940580Y-107091248D01*
X158974489Y-107203029D01*
X159029553Y-107306047D01*
X159103657Y-107396343D01*
X159193953Y-107470447D01*
X159296971Y-107525511D01*
X159408752Y-107559420D01*
X159525000Y-107570869D01*
X159682750Y-107568000D01*
X159831000Y-107419750D01*
X159831000Y-106694000D01*
X160169000Y-106694000D01*
X160169000Y-107419750D01*
X160317250Y-107568000D01*
X160475000Y-107570869D01*
X160591248Y-107559420D01*
X160703029Y-107525511D01*
X160750000Y-107500405D01*
X160796971Y-107525511D01*
X160908752Y-107559420D01*
X161025000Y-107570869D01*
X161182750Y-107568000D01*
X161331000Y-107419750D01*
X161331000Y-106694000D01*
X161669000Y-106694000D01*
X161669000Y-107419750D01*
X161817250Y-107568000D01*
X161975000Y-107570869D01*
X162091248Y-107559420D01*
X162203029Y-107525511D01*
X162306047Y-107470447D01*
X162396343Y-107396343D01*
X162470447Y-107306047D01*
X162525511Y-107203029D01*
X162559420Y-107091248D01*
X162570869Y-106975000D01*
X162568000Y-106842250D01*
X162419750Y-106694000D01*
X161669000Y-106694000D01*
X161331000Y-106694000D01*
X160169000Y-106694000D01*
X159831000Y-106694000D01*
X159080250Y-106694000D01*
X158932000Y-106842250D01*
X158929131Y-106975000D01*
X128585000Y-106975000D01*
X128585000Y-106335000D01*
X157975423Y-106335000D01*
X158061768Y-106405861D01*
G37*
%TD.AperFunction*%
%TD*%
D21*
%TO.N,/PowerHeater1*%
X202415000Y-117665000D02*
X199543777Y-117665000D01*
X199531047Y-117654553D01*
X199428029Y-117599489D01*
X199316248Y-117565580D01*
X199200000Y-117554131D01*
X199067250Y-117557000D01*
X198959250Y-117665000D01*
X198540750Y-117665000D01*
X198432750Y-117557000D01*
X198300000Y-117554131D01*
X198183752Y-117565580D01*
X198071971Y-117599489D01*
X197968953Y-117654553D01*
X197956223Y-117665000D01*
X197529423Y-117665000D01*
X197541355Y-117639732D01*
X197631741Y-117277963D01*
X197649811Y-116905513D01*
X197594873Y-116536693D01*
X197469038Y-116185678D01*
X197382129Y-116023085D01*
X197103931Y-115885071D01*
X195989002Y-117000000D01*
X196003145Y-117014143D01*
X195764143Y-117253145D01*
X195750000Y-117239002D01*
X195735858Y-117253145D01*
X195496856Y-117014143D01*
X195510998Y-117000000D01*
X194396069Y-115885071D01*
X194117871Y-116023085D01*
X193958645Y-116360268D01*
X193868259Y-116722037D01*
X193850189Y-117094487D01*
X193905127Y-117463307D01*
X193977432Y-117665000D01*
X169431512Y-117665000D01*
X169408675Y-117550193D01*
X169357039Y-117425531D01*
X169282074Y-117313338D01*
X169186662Y-117217926D01*
X169074469Y-117142961D01*
X168949807Y-117091325D01*
X168817467Y-117065000D01*
X168682533Y-117065000D01*
X168651083Y-117071256D01*
X168304156Y-116724330D01*
X168291316Y-116708684D01*
X168228885Y-116657449D01*
X168157659Y-116619377D01*
X168080374Y-116595933D01*
X168020134Y-116590000D01*
X168020131Y-116590000D01*
X168000000Y-116588017D01*
X167979869Y-116590000D01*
X165846825Y-116590000D01*
X165684999Y-116428174D01*
X165684999Y-115646069D01*
X194635071Y-115646069D01*
X195750000Y-116760998D01*
X196864929Y-115646069D01*
X196726915Y-115367871D01*
X196389732Y-115208645D01*
X196027963Y-115118259D01*
X195655513Y-115100189D01*
X195286693Y-115155127D01*
X194935678Y-115280962D01*
X194773085Y-115367871D01*
X194635071Y-115646069D01*
X165684999Y-115646069D01*
X165684999Y-108321825D01*
X167096826Y-106910000D01*
X169979869Y-106910000D01*
X170000000Y-106911983D01*
X170020131Y-106910000D01*
X170020134Y-106910000D01*
X170080374Y-106904067D01*
X170157659Y-106880623D01*
X170228885Y-106842551D01*
X170291316Y-106791316D01*
X170304157Y-106775669D01*
X170744826Y-106335000D01*
X202415000Y-106335000D01*
X202415000Y-117665000D01*
%TA.AperFunction,Conductor*%
D20*
G36*
X202415000Y-117665000D02*
G01*
X199543777Y-117665000D01*
X199531047Y-117654553D01*
X199428029Y-117599489D01*
X199316248Y-117565580D01*
X199200000Y-117554131D01*
X199067250Y-117557000D01*
X198959250Y-117665000D01*
X198540750Y-117665000D01*
X198432750Y-117557000D01*
X198300000Y-117554131D01*
X198183752Y-117565580D01*
X198071971Y-117599489D01*
X197968953Y-117654553D01*
X197956223Y-117665000D01*
X197529423Y-117665000D01*
X197541355Y-117639732D01*
X197631741Y-117277963D01*
X197649811Y-116905513D01*
X197594873Y-116536693D01*
X197469038Y-116185678D01*
X197382129Y-116023085D01*
X197103931Y-115885071D01*
X195989002Y-117000000D01*
X196003145Y-117014143D01*
X195764143Y-117253145D01*
X195750000Y-117239002D01*
X195735858Y-117253145D01*
X195496856Y-117014143D01*
X195510998Y-117000000D01*
X194396069Y-115885071D01*
X194117871Y-116023085D01*
X193958645Y-116360268D01*
X193868259Y-116722037D01*
X193850189Y-117094487D01*
X193905127Y-117463307D01*
X193977432Y-117665000D01*
X169431512Y-117665000D01*
X169408675Y-117550193D01*
X169357039Y-117425531D01*
X169282074Y-117313338D01*
X169186662Y-117217926D01*
X169074469Y-117142961D01*
X168949807Y-117091325D01*
X168817467Y-117065000D01*
X168682533Y-117065000D01*
X168651083Y-117071256D01*
X168304156Y-116724330D01*
X168291316Y-116708684D01*
X168228885Y-116657449D01*
X168157659Y-116619377D01*
X168080374Y-116595933D01*
X168020134Y-116590000D01*
X168020131Y-116590000D01*
X168000000Y-116588017D01*
X167979869Y-116590000D01*
X165846825Y-116590000D01*
X165684999Y-116428174D01*
X165684999Y-115646069D01*
X194635071Y-115646069D01*
X195750000Y-116760998D01*
X196864929Y-115646069D01*
X196726915Y-115367871D01*
X196389732Y-115208645D01*
X196027963Y-115118259D01*
X195655513Y-115100189D01*
X195286693Y-115155127D01*
X194935678Y-115280962D01*
X194773085Y-115367871D01*
X194635071Y-115646069D01*
X165684999Y-115646069D01*
X165684999Y-108321825D01*
X167096826Y-106910000D01*
X169979869Y-106910000D01*
X170000000Y-106911983D01*
X170020131Y-106910000D01*
X170020134Y-106910000D01*
X170080374Y-106904067D01*
X170157659Y-106880623D01*
X170228885Y-106842551D01*
X170291316Y-106791316D01*
X170304157Y-106775669D01*
X170744826Y-106335000D01*
X202415000Y-106335000D01*
X202415000Y-117665000D01*
G37*
%TD.AperFunction*%
%TD*%
D19*
%TO.N,/PowerHeater2*%
X168259744Y-118667205D02*
X168448102Y-118745226D01*
X168648061Y-118785000D01*
X168851939Y-118785000D01*
X169051898Y-118745226D01*
X169240256Y-118667205D01*
X169300427Y-118627000D01*
X194702069Y-118627000D01*
X194833434Y-118714775D01*
X195185581Y-118860639D01*
X195559419Y-118935000D01*
X195940581Y-118935000D01*
X196314419Y-118860639D01*
X196666566Y-118714775D01*
X196797931Y-118627000D01*
X197221868Y-118627000D01*
X197676295Y-119081426D01*
X197710498Y-119194180D01*
X197769463Y-119304494D01*
X197848815Y-119401185D01*
X197945506Y-119480537D01*
X197981918Y-119500000D01*
X197945506Y-119519463D01*
X197848815Y-119598815D01*
X197769463Y-119695506D01*
X197710498Y-119805820D01*
X197674188Y-119925518D01*
X197661928Y-120050000D01*
X197665000Y-120164250D01*
X197823750Y-120323000D01*
X198623000Y-120323000D01*
X198623000Y-120303000D01*
X198877000Y-120303000D01*
X198877000Y-120323000D01*
X198897000Y-120323000D01*
X198897000Y-120577000D01*
X198877000Y-120577000D01*
X198877000Y-121326250D01*
X199035750Y-121485000D01*
X199200000Y-121488072D01*
X199324482Y-121475812D01*
X199444180Y-121439502D01*
X199554494Y-121380537D01*
X199651185Y-121301185D01*
X199715659Y-121222623D01*
X199801717Y-121383627D01*
X199943552Y-121556453D01*
X200116378Y-121698288D01*
X200313554Y-121803680D01*
X200527502Y-121868581D01*
X200750000Y-121890495D01*
X200972499Y-121868581D01*
X201186447Y-121803680D01*
X201383623Y-121698288D01*
X201556449Y-121556453D01*
X201698284Y-121383627D01*
X201803676Y-121186451D01*
X201868577Y-120972503D01*
X201885000Y-120805756D01*
X201885000Y-119444248D01*
X201868577Y-119277501D01*
X201838072Y-119176940D01*
X201838072Y-119100000D01*
X201825812Y-118975518D01*
X201789502Y-118855820D01*
X201730537Y-118745506D01*
X201651185Y-118648815D01*
X201624603Y-118627000D01*
X202373000Y-118627000D01*
X202373000Y-124123000D01*
X165627000Y-124123000D01*
X165627000Y-123349224D01*
X194580381Y-123349224D01*
X194712317Y-123644312D01*
X195053045Y-123815159D01*
X195420557Y-123916250D01*
X195800729Y-123943701D01*
X196178951Y-123896457D01*
X196540690Y-123776333D01*
X196787683Y-123644312D01*
X196919619Y-123349224D01*
X195750000Y-122179605D01*
X194580381Y-123349224D01*
X165627000Y-123349224D01*
X165627000Y-122050729D01*
X193806299Y-122050729D01*
X193853543Y-122428951D01*
X193973667Y-122790690D01*
X194105688Y-123037683D01*
X194400776Y-123169619D01*
X195570395Y-122000000D01*
X195929605Y-122000000D01*
X197099224Y-123169619D01*
X197394312Y-123037683D01*
X197565159Y-122696955D01*
X197666250Y-122329443D01*
X197693701Y-121949271D01*
X197646457Y-121571049D01*
X197526333Y-121209310D01*
X197394312Y-120962317D01*
X197143104Y-120850000D01*
X197661928Y-120850000D01*
X197674188Y-120974482D01*
X197710498Y-121094180D01*
X197769463Y-121204494D01*
X197848815Y-121301185D01*
X197945506Y-121380537D01*
X198055820Y-121439502D01*
X198175518Y-121475812D01*
X198300000Y-121488072D01*
X198464250Y-121485000D01*
X198623000Y-121326250D01*
X198623000Y-120577000D01*
X197823750Y-120577000D01*
X197665000Y-120735750D01*
X197661928Y-120850000D01*
X197143104Y-120850000D01*
X197099224Y-120830381D01*
X195929605Y-122000000D01*
X195570395Y-122000000D01*
X194400776Y-120830381D01*
X194105688Y-120962317D01*
X193934841Y-121303045D01*
X193833750Y-121670557D01*
X193806299Y-122050729D01*
X165627000Y-122050729D01*
X165627000Y-120650776D01*
X194580381Y-120650776D01*
X195750000Y-121820395D01*
X196919619Y-120650776D01*
X196787683Y-120355688D01*
X196446955Y-120184841D01*
X196079443Y-120083750D01*
X195699271Y-120056299D01*
X195321049Y-120103543D01*
X194959310Y-120223667D01*
X194712317Y-120355688D01*
X194580381Y-120650776D01*
X165627000Y-120650776D01*
X165627000Y-118714118D01*
X165740256Y-118667205D01*
X165800427Y-118627000D01*
X168199573Y-118627000D01*
X168259744Y-118667205D01*
%TA.AperFunction,Conductor*%
D20*
G36*
X168259744Y-118667205D02*
G01*
X168448102Y-118745226D01*
X168648061Y-118785000D01*
X168851939Y-118785000D01*
X169051898Y-118745226D01*
X169240256Y-118667205D01*
X169300427Y-118627000D01*
X194702069Y-118627000D01*
X194833434Y-118714775D01*
X195185581Y-118860639D01*
X195559419Y-118935000D01*
X195940581Y-118935000D01*
X196314419Y-118860639D01*
X196666566Y-118714775D01*
X196797931Y-118627000D01*
X197221868Y-118627000D01*
X197676295Y-119081426D01*
X197710498Y-119194180D01*
X197769463Y-119304494D01*
X197848815Y-119401185D01*
X197945506Y-119480537D01*
X197981918Y-119500000D01*
X197945506Y-119519463D01*
X197848815Y-119598815D01*
X197769463Y-119695506D01*
X197710498Y-119805820D01*
X197674188Y-119925518D01*
X197661928Y-120050000D01*
X197665000Y-120164250D01*
X197823750Y-120323000D01*
X198623000Y-120323000D01*
X198623000Y-120303000D01*
X198877000Y-120303000D01*
X198877000Y-120323000D01*
X198897000Y-120323000D01*
X198897000Y-120577000D01*
X198877000Y-120577000D01*
X198877000Y-121326250D01*
X199035750Y-121485000D01*
X199200000Y-121488072D01*
X199324482Y-121475812D01*
X199444180Y-121439502D01*
X199554494Y-121380537D01*
X199651185Y-121301185D01*
X199715659Y-121222623D01*
X199801717Y-121383627D01*
X199943552Y-121556453D01*
X200116378Y-121698288D01*
X200313554Y-121803680D01*
X200527502Y-121868581D01*
X200750000Y-121890495D01*
X200972499Y-121868581D01*
X201186447Y-121803680D01*
X201383623Y-121698288D01*
X201556449Y-121556453D01*
X201698284Y-121383627D01*
X201803676Y-121186451D01*
X201868577Y-120972503D01*
X201885000Y-120805756D01*
X201885000Y-119444248D01*
X201868577Y-119277501D01*
X201838072Y-119176940D01*
X201838072Y-119100000D01*
X201825812Y-118975518D01*
X201789502Y-118855820D01*
X201730537Y-118745506D01*
X201651185Y-118648815D01*
X201624603Y-118627000D01*
X202373000Y-118627000D01*
X202373000Y-124123000D01*
X165627000Y-124123000D01*
X165627000Y-123349224D01*
X194580381Y-123349224D01*
X194712317Y-123644312D01*
X195053045Y-123815159D01*
X195420557Y-123916250D01*
X195800729Y-123943701D01*
X196178951Y-123896457D01*
X196540690Y-123776333D01*
X196787683Y-123644312D01*
X196919619Y-123349224D01*
X195750000Y-122179605D01*
X194580381Y-123349224D01*
X165627000Y-123349224D01*
X165627000Y-122050729D01*
X193806299Y-122050729D01*
X193853543Y-122428951D01*
X193973667Y-122790690D01*
X194105688Y-123037683D01*
X194400776Y-123169619D01*
X195570395Y-122000000D01*
X195929605Y-122000000D01*
X197099224Y-123169619D01*
X197394312Y-123037683D01*
X197565159Y-122696955D01*
X197666250Y-122329443D01*
X197693701Y-121949271D01*
X197646457Y-121571049D01*
X197526333Y-121209310D01*
X197394312Y-120962317D01*
X197143104Y-120850000D01*
X197661928Y-120850000D01*
X197674188Y-120974482D01*
X197710498Y-121094180D01*
X197769463Y-121204494D01*
X197848815Y-121301185D01*
X197945506Y-121380537D01*
X198055820Y-121439502D01*
X198175518Y-121475812D01*
X198300000Y-121488072D01*
X198464250Y-121485000D01*
X198623000Y-121326250D01*
X198623000Y-120577000D01*
X197823750Y-120577000D01*
X197665000Y-120735750D01*
X197661928Y-120850000D01*
X197143104Y-120850000D01*
X197099224Y-120830381D01*
X195929605Y-122000000D01*
X195570395Y-122000000D01*
X194400776Y-120830381D01*
X194105688Y-120962317D01*
X193934841Y-121303045D01*
X193833750Y-121670557D01*
X193806299Y-122050729D01*
X165627000Y-122050729D01*
X165627000Y-120650776D01*
X194580381Y-120650776D01*
X195750000Y-121820395D01*
X196919619Y-120650776D01*
X196787683Y-120355688D01*
X196446955Y-120184841D01*
X196079443Y-120083750D01*
X195699271Y-120056299D01*
X195321049Y-120103543D01*
X194959310Y-120223667D01*
X194712317Y-120355688D01*
X194580381Y-120650776D01*
X165627000Y-120650776D01*
X165627000Y-118714118D01*
X165740256Y-118667205D01*
X165800427Y-118627000D01*
X168199573Y-118627000D01*
X168259744Y-118667205D01*
G37*
%TD.AperFunction*%
%TD*%
D21*
%TO.N,GND*%
X193915000Y-93250000D02*
X193916633Y-93266583D01*
X193921470Y-93282528D01*
X193929325Y-93297223D01*
X193939896Y-93310104D01*
X193952777Y-93320675D01*
X193967472Y-93328530D01*
X193983417Y-93333367D01*
X194000000Y-93335000D01*
X202415000Y-93335000D01*
X202415000Y-105665000D01*
X171796548Y-105665000D01*
X171857039Y-105574469D01*
X171908675Y-105449807D01*
X171935000Y-105317467D01*
X171935000Y-105182533D01*
X171908675Y-105050193D01*
X171857039Y-104925531D01*
X171782074Y-104813338D01*
X171686662Y-104717926D01*
X171574469Y-104642961D01*
X171449807Y-104591325D01*
X171317467Y-104565000D01*
X171182533Y-104565000D01*
X171118246Y-104577788D01*
X171186662Y-104532074D01*
X171282074Y-104436662D01*
X171357039Y-104324469D01*
X171408675Y-104199807D01*
X171435000Y-104067467D01*
X171435000Y-103932533D01*
X171408675Y-103800193D01*
X171357039Y-103675531D01*
X171282074Y-103563338D01*
X171186662Y-103467926D01*
X171074469Y-103392961D01*
X170949807Y-103341325D01*
X170817467Y-103315000D01*
X170682533Y-103315000D01*
X170550193Y-103341325D01*
X170425531Y-103392961D01*
X170313338Y-103467926D01*
X170217926Y-103563338D01*
X170142961Y-103675531D01*
X170091325Y-103800193D01*
X170065000Y-103932533D01*
X170065000Y-104067467D01*
X170071256Y-104098917D01*
X168580174Y-105590000D01*
X166810711Y-105590000D01*
X166790587Y-105588018D01*
X166770463Y-105590000D01*
X166770454Y-105590000D01*
X166710214Y-105595933D01*
X166632929Y-105619377D01*
X166622045Y-105625195D01*
X166561702Y-105657449D01*
X166552501Y-105665000D01*
X166126701Y-105665000D01*
X166130625Y-105657658D01*
X166140472Y-105625195D01*
X166154069Y-105580372D01*
X166160002Y-105520132D01*
X166160002Y-105520130D01*
X166161985Y-105499998D01*
X166160002Y-105479866D01*
X166160002Y-104799889D01*
X166186664Y-104782074D01*
X166282076Y-104686662D01*
X166357041Y-104574469D01*
X166408677Y-104449807D01*
X166435002Y-104317467D01*
X166435002Y-104182533D01*
X166408677Y-104050193D01*
X166357041Y-103925531D01*
X166282076Y-103813338D01*
X166186664Y-103717926D01*
X166074471Y-103642961D01*
X165949809Y-103591325D01*
X165817469Y-103565000D01*
X165682535Y-103565000D01*
X165550195Y-103591325D01*
X165425533Y-103642961D01*
X165313340Y-103717926D01*
X165217928Y-103813338D01*
X165142963Y-103925531D01*
X165091327Y-104050193D01*
X165065002Y-104182533D01*
X165065002Y-104317467D01*
X165091327Y-104449807D01*
X165142963Y-104574469D01*
X165217928Y-104686662D01*
X165313340Y-104782074D01*
X165340003Y-104799889D01*
X165340002Y-105330171D01*
X165005173Y-105665000D01*
X163910000Y-105665000D01*
X163910000Y-104708368D01*
X163948140Y-104728754D01*
X164096113Y-104773641D01*
X164250000Y-104788798D01*
X164403886Y-104773641D01*
X164551859Y-104728754D01*
X164688232Y-104655862D01*
X164807764Y-104557764D01*
X164905862Y-104438233D01*
X164978754Y-104301860D01*
X165023641Y-104153887D01*
X165035000Y-104038561D01*
X165035000Y-103472870D01*
X165038797Y-103434315D01*
X165035000Y-103395759D01*
X165035000Y-103395754D01*
X165029639Y-103341325D01*
X165023642Y-103280428D01*
X164978754Y-103132455D01*
X164952427Y-103083200D01*
X164905862Y-102996082D01*
X164807764Y-102876551D01*
X164777815Y-102851972D01*
X164298030Y-102372188D01*
X164273448Y-102342235D01*
X164153917Y-102244137D01*
X164017544Y-102171245D01*
X163869571Y-102126358D01*
X163754245Y-102114999D01*
X163754237Y-102114999D01*
X163715684Y-102111202D01*
X163677131Y-102114999D01*
X162510551Y-102114999D01*
X162471998Y-102111202D01*
X162433445Y-102114999D01*
X162433438Y-102114999D01*
X162332489Y-102124942D01*
X162318111Y-102126358D01*
X162170139Y-102171245D01*
X162033766Y-102244137D01*
X161973558Y-102293549D01*
X161944186Y-102317654D01*
X161944183Y-102317657D01*
X161914235Y-102342235D01*
X161889656Y-102372184D01*
X160972185Y-103289656D01*
X160942237Y-103314234D01*
X160917659Y-103344182D01*
X160917655Y-103344186D01*
X160884690Y-103384354D01*
X160844139Y-103433765D01*
X160805177Y-103506658D01*
X160771246Y-103570139D01*
X160726359Y-103718112D01*
X160711203Y-103871998D01*
X160715001Y-103910560D01*
X160715001Y-104190000D01*
X159313556Y-104190000D01*
X159275000Y-104186203D01*
X159236444Y-104190000D01*
X159236439Y-104190000D01*
X159196026Y-104193980D01*
X159121113Y-104201358D01*
X158973140Y-104246246D01*
X158836767Y-104319138D01*
X158717236Y-104417236D01*
X158692653Y-104447190D01*
X157917655Y-105222188D01*
X157844139Y-105311768D01*
X157771246Y-105448141D01*
X157726359Y-105596114D01*
X157719575Y-105665000D01*
X128585000Y-105665000D01*
X128585000Y-102093891D01*
X133665000Y-102093891D01*
X133665000Y-102406109D01*
X133725911Y-102712327D01*
X133845391Y-103000779D01*
X134018850Y-103260379D01*
X134239621Y-103481150D01*
X134499221Y-103654609D01*
X134787673Y-103774089D01*
X135093891Y-103835000D01*
X135406109Y-103835000D01*
X135712327Y-103774089D01*
X136000779Y-103654609D01*
X136260379Y-103481150D01*
X136481150Y-103260379D01*
X136654609Y-103000779D01*
X136774089Y-102712327D01*
X136835000Y-102406109D01*
X136835000Y-102093891D01*
X136774089Y-101787673D01*
X136654609Y-101499221D01*
X136481150Y-101239621D01*
X136260379Y-101018850D01*
X136000779Y-100845391D01*
X135712327Y-100725911D01*
X135406109Y-100665000D01*
X135093891Y-100665000D01*
X134787673Y-100725911D01*
X134499221Y-100845391D01*
X134239621Y-101018850D01*
X134018850Y-101239621D01*
X133845391Y-101499221D01*
X133725911Y-101787673D01*
X133665000Y-102093891D01*
X128585000Y-102093891D01*
X128585000Y-95950000D01*
X133663622Y-95950000D01*
X133663622Y-98550000D01*
X133669125Y-98605870D01*
X133685421Y-98659592D01*
X133711885Y-98709103D01*
X133747500Y-98752500D01*
X133790897Y-98788115D01*
X133840408Y-98814579D01*
X133894130Y-98830875D01*
X133950000Y-98836378D01*
X136550000Y-98836378D01*
X136605870Y-98830875D01*
X136659592Y-98814579D01*
X136709103Y-98788115D01*
X136752500Y-98752500D01*
X136788115Y-98709103D01*
X136814579Y-98659592D01*
X136830875Y-98605870D01*
X136836378Y-98550000D01*
X136836378Y-95950000D01*
X136835904Y-95945186D01*
X171802347Y-95945186D01*
X171802347Y-96080120D01*
X171828672Y-96212460D01*
X171880308Y-96337122D01*
X171955273Y-96449315D01*
X172050685Y-96544727D01*
X172162878Y-96619692D01*
X172287540Y-96671328D01*
X172419880Y-96697653D01*
X172554814Y-96697653D01*
X172687154Y-96671328D01*
X172811816Y-96619692D01*
X172924009Y-96544727D01*
X173019421Y-96449315D01*
X173094386Y-96337122D01*
X173146022Y-96212460D01*
X173172347Y-96080120D01*
X173172347Y-95945186D01*
X173166091Y-95913735D01*
X173651083Y-95428744D01*
X173682533Y-95435000D01*
X173817467Y-95435000D01*
X173949807Y-95408675D01*
X174074469Y-95357039D01*
X174186662Y-95282074D01*
X174282074Y-95186662D01*
X174357039Y-95074469D01*
X174408675Y-94949807D01*
X174435000Y-94817467D01*
X174435000Y-94682533D01*
X174408675Y-94550193D01*
X174357039Y-94425531D01*
X174282074Y-94313338D01*
X174186662Y-94217926D01*
X174074469Y-94142961D01*
X173949807Y-94091325D01*
X173817467Y-94065000D01*
X173682533Y-94065000D01*
X173550193Y-94091325D01*
X173425531Y-94142961D01*
X173313338Y-94217926D01*
X173217926Y-94313338D01*
X173142961Y-94425531D01*
X173091325Y-94550193D01*
X173065000Y-94682533D01*
X173065000Y-94817467D01*
X173071256Y-94848917D01*
X172586265Y-95333909D01*
X172554814Y-95327653D01*
X172419880Y-95327653D01*
X172287540Y-95353978D01*
X172162878Y-95405614D01*
X172050685Y-95480579D01*
X171955273Y-95575991D01*
X171880308Y-95688184D01*
X171828672Y-95812846D01*
X171802347Y-95945186D01*
X136835904Y-95945186D01*
X136830875Y-95894130D01*
X136814579Y-95840408D01*
X136788115Y-95790897D01*
X136752500Y-95747500D01*
X136709103Y-95711885D01*
X136659592Y-95685421D01*
X136605870Y-95669125D01*
X136550000Y-95663622D01*
X133950000Y-95663622D01*
X133894130Y-95669125D01*
X133840408Y-95685421D01*
X133790897Y-95711885D01*
X133747500Y-95747500D01*
X133711885Y-95790897D01*
X133685421Y-95840408D01*
X133669125Y-95894130D01*
X133663622Y-95950000D01*
X128585000Y-95950000D01*
X128585000Y-93335000D01*
X137000000Y-93335000D01*
X137016583Y-93333367D01*
X137032528Y-93328530D01*
X137047223Y-93320675D01*
X137060104Y-93310104D01*
X137070675Y-93297223D01*
X137078530Y-93282528D01*
X137083367Y-93266583D01*
X137085000Y-93250000D01*
X137085000Y-91750000D01*
X152711203Y-91750000D01*
X152715000Y-91788553D01*
X152715000Y-91788560D01*
X152726359Y-91903886D01*
X152771246Y-92051859D01*
X152844138Y-92188232D01*
X152942236Y-92307764D01*
X152972190Y-92332347D01*
X153715001Y-93075158D01*
X153715000Y-94538560D01*
X153726359Y-94653886D01*
X153771246Y-94801859D01*
X153844138Y-94938232D01*
X153942236Y-95057764D01*
X154061767Y-95155862D01*
X154198140Y-95228754D01*
X154346113Y-95273641D01*
X154500000Y-95288798D01*
X154653886Y-95273641D01*
X154801859Y-95228754D01*
X154938232Y-95155862D01*
X155057764Y-95057764D01*
X155155862Y-94938233D01*
X155228754Y-94801860D01*
X155273641Y-94653887D01*
X155285000Y-94538561D01*
X155285000Y-92788556D01*
X155288797Y-92750000D01*
X155285000Y-92711444D01*
X155285000Y-92711439D01*
X155275757Y-92617593D01*
X155273642Y-92596113D01*
X155228754Y-92448140D01*
X155155862Y-92311767D01*
X155057764Y-92192236D01*
X155027810Y-92167653D01*
X154285000Y-91424843D01*
X154285000Y-90711439D01*
X154273641Y-90596113D01*
X154228754Y-90448140D01*
X154155862Y-90311767D01*
X154057764Y-90192236D01*
X153938233Y-90094138D01*
X153801860Y-90021246D01*
X153653887Y-89976359D01*
X153500000Y-89961202D01*
X153346114Y-89976359D01*
X153198141Y-90021246D01*
X153061768Y-90094138D01*
X152942237Y-90192236D01*
X152844139Y-90311767D01*
X152771247Y-90448140D01*
X152726360Y-90596113D01*
X152715001Y-90711439D01*
X152715000Y-91711447D01*
X152711203Y-91750000D01*
X137085000Y-91750000D01*
X137085000Y-89250000D01*
X177061686Y-89250000D01*
X177074912Y-89384283D01*
X177114081Y-89513406D01*
X177177688Y-89632407D01*
X177263289Y-89736711D01*
X177367593Y-89822312D01*
X177466166Y-89875000D01*
X177367593Y-89927688D01*
X177263289Y-90013289D01*
X177177688Y-90117593D01*
X177114081Y-90236594D01*
X177074912Y-90365717D01*
X177061686Y-90500000D01*
X177074912Y-90634283D01*
X177114081Y-90763406D01*
X177177688Y-90882407D01*
X177263289Y-90986711D01*
X177367593Y-91072312D01*
X177466166Y-91125000D01*
X177367593Y-91177688D01*
X177263289Y-91263289D01*
X177177688Y-91367593D01*
X177114081Y-91486594D01*
X177074912Y-91615717D01*
X177061686Y-91750000D01*
X177074912Y-91884283D01*
X177114081Y-92013406D01*
X177177688Y-92132407D01*
X177263289Y-92236711D01*
X177367593Y-92322312D01*
X177466166Y-92375000D01*
X177367593Y-92427688D01*
X177263289Y-92513289D01*
X177177688Y-92617593D01*
X177114081Y-92736594D01*
X177074912Y-92865717D01*
X177061686Y-93000000D01*
X177074912Y-93134283D01*
X177114081Y-93263406D01*
X177177688Y-93382407D01*
X177263289Y-93486711D01*
X177367593Y-93572312D01*
X177400062Y-93589667D01*
X177363871Y-93600645D01*
X177279783Y-93645591D01*
X177206079Y-93706079D01*
X177145591Y-93779783D01*
X177100645Y-93863871D01*
X177072968Y-93955112D01*
X177063622Y-94050000D01*
X177063622Y-94450000D01*
X177072968Y-94544888D01*
X177100645Y-94636129D01*
X177145591Y-94720217D01*
X177206079Y-94793921D01*
X177279783Y-94854409D01*
X177363871Y-94899355D01*
X177455112Y-94927032D01*
X177550000Y-94936378D01*
X178450000Y-94936378D01*
X178544888Y-94927032D01*
X178636129Y-94899355D01*
X178720217Y-94854409D01*
X178793921Y-94793921D01*
X178854409Y-94720217D01*
X178899355Y-94636129D01*
X178927032Y-94544888D01*
X178936378Y-94450000D01*
X178936378Y-94050000D01*
X178927032Y-93955112D01*
X178899355Y-93863871D01*
X178854409Y-93779783D01*
X178793921Y-93706079D01*
X178720217Y-93645591D01*
X178636129Y-93600645D01*
X178599938Y-93589667D01*
X178632407Y-93572312D01*
X178736711Y-93486711D01*
X178822312Y-93382407D01*
X178885919Y-93263406D01*
X178925088Y-93134283D01*
X178938314Y-93000000D01*
X178925088Y-92865717D01*
X178885919Y-92736594D01*
X178822312Y-92617593D01*
X178736711Y-92513289D01*
X178632407Y-92427688D01*
X178533834Y-92375000D01*
X178632407Y-92322312D01*
X178736711Y-92236711D01*
X178822312Y-92132407D01*
X178885919Y-92013406D01*
X178925088Y-91884283D01*
X178938314Y-91750000D01*
X178925088Y-91615717D01*
X178885919Y-91486594D01*
X178822312Y-91367593D01*
X178736711Y-91263289D01*
X178632407Y-91177688D01*
X178533834Y-91125000D01*
X178632407Y-91072312D01*
X178736711Y-90986711D01*
X178822312Y-90882407D01*
X178885919Y-90763406D01*
X178925088Y-90634283D01*
X178938314Y-90500000D01*
X178925088Y-90365717D01*
X178885919Y-90236594D01*
X178822312Y-90117593D01*
X178736711Y-90013289D01*
X178632407Y-89927688D01*
X178533834Y-89875000D01*
X178632407Y-89822312D01*
X178736711Y-89736711D01*
X178822312Y-89632407D01*
X178885919Y-89513406D01*
X178925088Y-89384283D01*
X178938314Y-89250000D01*
X178925088Y-89115717D01*
X178885919Y-88986594D01*
X178822312Y-88867593D01*
X178736711Y-88763289D01*
X178632407Y-88677688D01*
X178513406Y-88614081D01*
X178384283Y-88574912D01*
X178283647Y-88565000D01*
X177716353Y-88565000D01*
X177615717Y-88574912D01*
X177486594Y-88614081D01*
X177367593Y-88677688D01*
X177263289Y-88763289D01*
X177177688Y-88867593D01*
X177114081Y-88986594D01*
X177074912Y-89115717D01*
X177061686Y-89250000D01*
X137085000Y-89250000D01*
X137085000Y-85835000D01*
X193915000Y-85835000D01*
X193915000Y-93250000D01*
%TA.AperFunction,Conductor*%
D20*
G36*
X193915000Y-93250000D02*
G01*
X193916633Y-93266583D01*
X193921470Y-93282528D01*
X193929325Y-93297223D01*
X193939896Y-93310104D01*
X193952777Y-93320675D01*
X193967472Y-93328530D01*
X193983417Y-93333367D01*
X194000000Y-93335000D01*
X202415000Y-93335000D01*
X202415000Y-105665000D01*
X171796548Y-105665000D01*
X171857039Y-105574469D01*
X171908675Y-105449807D01*
X171935000Y-105317467D01*
X171935000Y-105182533D01*
X171908675Y-105050193D01*
X171857039Y-104925531D01*
X171782074Y-104813338D01*
X171686662Y-104717926D01*
X171574469Y-104642961D01*
X171449807Y-104591325D01*
X171317467Y-104565000D01*
X171182533Y-104565000D01*
X171118246Y-104577788D01*
X171186662Y-104532074D01*
X171282074Y-104436662D01*
X171357039Y-104324469D01*
X171408675Y-104199807D01*
X171435000Y-104067467D01*
X171435000Y-103932533D01*
X171408675Y-103800193D01*
X171357039Y-103675531D01*
X171282074Y-103563338D01*
X171186662Y-103467926D01*
X171074469Y-103392961D01*
X170949807Y-103341325D01*
X170817467Y-103315000D01*
X170682533Y-103315000D01*
X170550193Y-103341325D01*
X170425531Y-103392961D01*
X170313338Y-103467926D01*
X170217926Y-103563338D01*
X170142961Y-103675531D01*
X170091325Y-103800193D01*
X170065000Y-103932533D01*
X170065000Y-104067467D01*
X170071256Y-104098917D01*
X168580174Y-105590000D01*
X166810711Y-105590000D01*
X166790587Y-105588018D01*
X166770463Y-105590000D01*
X166770454Y-105590000D01*
X166710214Y-105595933D01*
X166632929Y-105619377D01*
X166622045Y-105625195D01*
X166561702Y-105657449D01*
X166552501Y-105665000D01*
X166126701Y-105665000D01*
X166130625Y-105657658D01*
X166140472Y-105625195D01*
X166154069Y-105580372D01*
X166160002Y-105520132D01*
X166160002Y-105520130D01*
X166161985Y-105499998D01*
X166160002Y-105479866D01*
X166160002Y-104799889D01*
X166186664Y-104782074D01*
X166282076Y-104686662D01*
X166357041Y-104574469D01*
X166408677Y-104449807D01*
X166435002Y-104317467D01*
X166435002Y-104182533D01*
X166408677Y-104050193D01*
X166357041Y-103925531D01*
X166282076Y-103813338D01*
X166186664Y-103717926D01*
X166074471Y-103642961D01*
X165949809Y-103591325D01*
X165817469Y-103565000D01*
X165682535Y-103565000D01*
X165550195Y-103591325D01*
X165425533Y-103642961D01*
X165313340Y-103717926D01*
X165217928Y-103813338D01*
X165142963Y-103925531D01*
X165091327Y-104050193D01*
X165065002Y-104182533D01*
X165065002Y-104317467D01*
X165091327Y-104449807D01*
X165142963Y-104574469D01*
X165217928Y-104686662D01*
X165313340Y-104782074D01*
X165340003Y-104799889D01*
X165340002Y-105330171D01*
X165005173Y-105665000D01*
X163910000Y-105665000D01*
X163910000Y-104708368D01*
X163948140Y-104728754D01*
X164096113Y-104773641D01*
X164250000Y-104788798D01*
X164403886Y-104773641D01*
X164551859Y-104728754D01*
X164688232Y-104655862D01*
X164807764Y-104557764D01*
X164905862Y-104438233D01*
X164978754Y-104301860D01*
X165023641Y-104153887D01*
X165035000Y-104038561D01*
X165035000Y-103472870D01*
X165038797Y-103434315D01*
X165035000Y-103395759D01*
X165035000Y-103395754D01*
X165029639Y-103341325D01*
X165023642Y-103280428D01*
X164978754Y-103132455D01*
X164952427Y-103083200D01*
X164905862Y-102996082D01*
X164807764Y-102876551D01*
X164777815Y-102851972D01*
X164298030Y-102372188D01*
X164273448Y-102342235D01*
X164153917Y-102244137D01*
X164017544Y-102171245D01*
X163869571Y-102126358D01*
X163754245Y-102114999D01*
X163754237Y-102114999D01*
X163715684Y-102111202D01*
X163677131Y-102114999D01*
X162510551Y-102114999D01*
X162471998Y-102111202D01*
X162433445Y-102114999D01*
X162433438Y-102114999D01*
X162332489Y-102124942D01*
X162318111Y-102126358D01*
X162170139Y-102171245D01*
X162033766Y-102244137D01*
X161973558Y-102293549D01*
X161944186Y-102317654D01*
X161944183Y-102317657D01*
X161914235Y-102342235D01*
X161889656Y-102372184D01*
X160972185Y-103289656D01*
X160942237Y-103314234D01*
X160917659Y-103344182D01*
X160917655Y-103344186D01*
X160884690Y-103384354D01*
X160844139Y-103433765D01*
X160805177Y-103506658D01*
X160771246Y-103570139D01*
X160726359Y-103718112D01*
X160711203Y-103871998D01*
X160715001Y-103910560D01*
X160715001Y-104190000D01*
X159313556Y-104190000D01*
X159275000Y-104186203D01*
X159236444Y-104190000D01*
X159236439Y-104190000D01*
X159196026Y-104193980D01*
X159121113Y-104201358D01*
X158973140Y-104246246D01*
X158836767Y-104319138D01*
X158717236Y-104417236D01*
X158692653Y-104447190D01*
X157917655Y-105222188D01*
X157844139Y-105311768D01*
X157771246Y-105448141D01*
X157726359Y-105596114D01*
X157719575Y-105665000D01*
X128585000Y-105665000D01*
X128585000Y-102093891D01*
X133665000Y-102093891D01*
X133665000Y-102406109D01*
X133725911Y-102712327D01*
X133845391Y-103000779D01*
X134018850Y-103260379D01*
X134239621Y-103481150D01*
X134499221Y-103654609D01*
X134787673Y-103774089D01*
X135093891Y-103835000D01*
X135406109Y-103835000D01*
X135712327Y-103774089D01*
X136000779Y-103654609D01*
X136260379Y-103481150D01*
X136481150Y-103260379D01*
X136654609Y-103000779D01*
X136774089Y-102712327D01*
X136835000Y-102406109D01*
X136835000Y-102093891D01*
X136774089Y-101787673D01*
X136654609Y-101499221D01*
X136481150Y-101239621D01*
X136260379Y-101018850D01*
X136000779Y-100845391D01*
X135712327Y-100725911D01*
X135406109Y-100665000D01*
X135093891Y-100665000D01*
X134787673Y-100725911D01*
X134499221Y-100845391D01*
X134239621Y-101018850D01*
X134018850Y-101239621D01*
X133845391Y-101499221D01*
X133725911Y-101787673D01*
X133665000Y-102093891D01*
X128585000Y-102093891D01*
X128585000Y-95950000D01*
X133663622Y-95950000D01*
X133663622Y-98550000D01*
X133669125Y-98605870D01*
X133685421Y-98659592D01*
X133711885Y-98709103D01*
X133747500Y-98752500D01*
X133790897Y-98788115D01*
X133840408Y-98814579D01*
X133894130Y-98830875D01*
X133950000Y-98836378D01*
X136550000Y-98836378D01*
X136605870Y-98830875D01*
X136659592Y-98814579D01*
X136709103Y-98788115D01*
X136752500Y-98752500D01*
X136788115Y-98709103D01*
X136814579Y-98659592D01*
X136830875Y-98605870D01*
X136836378Y-98550000D01*
X136836378Y-95950000D01*
X136835904Y-95945186D01*
X171802347Y-95945186D01*
X171802347Y-96080120D01*
X171828672Y-96212460D01*
X171880308Y-96337122D01*
X171955273Y-96449315D01*
X172050685Y-96544727D01*
X172162878Y-96619692D01*
X172287540Y-96671328D01*
X172419880Y-96697653D01*
X172554814Y-96697653D01*
X172687154Y-96671328D01*
X172811816Y-96619692D01*
X172924009Y-96544727D01*
X173019421Y-96449315D01*
X173094386Y-96337122D01*
X173146022Y-96212460D01*
X173172347Y-96080120D01*
X173172347Y-95945186D01*
X173166091Y-95913735D01*
X173651083Y-95428744D01*
X173682533Y-95435000D01*
X173817467Y-95435000D01*
X173949807Y-95408675D01*
X174074469Y-95357039D01*
X174186662Y-95282074D01*
X174282074Y-95186662D01*
X174357039Y-95074469D01*
X174408675Y-94949807D01*
X174435000Y-94817467D01*
X174435000Y-94682533D01*
X174408675Y-94550193D01*
X174357039Y-94425531D01*
X174282074Y-94313338D01*
X174186662Y-94217926D01*
X174074469Y-94142961D01*
X173949807Y-94091325D01*
X173817467Y-94065000D01*
X173682533Y-94065000D01*
X173550193Y-94091325D01*
X173425531Y-94142961D01*
X173313338Y-94217926D01*
X173217926Y-94313338D01*
X173142961Y-94425531D01*
X173091325Y-94550193D01*
X173065000Y-94682533D01*
X173065000Y-94817467D01*
X173071256Y-94848917D01*
X172586265Y-95333909D01*
X172554814Y-95327653D01*
X172419880Y-95327653D01*
X172287540Y-95353978D01*
X172162878Y-95405614D01*
X172050685Y-95480579D01*
X171955273Y-95575991D01*
X171880308Y-95688184D01*
X171828672Y-95812846D01*
X171802347Y-95945186D01*
X136835904Y-95945186D01*
X136830875Y-95894130D01*
X136814579Y-95840408D01*
X136788115Y-95790897D01*
X136752500Y-95747500D01*
X136709103Y-95711885D01*
X136659592Y-95685421D01*
X136605870Y-95669125D01*
X136550000Y-95663622D01*
X133950000Y-95663622D01*
X133894130Y-95669125D01*
X133840408Y-95685421D01*
X133790897Y-95711885D01*
X133747500Y-95747500D01*
X133711885Y-95790897D01*
X133685421Y-95840408D01*
X133669125Y-95894130D01*
X133663622Y-95950000D01*
X128585000Y-95950000D01*
X128585000Y-93335000D01*
X137000000Y-93335000D01*
X137016583Y-93333367D01*
X137032528Y-93328530D01*
X137047223Y-93320675D01*
X137060104Y-93310104D01*
X137070675Y-93297223D01*
X137078530Y-93282528D01*
X137083367Y-93266583D01*
X137085000Y-93250000D01*
X137085000Y-91750000D01*
X152711203Y-91750000D01*
X152715000Y-91788553D01*
X152715000Y-91788560D01*
X152726359Y-91903886D01*
X152771246Y-92051859D01*
X152844138Y-92188232D01*
X152942236Y-92307764D01*
X152972190Y-92332347D01*
X153715001Y-93075158D01*
X153715000Y-94538560D01*
X153726359Y-94653886D01*
X153771246Y-94801859D01*
X153844138Y-94938232D01*
X153942236Y-95057764D01*
X154061767Y-95155862D01*
X154198140Y-95228754D01*
X154346113Y-95273641D01*
X154500000Y-95288798D01*
X154653886Y-95273641D01*
X154801859Y-95228754D01*
X154938232Y-95155862D01*
X155057764Y-95057764D01*
X155155862Y-94938233D01*
X155228754Y-94801860D01*
X155273641Y-94653887D01*
X155285000Y-94538561D01*
X155285000Y-92788556D01*
X155288797Y-92750000D01*
X155285000Y-92711444D01*
X155285000Y-92711439D01*
X155275757Y-92617593D01*
X155273642Y-92596113D01*
X155228754Y-92448140D01*
X155155862Y-92311767D01*
X155057764Y-92192236D01*
X155027810Y-92167653D01*
X154285000Y-91424843D01*
X154285000Y-90711439D01*
X154273641Y-90596113D01*
X154228754Y-90448140D01*
X154155862Y-90311767D01*
X154057764Y-90192236D01*
X153938233Y-90094138D01*
X153801860Y-90021246D01*
X153653887Y-89976359D01*
X153500000Y-89961202D01*
X153346114Y-89976359D01*
X153198141Y-90021246D01*
X153061768Y-90094138D01*
X152942237Y-90192236D01*
X152844139Y-90311767D01*
X152771247Y-90448140D01*
X152726360Y-90596113D01*
X152715001Y-90711439D01*
X152715000Y-91711447D01*
X152711203Y-91750000D01*
X137085000Y-91750000D01*
X137085000Y-89250000D01*
X177061686Y-89250000D01*
X177074912Y-89384283D01*
X177114081Y-89513406D01*
X177177688Y-89632407D01*
X177263289Y-89736711D01*
X177367593Y-89822312D01*
X177466166Y-89875000D01*
X177367593Y-89927688D01*
X177263289Y-90013289D01*
X177177688Y-90117593D01*
X177114081Y-90236594D01*
X177074912Y-90365717D01*
X177061686Y-90500000D01*
X177074912Y-90634283D01*
X177114081Y-90763406D01*
X177177688Y-90882407D01*
X177263289Y-90986711D01*
X177367593Y-91072312D01*
X177466166Y-91125000D01*
X177367593Y-91177688D01*
X177263289Y-91263289D01*
X177177688Y-91367593D01*
X177114081Y-91486594D01*
X177074912Y-91615717D01*
X177061686Y-91750000D01*
X177074912Y-91884283D01*
X177114081Y-92013406D01*
X177177688Y-92132407D01*
X177263289Y-92236711D01*
X177367593Y-92322312D01*
X177466166Y-92375000D01*
X177367593Y-92427688D01*
X177263289Y-92513289D01*
X177177688Y-92617593D01*
X177114081Y-92736594D01*
X177074912Y-92865717D01*
X177061686Y-93000000D01*
X177074912Y-93134283D01*
X177114081Y-93263406D01*
X177177688Y-93382407D01*
X177263289Y-93486711D01*
X177367593Y-93572312D01*
X177400062Y-93589667D01*
X177363871Y-93600645D01*
X177279783Y-93645591D01*
X177206079Y-93706079D01*
X177145591Y-93779783D01*
X177100645Y-93863871D01*
X177072968Y-93955112D01*
X177063622Y-94050000D01*
X177063622Y-94450000D01*
X177072968Y-94544888D01*
X177100645Y-94636129D01*
X177145591Y-94720217D01*
X177206079Y-94793921D01*
X177279783Y-94854409D01*
X177363871Y-94899355D01*
X177455112Y-94927032D01*
X177550000Y-94936378D01*
X178450000Y-94936378D01*
X178544888Y-94927032D01*
X178636129Y-94899355D01*
X178720217Y-94854409D01*
X178793921Y-94793921D01*
X178854409Y-94720217D01*
X178899355Y-94636129D01*
X178927032Y-94544888D01*
X178936378Y-94450000D01*
X178936378Y-94050000D01*
X178927032Y-93955112D01*
X178899355Y-93863871D01*
X178854409Y-93779783D01*
X178793921Y-93706079D01*
X178720217Y-93645591D01*
X178636129Y-93600645D01*
X178599938Y-93589667D01*
X178632407Y-93572312D01*
X178736711Y-93486711D01*
X178822312Y-93382407D01*
X178885919Y-93263406D01*
X178925088Y-93134283D01*
X178938314Y-93000000D01*
X178925088Y-92865717D01*
X178885919Y-92736594D01*
X178822312Y-92617593D01*
X178736711Y-92513289D01*
X178632407Y-92427688D01*
X178533834Y-92375000D01*
X178632407Y-92322312D01*
X178736711Y-92236711D01*
X178822312Y-92132407D01*
X178885919Y-92013406D01*
X178925088Y-91884283D01*
X178938314Y-91750000D01*
X178925088Y-91615717D01*
X178885919Y-91486594D01*
X178822312Y-91367593D01*
X178736711Y-91263289D01*
X178632407Y-91177688D01*
X178533834Y-91125000D01*
X178632407Y-91072312D01*
X178736711Y-90986711D01*
X178822312Y-90882407D01*
X178885919Y-90763406D01*
X178925088Y-90634283D01*
X178938314Y-90500000D01*
X178925088Y-90365717D01*
X178885919Y-90236594D01*
X178822312Y-90117593D01*
X178736711Y-90013289D01*
X178632407Y-89927688D01*
X178533834Y-89875000D01*
X178632407Y-89822312D01*
X178736711Y-89736711D01*
X178822312Y-89632407D01*
X178885919Y-89513406D01*
X178925088Y-89384283D01*
X178938314Y-89250000D01*
X178925088Y-89115717D01*
X178885919Y-88986594D01*
X178822312Y-88867593D01*
X178736711Y-88763289D01*
X178632407Y-88677688D01*
X178513406Y-88614081D01*
X178384283Y-88574912D01*
X178283647Y-88565000D01*
X177716353Y-88565000D01*
X177615717Y-88574912D01*
X177486594Y-88614081D01*
X177367593Y-88677688D01*
X177263289Y-88763289D01*
X177177688Y-88867593D01*
X177114081Y-88986594D01*
X177074912Y-89115717D01*
X177061686Y-89250000D01*
X137085000Y-89250000D01*
X137085000Y-85835000D01*
X193915000Y-85835000D01*
X193915000Y-93250000D01*
G37*
%TD.AperFunction*%
%TD*%
M02*
