%TF.GenerationSoftware,KiCad,Pcbnew,5.1.10-88a1d61d58~88~ubuntu20.04.1*%
%TF.CreationDate,2021-05-12T04:56:06+02:00*%
%TF.ProjectId,halfVoltageMosfetBoard,68616c66-566f-46c7-9461-67654d6f7366,rev?*%
%TF.SameCoordinates,Original*%
%TF.FileFunction,Paste,Bot*%
%TF.FilePolarity,Positive*%
%FSLAX46Y46*%
G04 Gerber Fmt 4.6, Leading zero omitted, Abs format (unit mm)*
G04 Created by KiCad (PCBNEW 5.1.10-88a1d61d58~88~ubuntu20.04.1) date 2021-05-12 04:56:06*
%MOMM*%
%LPD*%
G01*
G04 APERTURE LIST*
%ADD10R,0.900000X0.800000*%
G04 APERTURE END LIST*
D10*
%TO.C,D3*%
X200750000Y-119500000D03*
X198750000Y-118550000D03*
X198750000Y-120450000D03*
%TD*%
%TO.C,C13*%
G36*
G01*
X161250000Y-106075000D02*
X161750000Y-106075000D01*
G75*
G02*
X161975000Y-106300000I0J-225000D01*
G01*
X161975000Y-106750000D01*
G75*
G02*
X161750000Y-106975000I-225000J0D01*
G01*
X161250000Y-106975000D01*
G75*
G02*
X161025000Y-106750000I0J225000D01*
G01*
X161025000Y-106300000D01*
G75*
G02*
X161250000Y-106075000I225000J0D01*
G01*
G37*
G36*
G01*
X161250000Y-104525000D02*
X161750000Y-104525000D01*
G75*
G02*
X161975000Y-104750000I0J-225000D01*
G01*
X161975000Y-105200000D01*
G75*
G02*
X161750000Y-105425000I-225000J0D01*
G01*
X161250000Y-105425000D01*
G75*
G02*
X161025000Y-105200000I0J225000D01*
G01*
X161025000Y-104750000D01*
G75*
G02*
X161250000Y-104525000I225000J0D01*
G01*
G37*
%TD*%
%TO.C,C14*%
G36*
G01*
X159750000Y-106075000D02*
X160250000Y-106075000D01*
G75*
G02*
X160475000Y-106300000I0J-225000D01*
G01*
X160475000Y-106750000D01*
G75*
G02*
X160250000Y-106975000I-225000J0D01*
G01*
X159750000Y-106975000D01*
G75*
G02*
X159525000Y-106750000I0J225000D01*
G01*
X159525000Y-106300000D01*
G75*
G02*
X159750000Y-106075000I225000J0D01*
G01*
G37*
G36*
G01*
X159750000Y-104525000D02*
X160250000Y-104525000D01*
G75*
G02*
X160475000Y-104750000I0J-225000D01*
G01*
X160475000Y-105200000D01*
G75*
G02*
X160250000Y-105425000I-225000J0D01*
G01*
X159750000Y-105425000D01*
G75*
G02*
X159525000Y-105200000I0J225000D01*
G01*
X159525000Y-104750000D01*
G75*
G02*
X159750000Y-104525000I225000J0D01*
G01*
G37*
%TD*%
M02*
