%TF.GenerationSoftware,KiCad,Pcbnew,5.1.10-88a1d61d58~88~ubuntu20.04.1*%
%TF.CreationDate,2021-05-12T17:30:15+02:00*%
%TF.ProjectId,halfVoltageMosfetBoard,68616c66-566f-46c7-9461-67654d6f7366,rev?*%
%TF.SameCoordinates,Original*%
%TF.FileFunction,Copper,L1,Top*%
%TF.FilePolarity,Positive*%
%FSLAX46Y46*%
G04 Gerber Fmt 4.6, Leading zero omitted, Abs format (unit mm)*
G04 Created by KiCad (PCBNEW 5.1.10-88a1d61d58~88~ubuntu20.04.1) date 2021-05-12 17:30:15*
%MOMM*%
%LPD*%
G01*
G04 APERTURE LIST*
%TA.AperFunction,SMDPad,CuDef*%
%ADD10R,0.900000X0.800000*%
%TD*%
%TA.AperFunction,SMDPad,CuDef*%
%ADD11R,0.800000X0.900000*%
%TD*%
%TA.AperFunction,ComponentPad*%
%ADD12R,2.600000X2.600000*%
%TD*%
%TA.AperFunction,ComponentPad*%
%ADD13C,2.600000*%
%TD*%
%TA.AperFunction,ComponentPad*%
%ADD14O,1.300000X0.800000*%
%TD*%
%TA.AperFunction,SMDPad,CuDef*%
%ADD15C,0.100000*%
%TD*%
%TA.AperFunction,SMDPad,CuDef*%
%ADD16R,0.990000X0.405000*%
%TD*%
%TA.AperFunction,SMDPad,CuDef*%
%ADD17R,0.900000X1.300000*%
%TD*%
%TA.AperFunction,SMDPad,CuDef*%
%ADD18R,0.700000X1.500000*%
%TD*%
%TA.AperFunction,ComponentPad*%
%ADD19C,0.500000*%
%TD*%
%TA.AperFunction,SMDPad,CuDef*%
%ADD20R,3.000000X2.290000*%
%TD*%
%TA.AperFunction,ViaPad*%
%ADD21C,0.800000*%
%TD*%
%TA.AperFunction,Conductor*%
%ADD22C,2.000000*%
%TD*%
%TA.AperFunction,Conductor*%
%ADD23C,1.000000*%
%TD*%
%TA.AperFunction,Conductor*%
%ADD24C,0.250000*%
%TD*%
%TA.AperFunction,Conductor*%
%ADD25C,0.254000*%
%TD*%
%TA.AperFunction,Conductor*%
%ADD26C,0.100000*%
%TD*%
%TA.AperFunction,Conductor*%
%ADD27C,0.170000*%
%TD*%
G04 APERTURE END LIST*
D10*
%TO.P,D5,1*%
%TO.N,/InputHeater1*%
X146250000Y-99750000D03*
%TO.P,D5,*%
%TO.N,*%
X144250000Y-100700000D03*
%TO.P,D5,2*%
%TO.N,GND*%
X144250000Y-98800000D03*
%TD*%
D11*
%TO.P,D4,1*%
%TO.N,/InputHeater2*%
X146000000Y-93750000D03*
%TO.P,D4,*%
%TO.N,*%
X146950000Y-95750000D03*
%TO.P,D4,2*%
%TO.N,GND*%
X145050000Y-95750000D03*
%TD*%
D12*
%TO.P,J2,1*%
%TO.N,+24V*%
X195750000Y-132000000D03*
D13*
%TO.P,J2,2*%
X195750000Y-127000000D03*
%TO.P,J2,3*%
%TO.N,/PowerHeater2*%
X195750000Y-122000000D03*
%TO.P,J2,4*%
%TO.N,/PowerHeater1*%
X195750000Y-117000000D03*
%TD*%
%TO.P,C2,2*%
%TO.N,GND*%
%TA.AperFunction,SMDPad,CuDef*%
G36*
G01*
X140450000Y-112225000D02*
X140450000Y-111275000D01*
G75*
G02*
X140700000Y-111025000I250000J0D01*
G01*
X141200000Y-111025000D01*
G75*
G02*
X141450000Y-111275000I0J-250000D01*
G01*
X141450000Y-112225000D01*
G75*
G02*
X141200000Y-112475000I-250000J0D01*
G01*
X140700000Y-112475000D01*
G75*
G02*
X140450000Y-112225000I0J250000D01*
G01*
G37*
%TD.AperFunction*%
%TO.P,C2,1*%
%TO.N,+24V*%
%TA.AperFunction,SMDPad,CuDef*%
G36*
G01*
X138550000Y-112225000D02*
X138550000Y-111275000D01*
G75*
G02*
X138800000Y-111025000I250000J0D01*
G01*
X139300000Y-111025000D01*
G75*
G02*
X139550000Y-111275000I0J-250000D01*
G01*
X139550000Y-112225000D01*
G75*
G02*
X139300000Y-112475000I-250000J0D01*
G01*
X138800000Y-112475000D01*
G75*
G02*
X138550000Y-112225000I0J250000D01*
G01*
G37*
%TD.AperFunction*%
%TD*%
%TO.P,C3,2*%
%TO.N,GND*%
%TA.AperFunction,SMDPad,CuDef*%
G36*
G01*
X144525000Y-111000000D02*
X145475000Y-111000000D01*
G75*
G02*
X145725000Y-111250000I0J-250000D01*
G01*
X145725000Y-111750000D01*
G75*
G02*
X145475000Y-112000000I-250000J0D01*
G01*
X144525000Y-112000000D01*
G75*
G02*
X144275000Y-111750000I0J250000D01*
G01*
X144275000Y-111250000D01*
G75*
G02*
X144525000Y-111000000I250000J0D01*
G01*
G37*
%TD.AperFunction*%
%TO.P,C3,1*%
%TO.N,+12V*%
%TA.AperFunction,SMDPad,CuDef*%
G36*
G01*
X144525000Y-109100000D02*
X145475000Y-109100000D01*
G75*
G02*
X145725000Y-109350000I0J-250000D01*
G01*
X145725000Y-109850000D01*
G75*
G02*
X145475000Y-110100000I-250000J0D01*
G01*
X144525000Y-110100000D01*
G75*
G02*
X144275000Y-109850000I0J250000D01*
G01*
X144275000Y-109350000D01*
G75*
G02*
X144525000Y-109100000I250000J0D01*
G01*
G37*
%TD.AperFunction*%
%TD*%
%TO.P,C6,2*%
%TO.N,GND*%
%TA.AperFunction,SMDPad,CuDef*%
G36*
G01*
X155475000Y-89300000D02*
X154525000Y-89300000D01*
G75*
G02*
X154275000Y-89050000I0J250000D01*
G01*
X154275000Y-88550000D01*
G75*
G02*
X154525000Y-88300000I250000J0D01*
G01*
X155475000Y-88300000D01*
G75*
G02*
X155725000Y-88550000I0J-250000D01*
G01*
X155725000Y-89050000D01*
G75*
G02*
X155475000Y-89300000I-250000J0D01*
G01*
G37*
%TD.AperFunction*%
%TO.P,C6,1*%
%TO.N,+3V3*%
%TA.AperFunction,SMDPad,CuDef*%
G36*
G01*
X155475000Y-91200000D02*
X154525000Y-91200000D01*
G75*
G02*
X154275000Y-90950000I0J250000D01*
G01*
X154275000Y-90450000D01*
G75*
G02*
X154525000Y-90200000I250000J0D01*
G01*
X155475000Y-90200000D01*
G75*
G02*
X155725000Y-90450000I0J-250000D01*
G01*
X155725000Y-90950000D01*
G75*
G02*
X155475000Y-91200000I-250000J0D01*
G01*
G37*
%TD.AperFunction*%
%TD*%
%TO.P,C11,2*%
%TO.N,GND*%
%TA.AperFunction,SMDPad,CuDef*%
G36*
G01*
X157475000Y-89300000D02*
X156525000Y-89300000D01*
G75*
G02*
X156275000Y-89050000I0J250000D01*
G01*
X156275000Y-88550000D01*
G75*
G02*
X156525000Y-88300000I250000J0D01*
G01*
X157475000Y-88300000D01*
G75*
G02*
X157725000Y-88550000I0J-250000D01*
G01*
X157725000Y-89050000D01*
G75*
G02*
X157475000Y-89300000I-250000J0D01*
G01*
G37*
%TD.AperFunction*%
%TO.P,C11,1*%
%TO.N,+3V3*%
%TA.AperFunction,SMDPad,CuDef*%
G36*
G01*
X157475000Y-91200000D02*
X156525000Y-91200000D01*
G75*
G02*
X156275000Y-90950000I0J250000D01*
G01*
X156275000Y-90450000D01*
G75*
G02*
X156525000Y-90200000I250000J0D01*
G01*
X157475000Y-90200000D01*
G75*
G02*
X157725000Y-90450000I0J-250000D01*
G01*
X157725000Y-90950000D01*
G75*
G02*
X157475000Y-91200000I-250000J0D01*
G01*
G37*
%TD.AperFunction*%
%TD*%
%TO.P,C15,2*%
%TO.N,GND*%
%TA.AperFunction,SMDPad,CuDef*%
G36*
G01*
X149500000Y-127500000D02*
X147500000Y-127500000D01*
G75*
G02*
X147250000Y-127250000I0J250000D01*
G01*
X147250000Y-123350000D01*
G75*
G02*
X147500000Y-123100000I250000J0D01*
G01*
X149500000Y-123100000D01*
G75*
G02*
X149750000Y-123350000I0J-250000D01*
G01*
X149750000Y-127250000D01*
G75*
G02*
X149500000Y-127500000I-250000J0D01*
G01*
G37*
%TD.AperFunction*%
%TO.P,C15,1*%
%TO.N,+24V*%
%TA.AperFunction,SMDPad,CuDef*%
G36*
G01*
X149500000Y-135900000D02*
X147500000Y-135900000D01*
G75*
G02*
X147250000Y-135650000I0J250000D01*
G01*
X147250000Y-131750000D01*
G75*
G02*
X147500000Y-131500000I250000J0D01*
G01*
X149500000Y-131500000D01*
G75*
G02*
X149750000Y-131750000I0J-250000D01*
G01*
X149750000Y-135650000D01*
G75*
G02*
X149500000Y-135900000I-250000J0D01*
G01*
G37*
%TD.AperFunction*%
%TD*%
%TO.P,C16,2*%
%TO.N,GND*%
%TA.AperFunction,SMDPad,CuDef*%
G36*
G01*
X183250000Y-127500000D02*
X181250000Y-127500000D01*
G75*
G02*
X181000000Y-127250000I0J250000D01*
G01*
X181000000Y-123350000D01*
G75*
G02*
X181250000Y-123100000I250000J0D01*
G01*
X183250000Y-123100000D01*
G75*
G02*
X183500000Y-123350000I0J-250000D01*
G01*
X183500000Y-127250000D01*
G75*
G02*
X183250000Y-127500000I-250000J0D01*
G01*
G37*
%TD.AperFunction*%
%TO.P,C16,1*%
%TO.N,+24V*%
%TA.AperFunction,SMDPad,CuDef*%
G36*
G01*
X183250000Y-135900000D02*
X181250000Y-135900000D01*
G75*
G02*
X181000000Y-135650000I0J250000D01*
G01*
X181000000Y-131750000D01*
G75*
G02*
X181250000Y-131500000I250000J0D01*
G01*
X183250000Y-131500000D01*
G75*
G02*
X183500000Y-131750000I0J-250000D01*
G01*
X183500000Y-135650000D01*
G75*
G02*
X183250000Y-135900000I-250000J0D01*
G01*
G37*
%TD.AperFunction*%
%TD*%
%TO.P,C17,2*%
%TO.N,GND*%
%TA.AperFunction,SMDPad,CuDef*%
G36*
G01*
X172000000Y-127500000D02*
X170000000Y-127500000D01*
G75*
G02*
X169750000Y-127250000I0J250000D01*
G01*
X169750000Y-123350000D01*
G75*
G02*
X170000000Y-123100000I250000J0D01*
G01*
X172000000Y-123100000D01*
G75*
G02*
X172250000Y-123350000I0J-250000D01*
G01*
X172250000Y-127250000D01*
G75*
G02*
X172000000Y-127500000I-250000J0D01*
G01*
G37*
%TD.AperFunction*%
%TO.P,C17,1*%
%TO.N,+24V*%
%TA.AperFunction,SMDPad,CuDef*%
G36*
G01*
X172000000Y-135900000D02*
X170000000Y-135900000D01*
G75*
G02*
X169750000Y-135650000I0J250000D01*
G01*
X169750000Y-131750000D01*
G75*
G02*
X170000000Y-131500000I250000J0D01*
G01*
X172000000Y-131500000D01*
G75*
G02*
X172250000Y-131750000I0J-250000D01*
G01*
X172250000Y-135650000D01*
G75*
G02*
X172000000Y-135900000I-250000J0D01*
G01*
G37*
%TD.AperFunction*%
%TD*%
%TO.P,C18,2*%
%TO.N,GND*%
%TA.AperFunction,SMDPad,CuDef*%
G36*
G01*
X160750000Y-127500000D02*
X158750000Y-127500000D01*
G75*
G02*
X158500000Y-127250000I0J250000D01*
G01*
X158500000Y-123350000D01*
G75*
G02*
X158750000Y-123100000I250000J0D01*
G01*
X160750000Y-123100000D01*
G75*
G02*
X161000000Y-123350000I0J-250000D01*
G01*
X161000000Y-127250000D01*
G75*
G02*
X160750000Y-127500000I-250000J0D01*
G01*
G37*
%TD.AperFunction*%
%TO.P,C18,1*%
%TO.N,+24V*%
%TA.AperFunction,SMDPad,CuDef*%
G36*
G01*
X160750000Y-135900000D02*
X158750000Y-135900000D01*
G75*
G02*
X158500000Y-135650000I0J250000D01*
G01*
X158500000Y-131750000D01*
G75*
G02*
X158750000Y-131500000I250000J0D01*
G01*
X160750000Y-131500000D01*
G75*
G02*
X161000000Y-131750000I0J-250000D01*
G01*
X161000000Y-135650000D01*
G75*
G02*
X160750000Y-135900000I-250000J0D01*
G01*
G37*
%TD.AperFunction*%
%TD*%
%TO.P,D1,2*%
%TO.N,/Heater1ActiveLed*%
%TA.AperFunction,SMDPad,CuDef*%
G36*
G01*
X176256250Y-98937500D02*
X175743750Y-98937500D01*
G75*
G02*
X175525000Y-98718750I0J218750D01*
G01*
X175525000Y-98281250D01*
G75*
G02*
X175743750Y-98062500I218750J0D01*
G01*
X176256250Y-98062500D01*
G75*
G02*
X176475000Y-98281250I0J-218750D01*
G01*
X176475000Y-98718750D01*
G75*
G02*
X176256250Y-98937500I-218750J0D01*
G01*
G37*
%TD.AperFunction*%
%TO.P,D1,1*%
%TO.N,Net-(D1-Pad1)*%
%TA.AperFunction,SMDPad,CuDef*%
G36*
G01*
X176256250Y-100512500D02*
X175743750Y-100512500D01*
G75*
G02*
X175525000Y-100293750I0J218750D01*
G01*
X175525000Y-99856250D01*
G75*
G02*
X175743750Y-99637500I218750J0D01*
G01*
X176256250Y-99637500D01*
G75*
G02*
X176475000Y-99856250I0J-218750D01*
G01*
X176475000Y-100293750D01*
G75*
G02*
X176256250Y-100512500I-218750J0D01*
G01*
G37*
%TD.AperFunction*%
%TD*%
%TO.P,D2,2*%
%TO.N,/Heater2ActiveLed*%
%TA.AperFunction,SMDPad,CuDef*%
G36*
G01*
X159006250Y-98937500D02*
X158493750Y-98937500D01*
G75*
G02*
X158275000Y-98718750I0J218750D01*
G01*
X158275000Y-98281250D01*
G75*
G02*
X158493750Y-98062500I218750J0D01*
G01*
X159006250Y-98062500D01*
G75*
G02*
X159225000Y-98281250I0J-218750D01*
G01*
X159225000Y-98718750D01*
G75*
G02*
X159006250Y-98937500I-218750J0D01*
G01*
G37*
%TD.AperFunction*%
%TO.P,D2,1*%
%TO.N,Net-(D2-Pad1)*%
%TA.AperFunction,SMDPad,CuDef*%
G36*
G01*
X159006250Y-100512500D02*
X158493750Y-100512500D01*
G75*
G02*
X158275000Y-100293750I0J218750D01*
G01*
X158275000Y-99856250D01*
G75*
G02*
X158493750Y-99637500I218750J0D01*
G01*
X159006250Y-99637500D01*
G75*
G02*
X159225000Y-99856250I0J-218750D01*
G01*
X159225000Y-100293750D01*
G75*
G02*
X159006250Y-100512500I-218750J0D01*
G01*
G37*
%TD.AperFunction*%
%TD*%
%TO.P,J5,2*%
%TO.N,Net-(J5-Pad2)*%
X135250000Y-102250000D03*
D12*
%TO.P,J5,1*%
%TO.N,Net-(J5-Pad1)*%
X135250000Y-97250000D03*
%TD*%
D14*
%TO.P,J_SWD1,6*%
%TO.N,GND*%
X178000000Y-88000000D03*
%TO.P,J_SWD1,5*%
%TO.N,N/C*%
X178000000Y-89250000D03*
%TO.P,J_SWD1,4*%
%TO.N,/SWCLK*%
X178000000Y-90500000D03*
%TO.P,J_SWD1,3*%
%TO.N,/SWDIO*%
X178000000Y-91750000D03*
%TO.P,J_SWD1,2*%
%TO.N,+3V3*%
X178000000Y-93000000D03*
%TO.P,J_SWD1,1*%
%TO.N,/~RST*%
%TA.AperFunction,ComponentPad*%
G36*
G01*
X178450000Y-94650000D02*
X177550000Y-94650000D01*
G75*
G02*
X177350000Y-94450000I0J200000D01*
G01*
X177350000Y-94050000D01*
G75*
G02*
X177550000Y-93850000I200000J0D01*
G01*
X178450000Y-93850000D01*
G75*
G02*
X178650000Y-94050000I0J-200000D01*
G01*
X178650000Y-94450000D01*
G75*
G02*
X178450000Y-94650000I-200000J0D01*
G01*
G37*
%TD.AperFunction*%
%TD*%
%TA.AperFunction,SMDPad,CuDef*%
D15*
%TO.P,Q1,3*%
%TO.N,/PowerHeater1*%
G36*
X167372500Y-111462500D02*
G01*
X166862500Y-111462500D01*
X166862500Y-111717500D01*
X167372500Y-111717500D01*
X167372500Y-112122500D01*
X166862500Y-112122500D01*
X166862500Y-112377500D01*
X167372500Y-112377500D01*
X167372500Y-112782500D01*
X166862500Y-112782500D01*
X166862500Y-113037500D01*
X167372500Y-113037500D01*
X167372500Y-113445000D01*
X166612500Y-113445000D01*
X166612500Y-113367500D01*
X165137500Y-113367500D01*
X165137500Y-111132500D01*
X166612500Y-111132500D01*
X166612500Y-111055000D01*
X167372500Y-111055000D01*
X167372500Y-111462500D01*
G37*
%TD.AperFunction*%
D16*
%TO.P,Q1,2*%
%TO.N,Net-(Q1-Pad2)*%
X164007500Y-113240000D03*
%TO.P,Q1,1*%
%TO.N,GND*%
X164007500Y-112580000D03*
X164007500Y-111920000D03*
X164007500Y-111260000D03*
%TD*%
%TA.AperFunction,SMDPad,CuDef*%
D15*
%TO.P,Q2,3*%
%TO.N,/PowerHeater2*%
G36*
X167372500Y-120462500D02*
G01*
X166862500Y-120462500D01*
X166862500Y-120717500D01*
X167372500Y-120717500D01*
X167372500Y-121122500D01*
X166862500Y-121122500D01*
X166862500Y-121377500D01*
X167372500Y-121377500D01*
X167372500Y-121782500D01*
X166862500Y-121782500D01*
X166862500Y-122037500D01*
X167372500Y-122037500D01*
X167372500Y-122445000D01*
X166612500Y-122445000D01*
X166612500Y-122367500D01*
X165137500Y-122367500D01*
X165137500Y-120132500D01*
X166612500Y-120132500D01*
X166612500Y-120055000D01*
X167372500Y-120055000D01*
X167372500Y-120462500D01*
G37*
%TD.AperFunction*%
D16*
%TO.P,Q2,2*%
%TO.N,Net-(Q2-Pad2)*%
X164007500Y-122240000D03*
%TO.P,Q2,1*%
%TO.N,GND*%
X164007500Y-121580000D03*
X164007500Y-120920000D03*
X164007500Y-120260000D03*
%TD*%
%TO.P,R1,2*%
%TO.N,Net-(J5-Pad2)*%
%TA.AperFunction,SMDPad,CuDef*%
G36*
G01*
X140725000Y-101675000D02*
X141275000Y-101675000D01*
G75*
G02*
X141475000Y-101875000I0J-200000D01*
G01*
X141475000Y-102275000D01*
G75*
G02*
X141275000Y-102475000I-200000J0D01*
G01*
X140725000Y-102475000D01*
G75*
G02*
X140525000Y-102275000I0J200000D01*
G01*
X140525000Y-101875000D01*
G75*
G02*
X140725000Y-101675000I200000J0D01*
G01*
G37*
%TD.AperFunction*%
%TO.P,R1,1*%
%TO.N,+24V*%
%TA.AperFunction,SMDPad,CuDef*%
G36*
G01*
X140725000Y-100025000D02*
X141275000Y-100025000D01*
G75*
G02*
X141475000Y-100225000I0J-200000D01*
G01*
X141475000Y-100625000D01*
G75*
G02*
X141275000Y-100825000I-200000J0D01*
G01*
X140725000Y-100825000D01*
G75*
G02*
X140525000Y-100625000I0J200000D01*
G01*
X140525000Y-100225000D01*
G75*
G02*
X140725000Y-100025000I200000J0D01*
G01*
G37*
%TD.AperFunction*%
%TD*%
%TO.P,R2,2*%
%TO.N,/InputHeater1*%
%TA.AperFunction,SMDPad,CuDef*%
G36*
G01*
X140725000Y-104925000D02*
X141275000Y-104925000D01*
G75*
G02*
X141475000Y-105125000I0J-200000D01*
G01*
X141475000Y-105525000D01*
G75*
G02*
X141275000Y-105725000I-200000J0D01*
G01*
X140725000Y-105725000D01*
G75*
G02*
X140525000Y-105525000I0J200000D01*
G01*
X140525000Y-105125000D01*
G75*
G02*
X140725000Y-104925000I200000J0D01*
G01*
G37*
%TD.AperFunction*%
%TO.P,R2,1*%
%TO.N,Net-(J5-Pad2)*%
%TA.AperFunction,SMDPad,CuDef*%
G36*
G01*
X140725000Y-103275000D02*
X141275000Y-103275000D01*
G75*
G02*
X141475000Y-103475000I0J-200000D01*
G01*
X141475000Y-103875000D01*
G75*
G02*
X141275000Y-104075000I-200000J0D01*
G01*
X140725000Y-104075000D01*
G75*
G02*
X140525000Y-103875000I0J200000D01*
G01*
X140525000Y-103475000D01*
G75*
G02*
X140725000Y-103275000I200000J0D01*
G01*
G37*
%TD.AperFunction*%
%TD*%
%TO.P,R3,2*%
%TO.N,Net-(J5-Pad1)*%
%TA.AperFunction,SMDPad,CuDef*%
G36*
G01*
X141275000Y-97575000D02*
X140725000Y-97575000D01*
G75*
G02*
X140525000Y-97375000I0J200000D01*
G01*
X140525000Y-96975000D01*
G75*
G02*
X140725000Y-96775000I200000J0D01*
G01*
X141275000Y-96775000D01*
G75*
G02*
X141475000Y-96975000I0J-200000D01*
G01*
X141475000Y-97375000D01*
G75*
G02*
X141275000Y-97575000I-200000J0D01*
G01*
G37*
%TD.AperFunction*%
%TO.P,R3,1*%
%TO.N,+24V*%
%TA.AperFunction,SMDPad,CuDef*%
G36*
G01*
X141275000Y-99225000D02*
X140725000Y-99225000D01*
G75*
G02*
X140525000Y-99025000I0J200000D01*
G01*
X140525000Y-98625000D01*
G75*
G02*
X140725000Y-98425000I200000J0D01*
G01*
X141275000Y-98425000D01*
G75*
G02*
X141475000Y-98625000I0J-200000D01*
G01*
X141475000Y-99025000D01*
G75*
G02*
X141275000Y-99225000I-200000J0D01*
G01*
G37*
%TD.AperFunction*%
%TD*%
%TO.P,R4,2*%
%TO.N,Net-(J5-Pad1)*%
%TA.AperFunction,SMDPad,CuDef*%
G36*
G01*
X140725000Y-95175000D02*
X141275000Y-95175000D01*
G75*
G02*
X141475000Y-95375000I0J-200000D01*
G01*
X141475000Y-95775000D01*
G75*
G02*
X141275000Y-95975000I-200000J0D01*
G01*
X140725000Y-95975000D01*
G75*
G02*
X140525000Y-95775000I0J200000D01*
G01*
X140525000Y-95375000D01*
G75*
G02*
X140725000Y-95175000I200000J0D01*
G01*
G37*
%TD.AperFunction*%
%TO.P,R4,1*%
%TO.N,/InputHeater2*%
%TA.AperFunction,SMDPad,CuDef*%
G36*
G01*
X140725000Y-93525000D02*
X141275000Y-93525000D01*
G75*
G02*
X141475000Y-93725000I0J-200000D01*
G01*
X141475000Y-94125000D01*
G75*
G02*
X141275000Y-94325000I-200000J0D01*
G01*
X140725000Y-94325000D01*
G75*
G02*
X140525000Y-94125000I0J200000D01*
G01*
X140525000Y-93725000D01*
G75*
G02*
X140725000Y-93525000I200000J0D01*
G01*
G37*
%TD.AperFunction*%
%TD*%
%TO.P,R5,2*%
%TO.N,GND*%
%TA.AperFunction,SMDPad,CuDef*%
G36*
G01*
X168225000Y-100600000D02*
X168775000Y-100600000D01*
G75*
G02*
X168975000Y-100800000I0J-200000D01*
G01*
X168975000Y-101200000D01*
G75*
G02*
X168775000Y-101400000I-200000J0D01*
G01*
X168225000Y-101400000D01*
G75*
G02*
X168025000Y-101200000I0J200000D01*
G01*
X168025000Y-100800000D01*
G75*
G02*
X168225000Y-100600000I200000J0D01*
G01*
G37*
%TD.AperFunction*%
%TO.P,R5,1*%
%TO.N,/Temp*%
%TA.AperFunction,SMDPad,CuDef*%
G36*
G01*
X168225000Y-98950000D02*
X168775000Y-98950000D01*
G75*
G02*
X168975000Y-99150000I0J-200000D01*
G01*
X168975000Y-99550000D01*
G75*
G02*
X168775000Y-99750000I-200000J0D01*
G01*
X168225000Y-99750000D01*
G75*
G02*
X168025000Y-99550000I0J200000D01*
G01*
X168025000Y-99150000D01*
G75*
G02*
X168225000Y-98950000I200000J0D01*
G01*
G37*
%TD.AperFunction*%
%TD*%
%TO.P,R6,2*%
%TO.N,GND*%
%TA.AperFunction,SMDPad,CuDef*%
G36*
G01*
X175725000Y-103000000D02*
X176275000Y-103000000D01*
G75*
G02*
X176475000Y-103200000I0J-200000D01*
G01*
X176475000Y-103600000D01*
G75*
G02*
X176275000Y-103800000I-200000J0D01*
G01*
X175725000Y-103800000D01*
G75*
G02*
X175525000Y-103600000I0J200000D01*
G01*
X175525000Y-103200000D01*
G75*
G02*
X175725000Y-103000000I200000J0D01*
G01*
G37*
%TD.AperFunction*%
%TO.P,R6,1*%
%TO.N,Net-(D1-Pad1)*%
%TA.AperFunction,SMDPad,CuDef*%
G36*
G01*
X175725000Y-101350000D02*
X176275000Y-101350000D01*
G75*
G02*
X176475000Y-101550000I0J-200000D01*
G01*
X176475000Y-101950000D01*
G75*
G02*
X176275000Y-102150000I-200000J0D01*
G01*
X175725000Y-102150000D01*
G75*
G02*
X175525000Y-101950000I0J200000D01*
G01*
X175525000Y-101550000D01*
G75*
G02*
X175725000Y-101350000I200000J0D01*
G01*
G37*
%TD.AperFunction*%
%TD*%
%TO.P,R7,2*%
%TO.N,GND*%
%TA.AperFunction,SMDPad,CuDef*%
G36*
G01*
X158475000Y-103100000D02*
X159025000Y-103100000D01*
G75*
G02*
X159225000Y-103300000I0J-200000D01*
G01*
X159225000Y-103700000D01*
G75*
G02*
X159025000Y-103900000I-200000J0D01*
G01*
X158475000Y-103900000D01*
G75*
G02*
X158275000Y-103700000I0J200000D01*
G01*
X158275000Y-103300000D01*
G75*
G02*
X158475000Y-103100000I200000J0D01*
G01*
G37*
%TD.AperFunction*%
%TO.P,R7,1*%
%TO.N,Net-(D2-Pad1)*%
%TA.AperFunction,SMDPad,CuDef*%
G36*
G01*
X158475000Y-101450000D02*
X159025000Y-101450000D01*
G75*
G02*
X159225000Y-101650000I0J-200000D01*
G01*
X159225000Y-102050000D01*
G75*
G02*
X159025000Y-102250000I-200000J0D01*
G01*
X158475000Y-102250000D01*
G75*
G02*
X158275000Y-102050000I0J200000D01*
G01*
X158275000Y-101650000D01*
G75*
G02*
X158475000Y-101450000I200000J0D01*
G01*
G37*
%TD.AperFunction*%
%TD*%
%TO.P,R8,2*%
%TO.N,/Heater2*%
%TA.AperFunction,SMDPad,CuDef*%
G36*
G01*
X166750000Y-95525000D02*
X166750000Y-94975000D01*
G75*
G02*
X166950000Y-94775000I200000J0D01*
G01*
X167350000Y-94775000D01*
G75*
G02*
X167550000Y-94975000I0J-200000D01*
G01*
X167550000Y-95525000D01*
G75*
G02*
X167350000Y-95725000I-200000J0D01*
G01*
X166950000Y-95725000D01*
G75*
G02*
X166750000Y-95525000I0J200000D01*
G01*
G37*
%TD.AperFunction*%
%TO.P,R8,1*%
%TO.N,+3V3*%
%TA.AperFunction,SMDPad,CuDef*%
G36*
G01*
X165100000Y-95525000D02*
X165100000Y-94975000D01*
G75*
G02*
X165300000Y-94775000I200000J0D01*
G01*
X165700000Y-94775000D01*
G75*
G02*
X165900000Y-94975000I0J-200000D01*
G01*
X165900000Y-95525000D01*
G75*
G02*
X165700000Y-95725000I-200000J0D01*
G01*
X165300000Y-95725000D01*
G75*
G02*
X165100000Y-95525000I0J200000D01*
G01*
G37*
%TD.AperFunction*%
%TD*%
%TO.P,R9,2*%
%TO.N,/Heater1*%
%TA.AperFunction,SMDPad,CuDef*%
G36*
G01*
X162825000Y-94975000D02*
X162825000Y-95525000D01*
G75*
G02*
X162625000Y-95725000I-200000J0D01*
G01*
X162225000Y-95725000D01*
G75*
G02*
X162025000Y-95525000I0J200000D01*
G01*
X162025000Y-94975000D01*
G75*
G02*
X162225000Y-94775000I200000J0D01*
G01*
X162625000Y-94775000D01*
G75*
G02*
X162825000Y-94975000I0J-200000D01*
G01*
G37*
%TD.AperFunction*%
%TO.P,R9,1*%
%TO.N,+3V3*%
%TA.AperFunction,SMDPad,CuDef*%
G36*
G01*
X164475000Y-94975000D02*
X164475000Y-95525000D01*
G75*
G02*
X164275000Y-95725000I-200000J0D01*
G01*
X163875000Y-95725000D01*
G75*
G02*
X163675000Y-95525000I0J200000D01*
G01*
X163675000Y-94975000D01*
G75*
G02*
X163875000Y-94775000I200000J0D01*
G01*
X164275000Y-94775000D01*
G75*
G02*
X164475000Y-94975000I0J-200000D01*
G01*
G37*
%TD.AperFunction*%
%TD*%
%TO.P,R10,2*%
%TO.N,Net-(R10-Pad2)*%
%TA.AperFunction,SMDPad,CuDef*%
G36*
G01*
X162750000Y-114725000D02*
X162750000Y-115275000D01*
G75*
G02*
X162550000Y-115475000I-200000J0D01*
G01*
X162150000Y-115475000D01*
G75*
G02*
X161950000Y-115275000I0J200000D01*
G01*
X161950000Y-114725000D01*
G75*
G02*
X162150000Y-114525000I200000J0D01*
G01*
X162550000Y-114525000D01*
G75*
G02*
X162750000Y-114725000I0J-200000D01*
G01*
G37*
%TD.AperFunction*%
%TO.P,R10,1*%
%TO.N,Net-(Q1-Pad2)*%
%TA.AperFunction,SMDPad,CuDef*%
G36*
G01*
X164400000Y-114725000D02*
X164400000Y-115275000D01*
G75*
G02*
X164200000Y-115475000I-200000J0D01*
G01*
X163800000Y-115475000D01*
G75*
G02*
X163600000Y-115275000I0J200000D01*
G01*
X163600000Y-114725000D01*
G75*
G02*
X163800000Y-114525000I200000J0D01*
G01*
X164200000Y-114525000D01*
G75*
G02*
X164400000Y-114725000I0J-200000D01*
G01*
G37*
%TD.AperFunction*%
%TD*%
%TO.P,R11,2*%
%TO.N,Net-(Q2-Pad2)*%
%TA.AperFunction,SMDPad,CuDef*%
G36*
G01*
X163600000Y-117775000D02*
X163600000Y-117225000D01*
G75*
G02*
X163800000Y-117025000I200000J0D01*
G01*
X164200000Y-117025000D01*
G75*
G02*
X164400000Y-117225000I0J-200000D01*
G01*
X164400000Y-117775000D01*
G75*
G02*
X164200000Y-117975000I-200000J0D01*
G01*
X163800000Y-117975000D01*
G75*
G02*
X163600000Y-117775000I0J200000D01*
G01*
G37*
%TD.AperFunction*%
%TO.P,R11,1*%
%TO.N,Net-(R11-Pad1)*%
%TA.AperFunction,SMDPad,CuDef*%
G36*
G01*
X161950000Y-117775000D02*
X161950000Y-117225000D01*
G75*
G02*
X162150000Y-117025000I200000J0D01*
G01*
X162550000Y-117025000D01*
G75*
G02*
X162750000Y-117225000I0J-200000D01*
G01*
X162750000Y-117775000D01*
G75*
G02*
X162550000Y-117975000I-200000J0D01*
G01*
X162150000Y-117975000D01*
G75*
G02*
X161950000Y-117775000I0J200000D01*
G01*
G37*
%TD.AperFunction*%
%TD*%
%TO.P,R12,2*%
%TO.N,Net-(R10-Pad2)*%
%TA.AperFunction,SMDPad,CuDef*%
G36*
G01*
X161225000Y-103675000D02*
X161775000Y-103675000D01*
G75*
G02*
X161975000Y-103875000I0J-200000D01*
G01*
X161975000Y-104275000D01*
G75*
G02*
X161775000Y-104475000I-200000J0D01*
G01*
X161225000Y-104475000D01*
G75*
G02*
X161025000Y-104275000I0J200000D01*
G01*
X161025000Y-103875000D01*
G75*
G02*
X161225000Y-103675000I200000J0D01*
G01*
G37*
%TD.AperFunction*%
%TO.P,R12,1*%
%TO.N,GND*%
%TA.AperFunction,SMDPad,CuDef*%
G36*
G01*
X161225000Y-102025000D02*
X161775000Y-102025000D01*
G75*
G02*
X161975000Y-102225000I0J-200000D01*
G01*
X161975000Y-102625000D01*
G75*
G02*
X161775000Y-102825000I-200000J0D01*
G01*
X161225000Y-102825000D01*
G75*
G02*
X161025000Y-102625000I0J200000D01*
G01*
X161025000Y-102225000D01*
G75*
G02*
X161225000Y-102025000I200000J0D01*
G01*
G37*
%TD.AperFunction*%
%TD*%
%TO.P,R13,2*%
%TO.N,GND*%
%TA.AperFunction,SMDPad,CuDef*%
G36*
G01*
X168775000Y-102825000D02*
X168225000Y-102825000D01*
G75*
G02*
X168025000Y-102625000I0J200000D01*
G01*
X168025000Y-102225000D01*
G75*
G02*
X168225000Y-102025000I200000J0D01*
G01*
X168775000Y-102025000D01*
G75*
G02*
X168975000Y-102225000I0J-200000D01*
G01*
X168975000Y-102625000D01*
G75*
G02*
X168775000Y-102825000I-200000J0D01*
G01*
G37*
%TD.AperFunction*%
%TO.P,R13,1*%
%TO.N,Net-(R11-Pad1)*%
%TA.AperFunction,SMDPad,CuDef*%
G36*
G01*
X168775000Y-104475000D02*
X168225000Y-104475000D01*
G75*
G02*
X168025000Y-104275000I0J200000D01*
G01*
X168025000Y-103875000D01*
G75*
G02*
X168225000Y-103675000I200000J0D01*
G01*
X168775000Y-103675000D01*
G75*
G02*
X168975000Y-103875000I0J-200000D01*
G01*
X168975000Y-104275000D01*
G75*
G02*
X168775000Y-104475000I-200000J0D01*
G01*
G37*
%TD.AperFunction*%
%TD*%
%TO.P,TH1,2*%
%TO.N,/Temp*%
%TA.AperFunction,SMDPad,CuDef*%
G36*
G01*
X167250000Y-118025000D02*
X167250000Y-117475000D01*
G75*
G02*
X167450000Y-117275000I200000J0D01*
G01*
X167850000Y-117275000D01*
G75*
G02*
X168050000Y-117475000I0J-200000D01*
G01*
X168050000Y-118025000D01*
G75*
G02*
X167850000Y-118225000I-200000J0D01*
G01*
X167450000Y-118225000D01*
G75*
G02*
X167250000Y-118025000I0J200000D01*
G01*
G37*
%TD.AperFunction*%
%TO.P,TH1,1*%
%TO.N,+3V3*%
%TA.AperFunction,SMDPad,CuDef*%
G36*
G01*
X165600000Y-118025000D02*
X165600000Y-117475000D01*
G75*
G02*
X165800000Y-117275000I200000J0D01*
G01*
X166200000Y-117275000D01*
G75*
G02*
X166400000Y-117475000I0J-200000D01*
G01*
X166400000Y-118025000D01*
G75*
G02*
X166200000Y-118225000I-200000J0D01*
G01*
X165800000Y-118225000D01*
G75*
G02*
X165600000Y-118025000I0J200000D01*
G01*
G37*
%TD.AperFunction*%
%TD*%
%TO.P,U1,20*%
%TO.N,/SWCLK*%
%TA.AperFunction,SMDPad,CuDef*%
G36*
G01*
X167125000Y-87925000D02*
X167125000Y-87725000D01*
G75*
G02*
X167225000Y-87625000I100000J0D01*
G01*
X168500000Y-87625000D01*
G75*
G02*
X168600000Y-87725000I0J-100000D01*
G01*
X168600000Y-87925000D01*
G75*
G02*
X168500000Y-88025000I-100000J0D01*
G01*
X167225000Y-88025000D01*
G75*
G02*
X167125000Y-87925000I0J100000D01*
G01*
G37*
%TD.AperFunction*%
%TO.P,U1,19*%
%TO.N,/SWDIO*%
%TA.AperFunction,SMDPad,CuDef*%
G36*
G01*
X167125000Y-88575000D02*
X167125000Y-88375000D01*
G75*
G02*
X167225000Y-88275000I100000J0D01*
G01*
X168500000Y-88275000D01*
G75*
G02*
X168600000Y-88375000I0J-100000D01*
G01*
X168600000Y-88575000D01*
G75*
G02*
X168500000Y-88675000I-100000J0D01*
G01*
X167225000Y-88675000D01*
G75*
G02*
X167125000Y-88575000I0J100000D01*
G01*
G37*
%TD.AperFunction*%
%TO.P,U1,18*%
%TO.N,N/C*%
%TA.AperFunction,SMDPad,CuDef*%
G36*
G01*
X167125000Y-89225000D02*
X167125000Y-89025000D01*
G75*
G02*
X167225000Y-88925000I100000J0D01*
G01*
X168500000Y-88925000D01*
G75*
G02*
X168600000Y-89025000I0J-100000D01*
G01*
X168600000Y-89225000D01*
G75*
G02*
X168500000Y-89325000I-100000J0D01*
G01*
X167225000Y-89325000D01*
G75*
G02*
X167125000Y-89225000I0J100000D01*
G01*
G37*
%TD.AperFunction*%
%TO.P,U1,17*%
%TA.AperFunction,SMDPad,CuDef*%
G36*
G01*
X167125000Y-89875000D02*
X167125000Y-89675000D01*
G75*
G02*
X167225000Y-89575000I100000J0D01*
G01*
X168500000Y-89575000D01*
G75*
G02*
X168600000Y-89675000I0J-100000D01*
G01*
X168600000Y-89875000D01*
G75*
G02*
X168500000Y-89975000I-100000J0D01*
G01*
X167225000Y-89975000D01*
G75*
G02*
X167125000Y-89875000I0J100000D01*
G01*
G37*
%TD.AperFunction*%
%TO.P,U1,16*%
%TO.N,+3V3*%
%TA.AperFunction,SMDPad,CuDef*%
G36*
G01*
X167125000Y-90525000D02*
X167125000Y-90325000D01*
G75*
G02*
X167225000Y-90225000I100000J0D01*
G01*
X168500000Y-90225000D01*
G75*
G02*
X168600000Y-90325000I0J-100000D01*
G01*
X168600000Y-90525000D01*
G75*
G02*
X168500000Y-90625000I-100000J0D01*
G01*
X167225000Y-90625000D01*
G75*
G02*
X167125000Y-90525000I0J100000D01*
G01*
G37*
%TD.AperFunction*%
%TO.P,U1,15*%
%TO.N,GND*%
%TA.AperFunction,SMDPad,CuDef*%
G36*
G01*
X167125000Y-91175000D02*
X167125000Y-90975000D01*
G75*
G02*
X167225000Y-90875000I100000J0D01*
G01*
X168500000Y-90875000D01*
G75*
G02*
X168600000Y-90975000I0J-100000D01*
G01*
X168600000Y-91175000D01*
G75*
G02*
X168500000Y-91275000I-100000J0D01*
G01*
X167225000Y-91275000D01*
G75*
G02*
X167125000Y-91175000I0J100000D01*
G01*
G37*
%TD.AperFunction*%
%TO.P,U1,14*%
%TO.N,/Heater1ActiveLed*%
%TA.AperFunction,SMDPad,CuDef*%
G36*
G01*
X167125000Y-91825000D02*
X167125000Y-91625000D01*
G75*
G02*
X167225000Y-91525000I100000J0D01*
G01*
X168500000Y-91525000D01*
G75*
G02*
X168600000Y-91625000I0J-100000D01*
G01*
X168600000Y-91825000D01*
G75*
G02*
X168500000Y-91925000I-100000J0D01*
G01*
X167225000Y-91925000D01*
G75*
G02*
X167125000Y-91825000I0J100000D01*
G01*
G37*
%TD.AperFunction*%
%TO.P,U1,13*%
%TO.N,+3V3*%
%TA.AperFunction,SMDPad,CuDef*%
G36*
G01*
X167125000Y-92475000D02*
X167125000Y-92275000D01*
G75*
G02*
X167225000Y-92175000I100000J0D01*
G01*
X168500000Y-92175000D01*
G75*
G02*
X168600000Y-92275000I0J-100000D01*
G01*
X168600000Y-92475000D01*
G75*
G02*
X168500000Y-92575000I-100000J0D01*
G01*
X167225000Y-92575000D01*
G75*
G02*
X167125000Y-92475000I0J100000D01*
G01*
G37*
%TD.AperFunction*%
%TO.P,U1,12*%
%TO.N,/Temp*%
%TA.AperFunction,SMDPad,CuDef*%
G36*
G01*
X167125000Y-93125000D02*
X167125000Y-92925000D01*
G75*
G02*
X167225000Y-92825000I100000J0D01*
G01*
X168500000Y-92825000D01*
G75*
G02*
X168600000Y-92925000I0J-100000D01*
G01*
X168600000Y-93125000D01*
G75*
G02*
X168500000Y-93225000I-100000J0D01*
G01*
X167225000Y-93225000D01*
G75*
G02*
X167125000Y-93125000I0J100000D01*
G01*
G37*
%TD.AperFunction*%
%TO.P,U1,11*%
%TO.N,/Heater2*%
%TA.AperFunction,SMDPad,CuDef*%
G36*
G01*
X167125000Y-93775000D02*
X167125000Y-93575000D01*
G75*
G02*
X167225000Y-93475000I100000J0D01*
G01*
X168500000Y-93475000D01*
G75*
G02*
X168600000Y-93575000I0J-100000D01*
G01*
X168600000Y-93775000D01*
G75*
G02*
X168500000Y-93875000I-100000J0D01*
G01*
X167225000Y-93875000D01*
G75*
G02*
X167125000Y-93775000I0J100000D01*
G01*
G37*
%TD.AperFunction*%
%TO.P,U1,10*%
%TO.N,/Heater2ActiveLed*%
%TA.AperFunction,SMDPad,CuDef*%
G36*
G01*
X161400000Y-93775000D02*
X161400000Y-93575000D01*
G75*
G02*
X161500000Y-93475000I100000J0D01*
G01*
X162775000Y-93475000D01*
G75*
G02*
X162875000Y-93575000I0J-100000D01*
G01*
X162875000Y-93775000D01*
G75*
G02*
X162775000Y-93875000I-100000J0D01*
G01*
X161500000Y-93875000D01*
G75*
G02*
X161400000Y-93775000I0J100000D01*
G01*
G37*
%TD.AperFunction*%
%TO.P,U1,9*%
%TO.N,/InputHeater1*%
%TA.AperFunction,SMDPad,CuDef*%
G36*
G01*
X161400000Y-93125000D02*
X161400000Y-92925000D01*
G75*
G02*
X161500000Y-92825000I100000J0D01*
G01*
X162775000Y-92825000D01*
G75*
G02*
X162875000Y-92925000I0J-100000D01*
G01*
X162875000Y-93125000D01*
G75*
G02*
X162775000Y-93225000I-100000J0D01*
G01*
X161500000Y-93225000D01*
G75*
G02*
X161400000Y-93125000I0J100000D01*
G01*
G37*
%TD.AperFunction*%
%TO.P,U1,8*%
%TO.N,/Heater1*%
%TA.AperFunction,SMDPad,CuDef*%
G36*
G01*
X161400000Y-92475000D02*
X161400000Y-92275000D01*
G75*
G02*
X161500000Y-92175000I100000J0D01*
G01*
X162775000Y-92175000D01*
G75*
G02*
X162875000Y-92275000I0J-100000D01*
G01*
X162875000Y-92475000D01*
G75*
G02*
X162775000Y-92575000I-100000J0D01*
G01*
X161500000Y-92575000D01*
G75*
G02*
X161400000Y-92475000I0J100000D01*
G01*
G37*
%TD.AperFunction*%
%TO.P,U1,7*%
%TO.N,/InputHeater2*%
%TA.AperFunction,SMDPad,CuDef*%
G36*
G01*
X161400000Y-91825000D02*
X161400000Y-91625000D01*
G75*
G02*
X161500000Y-91525000I100000J0D01*
G01*
X162775000Y-91525000D01*
G75*
G02*
X162875000Y-91625000I0J-100000D01*
G01*
X162875000Y-91825000D01*
G75*
G02*
X162775000Y-91925000I-100000J0D01*
G01*
X161500000Y-91925000D01*
G75*
G02*
X161400000Y-91825000I0J100000D01*
G01*
G37*
%TD.AperFunction*%
%TO.P,U1,6*%
%TO.N,N/C*%
%TA.AperFunction,SMDPad,CuDef*%
G36*
G01*
X161400000Y-91175000D02*
X161400000Y-90975000D01*
G75*
G02*
X161500000Y-90875000I100000J0D01*
G01*
X162775000Y-90875000D01*
G75*
G02*
X162875000Y-90975000I0J-100000D01*
G01*
X162875000Y-91175000D01*
G75*
G02*
X162775000Y-91275000I-100000J0D01*
G01*
X161500000Y-91275000D01*
G75*
G02*
X161400000Y-91175000I0J100000D01*
G01*
G37*
%TD.AperFunction*%
%TO.P,U1,5*%
%TO.N,+3V3*%
%TA.AperFunction,SMDPad,CuDef*%
G36*
G01*
X161400000Y-90525000D02*
X161400000Y-90325000D01*
G75*
G02*
X161500000Y-90225000I100000J0D01*
G01*
X162775000Y-90225000D01*
G75*
G02*
X162875000Y-90325000I0J-100000D01*
G01*
X162875000Y-90525000D01*
G75*
G02*
X162775000Y-90625000I-100000J0D01*
G01*
X161500000Y-90625000D01*
G75*
G02*
X161400000Y-90525000I0J100000D01*
G01*
G37*
%TD.AperFunction*%
%TO.P,U1,4*%
%TO.N,/~RST*%
%TA.AperFunction,SMDPad,CuDef*%
G36*
G01*
X161400000Y-89875000D02*
X161400000Y-89675000D01*
G75*
G02*
X161500000Y-89575000I100000J0D01*
G01*
X162775000Y-89575000D01*
G75*
G02*
X162875000Y-89675000I0J-100000D01*
G01*
X162875000Y-89875000D01*
G75*
G02*
X162775000Y-89975000I-100000J0D01*
G01*
X161500000Y-89975000D01*
G75*
G02*
X161400000Y-89875000I0J100000D01*
G01*
G37*
%TD.AperFunction*%
%TO.P,U1,3*%
%TO.N,N/C*%
%TA.AperFunction,SMDPad,CuDef*%
G36*
G01*
X161400000Y-89225000D02*
X161400000Y-89025000D01*
G75*
G02*
X161500000Y-88925000I100000J0D01*
G01*
X162775000Y-88925000D01*
G75*
G02*
X162875000Y-89025000I0J-100000D01*
G01*
X162875000Y-89225000D01*
G75*
G02*
X162775000Y-89325000I-100000J0D01*
G01*
X161500000Y-89325000D01*
G75*
G02*
X161400000Y-89225000I0J100000D01*
G01*
G37*
%TD.AperFunction*%
%TO.P,U1,2*%
%TA.AperFunction,SMDPad,CuDef*%
G36*
G01*
X161400000Y-88575000D02*
X161400000Y-88375000D01*
G75*
G02*
X161500000Y-88275000I100000J0D01*
G01*
X162775000Y-88275000D01*
G75*
G02*
X162875000Y-88375000I0J-100000D01*
G01*
X162875000Y-88575000D01*
G75*
G02*
X162775000Y-88675000I-100000J0D01*
G01*
X161500000Y-88675000D01*
G75*
G02*
X161400000Y-88575000I0J100000D01*
G01*
G37*
%TD.AperFunction*%
%TO.P,U1,1*%
%TA.AperFunction,SMDPad,CuDef*%
G36*
G01*
X161400000Y-87925000D02*
X161400000Y-87725000D01*
G75*
G02*
X161500000Y-87625000I100000J0D01*
G01*
X162775000Y-87625000D01*
G75*
G02*
X162875000Y-87725000I0J-100000D01*
G01*
X162875000Y-87925000D01*
G75*
G02*
X162775000Y-88025000I-100000J0D01*
G01*
X161500000Y-88025000D01*
G75*
G02*
X161400000Y-87925000I0J100000D01*
G01*
G37*
%TD.AperFunction*%
%TD*%
%TA.AperFunction,SMDPad,CuDef*%
D15*
%TO.P,U2,2*%
%TO.N,+12V*%
G36*
X147883500Y-112050000D02*
G01*
X147883500Y-108925000D01*
X148300000Y-108925000D01*
X148300000Y-107450000D01*
X149200000Y-107450000D01*
X149200000Y-108925000D01*
X149616500Y-108925000D01*
X149616500Y-112050000D01*
X147883500Y-112050000D01*
G37*
%TD.AperFunction*%
D17*
%TO.P,U2,3*%
%TO.N,+3V3*%
X147250000Y-108100000D03*
%TO.P,U2,1*%
%TO.N,GND*%
X150250000Y-108100000D03*
%TD*%
%TA.AperFunction,SMDPad,CuDef*%
D15*
%TO.P,U3,2*%
%TO.N,GND*%
G36*
X136000000Y-110650000D02*
G01*
X136000000Y-112350000D01*
X135000000Y-112350000D01*
X135000000Y-110650000D01*
X134500000Y-110150000D01*
X134500000Y-109350000D01*
X135000000Y-108850000D01*
X135000000Y-107150000D01*
X136000000Y-107150000D01*
X136000000Y-108850000D01*
X136500000Y-109350000D01*
X136500000Y-110150000D01*
X136000000Y-110650000D01*
G37*
%TD.AperFunction*%
D18*
%TO.P,U3,3*%
%TO.N,+24V*%
X134000000Y-107900000D03*
%TO.P,U3,1*%
%TO.N,+12V*%
X137000000Y-107900000D03*
%TO.P,U3,4*%
%TO.N,N/C*%
X134000000Y-111600000D03*
%TO.P,U3,5*%
%TO.N,+24V*%
X137000000Y-111600000D03*
%TD*%
D19*
%TO.P,U4,9*%
%TO.N,GND*%
X164000000Y-100650000D03*
X164000000Y-99350000D03*
X165000000Y-100650000D03*
X165000000Y-99350000D03*
X166000000Y-100650000D03*
X166000000Y-99350000D03*
D20*
X165000000Y-100000000D03*
%TO.P,U4,8*%
%TO.N,N/C*%
%TA.AperFunction,SMDPad,CuDef*%
G36*
G01*
X166755000Y-101500000D02*
X167055000Y-101500000D01*
G75*
G02*
X167205000Y-101650000I0J-150000D01*
G01*
X167205000Y-103300000D01*
G75*
G02*
X167055000Y-103450000I-150000J0D01*
G01*
X166755000Y-103450000D01*
G75*
G02*
X166605000Y-103300000I0J150000D01*
G01*
X166605000Y-101650000D01*
G75*
G02*
X166755000Y-101500000I150000J0D01*
G01*
G37*
%TD.AperFunction*%
%TO.P,U4,7*%
%TO.N,Net-(R11-Pad1)*%
%TA.AperFunction,SMDPad,CuDef*%
G36*
G01*
X165485000Y-101500000D02*
X165785000Y-101500000D01*
G75*
G02*
X165935000Y-101650000I0J-150000D01*
G01*
X165935000Y-103300000D01*
G75*
G02*
X165785000Y-103450000I-150000J0D01*
G01*
X165485000Y-103450000D01*
G75*
G02*
X165335000Y-103300000I0J150000D01*
G01*
X165335000Y-101650000D01*
G75*
G02*
X165485000Y-101500000I150000J0D01*
G01*
G37*
%TD.AperFunction*%
%TO.P,U4,6*%
%TO.N,+12V*%
%TA.AperFunction,SMDPad,CuDef*%
G36*
G01*
X164215000Y-101500000D02*
X164515000Y-101500000D01*
G75*
G02*
X164665000Y-101650000I0J-150000D01*
G01*
X164665000Y-103300000D01*
G75*
G02*
X164515000Y-103450000I-150000J0D01*
G01*
X164215000Y-103450000D01*
G75*
G02*
X164065000Y-103300000I0J150000D01*
G01*
X164065000Y-101650000D01*
G75*
G02*
X164215000Y-101500000I150000J0D01*
G01*
G37*
%TD.AperFunction*%
%TO.P,U4,5*%
%TO.N,Net-(R10-Pad2)*%
%TA.AperFunction,SMDPad,CuDef*%
G36*
G01*
X162945000Y-101500000D02*
X163245000Y-101500000D01*
G75*
G02*
X163395000Y-101650000I0J-150000D01*
G01*
X163395000Y-103300000D01*
G75*
G02*
X163245000Y-103450000I-150000J0D01*
G01*
X162945000Y-103450000D01*
G75*
G02*
X162795000Y-103300000I0J150000D01*
G01*
X162795000Y-101650000D01*
G75*
G02*
X162945000Y-101500000I150000J0D01*
G01*
G37*
%TD.AperFunction*%
%TO.P,U4,4*%
%TO.N,/Heater1*%
%TA.AperFunction,SMDPad,CuDef*%
G36*
G01*
X162945000Y-96550000D02*
X163245000Y-96550000D01*
G75*
G02*
X163395000Y-96700000I0J-150000D01*
G01*
X163395000Y-98350000D01*
G75*
G02*
X163245000Y-98500000I-150000J0D01*
G01*
X162945000Y-98500000D01*
G75*
G02*
X162795000Y-98350000I0J150000D01*
G01*
X162795000Y-96700000D01*
G75*
G02*
X162945000Y-96550000I150000J0D01*
G01*
G37*
%TD.AperFunction*%
%TO.P,U4,3*%
%TO.N,GND*%
%TA.AperFunction,SMDPad,CuDef*%
G36*
G01*
X164215000Y-96550000D02*
X164515000Y-96550000D01*
G75*
G02*
X164665000Y-96700000I0J-150000D01*
G01*
X164665000Y-98350000D01*
G75*
G02*
X164515000Y-98500000I-150000J0D01*
G01*
X164215000Y-98500000D01*
G75*
G02*
X164065000Y-98350000I0J150000D01*
G01*
X164065000Y-96700000D01*
G75*
G02*
X164215000Y-96550000I150000J0D01*
G01*
G37*
%TD.AperFunction*%
%TO.P,U4,2*%
%TO.N,/Heater2*%
%TA.AperFunction,SMDPad,CuDef*%
G36*
G01*
X165485000Y-96550000D02*
X165785000Y-96550000D01*
G75*
G02*
X165935000Y-96700000I0J-150000D01*
G01*
X165935000Y-98350000D01*
G75*
G02*
X165785000Y-98500000I-150000J0D01*
G01*
X165485000Y-98500000D01*
G75*
G02*
X165335000Y-98350000I0J150000D01*
G01*
X165335000Y-96700000D01*
G75*
G02*
X165485000Y-96550000I150000J0D01*
G01*
G37*
%TD.AperFunction*%
%TO.P,U4,1*%
%TO.N,N/C*%
%TA.AperFunction,SMDPad,CuDef*%
G36*
G01*
X166755000Y-96550000D02*
X167055000Y-96550000D01*
G75*
G02*
X167205000Y-96700000I0J-150000D01*
G01*
X167205000Y-98350000D01*
G75*
G02*
X167055000Y-98500000I-150000J0D01*
G01*
X166755000Y-98500000D01*
G75*
G02*
X166605000Y-98350000I0J150000D01*
G01*
X166605000Y-96700000D01*
G75*
G02*
X166755000Y-96550000I150000J0D01*
G01*
G37*
%TD.AperFunction*%
%TD*%
%TO.P,C1,2*%
%TO.N,GND*%
%TA.AperFunction,SMDPad,CuDef*%
G36*
G01*
X162175000Y-86000000D02*
X162175000Y-86500000D01*
G75*
G02*
X161950000Y-86725000I-225000J0D01*
G01*
X161500000Y-86725000D01*
G75*
G02*
X161275000Y-86500000I0J225000D01*
G01*
X161275000Y-86000000D01*
G75*
G02*
X161500000Y-85775000I225000J0D01*
G01*
X161950000Y-85775000D01*
G75*
G02*
X162175000Y-86000000I0J-225000D01*
G01*
G37*
%TD.AperFunction*%
%TO.P,C1,1*%
%TO.N,/~RST*%
%TA.AperFunction,SMDPad,CuDef*%
G36*
G01*
X163725000Y-86000000D02*
X163725000Y-86500000D01*
G75*
G02*
X163500000Y-86725000I-225000J0D01*
G01*
X163050000Y-86725000D01*
G75*
G02*
X162825000Y-86500000I0J225000D01*
G01*
X162825000Y-86000000D01*
G75*
G02*
X163050000Y-85775000I225000J0D01*
G01*
X163500000Y-85775000D01*
G75*
G02*
X163725000Y-86000000I0J-225000D01*
G01*
G37*
%TD.AperFunction*%
%TD*%
%TO.P,C4,2*%
%TO.N,GND*%
%TA.AperFunction,SMDPad,CuDef*%
G36*
G01*
X142750000Y-95075000D02*
X143250000Y-95075000D01*
G75*
G02*
X143475000Y-95300000I0J-225000D01*
G01*
X143475000Y-95750000D01*
G75*
G02*
X143250000Y-95975000I-225000J0D01*
G01*
X142750000Y-95975000D01*
G75*
G02*
X142525000Y-95750000I0J225000D01*
G01*
X142525000Y-95300000D01*
G75*
G02*
X142750000Y-95075000I225000J0D01*
G01*
G37*
%TD.AperFunction*%
%TO.P,C4,1*%
%TO.N,/InputHeater2*%
%TA.AperFunction,SMDPad,CuDef*%
G36*
G01*
X142750000Y-93525000D02*
X143250000Y-93525000D01*
G75*
G02*
X143475000Y-93750000I0J-225000D01*
G01*
X143475000Y-94200000D01*
G75*
G02*
X143250000Y-94425000I-225000J0D01*
G01*
X142750000Y-94425000D01*
G75*
G02*
X142525000Y-94200000I0J225000D01*
G01*
X142525000Y-93750000D01*
G75*
G02*
X142750000Y-93525000I225000J0D01*
G01*
G37*
%TD.AperFunction*%
%TD*%
%TO.P,C5,2*%
%TO.N,GND*%
%TA.AperFunction,SMDPad,CuDef*%
G36*
G01*
X143000000Y-104175000D02*
X142500000Y-104175000D01*
G75*
G02*
X142275000Y-103950000I0J225000D01*
G01*
X142275000Y-103500000D01*
G75*
G02*
X142500000Y-103275000I225000J0D01*
G01*
X143000000Y-103275000D01*
G75*
G02*
X143225000Y-103500000I0J-225000D01*
G01*
X143225000Y-103950000D01*
G75*
G02*
X143000000Y-104175000I-225000J0D01*
G01*
G37*
%TD.AperFunction*%
%TO.P,C5,1*%
%TO.N,/InputHeater1*%
%TA.AperFunction,SMDPad,CuDef*%
G36*
G01*
X143000000Y-105725000D02*
X142500000Y-105725000D01*
G75*
G02*
X142275000Y-105500000I0J225000D01*
G01*
X142275000Y-105050000D01*
G75*
G02*
X142500000Y-104825000I225000J0D01*
G01*
X143000000Y-104825000D01*
G75*
G02*
X143225000Y-105050000I0J-225000D01*
G01*
X143225000Y-105500000D01*
G75*
G02*
X143000000Y-105725000I-225000J0D01*
G01*
G37*
%TD.AperFunction*%
%TD*%
%TO.P,C7,2*%
%TO.N,GND*%
%TA.AperFunction,SMDPad,CuDef*%
G36*
G01*
X140075000Y-108000000D02*
X140075000Y-107500000D01*
G75*
G02*
X140300000Y-107275000I225000J0D01*
G01*
X140750000Y-107275000D01*
G75*
G02*
X140975000Y-107500000I0J-225000D01*
G01*
X140975000Y-108000000D01*
G75*
G02*
X140750000Y-108225000I-225000J0D01*
G01*
X140300000Y-108225000D01*
G75*
G02*
X140075000Y-108000000I0J225000D01*
G01*
G37*
%TD.AperFunction*%
%TO.P,C7,1*%
%TO.N,+12V*%
%TA.AperFunction,SMDPad,CuDef*%
G36*
G01*
X138525000Y-108000000D02*
X138525000Y-107500000D01*
G75*
G02*
X138750000Y-107275000I225000J0D01*
G01*
X139200000Y-107275000D01*
G75*
G02*
X139425000Y-107500000I0J-225000D01*
G01*
X139425000Y-108000000D01*
G75*
G02*
X139200000Y-108225000I-225000J0D01*
G01*
X138750000Y-108225000D01*
G75*
G02*
X138525000Y-108000000I0J225000D01*
G01*
G37*
%TD.AperFunction*%
%TD*%
%TO.P,C8,2*%
%TO.N,GND*%
%TA.AperFunction,SMDPad,CuDef*%
G36*
G01*
X144175000Y-107500000D02*
X144175000Y-108000000D01*
G75*
G02*
X143950000Y-108225000I-225000J0D01*
G01*
X143500000Y-108225000D01*
G75*
G02*
X143275000Y-108000000I0J225000D01*
G01*
X143275000Y-107500000D01*
G75*
G02*
X143500000Y-107275000I225000J0D01*
G01*
X143950000Y-107275000D01*
G75*
G02*
X144175000Y-107500000I0J-225000D01*
G01*
G37*
%TD.AperFunction*%
%TO.P,C8,1*%
%TO.N,+3V3*%
%TA.AperFunction,SMDPad,CuDef*%
G36*
G01*
X145725000Y-107500000D02*
X145725000Y-108000000D01*
G75*
G02*
X145500000Y-108225000I-225000J0D01*
G01*
X145050000Y-108225000D01*
G75*
G02*
X144825000Y-108000000I0J225000D01*
G01*
X144825000Y-107500000D01*
G75*
G02*
X145050000Y-107275000I225000J0D01*
G01*
X145500000Y-107275000D01*
G75*
G02*
X145725000Y-107500000I0J-225000D01*
G01*
G37*
%TD.AperFunction*%
%TD*%
%TO.P,C9,2*%
%TO.N,GND*%
%TA.AperFunction,SMDPad,CuDef*%
G36*
G01*
X159000000Y-89425000D02*
X158500000Y-89425000D01*
G75*
G02*
X158275000Y-89200000I0J225000D01*
G01*
X158275000Y-88750000D01*
G75*
G02*
X158500000Y-88525000I225000J0D01*
G01*
X159000000Y-88525000D01*
G75*
G02*
X159225000Y-88750000I0J-225000D01*
G01*
X159225000Y-89200000D01*
G75*
G02*
X159000000Y-89425000I-225000J0D01*
G01*
G37*
%TD.AperFunction*%
%TO.P,C9,1*%
%TO.N,+3V3*%
%TA.AperFunction,SMDPad,CuDef*%
G36*
G01*
X159000000Y-90975000D02*
X158500000Y-90975000D01*
G75*
G02*
X158275000Y-90750000I0J225000D01*
G01*
X158275000Y-90300000D01*
G75*
G02*
X158500000Y-90075000I225000J0D01*
G01*
X159000000Y-90075000D01*
G75*
G02*
X159225000Y-90300000I0J-225000D01*
G01*
X159225000Y-90750000D01*
G75*
G02*
X159000000Y-90975000I-225000J0D01*
G01*
G37*
%TD.AperFunction*%
%TD*%
%TO.P,C10,2*%
%TO.N,GND*%
%TA.AperFunction,SMDPad,CuDef*%
G36*
G01*
X160500000Y-89425000D02*
X160000000Y-89425000D01*
G75*
G02*
X159775000Y-89200000I0J225000D01*
G01*
X159775000Y-88750000D01*
G75*
G02*
X160000000Y-88525000I225000J0D01*
G01*
X160500000Y-88525000D01*
G75*
G02*
X160725000Y-88750000I0J-225000D01*
G01*
X160725000Y-89200000D01*
G75*
G02*
X160500000Y-89425000I-225000J0D01*
G01*
G37*
%TD.AperFunction*%
%TO.P,C10,1*%
%TO.N,+3V3*%
%TA.AperFunction,SMDPad,CuDef*%
G36*
G01*
X160500000Y-90975000D02*
X160000000Y-90975000D01*
G75*
G02*
X159775000Y-90750000I0J225000D01*
G01*
X159775000Y-90300000D01*
G75*
G02*
X160000000Y-90075000I225000J0D01*
G01*
X160500000Y-90075000D01*
G75*
G02*
X160725000Y-90300000I0J-225000D01*
G01*
X160725000Y-90750000D01*
G75*
G02*
X160500000Y-90975000I-225000J0D01*
G01*
G37*
%TD.AperFunction*%
%TD*%
%TO.P,C12,2*%
%TO.N,GND*%
%TA.AperFunction,SMDPad,CuDef*%
G36*
G01*
X169500000Y-90575000D02*
X170000000Y-90575000D01*
G75*
G02*
X170225000Y-90800000I0J-225000D01*
G01*
X170225000Y-91250000D01*
G75*
G02*
X170000000Y-91475000I-225000J0D01*
G01*
X169500000Y-91475000D01*
G75*
G02*
X169275000Y-91250000I0J225000D01*
G01*
X169275000Y-90800000D01*
G75*
G02*
X169500000Y-90575000I225000J0D01*
G01*
G37*
%TD.AperFunction*%
%TO.P,C12,1*%
%TO.N,+3V3*%
%TA.AperFunction,SMDPad,CuDef*%
G36*
G01*
X169500000Y-89025000D02*
X170000000Y-89025000D01*
G75*
G02*
X170225000Y-89250000I0J-225000D01*
G01*
X170225000Y-89700000D01*
G75*
G02*
X170000000Y-89925000I-225000J0D01*
G01*
X169500000Y-89925000D01*
G75*
G02*
X169275000Y-89700000I0J225000D01*
G01*
X169275000Y-89250000D01*
G75*
G02*
X169500000Y-89025000I225000J0D01*
G01*
G37*
%TD.AperFunction*%
%TD*%
D12*
%TO.P,J1,1*%
%TO.N,GND*%
X135250000Y-117000000D03*
D13*
%TO.P,J1,2*%
X135250000Y-122000000D03*
%TO.P,J1,3*%
%TO.N,+24V*%
X135250000Y-127000000D03*
%TO.P,J1,4*%
X135250000Y-132000000D03*
%TD*%
D21*
%TO.N,GND*%
X161000000Y-114500000D03*
X161000000Y-116250000D03*
X159750000Y-116250000D03*
X159750000Y-114500000D03*
X161000000Y-113250000D03*
X161000000Y-111750000D03*
X161000000Y-110000000D03*
X161000000Y-108500000D03*
X159750000Y-113250000D03*
X159750000Y-111750000D03*
X159750000Y-110000000D03*
X159750000Y-108500000D03*
X158500000Y-116250000D03*
X158500000Y-114500000D03*
X158500000Y-113250000D03*
X158500000Y-111750000D03*
X158500000Y-110000000D03*
X158500000Y-108500000D03*
X162000000Y-119000000D03*
X160750000Y-119000000D03*
X162000000Y-120500000D03*
X162000000Y-122000000D03*
X160750000Y-122000000D03*
X160750000Y-120250000D03*
X159250000Y-122000000D03*
X159250000Y-120250000D03*
X159250000Y-119000000D03*
X156000000Y-122000000D03*
X153250000Y-122000000D03*
X148250000Y-122000000D03*
X144250000Y-122000000D03*
X140000000Y-122000000D03*
X156000000Y-119000000D03*
X153250000Y-119000000D03*
X148250000Y-119000000D03*
X144250000Y-119000000D03*
X140000000Y-119000000D03*
X140000000Y-116000000D03*
X156000000Y-116000000D03*
X153250000Y-116000000D03*
X148250000Y-116000000D03*
X144250000Y-115750000D03*
X131000000Y-111750000D03*
X131000000Y-107000000D03*
X153250000Y-111750000D03*
X153250000Y-107000000D03*
X156000000Y-111750000D03*
X156000000Y-107000000D03*
X142750000Y-111000000D03*
X200750000Y-120750004D03*
X166424998Y-91500000D03*
X164500000Y-105250000D03*
X158750000Y-87750000D03*
X170750000Y-91000000D03*
X176000000Y-104250000D03*
X139000000Y-104000000D03*
X143000000Y-98750000D03*
%TO.N,+3V3*%
X165250000Y-117750000D03*
X170750000Y-104000000D03*
X173750000Y-94750000D03*
X172487347Y-96012653D03*
X154500000Y-94500000D03*
X153500000Y-90750000D03*
%TO.N,+24V*%
X137750000Y-129500000D03*
X140000000Y-129500000D03*
X144250000Y-129500000D03*
X148250000Y-129500000D03*
X153250000Y-129500000D03*
X156000000Y-129500000D03*
X158750000Y-129500000D03*
X161500000Y-129500000D03*
X164250000Y-129500000D03*
X166750000Y-129500000D03*
X169250000Y-129500000D03*
X172250000Y-129500000D03*
X174750000Y-129500000D03*
X178000000Y-129500000D03*
X180500000Y-129500000D03*
X183500000Y-129500000D03*
X186500000Y-129500000D03*
X189500000Y-129500000D03*
X192000000Y-129500000D03*
X192000000Y-134000000D03*
X189500000Y-134000000D03*
X186500000Y-134000000D03*
X178000000Y-134000000D03*
X174750000Y-134000000D03*
X166750000Y-134000000D03*
X164250000Y-134000000D03*
X156000000Y-134000000D03*
X153250000Y-134000000D03*
X144250000Y-134000000D03*
X140000000Y-134000000D03*
X137750000Y-134000000D03*
X137750000Y-125750000D03*
X140000000Y-125750000D03*
X144250000Y-125750000D03*
X153250000Y-125750000D03*
X156000000Y-125750000D03*
X142250000Y-139250000D03*
X144250000Y-139250000D03*
X146250000Y-139250000D03*
X148250000Y-139250000D03*
X150250000Y-139250000D03*
X153250000Y-139250000D03*
X156000000Y-139250000D03*
X158750000Y-139250000D03*
X161500000Y-139250000D03*
X164250000Y-139250000D03*
X166750000Y-139250000D03*
X169250000Y-139250000D03*
X172250000Y-139250000D03*
X174750000Y-139250000D03*
X178000000Y-139500000D03*
X180500000Y-139500000D03*
X183500000Y-139500000D03*
X186500000Y-139500000D03*
X189500000Y-139500000D03*
X131000000Y-134000000D03*
X131000000Y-129500000D03*
X131000000Y-125750000D03*
X200250000Y-129500000D03*
X200250000Y-134000000D03*
X200250000Y-125750000D03*
%TO.N,Net-(Q2-Pad2)*%
X164000000Y-118750000D03*
X163750000Y-123257500D03*
%TO.N,/Temp*%
X168750000Y-117750000D03*
X171250000Y-105250000D03*
%TO.N,+12V*%
X164250000Y-104000000D03*
X158500000Y-105750000D03*
%TO.N,Net-(R10-Pad2)*%
X163000000Y-104000000D03*
X162524990Y-116000000D03*
%TO.N,Net-(R11-Pad1)*%
X163000000Y-118750000D03*
X165750002Y-104250000D03*
%TO.N,/PowerHeater1*%
X166000000Y-110000000D03*
X167000000Y-110000000D03*
X168250000Y-110000000D03*
X169750000Y-110000000D03*
X171250000Y-110000000D03*
X166000000Y-108500000D03*
X167000000Y-108500000D03*
X168250000Y-108500000D03*
X169750000Y-108500000D03*
X171250000Y-108500000D03*
X168250000Y-111750000D03*
X169750000Y-111750000D03*
X171250000Y-111750000D03*
X168250000Y-113250000D03*
X169750000Y-113250000D03*
X171250000Y-113250000D03*
X166000000Y-114500000D03*
X167000000Y-114500000D03*
X168250000Y-114500000D03*
X166000000Y-116250000D03*
X167000000Y-116250000D03*
X168250000Y-116250000D03*
X169750000Y-116250000D03*
X169750000Y-114500000D03*
X171250000Y-114500000D03*
X171250000Y-116250000D03*
X174750000Y-107000000D03*
X178250000Y-107000000D03*
X180500000Y-107000000D03*
X183500000Y-107000000D03*
X186500000Y-107000000D03*
X189500000Y-107000000D03*
X192000000Y-107000000D03*
X200250000Y-107000000D03*
X174750000Y-111750000D03*
X178250000Y-111750000D03*
X180500000Y-111750000D03*
X183500000Y-111750000D03*
X186500000Y-111750000D03*
X189500000Y-111750000D03*
X192000000Y-111750000D03*
X195750000Y-111750000D03*
X195500000Y-107000000D03*
X200250000Y-111750000D03*
X174750000Y-116000000D03*
X178250000Y-116000000D03*
X180500000Y-116000000D03*
X183500000Y-116000000D03*
X186500000Y-116000000D03*
X189500000Y-116000000D03*
X192000000Y-116000000D03*
%TO.N,/PowerHeater2*%
X165750000Y-119000000D03*
X167000000Y-119000000D03*
X168250000Y-119000000D03*
X169750000Y-119000000D03*
X165750000Y-123500000D03*
X167000000Y-123500000D03*
X168250000Y-123500000D03*
X168250000Y-120500000D03*
X168250000Y-122000000D03*
X169750000Y-120500000D03*
X169750000Y-122000000D03*
X171250000Y-122000000D03*
X171250000Y-120500000D03*
X171250000Y-119000000D03*
X174750000Y-119000000D03*
X178250000Y-119000000D03*
X180500000Y-119000000D03*
X183500000Y-119000000D03*
X186500000Y-119000000D03*
X174750000Y-122000000D03*
X178250000Y-122000000D03*
X180500000Y-122000000D03*
X183500000Y-122000000D03*
X186500000Y-122000000D03*
X189500000Y-122000000D03*
X192000000Y-122000000D03*
X189500000Y-119000000D03*
X192000000Y-119000000D03*
%TD*%
D22*
%TO.N,GND*%
X159750000Y-125300000D02*
X171000000Y-125300000D01*
X171000000Y-125300000D02*
X182250000Y-125300000D01*
X182250000Y-125300000D02*
X192450000Y-125300000D01*
D23*
X200750000Y-121000000D02*
X200750000Y-120750004D01*
X197500000Y-124250000D02*
X200750000Y-121000000D01*
X192700000Y-125300000D02*
X193750000Y-124250000D01*
X193750000Y-124250000D02*
X197500000Y-124250000D01*
X192450000Y-125300000D02*
X192700000Y-125300000D01*
D24*
X159925000Y-108325000D02*
X159750000Y-108500000D01*
X163675000Y-100000000D02*
X165000000Y-100000000D01*
X161500000Y-102175000D02*
X163675000Y-100000000D01*
X164365000Y-98715000D02*
X165000000Y-99350000D01*
X164365000Y-97525000D02*
X164365000Y-98715000D01*
X167862500Y-91075000D02*
X166849998Y-91075000D01*
X166849998Y-91075000D02*
X166424998Y-91500000D01*
D23*
X160250000Y-88975000D02*
X158750000Y-88975000D01*
X157175000Y-88975000D02*
X157000000Y-88800000D01*
X158750000Y-88975000D02*
X157175000Y-88975000D01*
X158750000Y-88975000D02*
X158750000Y-87750000D01*
X170725000Y-91025000D02*
X170750000Y-91000000D01*
X169750000Y-91025000D02*
X170725000Y-91025000D01*
X160250000Y-86250000D02*
X158750000Y-87750000D01*
X161725000Y-86250000D02*
X160250000Y-86250000D01*
D24*
X167500000Y-100000000D02*
X168500000Y-101000000D01*
X165000000Y-100000000D02*
X167500000Y-100000000D01*
X168500000Y-101000000D02*
X168500000Y-102425000D01*
X176000000Y-103400000D02*
X176000000Y-104250000D01*
X160425000Y-103500000D02*
X161500000Y-102425000D01*
X158750000Y-103500000D02*
X160425000Y-103500000D01*
D23*
X155000000Y-88800000D02*
X157000000Y-88800000D01*
X148500000Y-122250000D02*
X148250000Y-122000000D01*
X148500000Y-125300000D02*
X148500000Y-122250000D01*
X159750000Y-122500000D02*
X159250000Y-122000000D01*
X159750000Y-125300000D02*
X159750000Y-122500000D01*
D24*
X144000000Y-107475000D02*
X143725000Y-107750000D01*
X143225000Y-95750000D02*
X143000000Y-95525000D01*
X145050000Y-95750000D02*
X143225000Y-95750000D01*
X143000000Y-95525000D02*
X143000000Y-98750000D01*
X143050000Y-98800000D02*
X143000000Y-98750000D01*
X144250000Y-98800000D02*
X143050000Y-98800000D01*
X142750000Y-100300000D02*
X142750000Y-103725000D01*
X144250000Y-98800000D02*
X142750000Y-100300000D01*
D23*
%TO.N,+3V3*%
X145625000Y-108100000D02*
X145275000Y-107750000D01*
X147250000Y-108100000D02*
X145625000Y-108100000D01*
D24*
X166000000Y-117750000D02*
X165250000Y-117750000D01*
X160550000Y-90425000D02*
X160250000Y-90725000D01*
X162137500Y-90425000D02*
X160550000Y-90425000D01*
D23*
X160250000Y-90725000D02*
X158750000Y-90725000D01*
X157175000Y-90725000D02*
X157000000Y-90550000D01*
X158750000Y-90725000D02*
X157175000Y-90725000D01*
D24*
X168800000Y-90425000D02*
X169750000Y-89475000D01*
X167862500Y-90425000D02*
X168800000Y-90425000D01*
X166625000Y-92375000D02*
X165500000Y-93500000D01*
X167862500Y-92375000D02*
X166625000Y-92375000D01*
X165500000Y-95250000D02*
X165500000Y-93500000D01*
X165500000Y-95250000D02*
X164075000Y-95250000D01*
X170500000Y-103750000D02*
X170750000Y-104000000D01*
X170500000Y-97500000D02*
X170500000Y-98250000D01*
X170500000Y-98250000D02*
X170500000Y-103750000D01*
X168600000Y-92375000D02*
X170500000Y-94275000D01*
X167862500Y-92375000D02*
X168600000Y-92375000D01*
X175500000Y-93000000D02*
X173750000Y-94750000D01*
X178000000Y-93000000D02*
X175500000Y-93000000D01*
X170500000Y-96250000D02*
X170500000Y-94275000D01*
X170500000Y-98250000D02*
X170500000Y-96250000D01*
X170625000Y-96125000D02*
X170500000Y-96250000D01*
X172375000Y-96125000D02*
X170625000Y-96125000D01*
X172487347Y-96012653D02*
X172375000Y-96125000D01*
D23*
X155000000Y-90700000D02*
X157000000Y-90700000D01*
X145275000Y-107750000D02*
X145275000Y-103725000D01*
X145275000Y-103725000D02*
X154500000Y-94500000D01*
X154950000Y-90750000D02*
X155000000Y-90700000D01*
X153500000Y-90750000D02*
X154950000Y-90750000D01*
D22*
%TO.N,+24V*%
X137700010Y-112347062D02*
X137700010Y-111600000D01*
X136497062Y-113550010D02*
X137700010Y-112347062D01*
X129399999Y-115100001D02*
X130949990Y-113550010D01*
X129399999Y-126149999D02*
X129399999Y-115100001D01*
X135250000Y-132000000D02*
X129399999Y-126149999D01*
D24*
X133324999Y-113275021D02*
X133050010Y-113550010D01*
X133324999Y-108575001D02*
X133324999Y-113275021D01*
X134000000Y-107900000D02*
X133324999Y-108575001D01*
D22*
X133050010Y-113550010D02*
X136497062Y-113550010D01*
X130949990Y-113550010D02*
X133050010Y-113550010D01*
D24*
X128750000Y-111350020D02*
X128750000Y-107500000D01*
X130949990Y-113550010D02*
X128750000Y-111350020D01*
X128750000Y-104250000D02*
X130625000Y-102375000D01*
X128750000Y-107500000D02*
X128750000Y-104250000D01*
X130125000Y-102875000D02*
X130625000Y-102375000D01*
X130625000Y-102375000D02*
X133250000Y-99750000D01*
X133250000Y-99750000D02*
X139250000Y-99750000D01*
X139375000Y-99750000D02*
X139250000Y-99750000D01*
X140050000Y-100425000D02*
X139375000Y-99750000D01*
X141000000Y-100425000D02*
X140050000Y-100425000D01*
X139375000Y-99750000D02*
X139375000Y-99625000D01*
X140175000Y-98825000D02*
X141000000Y-98825000D01*
X139375000Y-99625000D02*
X140175000Y-98825000D01*
D23*
X138452938Y-112347062D02*
X139050000Y-111750000D01*
X137700010Y-112347062D02*
X138452938Y-112347062D01*
D24*
%TO.N,/Heater1ActiveLed*%
X171588599Y-94088599D02*
X176000000Y-98500000D01*
X170950009Y-94088599D02*
X171588599Y-94088599D01*
X168586410Y-91725000D02*
X170950009Y-94088599D01*
X167862500Y-91725000D02*
X168586410Y-91725000D01*
%TO.N,Net-(D1-Pad1)*%
X176000000Y-100075000D02*
X176000000Y-101750000D01*
%TO.N,/Heater2ActiveLed*%
X158750000Y-97062500D02*
X162137500Y-93675000D01*
X158750000Y-98500000D02*
X158750000Y-97062500D01*
%TO.N,Net-(D2-Pad1)*%
X158750000Y-100075000D02*
X158750000Y-101850000D01*
%TO.N,/SWCLK*%
X167862500Y-87825000D02*
X170825000Y-87825000D01*
X173500000Y-90500000D02*
X178000000Y-90500000D01*
X170825000Y-87825000D02*
X173500000Y-90500000D01*
%TO.N,/SWDIO*%
X167862500Y-88475000D02*
X170725000Y-88475000D01*
X174000000Y-91750000D02*
X178000000Y-91750000D01*
X170725000Y-88475000D02*
X174000000Y-91750000D01*
%TO.N,/~RST*%
X162826058Y-89775000D02*
X163275000Y-89326058D01*
X163275000Y-89326058D02*
X163275000Y-86250000D01*
X162137500Y-89775000D02*
X162826058Y-89775000D01*
X178975010Y-86725010D02*
X178500000Y-86250000D01*
X178975010Y-93924990D02*
X178975010Y-86725010D01*
X178650000Y-94250000D02*
X178975010Y-93924990D01*
X178000000Y-94250000D02*
X178650000Y-94250000D01*
X163275000Y-86250000D02*
X178500000Y-86250000D01*
%TO.N,Net-(Q1-Pad2)*%
X164007500Y-114992500D02*
X164000000Y-115000000D01*
X164007500Y-113240000D02*
X164007500Y-114992500D01*
%TO.N,Net-(Q2-Pad2)*%
X164000000Y-118750000D02*
X164000000Y-117500000D01*
X164007500Y-122240000D02*
X164007500Y-123000000D01*
X164007500Y-123000000D02*
X163750000Y-123257500D01*
%TO.N,/Heater2*%
X165635000Y-96550000D02*
X166185000Y-96000000D01*
X165635000Y-97525000D02*
X165635000Y-96550000D01*
X166400000Y-96000000D02*
X167150000Y-95250000D01*
X166185000Y-96000000D02*
X166400000Y-96000000D01*
X167150000Y-94387500D02*
X167862500Y-93675000D01*
X167150000Y-95250000D02*
X167150000Y-94387500D01*
%TO.N,/Heater1*%
X163095000Y-97525000D02*
X162250000Y-96680000D01*
X162250000Y-95675000D02*
X162675000Y-95250000D01*
X162250000Y-96680000D02*
X162250000Y-95675000D01*
X162826058Y-92375000D02*
X162137500Y-92375000D01*
X163200010Y-92748952D02*
X162826058Y-92375000D01*
X163200010Y-94724990D02*
X163200010Y-92748952D01*
X162675000Y-95250000D02*
X163200010Y-94724990D01*
%TO.N,/Temp*%
X167650000Y-117750000D02*
X168750000Y-117750000D01*
X170684315Y-105250000D02*
X169750000Y-104315685D01*
X171250000Y-105250000D02*
X170684315Y-105250000D01*
X169750000Y-100600000D02*
X168500000Y-99350000D01*
X169750000Y-104315685D02*
X169750000Y-100600000D01*
X168551058Y-93025000D02*
X167862500Y-93025000D01*
X168925010Y-93398952D02*
X168551058Y-93025000D01*
X168925010Y-98924990D02*
X168925010Y-93398952D01*
X168500000Y-99350000D02*
X168925010Y-98924990D01*
D23*
%TO.N,+12V*%
X138825000Y-107900000D02*
X138975000Y-107750000D01*
X137000000Y-107900000D02*
X138825000Y-107900000D01*
X140350000Y-109600000D02*
X145000000Y-109600000D01*
X138975000Y-108225000D02*
X140350000Y-109600000D01*
X138975000Y-107750000D02*
X138975000Y-108225000D01*
X148750000Y-108960002D02*
X148750000Y-108187500D01*
X148110002Y-109600000D02*
X148750000Y-108960002D01*
X145000000Y-109600000D02*
X148110002Y-109600000D01*
D24*
X164365000Y-103885000D02*
X164250000Y-104000000D01*
X164365000Y-102475000D02*
X164365000Y-103885000D01*
D23*
X148750000Y-107239998D02*
X150489998Y-105500000D01*
X148750000Y-108187500D02*
X148750000Y-107239998D01*
X158250000Y-105500000D02*
X158500000Y-105750000D01*
X150489998Y-105500000D02*
X158250000Y-105500000D01*
D24*
%TO.N,Net-(R10-Pad2)*%
X163095000Y-102475000D02*
X163095000Y-103905000D01*
X163095000Y-103905000D02*
X163000000Y-104000000D01*
X162350000Y-115825010D02*
X162524990Y-116000000D01*
X162350000Y-115000000D02*
X162350000Y-115825010D01*
X161575000Y-104000000D02*
X163000000Y-104000000D01*
%TO.N,Net-(R11-Pad1)*%
X162350000Y-118100000D02*
X163000000Y-118750000D01*
X162350000Y-117500000D02*
X162350000Y-118100000D01*
X165635000Y-102475000D02*
X165635000Y-104134998D01*
X165635000Y-104134998D02*
X165750002Y-104250000D01*
X165750002Y-104250000D02*
X168500000Y-104250000D01*
%TO.N,/InputHeater1*%
X162137500Y-93025000D02*
X153475000Y-93025000D01*
X142700000Y-105325000D02*
X142750000Y-105275000D01*
X141000000Y-105325000D02*
X142700000Y-105325000D01*
X146250000Y-100135002D02*
X146250000Y-99750000D01*
X143550010Y-102834992D02*
X146250000Y-100135002D01*
X143550010Y-104474990D02*
X143550010Y-102834992D01*
X142750000Y-105275000D02*
X143550010Y-104474990D01*
X146750000Y-99750000D02*
X153475000Y-93025000D01*
X146250000Y-99750000D02*
X146750000Y-99750000D01*
%TO.N,/InputHeater2*%
X142950000Y-93925000D02*
X143000000Y-93975000D01*
X141000000Y-93925000D02*
X142950000Y-93925000D01*
X145775000Y-93975000D02*
X146000000Y-93750000D01*
X143000000Y-93975000D02*
X145775000Y-93975000D01*
X146500000Y-93750000D02*
X148525000Y-91725000D01*
X146000000Y-93750000D02*
X146500000Y-93750000D01*
X162137500Y-91725000D02*
X148525000Y-91725000D01*
D22*
%TO.N,/PowerHeater1*%
X166250000Y-112250000D02*
X170250000Y-112250000D01*
%TO.N,/PowerHeater2*%
X166500000Y-121250000D02*
X169750000Y-121250000D01*
D24*
%TO.N,Net-(J5-Pad2)*%
X140825000Y-102250000D02*
X141000000Y-102075000D01*
X135250000Y-102250000D02*
X140825000Y-102250000D01*
X141000000Y-102075000D02*
X141000000Y-103675000D01*
%TO.N,Net-(J5-Pad1)*%
X140925000Y-97250000D02*
X141000000Y-97175000D01*
X135250000Y-97250000D02*
X140925000Y-97250000D01*
X141000000Y-97175000D02*
X141000000Y-95575000D01*
%TD*%
D25*
%TO.N,+24V*%
X146611928Y-127250000D02*
X146628992Y-127423254D01*
X146679528Y-127589850D01*
X146761595Y-127743386D01*
X146872038Y-127877962D01*
X147006614Y-127988405D01*
X147160150Y-128070472D01*
X147326746Y-128121008D01*
X147500000Y-128138072D01*
X149500000Y-128138072D01*
X149673254Y-128121008D01*
X149839850Y-128070472D01*
X149993386Y-127988405D01*
X150127962Y-127877962D01*
X150238405Y-127743386D01*
X150320472Y-127589850D01*
X150371008Y-127423254D01*
X150388072Y-127250000D01*
X150388072Y-124877000D01*
X157861928Y-124877000D01*
X157861928Y-127250000D01*
X157878992Y-127423254D01*
X157929528Y-127589850D01*
X158011595Y-127743386D01*
X158122038Y-127877962D01*
X158256614Y-127988405D01*
X158410150Y-128070472D01*
X158576746Y-128121008D01*
X158750000Y-128138072D01*
X160750000Y-128138072D01*
X160923254Y-128121008D01*
X161089850Y-128070472D01*
X161243386Y-127988405D01*
X161377962Y-127877962D01*
X161488405Y-127743386D01*
X161570472Y-127589850D01*
X161621008Y-127423254D01*
X161638072Y-127250000D01*
X161638072Y-126935000D01*
X169111928Y-126935000D01*
X169111928Y-127250000D01*
X169128992Y-127423254D01*
X169179528Y-127589850D01*
X169261595Y-127743386D01*
X169372038Y-127877962D01*
X169506614Y-127988405D01*
X169660150Y-128070472D01*
X169826746Y-128121008D01*
X170000000Y-128138072D01*
X172000000Y-128138072D01*
X172173254Y-128121008D01*
X172339850Y-128070472D01*
X172493386Y-127988405D01*
X172627962Y-127877962D01*
X172738405Y-127743386D01*
X172820472Y-127589850D01*
X172871008Y-127423254D01*
X172888072Y-127250000D01*
X172888072Y-126935000D01*
X180361928Y-126935000D01*
X180361928Y-127250000D01*
X180378992Y-127423254D01*
X180429528Y-127589850D01*
X180511595Y-127743386D01*
X180622038Y-127877962D01*
X180756614Y-127988405D01*
X180910150Y-128070472D01*
X181076746Y-128121008D01*
X181250000Y-128138072D01*
X183250000Y-128138072D01*
X183423254Y-128121008D01*
X183589850Y-128070472D01*
X183743386Y-127988405D01*
X183877962Y-127877962D01*
X183988405Y-127743386D01*
X184070472Y-127589850D01*
X184121008Y-127423254D01*
X184138072Y-127250000D01*
X184138072Y-127050729D01*
X193806299Y-127050729D01*
X193853543Y-127428951D01*
X193973667Y-127790690D01*
X194105688Y-128037683D01*
X194400776Y-128169619D01*
X195570395Y-127000000D01*
X195929605Y-127000000D01*
X197099224Y-128169619D01*
X197394312Y-128037683D01*
X197565159Y-127696955D01*
X197666250Y-127329443D01*
X197693701Y-126949271D01*
X197646457Y-126571049D01*
X197526333Y-126209310D01*
X197394312Y-125962317D01*
X197099224Y-125830381D01*
X195929605Y-127000000D01*
X195570395Y-127000000D01*
X194400776Y-125830381D01*
X194105688Y-125962317D01*
X193934841Y-126303045D01*
X193833750Y-126670557D01*
X193806299Y-127050729D01*
X184138072Y-127050729D01*
X184138072Y-126935000D01*
X192530322Y-126935000D01*
X192770516Y-126911343D01*
X193078715Y-126817852D01*
X193362752Y-126666031D01*
X193611714Y-126461714D01*
X193816031Y-126212752D01*
X193967852Y-125928715D01*
X194061343Y-125620516D01*
X194069726Y-125535406D01*
X194220132Y-125385000D01*
X194699211Y-125385000D01*
X194580381Y-125650776D01*
X195750000Y-126820395D01*
X196919619Y-125650776D01*
X196800789Y-125385000D01*
X197444249Y-125385000D01*
X197500000Y-125390491D01*
X197555751Y-125385000D01*
X197555752Y-125385000D01*
X197722499Y-125368577D01*
X197936447Y-125303676D01*
X198133623Y-125198284D01*
X198306449Y-125056449D01*
X198341996Y-125013135D01*
X198470131Y-124885000D01*
X202373000Y-124885000D01*
X202373000Y-135123000D01*
X191750000Y-135123000D01*
X191725224Y-135125440D01*
X191701399Y-135132667D01*
X191679443Y-135144403D01*
X191660197Y-135160197D01*
X191644403Y-135179443D01*
X191632667Y-135201399D01*
X191625440Y-135225224D01*
X191623000Y-135250000D01*
X191623000Y-142590000D01*
X139627000Y-142590000D01*
X139627000Y-135900000D01*
X146611928Y-135900000D01*
X146624188Y-136024482D01*
X146660498Y-136144180D01*
X146719463Y-136254494D01*
X146798815Y-136351185D01*
X146895506Y-136430537D01*
X147005820Y-136489502D01*
X147125518Y-136525812D01*
X147250000Y-136538072D01*
X148214250Y-136535000D01*
X148373000Y-136376250D01*
X148373000Y-133827000D01*
X148627000Y-133827000D01*
X148627000Y-136376250D01*
X148785750Y-136535000D01*
X149750000Y-136538072D01*
X149874482Y-136525812D01*
X149994180Y-136489502D01*
X150104494Y-136430537D01*
X150201185Y-136351185D01*
X150280537Y-136254494D01*
X150339502Y-136144180D01*
X150375812Y-136024482D01*
X150388072Y-135900000D01*
X157861928Y-135900000D01*
X157874188Y-136024482D01*
X157910498Y-136144180D01*
X157969463Y-136254494D01*
X158048815Y-136351185D01*
X158145506Y-136430537D01*
X158255820Y-136489502D01*
X158375518Y-136525812D01*
X158500000Y-136538072D01*
X159464250Y-136535000D01*
X159623000Y-136376250D01*
X159623000Y-133827000D01*
X159877000Y-133827000D01*
X159877000Y-136376250D01*
X160035750Y-136535000D01*
X161000000Y-136538072D01*
X161124482Y-136525812D01*
X161244180Y-136489502D01*
X161354494Y-136430537D01*
X161451185Y-136351185D01*
X161530537Y-136254494D01*
X161589502Y-136144180D01*
X161625812Y-136024482D01*
X161638072Y-135900000D01*
X169111928Y-135900000D01*
X169124188Y-136024482D01*
X169160498Y-136144180D01*
X169219463Y-136254494D01*
X169298815Y-136351185D01*
X169395506Y-136430537D01*
X169505820Y-136489502D01*
X169625518Y-136525812D01*
X169750000Y-136538072D01*
X170714250Y-136535000D01*
X170873000Y-136376250D01*
X170873000Y-133827000D01*
X171127000Y-133827000D01*
X171127000Y-136376250D01*
X171285750Y-136535000D01*
X172250000Y-136538072D01*
X172374482Y-136525812D01*
X172494180Y-136489502D01*
X172604494Y-136430537D01*
X172701185Y-136351185D01*
X172780537Y-136254494D01*
X172839502Y-136144180D01*
X172875812Y-136024482D01*
X172888072Y-135900000D01*
X180361928Y-135900000D01*
X180374188Y-136024482D01*
X180410498Y-136144180D01*
X180469463Y-136254494D01*
X180548815Y-136351185D01*
X180645506Y-136430537D01*
X180755820Y-136489502D01*
X180875518Y-136525812D01*
X181000000Y-136538072D01*
X181964250Y-136535000D01*
X182123000Y-136376250D01*
X182123000Y-133827000D01*
X182377000Y-133827000D01*
X182377000Y-136376250D01*
X182535750Y-136535000D01*
X183500000Y-136538072D01*
X183624482Y-136525812D01*
X183744180Y-136489502D01*
X183854494Y-136430537D01*
X183951185Y-136351185D01*
X184030537Y-136254494D01*
X184089502Y-136144180D01*
X184125812Y-136024482D01*
X184138072Y-135900000D01*
X184135000Y-133985750D01*
X183976250Y-133827000D01*
X182377000Y-133827000D01*
X182123000Y-133827000D01*
X180523750Y-133827000D01*
X180365000Y-133985750D01*
X180361928Y-135900000D01*
X172888072Y-135900000D01*
X172885000Y-133985750D01*
X172726250Y-133827000D01*
X171127000Y-133827000D01*
X170873000Y-133827000D01*
X169273750Y-133827000D01*
X169115000Y-133985750D01*
X169111928Y-135900000D01*
X161638072Y-135900000D01*
X161635000Y-133985750D01*
X161476250Y-133827000D01*
X159877000Y-133827000D01*
X159623000Y-133827000D01*
X158023750Y-133827000D01*
X157865000Y-133985750D01*
X157861928Y-135900000D01*
X150388072Y-135900000D01*
X150385000Y-133985750D01*
X150226250Y-133827000D01*
X148627000Y-133827000D01*
X148373000Y-133827000D01*
X146773750Y-133827000D01*
X146615000Y-133985750D01*
X146611928Y-135900000D01*
X139627000Y-135900000D01*
X139627000Y-135500000D01*
X139624560Y-135475224D01*
X139617333Y-135451399D01*
X139605597Y-135429443D01*
X139589803Y-135410197D01*
X139570557Y-135394403D01*
X139548601Y-135382667D01*
X139524776Y-135375440D01*
X139500000Y-135373000D01*
X128627000Y-135373000D01*
X128627000Y-133349224D01*
X134080381Y-133349224D01*
X134212317Y-133644312D01*
X134553045Y-133815159D01*
X134920557Y-133916250D01*
X135300729Y-133943701D01*
X135678951Y-133896457D01*
X136040690Y-133776333D01*
X136287683Y-133644312D01*
X136419619Y-133349224D01*
X135250000Y-132179605D01*
X134080381Y-133349224D01*
X128627000Y-133349224D01*
X128627000Y-132050729D01*
X133306299Y-132050729D01*
X133353543Y-132428951D01*
X133473667Y-132790690D01*
X133605688Y-133037683D01*
X133900776Y-133169619D01*
X135070395Y-132000000D01*
X135429605Y-132000000D01*
X136599224Y-133169619D01*
X136894312Y-133037683D01*
X137065159Y-132696955D01*
X137166250Y-132329443D01*
X137193701Y-131949271D01*
X137146457Y-131571049D01*
X137122864Y-131500000D01*
X146611928Y-131500000D01*
X146615000Y-133414250D01*
X146773750Y-133573000D01*
X148373000Y-133573000D01*
X148373000Y-131023750D01*
X148627000Y-131023750D01*
X148627000Y-133573000D01*
X150226250Y-133573000D01*
X150385000Y-133414250D01*
X150388072Y-131500000D01*
X157861928Y-131500000D01*
X157865000Y-133414250D01*
X158023750Y-133573000D01*
X159623000Y-133573000D01*
X159623000Y-131023750D01*
X159877000Y-131023750D01*
X159877000Y-133573000D01*
X161476250Y-133573000D01*
X161635000Y-133414250D01*
X161638072Y-131500000D01*
X169111928Y-131500000D01*
X169115000Y-133414250D01*
X169273750Y-133573000D01*
X170873000Y-133573000D01*
X170873000Y-131023750D01*
X171127000Y-131023750D01*
X171127000Y-133573000D01*
X172726250Y-133573000D01*
X172885000Y-133414250D01*
X172888072Y-131500000D01*
X180361928Y-131500000D01*
X180365000Y-133414250D01*
X180523750Y-133573000D01*
X182123000Y-133573000D01*
X182123000Y-131023750D01*
X182377000Y-131023750D01*
X182377000Y-133573000D01*
X183976250Y-133573000D01*
X184135000Y-133414250D01*
X184135183Y-133300000D01*
X193811928Y-133300000D01*
X193824188Y-133424482D01*
X193860498Y-133544180D01*
X193919463Y-133654494D01*
X193998815Y-133751185D01*
X194095506Y-133830537D01*
X194205820Y-133889502D01*
X194325518Y-133925812D01*
X194450000Y-133938072D01*
X195464250Y-133935000D01*
X195623000Y-133776250D01*
X195623000Y-132127000D01*
X195877000Y-132127000D01*
X195877000Y-133776250D01*
X196035750Y-133935000D01*
X197050000Y-133938072D01*
X197174482Y-133925812D01*
X197294180Y-133889502D01*
X197404494Y-133830537D01*
X197501185Y-133751185D01*
X197580537Y-133654494D01*
X197639502Y-133544180D01*
X197675812Y-133424482D01*
X197688072Y-133300000D01*
X197685000Y-132285750D01*
X197526250Y-132127000D01*
X195877000Y-132127000D01*
X195623000Y-132127000D01*
X193973750Y-132127000D01*
X193815000Y-132285750D01*
X193811928Y-133300000D01*
X184135183Y-133300000D01*
X184138072Y-131500000D01*
X184125812Y-131375518D01*
X184089502Y-131255820D01*
X184030537Y-131145506D01*
X183951185Y-131048815D01*
X183854494Y-130969463D01*
X183744180Y-130910498D01*
X183624482Y-130874188D01*
X183500000Y-130861928D01*
X182535750Y-130865000D01*
X182377000Y-131023750D01*
X182123000Y-131023750D01*
X181964250Y-130865000D01*
X181000000Y-130861928D01*
X180875518Y-130874188D01*
X180755820Y-130910498D01*
X180645506Y-130969463D01*
X180548815Y-131048815D01*
X180469463Y-131145506D01*
X180410498Y-131255820D01*
X180374188Y-131375518D01*
X180361928Y-131500000D01*
X172888072Y-131500000D01*
X172875812Y-131375518D01*
X172839502Y-131255820D01*
X172780537Y-131145506D01*
X172701185Y-131048815D01*
X172604494Y-130969463D01*
X172494180Y-130910498D01*
X172374482Y-130874188D01*
X172250000Y-130861928D01*
X171285750Y-130865000D01*
X171127000Y-131023750D01*
X170873000Y-131023750D01*
X170714250Y-130865000D01*
X169750000Y-130861928D01*
X169625518Y-130874188D01*
X169505820Y-130910498D01*
X169395506Y-130969463D01*
X169298815Y-131048815D01*
X169219463Y-131145506D01*
X169160498Y-131255820D01*
X169124188Y-131375518D01*
X169111928Y-131500000D01*
X161638072Y-131500000D01*
X161625812Y-131375518D01*
X161589502Y-131255820D01*
X161530537Y-131145506D01*
X161451185Y-131048815D01*
X161354494Y-130969463D01*
X161244180Y-130910498D01*
X161124482Y-130874188D01*
X161000000Y-130861928D01*
X160035750Y-130865000D01*
X159877000Y-131023750D01*
X159623000Y-131023750D01*
X159464250Y-130865000D01*
X158500000Y-130861928D01*
X158375518Y-130874188D01*
X158255820Y-130910498D01*
X158145506Y-130969463D01*
X158048815Y-131048815D01*
X157969463Y-131145506D01*
X157910498Y-131255820D01*
X157874188Y-131375518D01*
X157861928Y-131500000D01*
X150388072Y-131500000D01*
X150375812Y-131375518D01*
X150339502Y-131255820D01*
X150280537Y-131145506D01*
X150201185Y-131048815D01*
X150104494Y-130969463D01*
X149994180Y-130910498D01*
X149874482Y-130874188D01*
X149750000Y-130861928D01*
X148785750Y-130865000D01*
X148627000Y-131023750D01*
X148373000Y-131023750D01*
X148214250Y-130865000D01*
X147250000Y-130861928D01*
X147125518Y-130874188D01*
X147005820Y-130910498D01*
X146895506Y-130969463D01*
X146798815Y-131048815D01*
X146719463Y-131145506D01*
X146660498Y-131255820D01*
X146624188Y-131375518D01*
X146611928Y-131500000D01*
X137122864Y-131500000D01*
X137026333Y-131209310D01*
X136894312Y-130962317D01*
X136599224Y-130830381D01*
X135429605Y-132000000D01*
X135070395Y-132000000D01*
X133900776Y-130830381D01*
X133605688Y-130962317D01*
X133434841Y-131303045D01*
X133333750Y-131670557D01*
X133306299Y-132050729D01*
X128627000Y-132050729D01*
X128627000Y-130650776D01*
X134080381Y-130650776D01*
X135250000Y-131820395D01*
X136370395Y-130700000D01*
X193811928Y-130700000D01*
X193815000Y-131714250D01*
X193973750Y-131873000D01*
X195623000Y-131873000D01*
X195623000Y-130223750D01*
X195877000Y-130223750D01*
X195877000Y-131873000D01*
X197526250Y-131873000D01*
X197685000Y-131714250D01*
X197688072Y-130700000D01*
X197675812Y-130575518D01*
X197639502Y-130455820D01*
X197580537Y-130345506D01*
X197501185Y-130248815D01*
X197404494Y-130169463D01*
X197294180Y-130110498D01*
X197174482Y-130074188D01*
X197050000Y-130061928D01*
X196035750Y-130065000D01*
X195877000Y-130223750D01*
X195623000Y-130223750D01*
X195464250Y-130065000D01*
X194450000Y-130061928D01*
X194325518Y-130074188D01*
X194205820Y-130110498D01*
X194095506Y-130169463D01*
X193998815Y-130248815D01*
X193919463Y-130345506D01*
X193860498Y-130455820D01*
X193824188Y-130575518D01*
X193811928Y-130700000D01*
X136370395Y-130700000D01*
X136419619Y-130650776D01*
X136287683Y-130355688D01*
X135946955Y-130184841D01*
X135579443Y-130083750D01*
X135199271Y-130056299D01*
X134821049Y-130103543D01*
X134459310Y-130223667D01*
X134212317Y-130355688D01*
X134080381Y-130650776D01*
X128627000Y-130650776D01*
X128627000Y-128349224D01*
X134080381Y-128349224D01*
X134212317Y-128644312D01*
X134553045Y-128815159D01*
X134920557Y-128916250D01*
X135300729Y-128943701D01*
X135678951Y-128896457D01*
X136040690Y-128776333D01*
X136287683Y-128644312D01*
X136419619Y-128349224D01*
X194580381Y-128349224D01*
X194712317Y-128644312D01*
X195053045Y-128815159D01*
X195420557Y-128916250D01*
X195800729Y-128943701D01*
X196178951Y-128896457D01*
X196540690Y-128776333D01*
X196787683Y-128644312D01*
X196919619Y-128349224D01*
X195750000Y-127179605D01*
X194580381Y-128349224D01*
X136419619Y-128349224D01*
X135250000Y-127179605D01*
X134080381Y-128349224D01*
X128627000Y-128349224D01*
X128627000Y-127050729D01*
X133306299Y-127050729D01*
X133353543Y-127428951D01*
X133473667Y-127790690D01*
X133605688Y-128037683D01*
X133900776Y-128169619D01*
X135070395Y-127000000D01*
X135429605Y-127000000D01*
X136599224Y-128169619D01*
X136894312Y-128037683D01*
X137065159Y-127696955D01*
X137166250Y-127329443D01*
X137193701Y-126949271D01*
X137146457Y-126571049D01*
X137026333Y-126209310D01*
X136894312Y-125962317D01*
X136599224Y-125830381D01*
X135429605Y-127000000D01*
X135070395Y-127000000D01*
X133900776Y-125830381D01*
X133605688Y-125962317D01*
X133434841Y-126303045D01*
X133333750Y-126670557D01*
X133306299Y-127050729D01*
X128627000Y-127050729D01*
X128627000Y-125650776D01*
X134080381Y-125650776D01*
X135250000Y-126820395D01*
X136419619Y-125650776D01*
X136287683Y-125355688D01*
X135946955Y-125184841D01*
X135579443Y-125083750D01*
X135199271Y-125056299D01*
X134821049Y-125103543D01*
X134459310Y-125223667D01*
X134212317Y-125355688D01*
X134080381Y-125650776D01*
X128627000Y-125650776D01*
X128627000Y-124877000D01*
X146611928Y-124877000D01*
X146611928Y-127250000D01*
%TA.AperFunction,Conductor*%
D26*
G36*
X146611928Y-127250000D02*
G01*
X146628992Y-127423254D01*
X146679528Y-127589850D01*
X146761595Y-127743386D01*
X146872038Y-127877962D01*
X147006614Y-127988405D01*
X147160150Y-128070472D01*
X147326746Y-128121008D01*
X147500000Y-128138072D01*
X149500000Y-128138072D01*
X149673254Y-128121008D01*
X149839850Y-128070472D01*
X149993386Y-127988405D01*
X150127962Y-127877962D01*
X150238405Y-127743386D01*
X150320472Y-127589850D01*
X150371008Y-127423254D01*
X150388072Y-127250000D01*
X150388072Y-124877000D01*
X157861928Y-124877000D01*
X157861928Y-127250000D01*
X157878992Y-127423254D01*
X157929528Y-127589850D01*
X158011595Y-127743386D01*
X158122038Y-127877962D01*
X158256614Y-127988405D01*
X158410150Y-128070472D01*
X158576746Y-128121008D01*
X158750000Y-128138072D01*
X160750000Y-128138072D01*
X160923254Y-128121008D01*
X161089850Y-128070472D01*
X161243386Y-127988405D01*
X161377962Y-127877962D01*
X161488405Y-127743386D01*
X161570472Y-127589850D01*
X161621008Y-127423254D01*
X161638072Y-127250000D01*
X161638072Y-126935000D01*
X169111928Y-126935000D01*
X169111928Y-127250000D01*
X169128992Y-127423254D01*
X169179528Y-127589850D01*
X169261595Y-127743386D01*
X169372038Y-127877962D01*
X169506614Y-127988405D01*
X169660150Y-128070472D01*
X169826746Y-128121008D01*
X170000000Y-128138072D01*
X172000000Y-128138072D01*
X172173254Y-128121008D01*
X172339850Y-128070472D01*
X172493386Y-127988405D01*
X172627962Y-127877962D01*
X172738405Y-127743386D01*
X172820472Y-127589850D01*
X172871008Y-127423254D01*
X172888072Y-127250000D01*
X172888072Y-126935000D01*
X180361928Y-126935000D01*
X180361928Y-127250000D01*
X180378992Y-127423254D01*
X180429528Y-127589850D01*
X180511595Y-127743386D01*
X180622038Y-127877962D01*
X180756614Y-127988405D01*
X180910150Y-128070472D01*
X181076746Y-128121008D01*
X181250000Y-128138072D01*
X183250000Y-128138072D01*
X183423254Y-128121008D01*
X183589850Y-128070472D01*
X183743386Y-127988405D01*
X183877962Y-127877962D01*
X183988405Y-127743386D01*
X184070472Y-127589850D01*
X184121008Y-127423254D01*
X184138072Y-127250000D01*
X184138072Y-127050729D01*
X193806299Y-127050729D01*
X193853543Y-127428951D01*
X193973667Y-127790690D01*
X194105688Y-128037683D01*
X194400776Y-128169619D01*
X195570395Y-127000000D01*
X195929605Y-127000000D01*
X197099224Y-128169619D01*
X197394312Y-128037683D01*
X197565159Y-127696955D01*
X197666250Y-127329443D01*
X197693701Y-126949271D01*
X197646457Y-126571049D01*
X197526333Y-126209310D01*
X197394312Y-125962317D01*
X197099224Y-125830381D01*
X195929605Y-127000000D01*
X195570395Y-127000000D01*
X194400776Y-125830381D01*
X194105688Y-125962317D01*
X193934841Y-126303045D01*
X193833750Y-126670557D01*
X193806299Y-127050729D01*
X184138072Y-127050729D01*
X184138072Y-126935000D01*
X192530322Y-126935000D01*
X192770516Y-126911343D01*
X193078715Y-126817852D01*
X193362752Y-126666031D01*
X193611714Y-126461714D01*
X193816031Y-126212752D01*
X193967852Y-125928715D01*
X194061343Y-125620516D01*
X194069726Y-125535406D01*
X194220132Y-125385000D01*
X194699211Y-125385000D01*
X194580381Y-125650776D01*
X195750000Y-126820395D01*
X196919619Y-125650776D01*
X196800789Y-125385000D01*
X197444249Y-125385000D01*
X197500000Y-125390491D01*
X197555751Y-125385000D01*
X197555752Y-125385000D01*
X197722499Y-125368577D01*
X197936447Y-125303676D01*
X198133623Y-125198284D01*
X198306449Y-125056449D01*
X198341996Y-125013135D01*
X198470131Y-124885000D01*
X202373000Y-124885000D01*
X202373000Y-135123000D01*
X191750000Y-135123000D01*
X191725224Y-135125440D01*
X191701399Y-135132667D01*
X191679443Y-135144403D01*
X191660197Y-135160197D01*
X191644403Y-135179443D01*
X191632667Y-135201399D01*
X191625440Y-135225224D01*
X191623000Y-135250000D01*
X191623000Y-142590000D01*
X139627000Y-142590000D01*
X139627000Y-135900000D01*
X146611928Y-135900000D01*
X146624188Y-136024482D01*
X146660498Y-136144180D01*
X146719463Y-136254494D01*
X146798815Y-136351185D01*
X146895506Y-136430537D01*
X147005820Y-136489502D01*
X147125518Y-136525812D01*
X147250000Y-136538072D01*
X148214250Y-136535000D01*
X148373000Y-136376250D01*
X148373000Y-133827000D01*
X148627000Y-133827000D01*
X148627000Y-136376250D01*
X148785750Y-136535000D01*
X149750000Y-136538072D01*
X149874482Y-136525812D01*
X149994180Y-136489502D01*
X150104494Y-136430537D01*
X150201185Y-136351185D01*
X150280537Y-136254494D01*
X150339502Y-136144180D01*
X150375812Y-136024482D01*
X150388072Y-135900000D01*
X157861928Y-135900000D01*
X157874188Y-136024482D01*
X157910498Y-136144180D01*
X157969463Y-136254494D01*
X158048815Y-136351185D01*
X158145506Y-136430537D01*
X158255820Y-136489502D01*
X158375518Y-136525812D01*
X158500000Y-136538072D01*
X159464250Y-136535000D01*
X159623000Y-136376250D01*
X159623000Y-133827000D01*
X159877000Y-133827000D01*
X159877000Y-136376250D01*
X160035750Y-136535000D01*
X161000000Y-136538072D01*
X161124482Y-136525812D01*
X161244180Y-136489502D01*
X161354494Y-136430537D01*
X161451185Y-136351185D01*
X161530537Y-136254494D01*
X161589502Y-136144180D01*
X161625812Y-136024482D01*
X161638072Y-135900000D01*
X169111928Y-135900000D01*
X169124188Y-136024482D01*
X169160498Y-136144180D01*
X169219463Y-136254494D01*
X169298815Y-136351185D01*
X169395506Y-136430537D01*
X169505820Y-136489502D01*
X169625518Y-136525812D01*
X169750000Y-136538072D01*
X170714250Y-136535000D01*
X170873000Y-136376250D01*
X170873000Y-133827000D01*
X171127000Y-133827000D01*
X171127000Y-136376250D01*
X171285750Y-136535000D01*
X172250000Y-136538072D01*
X172374482Y-136525812D01*
X172494180Y-136489502D01*
X172604494Y-136430537D01*
X172701185Y-136351185D01*
X172780537Y-136254494D01*
X172839502Y-136144180D01*
X172875812Y-136024482D01*
X172888072Y-135900000D01*
X180361928Y-135900000D01*
X180374188Y-136024482D01*
X180410498Y-136144180D01*
X180469463Y-136254494D01*
X180548815Y-136351185D01*
X180645506Y-136430537D01*
X180755820Y-136489502D01*
X180875518Y-136525812D01*
X181000000Y-136538072D01*
X181964250Y-136535000D01*
X182123000Y-136376250D01*
X182123000Y-133827000D01*
X182377000Y-133827000D01*
X182377000Y-136376250D01*
X182535750Y-136535000D01*
X183500000Y-136538072D01*
X183624482Y-136525812D01*
X183744180Y-136489502D01*
X183854494Y-136430537D01*
X183951185Y-136351185D01*
X184030537Y-136254494D01*
X184089502Y-136144180D01*
X184125812Y-136024482D01*
X184138072Y-135900000D01*
X184135000Y-133985750D01*
X183976250Y-133827000D01*
X182377000Y-133827000D01*
X182123000Y-133827000D01*
X180523750Y-133827000D01*
X180365000Y-133985750D01*
X180361928Y-135900000D01*
X172888072Y-135900000D01*
X172885000Y-133985750D01*
X172726250Y-133827000D01*
X171127000Y-133827000D01*
X170873000Y-133827000D01*
X169273750Y-133827000D01*
X169115000Y-133985750D01*
X169111928Y-135900000D01*
X161638072Y-135900000D01*
X161635000Y-133985750D01*
X161476250Y-133827000D01*
X159877000Y-133827000D01*
X159623000Y-133827000D01*
X158023750Y-133827000D01*
X157865000Y-133985750D01*
X157861928Y-135900000D01*
X150388072Y-135900000D01*
X150385000Y-133985750D01*
X150226250Y-133827000D01*
X148627000Y-133827000D01*
X148373000Y-133827000D01*
X146773750Y-133827000D01*
X146615000Y-133985750D01*
X146611928Y-135900000D01*
X139627000Y-135900000D01*
X139627000Y-135500000D01*
X139624560Y-135475224D01*
X139617333Y-135451399D01*
X139605597Y-135429443D01*
X139589803Y-135410197D01*
X139570557Y-135394403D01*
X139548601Y-135382667D01*
X139524776Y-135375440D01*
X139500000Y-135373000D01*
X128627000Y-135373000D01*
X128627000Y-133349224D01*
X134080381Y-133349224D01*
X134212317Y-133644312D01*
X134553045Y-133815159D01*
X134920557Y-133916250D01*
X135300729Y-133943701D01*
X135678951Y-133896457D01*
X136040690Y-133776333D01*
X136287683Y-133644312D01*
X136419619Y-133349224D01*
X135250000Y-132179605D01*
X134080381Y-133349224D01*
X128627000Y-133349224D01*
X128627000Y-132050729D01*
X133306299Y-132050729D01*
X133353543Y-132428951D01*
X133473667Y-132790690D01*
X133605688Y-133037683D01*
X133900776Y-133169619D01*
X135070395Y-132000000D01*
X135429605Y-132000000D01*
X136599224Y-133169619D01*
X136894312Y-133037683D01*
X137065159Y-132696955D01*
X137166250Y-132329443D01*
X137193701Y-131949271D01*
X137146457Y-131571049D01*
X137122864Y-131500000D01*
X146611928Y-131500000D01*
X146615000Y-133414250D01*
X146773750Y-133573000D01*
X148373000Y-133573000D01*
X148373000Y-131023750D01*
X148627000Y-131023750D01*
X148627000Y-133573000D01*
X150226250Y-133573000D01*
X150385000Y-133414250D01*
X150388072Y-131500000D01*
X157861928Y-131500000D01*
X157865000Y-133414250D01*
X158023750Y-133573000D01*
X159623000Y-133573000D01*
X159623000Y-131023750D01*
X159877000Y-131023750D01*
X159877000Y-133573000D01*
X161476250Y-133573000D01*
X161635000Y-133414250D01*
X161638072Y-131500000D01*
X169111928Y-131500000D01*
X169115000Y-133414250D01*
X169273750Y-133573000D01*
X170873000Y-133573000D01*
X170873000Y-131023750D01*
X171127000Y-131023750D01*
X171127000Y-133573000D01*
X172726250Y-133573000D01*
X172885000Y-133414250D01*
X172888072Y-131500000D01*
X180361928Y-131500000D01*
X180365000Y-133414250D01*
X180523750Y-133573000D01*
X182123000Y-133573000D01*
X182123000Y-131023750D01*
X182377000Y-131023750D01*
X182377000Y-133573000D01*
X183976250Y-133573000D01*
X184135000Y-133414250D01*
X184135183Y-133300000D01*
X193811928Y-133300000D01*
X193824188Y-133424482D01*
X193860498Y-133544180D01*
X193919463Y-133654494D01*
X193998815Y-133751185D01*
X194095506Y-133830537D01*
X194205820Y-133889502D01*
X194325518Y-133925812D01*
X194450000Y-133938072D01*
X195464250Y-133935000D01*
X195623000Y-133776250D01*
X195623000Y-132127000D01*
X195877000Y-132127000D01*
X195877000Y-133776250D01*
X196035750Y-133935000D01*
X197050000Y-133938072D01*
X197174482Y-133925812D01*
X197294180Y-133889502D01*
X197404494Y-133830537D01*
X197501185Y-133751185D01*
X197580537Y-133654494D01*
X197639502Y-133544180D01*
X197675812Y-133424482D01*
X197688072Y-133300000D01*
X197685000Y-132285750D01*
X197526250Y-132127000D01*
X195877000Y-132127000D01*
X195623000Y-132127000D01*
X193973750Y-132127000D01*
X193815000Y-132285750D01*
X193811928Y-133300000D01*
X184135183Y-133300000D01*
X184138072Y-131500000D01*
X184125812Y-131375518D01*
X184089502Y-131255820D01*
X184030537Y-131145506D01*
X183951185Y-131048815D01*
X183854494Y-130969463D01*
X183744180Y-130910498D01*
X183624482Y-130874188D01*
X183500000Y-130861928D01*
X182535750Y-130865000D01*
X182377000Y-131023750D01*
X182123000Y-131023750D01*
X181964250Y-130865000D01*
X181000000Y-130861928D01*
X180875518Y-130874188D01*
X180755820Y-130910498D01*
X180645506Y-130969463D01*
X180548815Y-131048815D01*
X180469463Y-131145506D01*
X180410498Y-131255820D01*
X180374188Y-131375518D01*
X180361928Y-131500000D01*
X172888072Y-131500000D01*
X172875812Y-131375518D01*
X172839502Y-131255820D01*
X172780537Y-131145506D01*
X172701185Y-131048815D01*
X172604494Y-130969463D01*
X172494180Y-130910498D01*
X172374482Y-130874188D01*
X172250000Y-130861928D01*
X171285750Y-130865000D01*
X171127000Y-131023750D01*
X170873000Y-131023750D01*
X170714250Y-130865000D01*
X169750000Y-130861928D01*
X169625518Y-130874188D01*
X169505820Y-130910498D01*
X169395506Y-130969463D01*
X169298815Y-131048815D01*
X169219463Y-131145506D01*
X169160498Y-131255820D01*
X169124188Y-131375518D01*
X169111928Y-131500000D01*
X161638072Y-131500000D01*
X161625812Y-131375518D01*
X161589502Y-131255820D01*
X161530537Y-131145506D01*
X161451185Y-131048815D01*
X161354494Y-130969463D01*
X161244180Y-130910498D01*
X161124482Y-130874188D01*
X161000000Y-130861928D01*
X160035750Y-130865000D01*
X159877000Y-131023750D01*
X159623000Y-131023750D01*
X159464250Y-130865000D01*
X158500000Y-130861928D01*
X158375518Y-130874188D01*
X158255820Y-130910498D01*
X158145506Y-130969463D01*
X158048815Y-131048815D01*
X157969463Y-131145506D01*
X157910498Y-131255820D01*
X157874188Y-131375518D01*
X157861928Y-131500000D01*
X150388072Y-131500000D01*
X150375812Y-131375518D01*
X150339502Y-131255820D01*
X150280537Y-131145506D01*
X150201185Y-131048815D01*
X150104494Y-130969463D01*
X149994180Y-130910498D01*
X149874482Y-130874188D01*
X149750000Y-130861928D01*
X148785750Y-130865000D01*
X148627000Y-131023750D01*
X148373000Y-131023750D01*
X148214250Y-130865000D01*
X147250000Y-130861928D01*
X147125518Y-130874188D01*
X147005820Y-130910498D01*
X146895506Y-130969463D01*
X146798815Y-131048815D01*
X146719463Y-131145506D01*
X146660498Y-131255820D01*
X146624188Y-131375518D01*
X146611928Y-131500000D01*
X137122864Y-131500000D01*
X137026333Y-131209310D01*
X136894312Y-130962317D01*
X136599224Y-130830381D01*
X135429605Y-132000000D01*
X135070395Y-132000000D01*
X133900776Y-130830381D01*
X133605688Y-130962317D01*
X133434841Y-131303045D01*
X133333750Y-131670557D01*
X133306299Y-132050729D01*
X128627000Y-132050729D01*
X128627000Y-130650776D01*
X134080381Y-130650776D01*
X135250000Y-131820395D01*
X136370395Y-130700000D01*
X193811928Y-130700000D01*
X193815000Y-131714250D01*
X193973750Y-131873000D01*
X195623000Y-131873000D01*
X195623000Y-130223750D01*
X195877000Y-130223750D01*
X195877000Y-131873000D01*
X197526250Y-131873000D01*
X197685000Y-131714250D01*
X197688072Y-130700000D01*
X197675812Y-130575518D01*
X197639502Y-130455820D01*
X197580537Y-130345506D01*
X197501185Y-130248815D01*
X197404494Y-130169463D01*
X197294180Y-130110498D01*
X197174482Y-130074188D01*
X197050000Y-130061928D01*
X196035750Y-130065000D01*
X195877000Y-130223750D01*
X195623000Y-130223750D01*
X195464250Y-130065000D01*
X194450000Y-130061928D01*
X194325518Y-130074188D01*
X194205820Y-130110498D01*
X194095506Y-130169463D01*
X193998815Y-130248815D01*
X193919463Y-130345506D01*
X193860498Y-130455820D01*
X193824188Y-130575518D01*
X193811928Y-130700000D01*
X136370395Y-130700000D01*
X136419619Y-130650776D01*
X136287683Y-130355688D01*
X135946955Y-130184841D01*
X135579443Y-130083750D01*
X135199271Y-130056299D01*
X134821049Y-130103543D01*
X134459310Y-130223667D01*
X134212317Y-130355688D01*
X134080381Y-130650776D01*
X128627000Y-130650776D01*
X128627000Y-128349224D01*
X134080381Y-128349224D01*
X134212317Y-128644312D01*
X134553045Y-128815159D01*
X134920557Y-128916250D01*
X135300729Y-128943701D01*
X135678951Y-128896457D01*
X136040690Y-128776333D01*
X136287683Y-128644312D01*
X136419619Y-128349224D01*
X194580381Y-128349224D01*
X194712317Y-128644312D01*
X195053045Y-128815159D01*
X195420557Y-128916250D01*
X195800729Y-128943701D01*
X196178951Y-128896457D01*
X196540690Y-128776333D01*
X196787683Y-128644312D01*
X196919619Y-128349224D01*
X195750000Y-127179605D01*
X194580381Y-128349224D01*
X136419619Y-128349224D01*
X135250000Y-127179605D01*
X134080381Y-128349224D01*
X128627000Y-128349224D01*
X128627000Y-127050729D01*
X133306299Y-127050729D01*
X133353543Y-127428951D01*
X133473667Y-127790690D01*
X133605688Y-128037683D01*
X133900776Y-128169619D01*
X135070395Y-127000000D01*
X135429605Y-127000000D01*
X136599224Y-128169619D01*
X136894312Y-128037683D01*
X137065159Y-127696955D01*
X137166250Y-127329443D01*
X137193701Y-126949271D01*
X137146457Y-126571049D01*
X137026333Y-126209310D01*
X136894312Y-125962317D01*
X136599224Y-125830381D01*
X135429605Y-127000000D01*
X135070395Y-127000000D01*
X133900776Y-125830381D01*
X133605688Y-125962317D01*
X133434841Y-126303045D01*
X133333750Y-126670557D01*
X133306299Y-127050729D01*
X128627000Y-127050729D01*
X128627000Y-125650776D01*
X134080381Y-125650776D01*
X135250000Y-126820395D01*
X136419619Y-125650776D01*
X136287683Y-125355688D01*
X135946955Y-125184841D01*
X135579443Y-125083750D01*
X135199271Y-125056299D01*
X134821049Y-125103543D01*
X134459310Y-125223667D01*
X134212317Y-125355688D01*
X134080381Y-125650776D01*
X128627000Y-125650776D01*
X128627000Y-124877000D01*
X146611928Y-124877000D01*
X146611928Y-127250000D01*
G37*
%TD.AperFunction*%
%TD*%
D27*
%TO.N,GND*%
X144490000Y-107711447D02*
X144486203Y-107750000D01*
X144490000Y-107788553D01*
X144490000Y-107788560D01*
X144501359Y-107903886D01*
X144542520Y-108039575D01*
X144548448Y-108099765D01*
X144577548Y-108195696D01*
X144624805Y-108284106D01*
X144688401Y-108361599D01*
X144765894Y-108425195D01*
X144854304Y-108472452D01*
X144901661Y-108486817D01*
X145042649Y-108627805D01*
X145067236Y-108657764D01*
X145186767Y-108755862D01*
X145294830Y-108813622D01*
X144525000Y-108813622D01*
X144511008Y-108815000D01*
X140675157Y-108815000D01*
X139760000Y-107899843D01*
X139760000Y-107788553D01*
X139763797Y-107750001D01*
X139760000Y-107711448D01*
X139760000Y-107711439D01*
X139748641Y-107596113D01*
X139707480Y-107460423D01*
X139701552Y-107400235D01*
X139672452Y-107304304D01*
X139625195Y-107215894D01*
X139561599Y-107138401D01*
X139484106Y-107074805D01*
X139395696Y-107027548D01*
X139299765Y-106998448D01*
X139200000Y-106988622D01*
X139169312Y-106988622D01*
X139128886Y-106976359D01*
X138975000Y-106961202D01*
X138821113Y-106976359D01*
X138780687Y-106988622D01*
X138750000Y-106988622D01*
X138650235Y-106998448D01*
X138554304Y-107027548D01*
X138465894Y-107074805D01*
X138416916Y-107115000D01*
X137632931Y-107115000D01*
X137630875Y-107094130D01*
X137614579Y-107040408D01*
X137588115Y-106990897D01*
X137552500Y-106947500D01*
X137509103Y-106911885D01*
X137459592Y-106885421D01*
X137405870Y-106869125D01*
X137350000Y-106863622D01*
X136650000Y-106863622D01*
X136594130Y-106869125D01*
X136540408Y-106885421D01*
X136490897Y-106911885D01*
X136447500Y-106947500D01*
X136411885Y-106990897D01*
X136385421Y-107040408D01*
X136369125Y-107094130D01*
X136363622Y-107150000D01*
X136363622Y-107438026D01*
X136344138Y-107461767D01*
X136271246Y-107598140D01*
X136226359Y-107746113D01*
X136211202Y-107900000D01*
X136226359Y-108053887D01*
X136271246Y-108201860D01*
X136344138Y-108338233D01*
X136363622Y-108361974D01*
X136363622Y-108650000D01*
X136369125Y-108705870D01*
X136385421Y-108759592D01*
X136411885Y-108809103D01*
X136447500Y-108852500D01*
X136490897Y-108888115D01*
X136540408Y-108914579D01*
X136594130Y-108930875D01*
X136650000Y-108936378D01*
X137350000Y-108936378D01*
X137405870Y-108930875D01*
X137459592Y-108914579D01*
X137509103Y-108888115D01*
X137552500Y-108852500D01*
X137588115Y-108809103D01*
X137614579Y-108759592D01*
X137630875Y-108705870D01*
X137632931Y-108685000D01*
X138337002Y-108685000D01*
X138367778Y-108722499D01*
X138390348Y-108750000D01*
X138417237Y-108782764D01*
X138447185Y-108807342D01*
X139767653Y-110127810D01*
X139792236Y-110157764D01*
X139911767Y-110255862D01*
X140048140Y-110328754D01*
X140196113Y-110373642D01*
X140271026Y-110381020D01*
X140311439Y-110385000D01*
X140311444Y-110385000D01*
X140350000Y-110388797D01*
X140388556Y-110385000D01*
X144511008Y-110385000D01*
X144525000Y-110386378D01*
X145475000Y-110386378D01*
X145488992Y-110385000D01*
X147597121Y-110385000D01*
X147597121Y-112050000D01*
X147602624Y-112105870D01*
X147618920Y-112159592D01*
X147645385Y-112209104D01*
X147680999Y-112252501D01*
X147724396Y-112288115D01*
X147773908Y-112314580D01*
X147827630Y-112330876D01*
X147883500Y-112336379D01*
X149616500Y-112336379D01*
X149672370Y-112330876D01*
X149726092Y-112314580D01*
X149775604Y-112288115D01*
X149819001Y-112252501D01*
X149854615Y-112209104D01*
X149881080Y-112159592D01*
X149897376Y-112105870D01*
X149902879Y-112050000D01*
X149902879Y-108925000D01*
X149897376Y-108869130D01*
X149881080Y-108815408D01*
X149854615Y-108765896D01*
X149819001Y-108722499D01*
X149775604Y-108686885D01*
X149726092Y-108660420D01*
X149672370Y-108644124D01*
X149616500Y-108638621D01*
X149535000Y-108638621D01*
X149535000Y-107565155D01*
X150765155Y-106335000D01*
X157975423Y-106335000D01*
X158061768Y-106405861D01*
X158198141Y-106478753D01*
X158346112Y-106523641D01*
X158499999Y-106538797D01*
X158653886Y-106523641D01*
X158801859Y-106478753D01*
X158938231Y-106405861D01*
X159024576Y-106335000D01*
X164665000Y-106335000D01*
X164665000Y-112802173D01*
X164661603Y-112799385D01*
X164612092Y-112772921D01*
X164558370Y-112756625D01*
X164502500Y-112751122D01*
X163512500Y-112751122D01*
X163456630Y-112756625D01*
X163402908Y-112772921D01*
X163353397Y-112799385D01*
X163310000Y-112835000D01*
X163274385Y-112878397D01*
X163247921Y-112927908D01*
X163231625Y-112981630D01*
X163226122Y-113037500D01*
X163226122Y-113442500D01*
X163231625Y-113498370D01*
X163247921Y-113552092D01*
X163274385Y-113601603D01*
X163310000Y-113645000D01*
X163353397Y-113680615D01*
X163402908Y-113707079D01*
X163456630Y-113723375D01*
X163512500Y-113728878D01*
X163597500Y-113728878D01*
X163597501Y-114284395D01*
X163529783Y-114320591D01*
X163456079Y-114381079D01*
X163395591Y-114454783D01*
X163350645Y-114538871D01*
X163322968Y-114630112D01*
X163313622Y-114725000D01*
X163313622Y-115275000D01*
X163322968Y-115369888D01*
X163350645Y-115461129D01*
X163395591Y-115545217D01*
X163456079Y-115618921D01*
X163529783Y-115679409D01*
X163613871Y-115724355D01*
X163705112Y-115752032D01*
X163800000Y-115761378D01*
X164200000Y-115761378D01*
X164294888Y-115752032D01*
X164386129Y-115724355D01*
X164470217Y-115679409D01*
X164543921Y-115618921D01*
X164604409Y-115545217D01*
X164649355Y-115461129D01*
X164665000Y-115409553D01*
X164665000Y-117090447D01*
X164649355Y-117038871D01*
X164604409Y-116954783D01*
X164543921Y-116881079D01*
X164470217Y-116820591D01*
X164386129Y-116775645D01*
X164294888Y-116747968D01*
X164200000Y-116738622D01*
X163800000Y-116738622D01*
X163705112Y-116747968D01*
X163613871Y-116775645D01*
X163529783Y-116820591D01*
X163456079Y-116881079D01*
X163395591Y-116954783D01*
X163350645Y-117038871D01*
X163322968Y-117130112D01*
X163313622Y-117225000D01*
X163313622Y-117775000D01*
X163322968Y-117869888D01*
X163350645Y-117961129D01*
X163395591Y-118045217D01*
X163456079Y-118118921D01*
X163529783Y-118179409D01*
X163580451Y-118206492D01*
X163563338Y-118217926D01*
X163500000Y-118281264D01*
X163436662Y-118217926D01*
X163324469Y-118142961D01*
X163199807Y-118091325D01*
X163067467Y-118065000D01*
X162938173Y-118065000D01*
X162954409Y-118045217D01*
X162999355Y-117961129D01*
X163027032Y-117869888D01*
X163036378Y-117775000D01*
X163036378Y-117225000D01*
X163027032Y-117130112D01*
X162999355Y-117038871D01*
X162954409Y-116954783D01*
X162893921Y-116881079D01*
X162820217Y-116820591D01*
X162736129Y-116775645D01*
X162644888Y-116747968D01*
X162550000Y-116738622D01*
X162150000Y-116738622D01*
X162055112Y-116747968D01*
X161963871Y-116775645D01*
X161879783Y-116820591D01*
X161806079Y-116881079D01*
X161745591Y-116954783D01*
X161700645Y-117038871D01*
X161672968Y-117130112D01*
X161663622Y-117225000D01*
X161663622Y-117775000D01*
X161672968Y-117869888D01*
X161700645Y-117961129D01*
X161745591Y-118045217D01*
X161806079Y-118118921D01*
X161879783Y-118179409D01*
X161958386Y-118221423D01*
X161967671Y-118252032D01*
X161969378Y-118257659D01*
X162007449Y-118328885D01*
X162030555Y-118357039D01*
X162058685Y-118391316D01*
X162074326Y-118404152D01*
X162321256Y-118651083D01*
X162315000Y-118682533D01*
X162315000Y-118817467D01*
X162341325Y-118949807D01*
X162392961Y-119074469D01*
X162467926Y-119186662D01*
X162563338Y-119282074D01*
X162675531Y-119357039D01*
X162800193Y-119408675D01*
X162932533Y-119435000D01*
X163067467Y-119435000D01*
X163199807Y-119408675D01*
X163324469Y-119357039D01*
X163436662Y-119282074D01*
X163500000Y-119218736D01*
X163563338Y-119282074D01*
X163675531Y-119357039D01*
X163800193Y-119408675D01*
X163932533Y-119435000D01*
X164067467Y-119435000D01*
X164199807Y-119408675D01*
X164324469Y-119357039D01*
X164436662Y-119282074D01*
X164532074Y-119186662D01*
X164607039Y-119074469D01*
X164658675Y-118949807D01*
X164665000Y-118918010D01*
X164665000Y-121802173D01*
X164661603Y-121799385D01*
X164612092Y-121772921D01*
X164558370Y-121756625D01*
X164502500Y-121751122D01*
X163512500Y-121751122D01*
X163456630Y-121756625D01*
X163402908Y-121772921D01*
X163353397Y-121799385D01*
X163310000Y-121835000D01*
X163274385Y-121878397D01*
X163247921Y-121927908D01*
X163231625Y-121981630D01*
X163226122Y-122037500D01*
X163226122Y-122442500D01*
X163231625Y-122498370D01*
X163247921Y-122552092D01*
X163274385Y-122601603D01*
X163310000Y-122645000D01*
X163353397Y-122680615D01*
X163368400Y-122688634D01*
X163313338Y-122725426D01*
X163217926Y-122820838D01*
X163142961Y-122933031D01*
X163091325Y-123057693D01*
X163065000Y-123190033D01*
X163065000Y-123324967D01*
X163091325Y-123457307D01*
X163142961Y-123581969D01*
X163217926Y-123694162D01*
X163313338Y-123789574D01*
X163425531Y-123864539D01*
X163547356Y-123915000D01*
X130684999Y-123915000D01*
X130684999Y-115632264D01*
X131482254Y-114835010D01*
X136433947Y-114835010D01*
X136497062Y-114841226D01*
X136560177Y-114835010D01*
X136560185Y-114835010D01*
X136748966Y-114816417D01*
X136991189Y-114742939D01*
X137024750Y-114725000D01*
X161663622Y-114725000D01*
X161663622Y-115275000D01*
X161672968Y-115369888D01*
X161700645Y-115461129D01*
X161745591Y-115545217D01*
X161806079Y-115618921D01*
X161879783Y-115679409D01*
X161909717Y-115695409D01*
X161866315Y-115800193D01*
X161839990Y-115932533D01*
X161839990Y-116067467D01*
X161866315Y-116199807D01*
X161917951Y-116324469D01*
X161992916Y-116436662D01*
X162088328Y-116532074D01*
X162200521Y-116607039D01*
X162325183Y-116658675D01*
X162457523Y-116685000D01*
X162592457Y-116685000D01*
X162724797Y-116658675D01*
X162849459Y-116607039D01*
X162961652Y-116532074D01*
X163057064Y-116436662D01*
X163132029Y-116324469D01*
X163183665Y-116199807D01*
X163209990Y-116067467D01*
X163209990Y-115932533D01*
X163183665Y-115800193D01*
X163132029Y-115675531D01*
X163057064Y-115563338D01*
X162983854Y-115490128D01*
X162999355Y-115461129D01*
X163027032Y-115369888D01*
X163036378Y-115275000D01*
X163036378Y-114725000D01*
X163027032Y-114630112D01*
X162999355Y-114538871D01*
X162954409Y-114454783D01*
X162893921Y-114381079D01*
X162820217Y-114320591D01*
X162736129Y-114275645D01*
X162644888Y-114247968D01*
X162550000Y-114238622D01*
X162150000Y-114238622D01*
X162055112Y-114247968D01*
X161963871Y-114275645D01*
X161879783Y-114320591D01*
X161806079Y-114381079D01*
X161745591Y-114454783D01*
X161700645Y-114538871D01*
X161672968Y-114630112D01*
X161663622Y-114725000D01*
X137024750Y-114725000D01*
X137214424Y-114623618D01*
X137410090Y-114463038D01*
X137450333Y-114414002D01*
X138564008Y-113300328D01*
X138613038Y-113260090D01*
X138771670Y-113066798D01*
X138891171Y-113002924D01*
X139010702Y-112904826D01*
X139035284Y-112874873D01*
X139148779Y-112761378D01*
X139300000Y-112761378D01*
X139404642Y-112751072D01*
X139505263Y-112720549D01*
X139597996Y-112670982D01*
X139679277Y-112604277D01*
X139745982Y-112522996D01*
X139795549Y-112430263D01*
X139826072Y-112329642D01*
X139836378Y-112225000D01*
X139836378Y-111774562D01*
X139838797Y-111750001D01*
X139836378Y-111725440D01*
X139836378Y-111275000D01*
X139826072Y-111170358D01*
X139795549Y-111069737D01*
X139745982Y-110977004D01*
X139679277Y-110895723D01*
X139597996Y-110829018D01*
X139505263Y-110779451D01*
X139404642Y-110748928D01*
X139300000Y-110738622D01*
X138800000Y-110738622D01*
X138695358Y-110748928D01*
X138670158Y-110756572D01*
X138613038Y-110686972D01*
X138417372Y-110526392D01*
X138194137Y-110407071D01*
X137951914Y-110333593D01*
X137700010Y-110308783D01*
X137448107Y-110333593D01*
X137205884Y-110407071D01*
X136982649Y-110526392D01*
X136937284Y-110563622D01*
X136650000Y-110563622D01*
X136594130Y-110569125D01*
X136540408Y-110585421D01*
X136490897Y-110611885D01*
X136447500Y-110647500D01*
X136411885Y-110690897D01*
X136385421Y-110740408D01*
X136369125Y-110794130D01*
X136363622Y-110850000D01*
X136363622Y-111866186D01*
X135964799Y-112265010D01*
X134636378Y-112265010D01*
X134636378Y-110850000D01*
X134630875Y-110794130D01*
X134614579Y-110740408D01*
X134588115Y-110690897D01*
X134552500Y-110647500D01*
X134509103Y-110611885D01*
X134459592Y-110585421D01*
X134405870Y-110569125D01*
X134350000Y-110563622D01*
X133734999Y-110563622D01*
X133734999Y-108936378D01*
X134350000Y-108936378D01*
X134405870Y-108930875D01*
X134459592Y-108914579D01*
X134509103Y-108888115D01*
X134552500Y-108852500D01*
X134588115Y-108809103D01*
X134614579Y-108759592D01*
X134630875Y-108705870D01*
X134636378Y-108650000D01*
X134636378Y-107150000D01*
X134630875Y-107094130D01*
X134614579Y-107040408D01*
X134588115Y-106990897D01*
X134552500Y-106947500D01*
X134509103Y-106911885D01*
X134459592Y-106885421D01*
X134405870Y-106869125D01*
X134350000Y-106863622D01*
X133650000Y-106863622D01*
X133594130Y-106869125D01*
X133540408Y-106885421D01*
X133490897Y-106911885D01*
X133447500Y-106947500D01*
X133411885Y-106990897D01*
X133385421Y-107040408D01*
X133369125Y-107094130D01*
X133363622Y-107150000D01*
X133363622Y-107956552D01*
X133049330Y-108270844D01*
X133033683Y-108283685D01*
X132999654Y-108325151D01*
X132982448Y-108346116D01*
X132965589Y-108377657D01*
X132944376Y-108417343D01*
X132920932Y-108494628D01*
X132916582Y-108538798D01*
X132913016Y-108575001D01*
X132914999Y-108595132D01*
X132915000Y-112265010D01*
X131013102Y-112265010D01*
X130949989Y-112258794D01*
X130886876Y-112265010D01*
X130886867Y-112265010D01*
X130698086Y-112283603D01*
X130455863Y-112357081D01*
X130378330Y-112398523D01*
X129160000Y-111180194D01*
X129160000Y-106335000D01*
X144490000Y-106335000D01*
X144490000Y-107711447D01*
%TA.AperFunction,Conductor*%
D26*
G36*
X144490000Y-107711447D02*
G01*
X144486203Y-107750000D01*
X144490000Y-107788553D01*
X144490000Y-107788560D01*
X144501359Y-107903886D01*
X144542520Y-108039575D01*
X144548448Y-108099765D01*
X144577548Y-108195696D01*
X144624805Y-108284106D01*
X144688401Y-108361599D01*
X144765894Y-108425195D01*
X144854304Y-108472452D01*
X144901661Y-108486817D01*
X145042649Y-108627805D01*
X145067236Y-108657764D01*
X145186767Y-108755862D01*
X145294830Y-108813622D01*
X144525000Y-108813622D01*
X144511008Y-108815000D01*
X140675157Y-108815000D01*
X139760000Y-107899843D01*
X139760000Y-107788553D01*
X139763797Y-107750001D01*
X139760000Y-107711448D01*
X139760000Y-107711439D01*
X139748641Y-107596113D01*
X139707480Y-107460423D01*
X139701552Y-107400235D01*
X139672452Y-107304304D01*
X139625195Y-107215894D01*
X139561599Y-107138401D01*
X139484106Y-107074805D01*
X139395696Y-107027548D01*
X139299765Y-106998448D01*
X139200000Y-106988622D01*
X139169312Y-106988622D01*
X139128886Y-106976359D01*
X138975000Y-106961202D01*
X138821113Y-106976359D01*
X138780687Y-106988622D01*
X138750000Y-106988622D01*
X138650235Y-106998448D01*
X138554304Y-107027548D01*
X138465894Y-107074805D01*
X138416916Y-107115000D01*
X137632931Y-107115000D01*
X137630875Y-107094130D01*
X137614579Y-107040408D01*
X137588115Y-106990897D01*
X137552500Y-106947500D01*
X137509103Y-106911885D01*
X137459592Y-106885421D01*
X137405870Y-106869125D01*
X137350000Y-106863622D01*
X136650000Y-106863622D01*
X136594130Y-106869125D01*
X136540408Y-106885421D01*
X136490897Y-106911885D01*
X136447500Y-106947500D01*
X136411885Y-106990897D01*
X136385421Y-107040408D01*
X136369125Y-107094130D01*
X136363622Y-107150000D01*
X136363622Y-107438026D01*
X136344138Y-107461767D01*
X136271246Y-107598140D01*
X136226359Y-107746113D01*
X136211202Y-107900000D01*
X136226359Y-108053887D01*
X136271246Y-108201860D01*
X136344138Y-108338233D01*
X136363622Y-108361974D01*
X136363622Y-108650000D01*
X136369125Y-108705870D01*
X136385421Y-108759592D01*
X136411885Y-108809103D01*
X136447500Y-108852500D01*
X136490897Y-108888115D01*
X136540408Y-108914579D01*
X136594130Y-108930875D01*
X136650000Y-108936378D01*
X137350000Y-108936378D01*
X137405870Y-108930875D01*
X137459592Y-108914579D01*
X137509103Y-108888115D01*
X137552500Y-108852500D01*
X137588115Y-108809103D01*
X137614579Y-108759592D01*
X137630875Y-108705870D01*
X137632931Y-108685000D01*
X138337002Y-108685000D01*
X138367778Y-108722499D01*
X138390348Y-108750000D01*
X138417237Y-108782764D01*
X138447185Y-108807342D01*
X139767653Y-110127810D01*
X139792236Y-110157764D01*
X139911767Y-110255862D01*
X140048140Y-110328754D01*
X140196113Y-110373642D01*
X140271026Y-110381020D01*
X140311439Y-110385000D01*
X140311444Y-110385000D01*
X140350000Y-110388797D01*
X140388556Y-110385000D01*
X144511008Y-110385000D01*
X144525000Y-110386378D01*
X145475000Y-110386378D01*
X145488992Y-110385000D01*
X147597121Y-110385000D01*
X147597121Y-112050000D01*
X147602624Y-112105870D01*
X147618920Y-112159592D01*
X147645385Y-112209104D01*
X147680999Y-112252501D01*
X147724396Y-112288115D01*
X147773908Y-112314580D01*
X147827630Y-112330876D01*
X147883500Y-112336379D01*
X149616500Y-112336379D01*
X149672370Y-112330876D01*
X149726092Y-112314580D01*
X149775604Y-112288115D01*
X149819001Y-112252501D01*
X149854615Y-112209104D01*
X149881080Y-112159592D01*
X149897376Y-112105870D01*
X149902879Y-112050000D01*
X149902879Y-108925000D01*
X149897376Y-108869130D01*
X149881080Y-108815408D01*
X149854615Y-108765896D01*
X149819001Y-108722499D01*
X149775604Y-108686885D01*
X149726092Y-108660420D01*
X149672370Y-108644124D01*
X149616500Y-108638621D01*
X149535000Y-108638621D01*
X149535000Y-107565155D01*
X150765155Y-106335000D01*
X157975423Y-106335000D01*
X158061768Y-106405861D01*
X158198141Y-106478753D01*
X158346112Y-106523641D01*
X158499999Y-106538797D01*
X158653886Y-106523641D01*
X158801859Y-106478753D01*
X158938231Y-106405861D01*
X159024576Y-106335000D01*
X164665000Y-106335000D01*
X164665000Y-112802173D01*
X164661603Y-112799385D01*
X164612092Y-112772921D01*
X164558370Y-112756625D01*
X164502500Y-112751122D01*
X163512500Y-112751122D01*
X163456630Y-112756625D01*
X163402908Y-112772921D01*
X163353397Y-112799385D01*
X163310000Y-112835000D01*
X163274385Y-112878397D01*
X163247921Y-112927908D01*
X163231625Y-112981630D01*
X163226122Y-113037500D01*
X163226122Y-113442500D01*
X163231625Y-113498370D01*
X163247921Y-113552092D01*
X163274385Y-113601603D01*
X163310000Y-113645000D01*
X163353397Y-113680615D01*
X163402908Y-113707079D01*
X163456630Y-113723375D01*
X163512500Y-113728878D01*
X163597500Y-113728878D01*
X163597501Y-114284395D01*
X163529783Y-114320591D01*
X163456079Y-114381079D01*
X163395591Y-114454783D01*
X163350645Y-114538871D01*
X163322968Y-114630112D01*
X163313622Y-114725000D01*
X163313622Y-115275000D01*
X163322968Y-115369888D01*
X163350645Y-115461129D01*
X163395591Y-115545217D01*
X163456079Y-115618921D01*
X163529783Y-115679409D01*
X163613871Y-115724355D01*
X163705112Y-115752032D01*
X163800000Y-115761378D01*
X164200000Y-115761378D01*
X164294888Y-115752032D01*
X164386129Y-115724355D01*
X164470217Y-115679409D01*
X164543921Y-115618921D01*
X164604409Y-115545217D01*
X164649355Y-115461129D01*
X164665000Y-115409553D01*
X164665000Y-117090447D01*
X164649355Y-117038871D01*
X164604409Y-116954783D01*
X164543921Y-116881079D01*
X164470217Y-116820591D01*
X164386129Y-116775645D01*
X164294888Y-116747968D01*
X164200000Y-116738622D01*
X163800000Y-116738622D01*
X163705112Y-116747968D01*
X163613871Y-116775645D01*
X163529783Y-116820591D01*
X163456079Y-116881079D01*
X163395591Y-116954783D01*
X163350645Y-117038871D01*
X163322968Y-117130112D01*
X163313622Y-117225000D01*
X163313622Y-117775000D01*
X163322968Y-117869888D01*
X163350645Y-117961129D01*
X163395591Y-118045217D01*
X163456079Y-118118921D01*
X163529783Y-118179409D01*
X163580451Y-118206492D01*
X163563338Y-118217926D01*
X163500000Y-118281264D01*
X163436662Y-118217926D01*
X163324469Y-118142961D01*
X163199807Y-118091325D01*
X163067467Y-118065000D01*
X162938173Y-118065000D01*
X162954409Y-118045217D01*
X162999355Y-117961129D01*
X163027032Y-117869888D01*
X163036378Y-117775000D01*
X163036378Y-117225000D01*
X163027032Y-117130112D01*
X162999355Y-117038871D01*
X162954409Y-116954783D01*
X162893921Y-116881079D01*
X162820217Y-116820591D01*
X162736129Y-116775645D01*
X162644888Y-116747968D01*
X162550000Y-116738622D01*
X162150000Y-116738622D01*
X162055112Y-116747968D01*
X161963871Y-116775645D01*
X161879783Y-116820591D01*
X161806079Y-116881079D01*
X161745591Y-116954783D01*
X161700645Y-117038871D01*
X161672968Y-117130112D01*
X161663622Y-117225000D01*
X161663622Y-117775000D01*
X161672968Y-117869888D01*
X161700645Y-117961129D01*
X161745591Y-118045217D01*
X161806079Y-118118921D01*
X161879783Y-118179409D01*
X161958386Y-118221423D01*
X161967671Y-118252032D01*
X161969378Y-118257659D01*
X162007449Y-118328885D01*
X162030555Y-118357039D01*
X162058685Y-118391316D01*
X162074326Y-118404152D01*
X162321256Y-118651083D01*
X162315000Y-118682533D01*
X162315000Y-118817467D01*
X162341325Y-118949807D01*
X162392961Y-119074469D01*
X162467926Y-119186662D01*
X162563338Y-119282074D01*
X162675531Y-119357039D01*
X162800193Y-119408675D01*
X162932533Y-119435000D01*
X163067467Y-119435000D01*
X163199807Y-119408675D01*
X163324469Y-119357039D01*
X163436662Y-119282074D01*
X163500000Y-119218736D01*
X163563338Y-119282074D01*
X163675531Y-119357039D01*
X163800193Y-119408675D01*
X163932533Y-119435000D01*
X164067467Y-119435000D01*
X164199807Y-119408675D01*
X164324469Y-119357039D01*
X164436662Y-119282074D01*
X164532074Y-119186662D01*
X164607039Y-119074469D01*
X164658675Y-118949807D01*
X164665000Y-118918010D01*
X164665000Y-121802173D01*
X164661603Y-121799385D01*
X164612092Y-121772921D01*
X164558370Y-121756625D01*
X164502500Y-121751122D01*
X163512500Y-121751122D01*
X163456630Y-121756625D01*
X163402908Y-121772921D01*
X163353397Y-121799385D01*
X163310000Y-121835000D01*
X163274385Y-121878397D01*
X163247921Y-121927908D01*
X163231625Y-121981630D01*
X163226122Y-122037500D01*
X163226122Y-122442500D01*
X163231625Y-122498370D01*
X163247921Y-122552092D01*
X163274385Y-122601603D01*
X163310000Y-122645000D01*
X163353397Y-122680615D01*
X163368400Y-122688634D01*
X163313338Y-122725426D01*
X163217926Y-122820838D01*
X163142961Y-122933031D01*
X163091325Y-123057693D01*
X163065000Y-123190033D01*
X163065000Y-123324967D01*
X163091325Y-123457307D01*
X163142961Y-123581969D01*
X163217926Y-123694162D01*
X163313338Y-123789574D01*
X163425531Y-123864539D01*
X163547356Y-123915000D01*
X130684999Y-123915000D01*
X130684999Y-115632264D01*
X131482254Y-114835010D01*
X136433947Y-114835010D01*
X136497062Y-114841226D01*
X136560177Y-114835010D01*
X136560185Y-114835010D01*
X136748966Y-114816417D01*
X136991189Y-114742939D01*
X137024750Y-114725000D01*
X161663622Y-114725000D01*
X161663622Y-115275000D01*
X161672968Y-115369888D01*
X161700645Y-115461129D01*
X161745591Y-115545217D01*
X161806079Y-115618921D01*
X161879783Y-115679409D01*
X161909717Y-115695409D01*
X161866315Y-115800193D01*
X161839990Y-115932533D01*
X161839990Y-116067467D01*
X161866315Y-116199807D01*
X161917951Y-116324469D01*
X161992916Y-116436662D01*
X162088328Y-116532074D01*
X162200521Y-116607039D01*
X162325183Y-116658675D01*
X162457523Y-116685000D01*
X162592457Y-116685000D01*
X162724797Y-116658675D01*
X162849459Y-116607039D01*
X162961652Y-116532074D01*
X163057064Y-116436662D01*
X163132029Y-116324469D01*
X163183665Y-116199807D01*
X163209990Y-116067467D01*
X163209990Y-115932533D01*
X163183665Y-115800193D01*
X163132029Y-115675531D01*
X163057064Y-115563338D01*
X162983854Y-115490128D01*
X162999355Y-115461129D01*
X163027032Y-115369888D01*
X163036378Y-115275000D01*
X163036378Y-114725000D01*
X163027032Y-114630112D01*
X162999355Y-114538871D01*
X162954409Y-114454783D01*
X162893921Y-114381079D01*
X162820217Y-114320591D01*
X162736129Y-114275645D01*
X162644888Y-114247968D01*
X162550000Y-114238622D01*
X162150000Y-114238622D01*
X162055112Y-114247968D01*
X161963871Y-114275645D01*
X161879783Y-114320591D01*
X161806079Y-114381079D01*
X161745591Y-114454783D01*
X161700645Y-114538871D01*
X161672968Y-114630112D01*
X161663622Y-114725000D01*
X137024750Y-114725000D01*
X137214424Y-114623618D01*
X137410090Y-114463038D01*
X137450333Y-114414002D01*
X138564008Y-113300328D01*
X138613038Y-113260090D01*
X138771670Y-113066798D01*
X138891171Y-113002924D01*
X139010702Y-112904826D01*
X139035284Y-112874873D01*
X139148779Y-112761378D01*
X139300000Y-112761378D01*
X139404642Y-112751072D01*
X139505263Y-112720549D01*
X139597996Y-112670982D01*
X139679277Y-112604277D01*
X139745982Y-112522996D01*
X139795549Y-112430263D01*
X139826072Y-112329642D01*
X139836378Y-112225000D01*
X139836378Y-111774562D01*
X139838797Y-111750001D01*
X139836378Y-111725440D01*
X139836378Y-111275000D01*
X139826072Y-111170358D01*
X139795549Y-111069737D01*
X139745982Y-110977004D01*
X139679277Y-110895723D01*
X139597996Y-110829018D01*
X139505263Y-110779451D01*
X139404642Y-110748928D01*
X139300000Y-110738622D01*
X138800000Y-110738622D01*
X138695358Y-110748928D01*
X138670158Y-110756572D01*
X138613038Y-110686972D01*
X138417372Y-110526392D01*
X138194137Y-110407071D01*
X137951914Y-110333593D01*
X137700010Y-110308783D01*
X137448107Y-110333593D01*
X137205884Y-110407071D01*
X136982649Y-110526392D01*
X136937284Y-110563622D01*
X136650000Y-110563622D01*
X136594130Y-110569125D01*
X136540408Y-110585421D01*
X136490897Y-110611885D01*
X136447500Y-110647500D01*
X136411885Y-110690897D01*
X136385421Y-110740408D01*
X136369125Y-110794130D01*
X136363622Y-110850000D01*
X136363622Y-111866186D01*
X135964799Y-112265010D01*
X134636378Y-112265010D01*
X134636378Y-110850000D01*
X134630875Y-110794130D01*
X134614579Y-110740408D01*
X134588115Y-110690897D01*
X134552500Y-110647500D01*
X134509103Y-110611885D01*
X134459592Y-110585421D01*
X134405870Y-110569125D01*
X134350000Y-110563622D01*
X133734999Y-110563622D01*
X133734999Y-108936378D01*
X134350000Y-108936378D01*
X134405870Y-108930875D01*
X134459592Y-108914579D01*
X134509103Y-108888115D01*
X134552500Y-108852500D01*
X134588115Y-108809103D01*
X134614579Y-108759592D01*
X134630875Y-108705870D01*
X134636378Y-108650000D01*
X134636378Y-107150000D01*
X134630875Y-107094130D01*
X134614579Y-107040408D01*
X134588115Y-106990897D01*
X134552500Y-106947500D01*
X134509103Y-106911885D01*
X134459592Y-106885421D01*
X134405870Y-106869125D01*
X134350000Y-106863622D01*
X133650000Y-106863622D01*
X133594130Y-106869125D01*
X133540408Y-106885421D01*
X133490897Y-106911885D01*
X133447500Y-106947500D01*
X133411885Y-106990897D01*
X133385421Y-107040408D01*
X133369125Y-107094130D01*
X133363622Y-107150000D01*
X133363622Y-107956552D01*
X133049330Y-108270844D01*
X133033683Y-108283685D01*
X132999654Y-108325151D01*
X132982448Y-108346116D01*
X132965589Y-108377657D01*
X132944376Y-108417343D01*
X132920932Y-108494628D01*
X132916582Y-108538798D01*
X132913016Y-108575001D01*
X132914999Y-108595132D01*
X132915000Y-112265010D01*
X131013102Y-112265010D01*
X130949989Y-112258794D01*
X130886876Y-112265010D01*
X130886867Y-112265010D01*
X130698086Y-112283603D01*
X130455863Y-112357081D01*
X130378330Y-112398523D01*
X129160000Y-111180194D01*
X129160000Y-106335000D01*
X144490000Y-106335000D01*
X144490000Y-107711447D01*
G37*
%TD.AperFunction*%
%TD*%
D27*
%TO.N,/PowerHeater1*%
X202415000Y-118165000D02*
X197154005Y-118165000D01*
X197103933Y-118114928D01*
X197382129Y-117976915D01*
X197541355Y-117639732D01*
X197631741Y-117277963D01*
X197649811Y-116905513D01*
X197594873Y-116536693D01*
X197469038Y-116185678D01*
X197382129Y-116023085D01*
X197103931Y-115885071D01*
X195989002Y-117000000D01*
X196003145Y-117014143D01*
X195764143Y-117253145D01*
X195750000Y-117239002D01*
X195735858Y-117253145D01*
X195496856Y-117014143D01*
X195510998Y-117000000D01*
X194396069Y-115885071D01*
X194117871Y-116023085D01*
X193958645Y-116360268D01*
X193868259Y-116722037D01*
X193850189Y-117094487D01*
X193905127Y-117463307D01*
X194030962Y-117814322D01*
X194117871Y-117976915D01*
X194396067Y-118114928D01*
X194345995Y-118165000D01*
X169296548Y-118165000D01*
X169357039Y-118074469D01*
X169408675Y-117949807D01*
X169435000Y-117817467D01*
X169435000Y-117682533D01*
X169408675Y-117550193D01*
X169357039Y-117425531D01*
X169282074Y-117313338D01*
X169186662Y-117217926D01*
X169074469Y-117142961D01*
X168949807Y-117091325D01*
X168817467Y-117065000D01*
X168682533Y-117065000D01*
X168550193Y-117091325D01*
X168425531Y-117142961D01*
X168313338Y-117217926D01*
X168279514Y-117251750D01*
X168254409Y-117204783D01*
X168193921Y-117131079D01*
X168120217Y-117070591D01*
X168036129Y-117025645D01*
X167944888Y-116997968D01*
X167850000Y-116988622D01*
X167450000Y-116988622D01*
X167355112Y-116997968D01*
X167263871Y-117025645D01*
X167179783Y-117070591D01*
X167106079Y-117131079D01*
X167045591Y-117204783D01*
X167000645Y-117288871D01*
X166972968Y-117380112D01*
X166963622Y-117475000D01*
X166963622Y-118025000D01*
X166972968Y-118119888D01*
X166986652Y-118165000D01*
X166663348Y-118165000D01*
X166677032Y-118119888D01*
X166686378Y-118025000D01*
X166686378Y-117475000D01*
X166677032Y-117380112D01*
X166649355Y-117288871D01*
X166604409Y-117204783D01*
X166543921Y-117131079D01*
X166470217Y-117070591D01*
X166386129Y-117025645D01*
X166294888Y-116997968D01*
X166200000Y-116988622D01*
X165800000Y-116988622D01*
X165705112Y-116997968D01*
X165613871Y-117025645D01*
X165529783Y-117070591D01*
X165486167Y-117106386D01*
X165449807Y-117091325D01*
X165335000Y-117068488D01*
X165335000Y-115646069D01*
X194635071Y-115646069D01*
X195750000Y-116760998D01*
X196864929Y-115646069D01*
X196726915Y-115367871D01*
X196389732Y-115208645D01*
X196027963Y-115118259D01*
X195655513Y-115100189D01*
X195286693Y-115155127D01*
X194935678Y-115280962D01*
X194773085Y-115367871D01*
X194635071Y-115646069D01*
X165335000Y-115646069D01*
X165335000Y-113963369D01*
X166324337Y-113963369D01*
X166384471Y-113995511D01*
X166496252Y-114029420D01*
X166612500Y-114040869D01*
X167372500Y-114040869D01*
X167488748Y-114029420D01*
X167600529Y-113995511D01*
X167703547Y-113940447D01*
X167793843Y-113866343D01*
X167867947Y-113776047D01*
X167923011Y-113673029D01*
X167956920Y-113561248D01*
X167968369Y-113445000D01*
X167968369Y-113037500D01*
X167956920Y-112921252D01*
X167953507Y-112910000D01*
X167956920Y-112898748D01*
X167968369Y-112782500D01*
X167968369Y-112377500D01*
X167956920Y-112261252D01*
X167953507Y-112250000D01*
X167956920Y-112238748D01*
X167968369Y-112122500D01*
X167968369Y-111717500D01*
X167956920Y-111601252D01*
X167953507Y-111590000D01*
X167956920Y-111578748D01*
X167968369Y-111462500D01*
X167968369Y-111055000D01*
X167956920Y-110938752D01*
X167923011Y-110826971D01*
X167867947Y-110723953D01*
X167793843Y-110633657D01*
X167703547Y-110559553D01*
X167600529Y-110504489D01*
X167488748Y-110470580D01*
X167372500Y-110459131D01*
X166612500Y-110459131D01*
X166496252Y-110470580D01*
X166384471Y-110504489D01*
X166324337Y-110536631D01*
X165335000Y-110536631D01*
X165335000Y-108285000D01*
X167750000Y-108285000D01*
X167805601Y-108279524D01*
X167859065Y-108263306D01*
X167908338Y-108236969D01*
X167951525Y-108201525D01*
X167986969Y-108158338D01*
X168013306Y-108109065D01*
X168029524Y-108055601D01*
X168035000Y-108000000D01*
X168035000Y-106335000D01*
X202415000Y-106335000D01*
X202415000Y-118165000D01*
%TA.AperFunction,Conductor*%
D26*
G36*
X202415000Y-118165000D02*
G01*
X197154005Y-118165000D01*
X197103933Y-118114928D01*
X197382129Y-117976915D01*
X197541355Y-117639732D01*
X197631741Y-117277963D01*
X197649811Y-116905513D01*
X197594873Y-116536693D01*
X197469038Y-116185678D01*
X197382129Y-116023085D01*
X197103931Y-115885071D01*
X195989002Y-117000000D01*
X196003145Y-117014143D01*
X195764143Y-117253145D01*
X195750000Y-117239002D01*
X195735858Y-117253145D01*
X195496856Y-117014143D01*
X195510998Y-117000000D01*
X194396069Y-115885071D01*
X194117871Y-116023085D01*
X193958645Y-116360268D01*
X193868259Y-116722037D01*
X193850189Y-117094487D01*
X193905127Y-117463307D01*
X194030962Y-117814322D01*
X194117871Y-117976915D01*
X194396067Y-118114928D01*
X194345995Y-118165000D01*
X169296548Y-118165000D01*
X169357039Y-118074469D01*
X169408675Y-117949807D01*
X169435000Y-117817467D01*
X169435000Y-117682533D01*
X169408675Y-117550193D01*
X169357039Y-117425531D01*
X169282074Y-117313338D01*
X169186662Y-117217926D01*
X169074469Y-117142961D01*
X168949807Y-117091325D01*
X168817467Y-117065000D01*
X168682533Y-117065000D01*
X168550193Y-117091325D01*
X168425531Y-117142961D01*
X168313338Y-117217926D01*
X168279514Y-117251750D01*
X168254409Y-117204783D01*
X168193921Y-117131079D01*
X168120217Y-117070591D01*
X168036129Y-117025645D01*
X167944888Y-116997968D01*
X167850000Y-116988622D01*
X167450000Y-116988622D01*
X167355112Y-116997968D01*
X167263871Y-117025645D01*
X167179783Y-117070591D01*
X167106079Y-117131079D01*
X167045591Y-117204783D01*
X167000645Y-117288871D01*
X166972968Y-117380112D01*
X166963622Y-117475000D01*
X166963622Y-118025000D01*
X166972968Y-118119888D01*
X166986652Y-118165000D01*
X166663348Y-118165000D01*
X166677032Y-118119888D01*
X166686378Y-118025000D01*
X166686378Y-117475000D01*
X166677032Y-117380112D01*
X166649355Y-117288871D01*
X166604409Y-117204783D01*
X166543921Y-117131079D01*
X166470217Y-117070591D01*
X166386129Y-117025645D01*
X166294888Y-116997968D01*
X166200000Y-116988622D01*
X165800000Y-116988622D01*
X165705112Y-116997968D01*
X165613871Y-117025645D01*
X165529783Y-117070591D01*
X165486167Y-117106386D01*
X165449807Y-117091325D01*
X165335000Y-117068488D01*
X165335000Y-115646069D01*
X194635071Y-115646069D01*
X195750000Y-116760998D01*
X196864929Y-115646069D01*
X196726915Y-115367871D01*
X196389732Y-115208645D01*
X196027963Y-115118259D01*
X195655513Y-115100189D01*
X195286693Y-115155127D01*
X194935678Y-115280962D01*
X194773085Y-115367871D01*
X194635071Y-115646069D01*
X165335000Y-115646069D01*
X165335000Y-113963369D01*
X166324337Y-113963369D01*
X166384471Y-113995511D01*
X166496252Y-114029420D01*
X166612500Y-114040869D01*
X167372500Y-114040869D01*
X167488748Y-114029420D01*
X167600529Y-113995511D01*
X167703547Y-113940447D01*
X167793843Y-113866343D01*
X167867947Y-113776047D01*
X167923011Y-113673029D01*
X167956920Y-113561248D01*
X167968369Y-113445000D01*
X167968369Y-113037500D01*
X167956920Y-112921252D01*
X167953507Y-112910000D01*
X167956920Y-112898748D01*
X167968369Y-112782500D01*
X167968369Y-112377500D01*
X167956920Y-112261252D01*
X167953507Y-112250000D01*
X167956920Y-112238748D01*
X167968369Y-112122500D01*
X167968369Y-111717500D01*
X167956920Y-111601252D01*
X167953507Y-111590000D01*
X167956920Y-111578748D01*
X167968369Y-111462500D01*
X167968369Y-111055000D01*
X167956920Y-110938752D01*
X167923011Y-110826971D01*
X167867947Y-110723953D01*
X167793843Y-110633657D01*
X167703547Y-110559553D01*
X167600529Y-110504489D01*
X167488748Y-110470580D01*
X167372500Y-110459131D01*
X166612500Y-110459131D01*
X166496252Y-110470580D01*
X166384471Y-110504489D01*
X166324337Y-110536631D01*
X165335000Y-110536631D01*
X165335000Y-108285000D01*
X167750000Y-108285000D01*
X167805601Y-108279524D01*
X167859065Y-108263306D01*
X167908338Y-108236969D01*
X167951525Y-108201525D01*
X167986969Y-108158338D01*
X168013306Y-108109065D01*
X168029524Y-108055601D01*
X168035000Y-108000000D01*
X168035000Y-106335000D01*
X202415000Y-106335000D01*
X202415000Y-118165000D01*
G37*
%TD.AperFunction*%
%TD*%
D27*
%TO.N,/PowerHeater2*%
X202415000Y-124165000D02*
X198695157Y-124165000D01*
X201277817Y-121582341D01*
X201307764Y-121557764D01*
X201405862Y-121438233D01*
X201478754Y-121301860D01*
X201523641Y-121153887D01*
X201535000Y-121038561D01*
X201535000Y-121038554D01*
X201538797Y-121000001D01*
X201535000Y-120961448D01*
X201535000Y-120711444D01*
X201523641Y-120596118D01*
X201478754Y-120448144D01*
X201405862Y-120311771D01*
X201307764Y-120192240D01*
X201188233Y-120094142D01*
X201051860Y-120021250D01*
X200903887Y-119976363D01*
X200750000Y-119961206D01*
X200596114Y-119976363D01*
X200448141Y-120021250D01*
X200311768Y-120094142D01*
X200192236Y-120192240D01*
X200094138Y-120311771D01*
X200021246Y-120448144D01*
X199976359Y-120596117D01*
X199968999Y-120670843D01*
X197174843Y-123465000D01*
X196809828Y-123465000D01*
X196864929Y-123353931D01*
X195750000Y-122239002D01*
X194635071Y-123353931D01*
X194690172Y-123465000D01*
X193788552Y-123465000D01*
X193749999Y-123461203D01*
X193711446Y-123465000D01*
X193711439Y-123465000D01*
X193610490Y-123474943D01*
X193596112Y-123476359D01*
X193561672Y-123486806D01*
X193448140Y-123521246D01*
X193311767Y-123594138D01*
X193265476Y-123632129D01*
X193222187Y-123667655D01*
X193222184Y-123667658D01*
X193192236Y-123692236D01*
X193167657Y-123722185D01*
X192820326Y-124069516D01*
X192701904Y-124033593D01*
X192513123Y-124015000D01*
X183786378Y-124015000D01*
X183786378Y-123350000D01*
X183776072Y-123245358D01*
X183745549Y-123144737D01*
X183695982Y-123052004D01*
X183629277Y-122970723D01*
X183547996Y-122904018D01*
X183455263Y-122854451D01*
X183354642Y-122823928D01*
X183250000Y-122813622D01*
X181250000Y-122813622D01*
X181145358Y-122823928D01*
X181044737Y-122854451D01*
X180952004Y-122904018D01*
X180870723Y-122970723D01*
X180804018Y-123052004D01*
X180754451Y-123144737D01*
X180723928Y-123245358D01*
X180713622Y-123350000D01*
X180713622Y-124015000D01*
X172536378Y-124015000D01*
X172536378Y-123350000D01*
X172526072Y-123245358D01*
X172495549Y-123144737D01*
X172445982Y-123052004D01*
X172379277Y-122970723D01*
X172297996Y-122904018D01*
X172205263Y-122854451D01*
X172104642Y-122823928D01*
X172000000Y-122813622D01*
X170000000Y-122813622D01*
X169895358Y-122823928D01*
X169794737Y-122854451D01*
X169702004Y-122904018D01*
X169620723Y-122970723D01*
X169554018Y-123052004D01*
X169504451Y-123144737D01*
X169473928Y-123245358D01*
X169463622Y-123350000D01*
X169463622Y-124015000D01*
X165335000Y-124015000D01*
X165335000Y-122963369D01*
X166324337Y-122963369D01*
X166384471Y-122995511D01*
X166496252Y-123029420D01*
X166612500Y-123040869D01*
X167372500Y-123040869D01*
X167488748Y-123029420D01*
X167600529Y-122995511D01*
X167703547Y-122940447D01*
X167793843Y-122866343D01*
X167867947Y-122776047D01*
X167923011Y-122673029D01*
X167956920Y-122561248D01*
X167968369Y-122445000D01*
X167968369Y-122094487D01*
X193850189Y-122094487D01*
X193905127Y-122463307D01*
X194030962Y-122814322D01*
X194117871Y-122976915D01*
X194396069Y-123114929D01*
X195510998Y-122000000D01*
X195989002Y-122000000D01*
X197103931Y-123114929D01*
X197382129Y-122976915D01*
X197541355Y-122639732D01*
X197631741Y-122277963D01*
X197649811Y-121905513D01*
X197594873Y-121536693D01*
X197469038Y-121185678D01*
X197382129Y-121023085D01*
X197103931Y-120885071D01*
X195989002Y-122000000D01*
X195510998Y-122000000D01*
X194396069Y-120885071D01*
X194117871Y-121023085D01*
X193958645Y-121360268D01*
X193868259Y-121722037D01*
X193850189Y-122094487D01*
X167968369Y-122094487D01*
X167968369Y-122037500D01*
X167956920Y-121921252D01*
X167953507Y-121910000D01*
X167956920Y-121898748D01*
X167968369Y-121782500D01*
X167968369Y-121377500D01*
X167956920Y-121261252D01*
X167953507Y-121250000D01*
X167956920Y-121238748D01*
X167968369Y-121122500D01*
X167968369Y-120717500D01*
X167961334Y-120646069D01*
X194635071Y-120646069D01*
X195750000Y-121760998D01*
X196864929Y-120646069D01*
X196726915Y-120367871D01*
X196389732Y-120208645D01*
X196027963Y-120118259D01*
X195655513Y-120100189D01*
X195286693Y-120155127D01*
X194935678Y-120280962D01*
X194773085Y-120367871D01*
X194635071Y-120646069D01*
X167961334Y-120646069D01*
X167956920Y-120601252D01*
X167953507Y-120590000D01*
X167956920Y-120578748D01*
X167968369Y-120462500D01*
X167968369Y-120055000D01*
X167956920Y-119938752D01*
X167923011Y-119826971D01*
X167867947Y-119723953D01*
X167793843Y-119633657D01*
X167703547Y-119559553D01*
X167600529Y-119504489D01*
X167488748Y-119470580D01*
X167372500Y-119459131D01*
X166612500Y-119459131D01*
X166496252Y-119470580D01*
X166384471Y-119504489D01*
X166324337Y-119536631D01*
X165335000Y-119536631D01*
X165335000Y-118585000D01*
X202415000Y-118585000D01*
X202415000Y-124165000D01*
%TA.AperFunction,Conductor*%
D26*
G36*
X202415000Y-124165000D02*
G01*
X198695157Y-124165000D01*
X201277817Y-121582341D01*
X201307764Y-121557764D01*
X201405862Y-121438233D01*
X201478754Y-121301860D01*
X201523641Y-121153887D01*
X201535000Y-121038561D01*
X201535000Y-121038554D01*
X201538797Y-121000001D01*
X201535000Y-120961448D01*
X201535000Y-120711444D01*
X201523641Y-120596118D01*
X201478754Y-120448144D01*
X201405862Y-120311771D01*
X201307764Y-120192240D01*
X201188233Y-120094142D01*
X201051860Y-120021250D01*
X200903887Y-119976363D01*
X200750000Y-119961206D01*
X200596114Y-119976363D01*
X200448141Y-120021250D01*
X200311768Y-120094142D01*
X200192236Y-120192240D01*
X200094138Y-120311771D01*
X200021246Y-120448144D01*
X199976359Y-120596117D01*
X199968999Y-120670843D01*
X197174843Y-123465000D01*
X196809828Y-123465000D01*
X196864929Y-123353931D01*
X195750000Y-122239002D01*
X194635071Y-123353931D01*
X194690172Y-123465000D01*
X193788552Y-123465000D01*
X193749999Y-123461203D01*
X193711446Y-123465000D01*
X193711439Y-123465000D01*
X193610490Y-123474943D01*
X193596112Y-123476359D01*
X193561672Y-123486806D01*
X193448140Y-123521246D01*
X193311767Y-123594138D01*
X193265476Y-123632129D01*
X193222187Y-123667655D01*
X193222184Y-123667658D01*
X193192236Y-123692236D01*
X193167657Y-123722185D01*
X192820326Y-124069516D01*
X192701904Y-124033593D01*
X192513123Y-124015000D01*
X183786378Y-124015000D01*
X183786378Y-123350000D01*
X183776072Y-123245358D01*
X183745549Y-123144737D01*
X183695982Y-123052004D01*
X183629277Y-122970723D01*
X183547996Y-122904018D01*
X183455263Y-122854451D01*
X183354642Y-122823928D01*
X183250000Y-122813622D01*
X181250000Y-122813622D01*
X181145358Y-122823928D01*
X181044737Y-122854451D01*
X180952004Y-122904018D01*
X180870723Y-122970723D01*
X180804018Y-123052004D01*
X180754451Y-123144737D01*
X180723928Y-123245358D01*
X180713622Y-123350000D01*
X180713622Y-124015000D01*
X172536378Y-124015000D01*
X172536378Y-123350000D01*
X172526072Y-123245358D01*
X172495549Y-123144737D01*
X172445982Y-123052004D01*
X172379277Y-122970723D01*
X172297996Y-122904018D01*
X172205263Y-122854451D01*
X172104642Y-122823928D01*
X172000000Y-122813622D01*
X170000000Y-122813622D01*
X169895358Y-122823928D01*
X169794737Y-122854451D01*
X169702004Y-122904018D01*
X169620723Y-122970723D01*
X169554018Y-123052004D01*
X169504451Y-123144737D01*
X169473928Y-123245358D01*
X169463622Y-123350000D01*
X169463622Y-124015000D01*
X165335000Y-124015000D01*
X165335000Y-122963369D01*
X166324337Y-122963369D01*
X166384471Y-122995511D01*
X166496252Y-123029420D01*
X166612500Y-123040869D01*
X167372500Y-123040869D01*
X167488748Y-123029420D01*
X167600529Y-122995511D01*
X167703547Y-122940447D01*
X167793843Y-122866343D01*
X167867947Y-122776047D01*
X167923011Y-122673029D01*
X167956920Y-122561248D01*
X167968369Y-122445000D01*
X167968369Y-122094487D01*
X193850189Y-122094487D01*
X193905127Y-122463307D01*
X194030962Y-122814322D01*
X194117871Y-122976915D01*
X194396069Y-123114929D01*
X195510998Y-122000000D01*
X195989002Y-122000000D01*
X197103931Y-123114929D01*
X197382129Y-122976915D01*
X197541355Y-122639732D01*
X197631741Y-122277963D01*
X197649811Y-121905513D01*
X197594873Y-121536693D01*
X197469038Y-121185678D01*
X197382129Y-121023085D01*
X197103931Y-120885071D01*
X195989002Y-122000000D01*
X195510998Y-122000000D01*
X194396069Y-120885071D01*
X194117871Y-121023085D01*
X193958645Y-121360268D01*
X193868259Y-121722037D01*
X193850189Y-122094487D01*
X167968369Y-122094487D01*
X167968369Y-122037500D01*
X167956920Y-121921252D01*
X167953507Y-121910000D01*
X167956920Y-121898748D01*
X167968369Y-121782500D01*
X167968369Y-121377500D01*
X167956920Y-121261252D01*
X167953507Y-121250000D01*
X167956920Y-121238748D01*
X167968369Y-121122500D01*
X167968369Y-120717500D01*
X167961334Y-120646069D01*
X194635071Y-120646069D01*
X195750000Y-121760998D01*
X196864929Y-120646069D01*
X196726915Y-120367871D01*
X196389732Y-120208645D01*
X196027963Y-120118259D01*
X195655513Y-120100189D01*
X195286693Y-120155127D01*
X194935678Y-120280962D01*
X194773085Y-120367871D01*
X194635071Y-120646069D01*
X167961334Y-120646069D01*
X167956920Y-120601252D01*
X167953507Y-120590000D01*
X167956920Y-120578748D01*
X167968369Y-120462500D01*
X167968369Y-120055000D01*
X167956920Y-119938752D01*
X167923011Y-119826971D01*
X167867947Y-119723953D01*
X167793843Y-119633657D01*
X167703547Y-119559553D01*
X167600529Y-119504489D01*
X167488748Y-119470580D01*
X167372500Y-119459131D01*
X166612500Y-119459131D01*
X166496252Y-119470580D01*
X166384471Y-119504489D01*
X166324337Y-119536631D01*
X165335000Y-119536631D01*
X165335000Y-118585000D01*
X202415000Y-118585000D01*
X202415000Y-124165000D01*
G37*
%TD.AperFunction*%
%TD*%
D27*
%TO.N,GND*%
X165242561Y-96337165D02*
X165176434Y-96391434D01*
X165122165Y-96457561D01*
X165081839Y-96533005D01*
X165057007Y-96614867D01*
X165048622Y-96700000D01*
X165048622Y-98350000D01*
X165057007Y-98435133D01*
X165081839Y-98516995D01*
X165122165Y-98592439D01*
X165176434Y-98658566D01*
X165242561Y-98712835D01*
X165318005Y-98753161D01*
X165399867Y-98777993D01*
X165485000Y-98786378D01*
X165785000Y-98786378D01*
X165870133Y-98777993D01*
X165951995Y-98753161D01*
X166027439Y-98712835D01*
X166093566Y-98658566D01*
X166147835Y-98592439D01*
X166188161Y-98516995D01*
X166212993Y-98435133D01*
X166221378Y-98350000D01*
X166221378Y-96700000D01*
X166212993Y-96614867D01*
X166198323Y-96566504D01*
X166354828Y-96410000D01*
X166379869Y-96410000D01*
X166400000Y-96411983D01*
X166420131Y-96410000D01*
X166420134Y-96410000D01*
X166432170Y-96408815D01*
X166392165Y-96457561D01*
X166351839Y-96533005D01*
X166327007Y-96614867D01*
X166318622Y-96700000D01*
X166318622Y-98350000D01*
X166327007Y-98435133D01*
X166351839Y-98516995D01*
X166392165Y-98592439D01*
X166446434Y-98658566D01*
X166512561Y-98712835D01*
X166588005Y-98753161D01*
X166669867Y-98777993D01*
X166755000Y-98786378D01*
X167055000Y-98786378D01*
X167140133Y-98777993D01*
X167221995Y-98753161D01*
X167297439Y-98712835D01*
X167363566Y-98658566D01*
X167417835Y-98592439D01*
X167458161Y-98516995D01*
X167482993Y-98435133D01*
X167491378Y-98350000D01*
X167491378Y-96700000D01*
X167482993Y-96614867D01*
X167458161Y-96533005D01*
X167417835Y-96457561D01*
X167363566Y-96391434D01*
X167297439Y-96337165D01*
X167293389Y-96335000D01*
X167665000Y-96335000D01*
X167665000Y-103840000D01*
X166299891Y-103840000D01*
X166282076Y-103813338D01*
X166186664Y-103717926D01*
X166074471Y-103642961D01*
X166059308Y-103636681D01*
X166093566Y-103608566D01*
X166147835Y-103542439D01*
X166188161Y-103466995D01*
X166212993Y-103385133D01*
X166221378Y-103300000D01*
X166221378Y-101650000D01*
X166318622Y-101650000D01*
X166318622Y-103300000D01*
X166327007Y-103385133D01*
X166351839Y-103466995D01*
X166392165Y-103542439D01*
X166446434Y-103608566D01*
X166512561Y-103662835D01*
X166588005Y-103703161D01*
X166669867Y-103727993D01*
X166755000Y-103736378D01*
X167055000Y-103736378D01*
X167140133Y-103727993D01*
X167221995Y-103703161D01*
X167297439Y-103662835D01*
X167363566Y-103608566D01*
X167417835Y-103542439D01*
X167458161Y-103466995D01*
X167482993Y-103385133D01*
X167491378Y-103300000D01*
X167491378Y-101650000D01*
X167482993Y-101564867D01*
X167458161Y-101483005D01*
X167417835Y-101407561D01*
X167363566Y-101341434D01*
X167297439Y-101287165D01*
X167221995Y-101246839D01*
X167140133Y-101222007D01*
X167055000Y-101213622D01*
X166755000Y-101213622D01*
X166669867Y-101222007D01*
X166588005Y-101246839D01*
X166512561Y-101287165D01*
X166446434Y-101341434D01*
X166392165Y-101407561D01*
X166351839Y-101483005D01*
X166327007Y-101564867D01*
X166318622Y-101650000D01*
X166221378Y-101650000D01*
X166212993Y-101564867D01*
X166188161Y-101483005D01*
X166147835Y-101407561D01*
X166093566Y-101341434D01*
X166027439Y-101287165D01*
X165951995Y-101246839D01*
X165870133Y-101222007D01*
X165785000Y-101213622D01*
X165485000Y-101213622D01*
X165399867Y-101222007D01*
X165318005Y-101246839D01*
X165242561Y-101287165D01*
X165176434Y-101341434D01*
X165122165Y-101407561D01*
X165081839Y-101483005D01*
X165057007Y-101564867D01*
X165048622Y-101650000D01*
X165048622Y-103300000D01*
X165057007Y-103385133D01*
X165081839Y-103466995D01*
X165122165Y-103542439D01*
X165176434Y-103608566D01*
X165225001Y-103648424D01*
X165225001Y-103806265D01*
X165217928Y-103813338D01*
X165142963Y-103925531D01*
X165091327Y-104050193D01*
X165065002Y-104182533D01*
X165065002Y-104317467D01*
X165091327Y-104449807D01*
X165142963Y-104574469D01*
X165217928Y-104686662D01*
X165313340Y-104782074D01*
X165425533Y-104857039D01*
X165550195Y-104908675D01*
X165682535Y-104935000D01*
X165817469Y-104935000D01*
X165949809Y-104908675D01*
X166074471Y-104857039D01*
X166186664Y-104782074D01*
X166282076Y-104686662D01*
X166299891Y-104660000D01*
X167665000Y-104660000D01*
X167665000Y-107915000D01*
X167357453Y-107915000D01*
X167324469Y-107892961D01*
X167199807Y-107841325D01*
X167067467Y-107815000D01*
X166932533Y-107815000D01*
X166800193Y-107841325D01*
X166675531Y-107892961D01*
X166642547Y-107915000D01*
X166357453Y-107915000D01*
X166324469Y-107892961D01*
X166199807Y-107841325D01*
X166067467Y-107815000D01*
X165932533Y-107815000D01*
X165800193Y-107841325D01*
X165675531Y-107892961D01*
X165642547Y-107915000D01*
X164835000Y-107915000D01*
X164835000Y-106250000D01*
X164833367Y-106233417D01*
X164828530Y-106217472D01*
X164820675Y-106202777D01*
X164810104Y-106189896D01*
X164797223Y-106179325D01*
X164782528Y-106171470D01*
X164766583Y-106166633D01*
X164750000Y-106165000D01*
X162335000Y-106165000D01*
X162335000Y-104410000D01*
X162450111Y-104410000D01*
X162467926Y-104436662D01*
X162563338Y-104532074D01*
X162675531Y-104607039D01*
X162800193Y-104658675D01*
X162932533Y-104685000D01*
X163067467Y-104685000D01*
X163199807Y-104658675D01*
X163324469Y-104607039D01*
X163436662Y-104532074D01*
X163532074Y-104436662D01*
X163607039Y-104324469D01*
X163625000Y-104281107D01*
X163642961Y-104324469D01*
X163717926Y-104436662D01*
X163813338Y-104532074D01*
X163925531Y-104607039D01*
X164050193Y-104658675D01*
X164182533Y-104685000D01*
X164317467Y-104685000D01*
X164449807Y-104658675D01*
X164574469Y-104607039D01*
X164686662Y-104532074D01*
X164782074Y-104436662D01*
X164857039Y-104324469D01*
X164908675Y-104199807D01*
X164935000Y-104067467D01*
X164935000Y-103932533D01*
X164908675Y-103800193D01*
X164857039Y-103675531D01*
X164816286Y-103614540D01*
X164823566Y-103608566D01*
X164877835Y-103542439D01*
X164918161Y-103466995D01*
X164942993Y-103385133D01*
X164951378Y-103300000D01*
X164951378Y-101650000D01*
X164942993Y-101564867D01*
X164918161Y-101483005D01*
X164877835Y-101407561D01*
X164823566Y-101341434D01*
X164757439Y-101287165D01*
X164681995Y-101246839D01*
X164600133Y-101222007D01*
X164515000Y-101213622D01*
X164215000Y-101213622D01*
X164129867Y-101222007D01*
X164048005Y-101246839D01*
X163972561Y-101287165D01*
X163906434Y-101341434D01*
X163852165Y-101407561D01*
X163811839Y-101483005D01*
X163787007Y-101564867D01*
X163778622Y-101650000D01*
X163778622Y-103300000D01*
X163787007Y-103385133D01*
X163811839Y-103466995D01*
X163812685Y-103468579D01*
X163717926Y-103563338D01*
X163642961Y-103675531D01*
X163625000Y-103718893D01*
X163607039Y-103675531D01*
X163558377Y-103602704D01*
X163607835Y-103542439D01*
X163648161Y-103466995D01*
X163672993Y-103385133D01*
X163681378Y-103300000D01*
X163681378Y-101650000D01*
X163672993Y-101564867D01*
X163648161Y-101483005D01*
X163607835Y-101407561D01*
X163553566Y-101341434D01*
X163487439Y-101287165D01*
X163411995Y-101246839D01*
X163330133Y-101222007D01*
X163245000Y-101213622D01*
X162945000Y-101213622D01*
X162859867Y-101222007D01*
X162778005Y-101246839D01*
X162702561Y-101287165D01*
X162636434Y-101341434D01*
X162582165Y-101407561D01*
X162541839Y-101483005D01*
X162517007Y-101564867D01*
X162508622Y-101650000D01*
X162508622Y-103300000D01*
X162517007Y-103385133D01*
X162541839Y-103466995D01*
X162549652Y-103481612D01*
X162467926Y-103563338D01*
X162450111Y-103590000D01*
X162335000Y-103590000D01*
X162335000Y-97344827D01*
X162508622Y-97518449D01*
X162508622Y-98350000D01*
X162517007Y-98435133D01*
X162541839Y-98516995D01*
X162582165Y-98592439D01*
X162636434Y-98658566D01*
X162702561Y-98712835D01*
X162778005Y-98753161D01*
X162859867Y-98777993D01*
X162945000Y-98786378D01*
X163245000Y-98786378D01*
X163330133Y-98777993D01*
X163411995Y-98753161D01*
X163487439Y-98712835D01*
X163553566Y-98658566D01*
X163607835Y-98592439D01*
X163648161Y-98516995D01*
X163672993Y-98435133D01*
X163681378Y-98350000D01*
X163681378Y-96700000D01*
X163672993Y-96614867D01*
X163648161Y-96533005D01*
X163607835Y-96457561D01*
X163553566Y-96391434D01*
X163487439Y-96337165D01*
X163483389Y-96335000D01*
X165246611Y-96335000D01*
X165242561Y-96337165D01*
%TA.AperFunction,Conductor*%
D26*
G36*
X165242561Y-96337165D02*
G01*
X165176434Y-96391434D01*
X165122165Y-96457561D01*
X165081839Y-96533005D01*
X165057007Y-96614867D01*
X165048622Y-96700000D01*
X165048622Y-98350000D01*
X165057007Y-98435133D01*
X165081839Y-98516995D01*
X165122165Y-98592439D01*
X165176434Y-98658566D01*
X165242561Y-98712835D01*
X165318005Y-98753161D01*
X165399867Y-98777993D01*
X165485000Y-98786378D01*
X165785000Y-98786378D01*
X165870133Y-98777993D01*
X165951995Y-98753161D01*
X166027439Y-98712835D01*
X166093566Y-98658566D01*
X166147835Y-98592439D01*
X166188161Y-98516995D01*
X166212993Y-98435133D01*
X166221378Y-98350000D01*
X166221378Y-96700000D01*
X166212993Y-96614867D01*
X166198323Y-96566504D01*
X166354828Y-96410000D01*
X166379869Y-96410000D01*
X166400000Y-96411983D01*
X166420131Y-96410000D01*
X166420134Y-96410000D01*
X166432170Y-96408815D01*
X166392165Y-96457561D01*
X166351839Y-96533005D01*
X166327007Y-96614867D01*
X166318622Y-96700000D01*
X166318622Y-98350000D01*
X166327007Y-98435133D01*
X166351839Y-98516995D01*
X166392165Y-98592439D01*
X166446434Y-98658566D01*
X166512561Y-98712835D01*
X166588005Y-98753161D01*
X166669867Y-98777993D01*
X166755000Y-98786378D01*
X167055000Y-98786378D01*
X167140133Y-98777993D01*
X167221995Y-98753161D01*
X167297439Y-98712835D01*
X167363566Y-98658566D01*
X167417835Y-98592439D01*
X167458161Y-98516995D01*
X167482993Y-98435133D01*
X167491378Y-98350000D01*
X167491378Y-96700000D01*
X167482993Y-96614867D01*
X167458161Y-96533005D01*
X167417835Y-96457561D01*
X167363566Y-96391434D01*
X167297439Y-96337165D01*
X167293389Y-96335000D01*
X167665000Y-96335000D01*
X167665000Y-103840000D01*
X166299891Y-103840000D01*
X166282076Y-103813338D01*
X166186664Y-103717926D01*
X166074471Y-103642961D01*
X166059308Y-103636681D01*
X166093566Y-103608566D01*
X166147835Y-103542439D01*
X166188161Y-103466995D01*
X166212993Y-103385133D01*
X166221378Y-103300000D01*
X166221378Y-101650000D01*
X166318622Y-101650000D01*
X166318622Y-103300000D01*
X166327007Y-103385133D01*
X166351839Y-103466995D01*
X166392165Y-103542439D01*
X166446434Y-103608566D01*
X166512561Y-103662835D01*
X166588005Y-103703161D01*
X166669867Y-103727993D01*
X166755000Y-103736378D01*
X167055000Y-103736378D01*
X167140133Y-103727993D01*
X167221995Y-103703161D01*
X167297439Y-103662835D01*
X167363566Y-103608566D01*
X167417835Y-103542439D01*
X167458161Y-103466995D01*
X167482993Y-103385133D01*
X167491378Y-103300000D01*
X167491378Y-101650000D01*
X167482993Y-101564867D01*
X167458161Y-101483005D01*
X167417835Y-101407561D01*
X167363566Y-101341434D01*
X167297439Y-101287165D01*
X167221995Y-101246839D01*
X167140133Y-101222007D01*
X167055000Y-101213622D01*
X166755000Y-101213622D01*
X166669867Y-101222007D01*
X166588005Y-101246839D01*
X166512561Y-101287165D01*
X166446434Y-101341434D01*
X166392165Y-101407561D01*
X166351839Y-101483005D01*
X166327007Y-101564867D01*
X166318622Y-101650000D01*
X166221378Y-101650000D01*
X166212993Y-101564867D01*
X166188161Y-101483005D01*
X166147835Y-101407561D01*
X166093566Y-101341434D01*
X166027439Y-101287165D01*
X165951995Y-101246839D01*
X165870133Y-101222007D01*
X165785000Y-101213622D01*
X165485000Y-101213622D01*
X165399867Y-101222007D01*
X165318005Y-101246839D01*
X165242561Y-101287165D01*
X165176434Y-101341434D01*
X165122165Y-101407561D01*
X165081839Y-101483005D01*
X165057007Y-101564867D01*
X165048622Y-101650000D01*
X165048622Y-103300000D01*
X165057007Y-103385133D01*
X165081839Y-103466995D01*
X165122165Y-103542439D01*
X165176434Y-103608566D01*
X165225001Y-103648424D01*
X165225001Y-103806265D01*
X165217928Y-103813338D01*
X165142963Y-103925531D01*
X165091327Y-104050193D01*
X165065002Y-104182533D01*
X165065002Y-104317467D01*
X165091327Y-104449807D01*
X165142963Y-104574469D01*
X165217928Y-104686662D01*
X165313340Y-104782074D01*
X165425533Y-104857039D01*
X165550195Y-104908675D01*
X165682535Y-104935000D01*
X165817469Y-104935000D01*
X165949809Y-104908675D01*
X166074471Y-104857039D01*
X166186664Y-104782074D01*
X166282076Y-104686662D01*
X166299891Y-104660000D01*
X167665000Y-104660000D01*
X167665000Y-107915000D01*
X167357453Y-107915000D01*
X167324469Y-107892961D01*
X167199807Y-107841325D01*
X167067467Y-107815000D01*
X166932533Y-107815000D01*
X166800193Y-107841325D01*
X166675531Y-107892961D01*
X166642547Y-107915000D01*
X166357453Y-107915000D01*
X166324469Y-107892961D01*
X166199807Y-107841325D01*
X166067467Y-107815000D01*
X165932533Y-107815000D01*
X165800193Y-107841325D01*
X165675531Y-107892961D01*
X165642547Y-107915000D01*
X164835000Y-107915000D01*
X164835000Y-106250000D01*
X164833367Y-106233417D01*
X164828530Y-106217472D01*
X164820675Y-106202777D01*
X164810104Y-106189896D01*
X164797223Y-106179325D01*
X164782528Y-106171470D01*
X164766583Y-106166633D01*
X164750000Y-106165000D01*
X162335000Y-106165000D01*
X162335000Y-104410000D01*
X162450111Y-104410000D01*
X162467926Y-104436662D01*
X162563338Y-104532074D01*
X162675531Y-104607039D01*
X162800193Y-104658675D01*
X162932533Y-104685000D01*
X163067467Y-104685000D01*
X163199807Y-104658675D01*
X163324469Y-104607039D01*
X163436662Y-104532074D01*
X163532074Y-104436662D01*
X163607039Y-104324469D01*
X163625000Y-104281107D01*
X163642961Y-104324469D01*
X163717926Y-104436662D01*
X163813338Y-104532074D01*
X163925531Y-104607039D01*
X164050193Y-104658675D01*
X164182533Y-104685000D01*
X164317467Y-104685000D01*
X164449807Y-104658675D01*
X164574469Y-104607039D01*
X164686662Y-104532074D01*
X164782074Y-104436662D01*
X164857039Y-104324469D01*
X164908675Y-104199807D01*
X164935000Y-104067467D01*
X164935000Y-103932533D01*
X164908675Y-103800193D01*
X164857039Y-103675531D01*
X164816286Y-103614540D01*
X164823566Y-103608566D01*
X164877835Y-103542439D01*
X164918161Y-103466995D01*
X164942993Y-103385133D01*
X164951378Y-103300000D01*
X164951378Y-101650000D01*
X164942993Y-101564867D01*
X164918161Y-101483005D01*
X164877835Y-101407561D01*
X164823566Y-101341434D01*
X164757439Y-101287165D01*
X164681995Y-101246839D01*
X164600133Y-101222007D01*
X164515000Y-101213622D01*
X164215000Y-101213622D01*
X164129867Y-101222007D01*
X164048005Y-101246839D01*
X163972561Y-101287165D01*
X163906434Y-101341434D01*
X163852165Y-101407561D01*
X163811839Y-101483005D01*
X163787007Y-101564867D01*
X163778622Y-101650000D01*
X163778622Y-103300000D01*
X163787007Y-103385133D01*
X163811839Y-103466995D01*
X163812685Y-103468579D01*
X163717926Y-103563338D01*
X163642961Y-103675531D01*
X163625000Y-103718893D01*
X163607039Y-103675531D01*
X163558377Y-103602704D01*
X163607835Y-103542439D01*
X163648161Y-103466995D01*
X163672993Y-103385133D01*
X163681378Y-103300000D01*
X163681378Y-101650000D01*
X163672993Y-101564867D01*
X163648161Y-101483005D01*
X163607835Y-101407561D01*
X163553566Y-101341434D01*
X163487439Y-101287165D01*
X163411995Y-101246839D01*
X163330133Y-101222007D01*
X163245000Y-101213622D01*
X162945000Y-101213622D01*
X162859867Y-101222007D01*
X162778005Y-101246839D01*
X162702561Y-101287165D01*
X162636434Y-101341434D01*
X162582165Y-101407561D01*
X162541839Y-101483005D01*
X162517007Y-101564867D01*
X162508622Y-101650000D01*
X162508622Y-103300000D01*
X162517007Y-103385133D01*
X162541839Y-103466995D01*
X162549652Y-103481612D01*
X162467926Y-103563338D01*
X162450111Y-103590000D01*
X162335000Y-103590000D01*
X162335000Y-97344827D01*
X162508622Y-97518449D01*
X162508622Y-98350000D01*
X162517007Y-98435133D01*
X162541839Y-98516995D01*
X162582165Y-98592439D01*
X162636434Y-98658566D01*
X162702561Y-98712835D01*
X162778005Y-98753161D01*
X162859867Y-98777993D01*
X162945000Y-98786378D01*
X163245000Y-98786378D01*
X163330133Y-98777993D01*
X163411995Y-98753161D01*
X163487439Y-98712835D01*
X163553566Y-98658566D01*
X163607835Y-98592439D01*
X163648161Y-98516995D01*
X163672993Y-98435133D01*
X163681378Y-98350000D01*
X163681378Y-96700000D01*
X163672993Y-96614867D01*
X163648161Y-96533005D01*
X163607835Y-96457561D01*
X163553566Y-96391434D01*
X163487439Y-96337165D01*
X163483389Y-96335000D01*
X165246611Y-96335000D01*
X165242561Y-96337165D01*
G37*
%TD.AperFunction*%
%TD*%
D27*
%TO.N,+3V3*%
X168665000Y-87377194D02*
X168647860Y-87368033D01*
X168575379Y-87346046D01*
X168500000Y-87338622D01*
X167225000Y-87338622D01*
X167149621Y-87346046D01*
X167077140Y-87368033D01*
X167010340Y-87403738D01*
X166951789Y-87451789D01*
X166903738Y-87510340D01*
X166868033Y-87577140D01*
X166846046Y-87649621D01*
X166838622Y-87725000D01*
X166838622Y-87925000D01*
X166846046Y-88000379D01*
X166868033Y-88072860D01*
X166903738Y-88139660D01*
X166912224Y-88150000D01*
X166903738Y-88160340D01*
X166868033Y-88227140D01*
X166846046Y-88299621D01*
X166838622Y-88375000D01*
X166838622Y-88575000D01*
X166846046Y-88650379D01*
X166868033Y-88722860D01*
X166903738Y-88789660D01*
X166912224Y-88800000D01*
X166903738Y-88810340D01*
X166868033Y-88877140D01*
X166846046Y-88949621D01*
X166838622Y-89025000D01*
X166838622Y-89225000D01*
X166846046Y-89300379D01*
X166868033Y-89372860D01*
X166903738Y-89439660D01*
X166912224Y-89450000D01*
X166903738Y-89460340D01*
X166868033Y-89527140D01*
X166846046Y-89599621D01*
X166838622Y-89675000D01*
X166838622Y-89705103D01*
X166809254Y-89719664D01*
X166716735Y-89790973D01*
X166639905Y-89878961D01*
X166581717Y-89980248D01*
X166544407Y-90090940D01*
X166532000Y-90161750D01*
X166680250Y-90310000D01*
X167693500Y-90310000D01*
X167693500Y-90261378D01*
X168031500Y-90261378D01*
X168031500Y-90310000D01*
X168051500Y-90310000D01*
X168051500Y-90540000D01*
X168031500Y-90540000D01*
X168031500Y-90588622D01*
X167693500Y-90588622D01*
X167693500Y-90540000D01*
X166680250Y-90540000D01*
X166532000Y-90688250D01*
X166544407Y-90759060D01*
X166554446Y-90788845D01*
X166545846Y-90799326D01*
X166523915Y-90821256D01*
X166492465Y-90815000D01*
X166357531Y-90815000D01*
X166225191Y-90841325D01*
X166100529Y-90892961D01*
X165988336Y-90967926D01*
X165892924Y-91063338D01*
X165817959Y-91175531D01*
X165766323Y-91300193D01*
X165739998Y-91432533D01*
X165739998Y-91567467D01*
X165766323Y-91699807D01*
X165817959Y-91824469D01*
X165892924Y-91936662D01*
X165988336Y-92032074D01*
X166100529Y-92107039D01*
X166225191Y-92158675D01*
X166357531Y-92185000D01*
X166492465Y-92185000D01*
X166586537Y-92166287D01*
X166680250Y-92260000D01*
X167693500Y-92260000D01*
X167693500Y-92211378D01*
X168031500Y-92211378D01*
X168031500Y-92260000D01*
X168051500Y-92260000D01*
X168051500Y-92490000D01*
X168031500Y-92490000D01*
X168031500Y-92538622D01*
X167693500Y-92538622D01*
X167693500Y-92490000D01*
X166680250Y-92490000D01*
X166532000Y-92638250D01*
X166544407Y-92709060D01*
X166581717Y-92819752D01*
X166639905Y-92921039D01*
X166716735Y-93009027D01*
X166809254Y-93080336D01*
X166838622Y-93094897D01*
X166838622Y-93125000D01*
X166846046Y-93200379D01*
X166868033Y-93272860D01*
X166903738Y-93339660D01*
X166912224Y-93350000D01*
X166903738Y-93360340D01*
X166868033Y-93427140D01*
X166846046Y-93499621D01*
X166838622Y-93575000D01*
X166838622Y-93775000D01*
X166846046Y-93850379D01*
X166868033Y-93922860D01*
X166903738Y-93989660D01*
X166932710Y-94024963D01*
X166874326Y-94083348D01*
X166858685Y-94096184D01*
X166845850Y-94111824D01*
X166807449Y-94158615D01*
X166804036Y-94165000D01*
X163610010Y-94165000D01*
X163610010Y-92769084D01*
X163611993Y-92748952D01*
X163606153Y-92689660D01*
X163604077Y-92668578D01*
X163580633Y-92591293D01*
X163562911Y-92558138D01*
X163542561Y-92520066D01*
X163504160Y-92473275D01*
X163491326Y-92457636D01*
X163475684Y-92444799D01*
X163130214Y-92099330D01*
X163117374Y-92083684D01*
X163101992Y-92071061D01*
X163096262Y-92060340D01*
X163087776Y-92050000D01*
X163096262Y-92039660D01*
X163131967Y-91972860D01*
X163153954Y-91900379D01*
X163161378Y-91825000D01*
X163161378Y-91625000D01*
X163153954Y-91549621D01*
X163131967Y-91477140D01*
X163096262Y-91410340D01*
X163087776Y-91400000D01*
X163096262Y-91389660D01*
X163131967Y-91322860D01*
X163153954Y-91250379D01*
X163161378Y-91175000D01*
X163161378Y-91144897D01*
X163190746Y-91130336D01*
X163283265Y-91059027D01*
X163360095Y-90971039D01*
X163418283Y-90869752D01*
X163455593Y-90759060D01*
X163468000Y-90688250D01*
X163319750Y-90540000D01*
X162306500Y-90540000D01*
X162306500Y-90588622D01*
X161968500Y-90588622D01*
X161968500Y-90540000D01*
X161948500Y-90540000D01*
X161948500Y-90310000D01*
X161968500Y-90310000D01*
X161968500Y-90261378D01*
X162306500Y-90261378D01*
X162306500Y-90310000D01*
X163319750Y-90310000D01*
X163468000Y-90161750D01*
X163455593Y-90090940D01*
X163418283Y-89980248D01*
X163360095Y-89878961D01*
X163332978Y-89847906D01*
X163550676Y-89630209D01*
X163566316Y-89617374D01*
X163595373Y-89581967D01*
X163617551Y-89554944D01*
X163637901Y-89516872D01*
X163655623Y-89483717D01*
X163679067Y-89406432D01*
X163685000Y-89346192D01*
X163685000Y-89346190D01*
X163686983Y-89326058D01*
X163685000Y-89305926D01*
X163685000Y-87335000D01*
X168665000Y-87335000D01*
X168665000Y-87377194D01*
%TA.AperFunction,Conductor*%
D26*
G36*
X168665000Y-87377194D02*
G01*
X168647860Y-87368033D01*
X168575379Y-87346046D01*
X168500000Y-87338622D01*
X167225000Y-87338622D01*
X167149621Y-87346046D01*
X167077140Y-87368033D01*
X167010340Y-87403738D01*
X166951789Y-87451789D01*
X166903738Y-87510340D01*
X166868033Y-87577140D01*
X166846046Y-87649621D01*
X166838622Y-87725000D01*
X166838622Y-87925000D01*
X166846046Y-88000379D01*
X166868033Y-88072860D01*
X166903738Y-88139660D01*
X166912224Y-88150000D01*
X166903738Y-88160340D01*
X166868033Y-88227140D01*
X166846046Y-88299621D01*
X166838622Y-88375000D01*
X166838622Y-88575000D01*
X166846046Y-88650379D01*
X166868033Y-88722860D01*
X166903738Y-88789660D01*
X166912224Y-88800000D01*
X166903738Y-88810340D01*
X166868033Y-88877140D01*
X166846046Y-88949621D01*
X166838622Y-89025000D01*
X166838622Y-89225000D01*
X166846046Y-89300379D01*
X166868033Y-89372860D01*
X166903738Y-89439660D01*
X166912224Y-89450000D01*
X166903738Y-89460340D01*
X166868033Y-89527140D01*
X166846046Y-89599621D01*
X166838622Y-89675000D01*
X166838622Y-89705103D01*
X166809254Y-89719664D01*
X166716735Y-89790973D01*
X166639905Y-89878961D01*
X166581717Y-89980248D01*
X166544407Y-90090940D01*
X166532000Y-90161750D01*
X166680250Y-90310000D01*
X167693500Y-90310000D01*
X167693500Y-90261378D01*
X168031500Y-90261378D01*
X168031500Y-90310000D01*
X168051500Y-90310000D01*
X168051500Y-90540000D01*
X168031500Y-90540000D01*
X168031500Y-90588622D01*
X167693500Y-90588622D01*
X167693500Y-90540000D01*
X166680250Y-90540000D01*
X166532000Y-90688250D01*
X166544407Y-90759060D01*
X166554446Y-90788845D01*
X166545846Y-90799326D01*
X166523915Y-90821256D01*
X166492465Y-90815000D01*
X166357531Y-90815000D01*
X166225191Y-90841325D01*
X166100529Y-90892961D01*
X165988336Y-90967926D01*
X165892924Y-91063338D01*
X165817959Y-91175531D01*
X165766323Y-91300193D01*
X165739998Y-91432533D01*
X165739998Y-91567467D01*
X165766323Y-91699807D01*
X165817959Y-91824469D01*
X165892924Y-91936662D01*
X165988336Y-92032074D01*
X166100529Y-92107039D01*
X166225191Y-92158675D01*
X166357531Y-92185000D01*
X166492465Y-92185000D01*
X166586537Y-92166287D01*
X166680250Y-92260000D01*
X167693500Y-92260000D01*
X167693500Y-92211378D01*
X168031500Y-92211378D01*
X168031500Y-92260000D01*
X168051500Y-92260000D01*
X168051500Y-92490000D01*
X168031500Y-92490000D01*
X168031500Y-92538622D01*
X167693500Y-92538622D01*
X167693500Y-92490000D01*
X166680250Y-92490000D01*
X166532000Y-92638250D01*
X166544407Y-92709060D01*
X166581717Y-92819752D01*
X166639905Y-92921039D01*
X166716735Y-93009027D01*
X166809254Y-93080336D01*
X166838622Y-93094897D01*
X166838622Y-93125000D01*
X166846046Y-93200379D01*
X166868033Y-93272860D01*
X166903738Y-93339660D01*
X166912224Y-93350000D01*
X166903738Y-93360340D01*
X166868033Y-93427140D01*
X166846046Y-93499621D01*
X166838622Y-93575000D01*
X166838622Y-93775000D01*
X166846046Y-93850379D01*
X166868033Y-93922860D01*
X166903738Y-93989660D01*
X166932710Y-94024963D01*
X166874326Y-94083348D01*
X166858685Y-94096184D01*
X166845850Y-94111824D01*
X166807449Y-94158615D01*
X166804036Y-94165000D01*
X163610010Y-94165000D01*
X163610010Y-92769084D01*
X163611993Y-92748952D01*
X163606153Y-92689660D01*
X163604077Y-92668578D01*
X163580633Y-92591293D01*
X163562911Y-92558138D01*
X163542561Y-92520066D01*
X163504160Y-92473275D01*
X163491326Y-92457636D01*
X163475684Y-92444799D01*
X163130214Y-92099330D01*
X163117374Y-92083684D01*
X163101992Y-92071061D01*
X163096262Y-92060340D01*
X163087776Y-92050000D01*
X163096262Y-92039660D01*
X163131967Y-91972860D01*
X163153954Y-91900379D01*
X163161378Y-91825000D01*
X163161378Y-91625000D01*
X163153954Y-91549621D01*
X163131967Y-91477140D01*
X163096262Y-91410340D01*
X163087776Y-91400000D01*
X163096262Y-91389660D01*
X163131967Y-91322860D01*
X163153954Y-91250379D01*
X163161378Y-91175000D01*
X163161378Y-91144897D01*
X163190746Y-91130336D01*
X163283265Y-91059027D01*
X163360095Y-90971039D01*
X163418283Y-90869752D01*
X163455593Y-90759060D01*
X163468000Y-90688250D01*
X163319750Y-90540000D01*
X162306500Y-90540000D01*
X162306500Y-90588622D01*
X161968500Y-90588622D01*
X161968500Y-90540000D01*
X161948500Y-90540000D01*
X161948500Y-90310000D01*
X161968500Y-90310000D01*
X161968500Y-90261378D01*
X162306500Y-90261378D01*
X162306500Y-90310000D01*
X163319750Y-90310000D01*
X163468000Y-90161750D01*
X163455593Y-90090940D01*
X163418283Y-89980248D01*
X163360095Y-89878961D01*
X163332978Y-89847906D01*
X163550676Y-89630209D01*
X163566316Y-89617374D01*
X163595373Y-89581967D01*
X163617551Y-89554944D01*
X163637901Y-89516872D01*
X163655623Y-89483717D01*
X163679067Y-89406432D01*
X163685000Y-89346192D01*
X163685000Y-89346190D01*
X163686983Y-89326058D01*
X163685000Y-89305926D01*
X163685000Y-87335000D01*
X168665000Y-87335000D01*
X168665000Y-87377194D01*
G37*
%TD.AperFunction*%
%TD*%
M02*
